<svg width="34" height="25" viewBox="0 0 34 25" fill="none" xmlns="http://www.w3.org/2000/svg">
<path d="M12.672 16.92C12.732 17.064 12.762 17.184 12.762 17.28C12.762 17.508 12.666 17.7 12.474 17.856C12.294 18.012 12.09 18.09 11.862 18.09C11.706 18.09 11.556 18.048 11.412 17.964C11.28 17.868 11.178 17.736 11.106 17.568L9.918 14.868H3.33L2.142 17.568C2.07 17.736 1.962 17.868 1.818 17.964C1.674 18.048 1.524 18.09 1.368 18.09C1.128 18.09 0.912 18.012 0.72 17.856C0.54 17.7 0.45 17.508 0.45 17.28C0.45 17.184 0.48 17.064 0.54 16.92L5.616 5.814C5.7 5.622 5.832 5.472 6.012 5.364C6.204 5.256 6.402 5.202 6.606 5.202C6.81 5.202 7.002 5.256 7.182 5.364C7.374 5.472 7.512 5.622 7.596 5.814L12.672 16.92ZM3.996 13.392H9.27L6.624 7.434L3.996 13.392ZM21.7508 9.036C22.0268 9.036 22.2428 9.12 22.3988 9.288C22.5668 9.444 22.6508 9.654 22.6508 9.918V17.298C22.6508 18.642 22.2908 19.656 21.5708 20.34C20.8628 21.024 19.8128 21.366 18.4208 21.366C17.1248 21.366 16.0448 21.12 15.1808 20.628C14.7368 20.376 14.5148 20.076 14.5148 19.728C14.5148 19.524 14.5688 19.356 14.6768 19.224C14.7968 19.092 14.9408 19.026 15.1088 19.026C15.2648 19.026 15.5108 19.116 15.8468 19.296C16.2788 19.5 16.6808 19.656 17.0528 19.764C17.4248 19.884 17.8688 19.944 18.3848 19.944C20.0408 19.944 20.8688 19.11 20.8688 17.442V16.056C20.6168 16.584 20.2328 16.998 19.7168 17.298C19.2008 17.586 18.6008 17.73 17.9168 17.73C17.1488 17.73 16.4648 17.55 15.8647 17.19C15.2648 16.83 14.7968 16.32 14.4608 15.66C14.1368 15 13.9748 14.238 13.9748 13.374C13.9748 12.51 14.1428 11.748 14.4788 11.088C14.8148 10.428 15.2768 9.918 15.8647 9.558C16.4648 9.186 17.1488 9 17.9168 9C18.5888 9 19.1768 9.144 19.6808 9.432C20.1968 9.72 20.5868 10.128 20.8508 10.656V9.9C20.8508 9.636 20.9288 9.426 21.0848 9.27C21.2528 9.114 21.4748 9.036 21.7508 9.036ZM18.3488 16.29C19.1288 16.29 19.7408 16.032 20.1848 15.516C20.6288 15 20.8508 14.286 20.8508 13.374C20.8508 12.474 20.6288 11.766 20.1848 11.25C19.7528 10.722 19.1408 10.458 18.3488 10.458C17.5568 10.458 16.9328 10.716 16.4768 11.232C16.0328 11.748 15.8108 12.462 15.8108 13.374C15.8108 14.286 16.0388 15 16.4948 15.516C16.9508 16.032 17.5688 16.29 18.3488 16.29ZM32.0598 15.786C32.2278 15.786 32.3658 15.852 32.4738 15.984C32.5818 16.116 32.6358 16.284 32.6358 16.488C32.6358 16.836 32.4198 17.13 31.9878 17.37C31.5678 17.61 31.1058 17.796 30.6018 17.928C30.1098 18.06 29.6358 18.126 29.1798 18.126C27.7878 18.126 26.6898 17.724 25.8858 16.92C25.0818 16.104 24.6798 14.994 24.6798 13.59C24.6798 12.69 24.8538 11.892 25.2018 11.196C25.5618 10.5 26.0598 9.96 26.6958 9.576C27.3438 9.192 28.0758 9 28.8918 9C30.0678 9 30.9978 9.378 31.6818 10.134C32.3658 10.89 32.7078 11.91 32.7078 13.194C32.7078 13.674 32.4918 13.914 32.0598 13.914H26.4978C26.6178 15.774 27.5118 16.704 29.1798 16.704C29.6238 16.704 30.0078 16.644 30.3318 16.524C30.6558 16.404 30.9978 16.248 31.3578 16.056C31.3938 16.032 31.4898 15.984 31.6458 15.912C31.8138 15.828 31.9518 15.786 32.0598 15.786ZM28.9278 10.332C28.2318 10.332 27.6738 10.554 27.2538 10.998C26.8338 11.442 26.5818 12.066 26.4978 12.87H31.1418C31.1058 12.054 30.8958 11.43 30.5118 10.998C30.1398 10.554 29.6118 10.332 28.9278 10.332Z" fill="white"/>
</svg>
