<svg width="60" height="25" viewBox="0 0 60 25" fill="none" xmlns="http://www.w3.org/2000/svg">
<path d="M11.016 11.268C11.244 11.268 11.424 11.334 11.556 11.466C11.7 11.598 11.772 11.778 11.772 12.006V16.218C11.772 16.626 11.712 16.92 11.592 17.1C11.484 17.28 11.262 17.424 10.926 17.532C10.446 17.724 9.876 17.874 9.216 17.982C8.556 18.09 7.902 18.144 7.254 18.144C5.97 18.144 4.86 17.886 3.924 17.37C2.988 16.854 2.274 16.11 1.782 15.138C1.29 14.166 1.044 13.002 1.044 11.646C1.044 10.314 1.29 9.162 1.782 8.19C2.274 7.218 2.976 6.474 3.888 5.958C4.812 5.43 5.892 5.166 7.128 5.166C7.968 5.166 8.742 5.292 9.45 5.544C10.17 5.784 10.782 6.138 11.286 6.606C11.526 6.798 11.646 7.038 11.646 7.326C11.646 7.542 11.586 7.728 11.466 7.884C11.346 8.028 11.202 8.1 11.034 8.1C10.926 8.1 10.83 8.082 10.746 8.046C10.662 8.01 10.554 7.95 10.422 7.866C9.834 7.434 9.3 7.134 8.82 6.966C8.34 6.786 7.788 6.696 7.164 6.696C5.796 6.696 4.752 7.122 4.032 7.974C3.312 8.814 2.952 10.038 2.952 11.646C2.952 13.29 3.318 14.538 4.05 15.39C4.794 16.23 5.88 16.65 7.308 16.65C8.268 16.65 9.192 16.506 10.08 16.218V12.672H7.722C7.482 12.672 7.29 12.612 7.146 12.492C7.014 12.36 6.948 12.186 6.948 11.97C6.948 11.754 7.014 11.586 7.146 11.466C7.29 11.334 7.482 11.268 7.722 11.268H11.016ZM21.2317 15.786C21.3997 15.786 21.5377 15.852 21.6457 15.984C21.7537 16.116 21.8077 16.284 21.8077 16.488C21.8077 16.836 21.5917 17.13 21.1597 17.37C20.7397 17.61 20.2777 17.796 19.7737 17.928C19.2817 18.06 18.8077 18.126 18.3517 18.126C16.9597 18.126 15.8617 17.724 15.0577 16.92C14.2537 16.104 13.8517 14.994 13.8517 13.59C13.8517 12.69 14.0257 11.892 14.3737 11.196C14.7337 10.5 15.2317 9.96 15.8677 9.576C16.5157 9.192 17.2477 9 18.0637 9C19.2397 9 20.1697 9.378 20.8537 10.134C21.5377 10.89 21.8797 11.91 21.8797 13.194C21.8797 13.674 21.6637 13.914 21.2317 13.914H15.6697C15.7897 15.774 16.6837 16.704 18.3517 16.704C18.7957 16.704 19.1797 16.644 19.5037 16.524C19.8277 16.404 20.1697 16.248 20.5297 16.056C20.5657 16.032 20.6617 15.984 20.8177 15.912C20.9857 15.828 21.1237 15.786 21.2317 15.786ZM18.0997 10.332C17.4037 10.332 16.8457 10.554 16.4257 10.998C16.0057 11.442 15.7537 12.066 15.6697 12.87H20.3137C20.2777 12.054 20.0677 11.43 19.6837 10.998C19.3117 10.554 18.7837 10.332 18.0997 10.332ZM28.617 9C30.717 9 31.767 10.182 31.767 12.546V17.226C31.767 17.502 31.683 17.718 31.515 17.874C31.359 18.018 31.137 18.09 30.849 18.09C30.573 18.09 30.351 18.012 30.183 17.856C30.027 17.7 29.949 17.49 29.949 17.226V12.636C29.949 11.892 29.799 11.346 29.499 10.998C29.211 10.65 28.755 10.476 28.131 10.476C27.399 10.476 26.811 10.704 26.367 11.16C25.923 11.616 25.701 12.228 25.701 12.996V17.226C25.701 17.49 25.617 17.7 25.449 17.856C25.293 18.012 25.077 18.09 24.801 18.09C24.525 18.09 24.303 18.012 24.135 17.856C23.967 17.7 23.883 17.49 23.883 17.226V9.9C23.883 9.648 23.967 9.444 24.135 9.288C24.315 9.12 24.537 9.036 24.801 9.036C25.065 9.036 25.275 9.114 25.431 9.27C25.587 9.426 25.665 9.63 25.665 9.882V10.62C25.953 10.092 26.355 9.69 26.871 9.414C27.387 9.138 27.969 9 28.617 9ZM41.4361 5.22C41.7121 5.22 41.9341 5.298 42.1021 5.454C42.2701 5.61 42.3541 5.82 42.3541 6.084V17.208C42.3541 17.484 42.2701 17.7 42.1021 17.856C41.9461 18.012 41.7301 18.09 41.4541 18.09C41.1781 18.09 40.9561 18.012 40.7881 17.856C40.6321 17.7 40.5541 17.484 40.5541 17.208V16.488C40.2901 17.016 39.9061 17.424 39.4021 17.712C38.8981 17.988 38.3161 18.126 37.6561 18.126C36.9001 18.126 36.2221 17.934 35.6221 17.55C35.0341 17.166 34.5721 16.626 34.2361 15.93C33.9121 15.234 33.7501 14.436 33.7501 13.536C33.7501 12.624 33.9121 11.826 34.2361 11.142C34.5721 10.458 35.0341 9.93 35.6221 9.558C36.2101 9.186 36.8881 9 37.6561 9C38.3161 9 38.8921 9.144 39.3841 9.432C39.8881 9.708 40.2721 10.104 40.5361 10.62V6.048C40.5361 5.796 40.6141 5.598 40.7701 5.454C40.9381 5.298 41.1601 5.22 41.4361 5.22ZM38.0881 16.686C38.8681 16.686 39.4741 16.416 39.9061 15.876C40.3381 15.336 40.5541 14.568 40.5541 13.572C40.5541 12.576 40.3381 11.808 39.9061 11.268C39.4861 10.728 38.8801 10.458 38.0881 10.458C37.2961 10.458 36.6781 10.728 36.2341 11.268C35.8021 11.796 35.5861 12.552 35.5861 13.536C35.5861 14.52 35.8081 15.294 36.2521 15.858C36.6961 16.41 37.3081 16.686 38.0881 16.686ZM51.7649 15.786C51.9329 15.786 52.0709 15.852 52.1789 15.984C52.2869 16.116 52.3409 16.284 52.3409 16.488C52.3409 16.836 52.1249 17.13 51.6929 17.37C51.2729 17.61 50.8109 17.796 50.3069 17.928C49.8149 18.06 49.3409 18.126 48.8849 18.126C47.4929 18.126 46.3949 17.724 45.5909 16.92C44.7869 16.104 44.3849 14.994 44.3849 13.59C44.3849 12.69 44.5589 11.892 44.9069 11.196C45.2669 10.5 45.7649 9.96 46.4009 9.576C47.0489 9.192 47.7809 9 48.5969 9C49.7729 9 50.7029 9.378 51.3869 10.134C52.0709 10.89 52.4129 11.91 52.4129 13.194C52.4129 13.674 52.1969 13.914 51.7649 13.914H46.2029C46.3229 15.774 47.2169 16.704 48.8849 16.704C49.3289 16.704 49.7129 16.644 50.0369 16.524C50.3609 16.404 50.7029 16.248 51.0629 16.056C51.0989 16.032 51.1949 15.984 51.3509 15.912C51.5189 15.828 51.6569 15.786 51.7649 15.786ZM48.6329 10.332C47.9369 10.332 47.3789 10.554 46.9589 10.998C46.5389 11.442 46.2869 12.066 46.2029 12.87H50.8469C50.8109 12.054 50.6009 11.43 50.2169 10.998C49.8449 10.554 49.3169 10.332 48.6329 10.332ZM59.0243 9.036C59.6003 9 59.8883 9.246 59.8883 9.774C59.8883 10.038 59.8223 10.236 59.6903 10.368C59.5583 10.5 59.3303 10.578 59.0063 10.602L58.4663 10.656C57.7103 10.728 57.1463 10.992 56.7743 11.448C56.4143 11.904 56.2343 12.456 56.2343 13.104V17.226C56.2343 17.514 56.1503 17.73 55.9823 17.874C55.8143 18.018 55.5983 18.09 55.3343 18.09C55.0703 18.09 54.8483 18.018 54.6683 17.874C54.5003 17.73 54.4163 17.514 54.4163 17.226V9.9C54.4163 9.624 54.5003 9.414 54.6683 9.27C54.8483 9.114 55.0703 9.036 55.3343 9.036C55.5743 9.036 55.7723 9.114 55.9283 9.27C56.0963 9.414 56.1803 9.618 56.1803 9.882V10.746C56.4203 10.218 56.7683 9.816 57.2243 9.54C57.6803 9.264 58.1963 9.102 58.7723 9.054L59.0243 9.036Z" fill="white"/>
</svg>
