<svg width="87" height="25" viewBox="0 0 87 25" fill="none" xmlns="http://www.w3.org/2000/svg">
<path d="M9.414 5.544C9.582 5.328 9.792 5.22 10.044 5.22C10.26 5.22 10.452 5.31 10.62 5.49C10.8 5.658 10.89 5.856 10.89 6.084C10.89 6.3 10.818 6.486 10.674 6.642L6.426 11.934V17.154C6.426 17.454 6.336 17.688 6.156 17.856C5.988 18.012 5.766 18.09 5.49 18.09C5.214 18.09 4.992 18.012 4.824 17.856C4.656 17.688 4.572 17.454 4.572 17.154V11.934L0.324 6.642C0.18 6.486 0.108 6.294 0.108 6.066C0.108 5.838 0.192 5.64 0.36 5.472C0.528 5.304 0.726 5.22 0.954 5.22C1.194 5.22 1.404 5.328 1.584 5.544L5.508 10.476L9.414 5.544ZM14.6912 18.126C13.8272 18.126 13.0652 17.94 12.4052 17.568C11.7572 17.196 11.2532 16.668 10.8932 15.984C10.5452 15.288 10.3712 14.484 10.3712 13.572C10.3712 12.648 10.5452 11.844 10.8932 11.16C11.2532 10.464 11.7572 9.93 12.4052 9.558C13.0652 9.186 13.8272 9 14.6912 9C15.5552 9 16.3112 9.186 16.9592 9.558C17.6192 9.93 18.1232 10.464 18.4712 11.16C18.8312 11.844 19.0112 12.648 19.0112 13.572C19.0112 14.484 18.8312 15.288 18.4712 15.984C18.1232 16.668 17.6192 17.196 16.9592 17.568C16.3112 17.94 15.5552 18.126 14.6912 18.126ZM14.6912 16.686C15.4952 16.686 16.1072 16.422 16.5272 15.894C16.9592 15.366 17.1752 14.592 17.1752 13.572C17.1752 12.564 16.9592 11.796 16.5272 11.268C16.0952 10.728 15.4832 10.458 14.6912 10.458C13.8992 10.458 13.2872 10.728 12.8552 11.268C12.4232 11.796 12.2072 12.564 12.2072 13.572C12.2072 14.592 12.4172 15.366 12.8372 15.894C13.2692 16.422 13.8872 16.686 14.6912 16.686ZM27.8394 9.036C28.1154 9.036 28.3314 9.114 28.4874 9.27C28.6554 9.426 28.7394 9.642 28.7394 9.918V17.244C28.7394 17.496 28.6554 17.7 28.4874 17.856C28.3194 18.012 28.0974 18.09 27.8214 18.09C27.5694 18.09 27.3654 18.018 27.2094 17.874C27.0534 17.718 26.9754 17.514 26.9754 17.262V16.578C26.6994 17.082 26.3154 17.466 25.8234 17.73C25.3434 17.994 24.8034 18.126 24.2034 18.126C22.0674 18.126 20.9994 16.95 20.9994 14.598V9.918C20.9994 9.642 21.0774 9.426 21.2334 9.27C21.4014 9.114 21.6294 9.036 21.9174 9.036C22.1934 9.036 22.4094 9.114 22.5654 9.27C22.7334 9.426 22.8174 9.642 22.8174 9.918V14.58C22.8174 15.288 22.9614 15.81 23.2494 16.146C23.5374 16.482 23.9814 16.65 24.5814 16.65C25.2894 16.65 25.8534 16.422 26.2734 15.966C26.7054 15.51 26.9214 14.904 26.9214 14.148V9.918C26.9214 9.654 27.0054 9.444 27.1734 9.288C27.3414 9.12 27.5634 9.036 27.8394 9.036ZM35.8914 9.036C36.4674 9 36.7554 9.246 36.7554 9.774C36.7554 10.038 36.6894 10.236 36.5574 10.368C36.4254 10.5 36.1974 10.578 35.8734 10.602L35.3334 10.656C34.5774 10.728 34.0134 10.992 33.6414 11.448C33.2814 11.904 33.1014 12.456 33.1014 13.104V17.226C33.1014 17.514 33.0174 17.73 32.8494 17.874C32.6814 18.018 32.4654 18.09 32.2014 18.09C31.9374 18.09 31.7154 18.018 31.5354 17.874C31.3674 17.73 31.2834 17.514 31.2834 17.226V9.9C31.2834 9.624 31.3674 9.414 31.5354 9.27C31.7154 9.114 31.9374 9.036 32.2014 9.036C32.4414 9.036 32.6394 9.114 32.7954 9.27C32.9634 9.414 33.0474 9.618 33.0474 9.882V10.746C33.2874 10.218 33.6354 9.816 34.0914 9.54C34.5474 9.264 35.0634 9.102 35.6394 9.054L35.8914 9.036ZM47.3553 9C49.4553 9 50.5053 10.182 50.5053 12.546V17.226C50.5053 17.502 50.4213 17.718 50.2533 17.874C50.0973 18.018 49.8753 18.09 49.5873 18.09C49.3113 18.09 49.0893 18.012 48.9213 17.856C48.7653 17.7 48.6873 17.49 48.6873 17.226V12.636C48.6873 11.892 48.5373 11.346 48.2373 10.998C47.9493 10.65 47.4933 10.476 46.8693 10.476C46.1373 10.476 45.5493 10.704 45.1053 11.16C44.6613 11.616 44.4393 12.228 44.4393 12.996V17.226C44.4393 17.49 44.3553 17.7 44.1873 17.856C44.0313 18.012 43.8153 18.09 43.5393 18.09C43.2633 18.09 43.0413 18.012 42.8733 17.856C42.7053 17.7 42.6213 17.49 42.6213 17.226V9.9C42.6213 9.648 42.7053 9.444 42.8733 9.288C43.0533 9.12 43.2753 9.036 43.5393 9.036C43.8033 9.036 44.0133 9.114 44.1693 9.27C44.3253 9.426 44.4033 9.63 44.4033 9.882V10.62C44.6913 10.092 45.0933 9.69 45.6093 9.414C46.1253 9.138 46.7073 9 47.3553 9ZM56.6824 9C57.8464 9 58.7104 9.294 59.2744 9.882C59.8504 10.47 60.1384 11.364 60.1384 12.564V17.226C60.1384 17.502 60.0604 17.718 59.9044 17.874C59.7484 18.018 59.5324 18.09 59.2564 18.09C58.9924 18.09 58.7824 18.012 58.6264 17.856C58.4704 17.7 58.3924 17.49 58.3924 17.226V16.56C58.1644 17.064 57.8224 17.454 57.3664 17.73C56.9224 17.994 56.4004 18.126 55.8004 18.126C55.2244 18.126 54.6964 18.012 54.2164 17.784C53.7484 17.544 53.3764 17.22 53.1004 16.812C52.8244 16.404 52.6864 15.942 52.6864 15.426C52.6744 14.778 52.8364 14.274 53.1724 13.914C53.5084 13.542 54.0544 13.278 54.8104 13.122C55.5664 12.954 56.6164 12.87 57.9604 12.87H58.3744V12.348C58.3744 11.676 58.2364 11.19 57.9604 10.89C57.6844 10.59 57.2404 10.44 56.6284 10.44C56.2084 10.44 55.8124 10.494 55.4404 10.602C55.0684 10.71 54.6604 10.866 54.2164 11.07C53.8924 11.25 53.6644 11.34 53.5324 11.34C53.3524 11.34 53.2024 11.274 53.0824 11.142C52.9744 11.01 52.9204 10.842 52.9204 10.638C52.9204 10.458 52.9684 10.302 53.0644 10.17C53.1724 10.026 53.3404 9.888 53.5684 9.756C53.9884 9.528 54.4804 9.348 55.0444 9.216C55.6084 9.072 56.1544 9 56.6824 9ZM56.1244 16.776C56.7844 16.776 57.3244 16.554 57.7444 16.11C58.1644 15.654 58.3744 15.072 58.3744 14.364V13.896H58.0504C57.1144 13.896 56.3944 13.938 55.8904 14.022C55.3864 14.106 55.0264 14.25 54.8104 14.454C54.5944 14.646 54.4864 14.928 54.4864 15.3C54.4864 15.732 54.6424 16.086 54.9544 16.362C55.2664 16.638 55.6564 16.776 56.1244 16.776ZM72.7052 9C74.6732 9 75.6572 10.182 75.6572 12.546V17.226C75.6572 17.502 75.5732 17.718 75.4052 17.874C75.2372 18.018 75.0152 18.09 74.7392 18.09C74.4752 18.09 74.2592 18.018 74.0912 17.874C73.9232 17.718 73.8392 17.502 73.8392 17.226V12.564C73.8392 11.832 73.7072 11.304 73.4432 10.98C73.1792 10.644 72.7652 10.476 72.2012 10.476C71.5412 10.476 71.0192 10.704 70.6352 11.16C70.2512 11.604 70.0592 12.216 70.0592 12.996V17.226C70.0592 17.502 69.9752 17.718 69.8072 17.874C69.6392 18.018 69.4172 18.09 69.1412 18.09C68.8772 18.09 68.6612 18.018 68.4932 17.874C68.3252 17.718 68.2412 17.502 68.2412 17.226V12.564C68.2412 11.832 68.1092 11.304 67.8452 10.98C67.5812 10.644 67.1672 10.476 66.6032 10.476C65.9432 10.476 65.4152 10.704 65.0192 11.16C64.6352 11.604 64.4432 12.216 64.4432 12.996V17.226C64.4432 17.502 64.3592 17.718 64.1912 17.874C64.0232 18.018 63.8072 18.09 63.5432 18.09C63.2792 18.09 63.0572 18.018 62.8772 17.874C62.7092 17.718 62.6252 17.502 62.6252 17.226V9.9C62.6252 9.636 62.7152 9.426 62.8952 9.27C63.0752 9.114 63.2912 9.036 63.5432 9.036C63.7952 9.036 63.9992 9.114 64.1552 9.27C64.3232 9.414 64.4072 9.618 64.4072 9.882V10.548C64.6712 10.044 65.0372 9.66 65.5052 9.396C65.9732 9.132 66.5132 9 67.1252 9C67.7972 9 68.3492 9.138 68.7812 9.414C69.2252 9.69 69.5552 10.116 69.7712 10.692C70.0352 10.176 70.4252 9.768 70.9412 9.468C71.4572 9.156 72.0452 9 72.7052 9ZM85.0227 15.786C85.1907 15.786 85.3287 15.852 85.4367 15.984C85.5447 16.116 85.5987 16.284 85.5987 16.488C85.5987 16.836 85.3827 17.13 84.9507 17.37C84.5307 17.61 84.0687 17.796 83.5647 17.928C83.0727 18.06 82.5987 18.126 82.1427 18.126C80.7507 18.126 79.6527 17.724 78.8487 16.92C78.0447 16.104 77.6427 14.994 77.6427 13.59C77.6427 12.69 77.8167 11.892 78.1647 11.196C78.5247 10.5 79.0227 9.96 79.6587 9.576C80.3067 9.192 81.0387 9 81.8547 9C83.0307 9 83.9607 9.378 84.6447 10.134C85.3287 10.89 85.6707 11.91 85.6707 13.194C85.6707 13.674 85.4547 13.914 85.0227 13.914H79.4607C79.5807 15.774 80.4747 16.704 82.1427 16.704C82.5867 16.704 82.9707 16.644 83.2947 16.524C83.6187 16.404 83.9607 16.248 84.3207 16.056C84.3567 16.032 84.4527 15.984 84.6087 15.912C84.7767 15.828 84.9147 15.786 85.0227 15.786ZM81.8907 10.332C81.1947 10.332 80.6367 10.554 80.2167 10.998C79.7967 11.442 79.5447 12.066 79.4607 12.87H84.1047C84.0687 12.054 83.8587 11.43 83.4747 10.998C83.1027 10.554 82.5747 10.332 81.8907 10.332Z" fill="white"/>
</svg>
