<svg width="204" height="46" viewBox="0 0 204 46" fill="none" xmlns="http://www.w3.org/2000/svg">
<path d="M4.522 34C3.978 34 3.54733 33.8527 3.23 33.558C2.93533 33.2407 2.788 32.8213 2.788 32.3V11.73C2.788 11.2087 2.93533 10.8007 3.23 10.506C3.54733 10.1887 3.978 10.03 4.522 10.03H17.034C17.5553 10.03 17.952 10.1547 18.224 10.404C18.5187 10.6533 18.666 11.0047 18.666 11.458C18.666 11.9113 18.5187 12.2627 18.224 12.512C17.952 12.7387 17.5553 12.852 17.034 12.852H6.222V20.4H16.354C16.8753 20.4 17.272 20.5247 17.544 20.774C17.8387 21.0233 17.986 21.3747 17.986 21.828C17.986 22.2813 17.8387 22.6327 17.544 22.882C17.272 23.1313 16.8753 23.256 16.354 23.256H6.222V31.178H17.034C18.122 31.178 18.666 31.6427 18.666 32.572C18.666 33.0253 18.5187 33.3767 18.224 33.626C17.952 33.8753 17.5553 34 17.034 34H4.522ZM36.2427 31.416C36.5827 31.756 36.7527 32.1527 36.7527 32.606C36.7527 33.0367 36.594 33.4107 36.2767 33.728C35.982 34.0227 35.6193 34.17 35.1887 34.17C34.758 34.17 34.3613 33.9773 33.9987 33.592L28.7967 27.744L23.6287 33.592C23.266 33.9773 22.8693 34.17 22.4387 34.17C22.008 34.17 21.634 34.0113 21.3167 33.694C21.022 33.3767 20.8747 33.0027 20.8747 32.572C20.8747 32.1413 21.0333 31.756 21.3507 31.416L26.7227 25.5L21.6227 19.822C21.2827 19.4367 21.1127 19.0513 21.1127 18.666C21.1127 18.2353 21.2713 17.8727 21.5887 17.578C21.906 17.2607 22.2687 17.102 22.6767 17.102C23.1073 17.102 23.504 17.2947 23.8667 17.68L28.7967 23.256L33.7267 17.68C34.0893 17.2947 34.4973 17.102 34.9507 17.102C35.3587 17.102 35.7213 17.2607 36.0387 17.578C36.356 17.8727 36.5147 18.2353 36.5147 18.666C36.5147 19.0967 36.3447 19.482 36.0047 19.822L30.9047 25.5L36.2427 31.416ZM46.9059 34.238C45.2966 34.238 43.8799 33.8867 42.6559 33.184C41.4546 32.4813 40.5139 31.484 39.8339 30.192C39.1766 28.9 38.8479 27.404 38.8479 25.704C38.8479 23.9813 39.1879 22.4627 39.8679 21.148C40.5706 19.8333 41.5453 18.8133 42.7919 18.088C44.0386 17.3627 45.4666 17 47.0759 17C47.9373 17 48.7986 17.1247 49.6599 17.374C50.5439 17.6233 51.3259 17.9633 52.0059 18.394C52.7313 18.8927 53.0939 19.4707 53.0939 20.128C53.0939 20.5133 52.9919 20.842 52.7879 21.114C52.5839 21.3633 52.3233 21.488 52.0059 21.488C51.8019 21.488 51.5979 21.4427 51.3939 21.352C51.1899 21.2387 50.9293 21.08 50.6119 20.876C50.0453 20.5133 49.5126 20.2413 49.0139 20.06C48.5379 19.856 47.9599 19.754 47.2799 19.754C45.7386 19.754 44.5373 20.2753 43.6759 21.318C42.8373 22.3607 42.4179 23.8113 42.4179 25.67C42.4179 27.5287 42.8373 28.968 43.6759 29.988C44.5146 30.9853 45.7046 31.484 47.2459 31.484C47.9259 31.484 48.5266 31.382 49.0479 31.178C49.5693 30.974 50.1019 30.702 50.6459 30.362C50.8953 30.2033 51.1446 30.0673 51.3939 29.954C51.6433 29.8407 51.8699 29.784 52.0739 29.784C52.3913 29.784 52.6519 29.92 52.8559 30.192C53.0599 30.4413 53.1619 30.7587 53.1619 31.144C53.1619 31.4613 53.0713 31.756 52.8899 32.028C52.7313 32.2773 52.4479 32.538 52.0399 32.81C51.3599 33.2633 50.5666 33.6147 49.6599 33.864C48.7533 34.1133 47.8353 34.238 46.9059 34.238ZM65.2115 17C69.1555 17 71.1275 19.2327 71.1275 23.698V32.538C71.1275 33.0367 70.9688 33.4333 70.6515 33.728C70.3341 34.0227 69.9148 34.17 69.3935 34.17C68.8721 34.17 68.4528 34.0227 68.1355 33.728C67.8408 33.4333 67.6935 33.0367 67.6935 32.538V23.732C67.6935 22.372 67.4101 21.3747 66.8435 20.74C66.2995 20.1053 65.4381 19.788 64.2595 19.788C62.8768 19.788 61.7661 20.2187 60.9275 21.08C60.0888 21.9413 59.6695 23.0973 59.6695 24.548V32.538C59.6695 33.0367 59.5108 33.4333 59.1935 33.728C58.8988 34.0227 58.4908 34.17 57.9695 34.17C57.4481 34.17 57.0288 34.0227 56.7115 33.728C56.3941 33.4333 56.2355 33.0367 56.2355 32.538V11.492C56.2355 10.9933 56.3941 10.5967 56.7115 10.302C57.0515 10.0073 57.4821 9.86 58.0035 9.86C58.5021 9.86 58.8988 10.0073 59.1935 10.302C59.5108 10.574 59.6695 10.948 59.6695 11.424V19.924C60.2361 18.972 60.9955 18.2467 61.9475 17.748C62.8995 17.2493 63.9875 17 65.2115 17ZM82.7953 17C84.994 17 86.626 17.5553 87.6913 18.666C88.7793 19.7767 89.3233 21.4653 89.3233 23.732V32.538C89.3233 33.0593 89.176 33.4673 88.8813 33.762C88.5866 34.034 88.1786 34.17 87.6573 34.17C87.1586 34.17 86.762 34.0227 86.4673 33.728C86.1726 33.4333 86.0253 33.0367 86.0253 32.538V31.28C85.5946 32.232 84.9486 32.9687 84.0873 33.49C83.2486 33.9887 82.2626 34.238 81.1293 34.238C80.0413 34.238 79.044 34.0227 78.1373 33.592C77.2533 33.1387 76.5506 32.5267 76.0293 31.756C75.508 30.9853 75.2473 30.1127 75.2473 29.138C75.2246 27.914 75.5306 26.962 76.1653 26.282C76.8 25.5793 77.8313 25.0807 79.2593 24.786C80.6873 24.4687 82.6706 24.31 85.2093 24.31H85.9913V23.324C85.9913 22.0547 85.7306 21.1367 85.2093 20.57C84.688 20.0033 83.8493 19.72 82.6933 19.72C81.9 19.72 81.152 19.822 80.4493 20.026C79.7466 20.23 78.976 20.5247 78.1373 20.91C77.5253 21.25 77.0946 21.42 76.8453 21.42C76.5053 21.42 76.222 21.2953 75.9953 21.046C75.7913 20.7967 75.6893 20.4793 75.6893 20.094C75.6893 19.754 75.78 19.4593 75.9613 19.21C76.1653 18.938 76.4826 18.6773 76.9133 18.428C77.7066 17.9973 78.636 17.6573 79.7013 17.408C80.7666 17.136 81.798 17 82.7953 17ZM81.7413 31.688C82.988 31.688 84.008 31.2687 84.8013 30.43C85.5946 29.5687 85.9913 28.4693 85.9913 27.132V26.248H85.3793C83.6113 26.248 82.2513 26.3273 81.2993 26.486C80.3473 26.6447 79.6673 26.9167 79.2593 27.302C78.8513 27.6647 78.6473 28.1973 78.6473 28.9C78.6473 29.716 78.942 30.3847 79.5313 30.906C80.1206 31.4273 80.8573 31.688 81.7413 31.688ZM102.963 17C106.929 17 108.913 19.2327 108.913 23.698V32.538C108.913 33.0593 108.754 33.4673 108.437 33.762C108.142 34.034 107.723 34.17 107.179 34.17C106.657 34.17 106.238 34.0227 105.921 33.728C105.626 33.4333 105.479 33.0367 105.479 32.538V23.868C105.479 22.4627 105.195 21.4313 104.629 20.774C104.085 20.1167 103.223 19.788 102.045 19.788C100.662 19.788 99.5513 20.2187 98.7126 21.08C97.874 21.9413 97.4546 23.0973 97.4546 24.548V32.538C97.4546 33.0367 97.296 33.4333 96.9786 33.728C96.684 34.0227 96.276 34.17 95.7546 34.17C95.2333 34.17 94.814 34.0227 94.4966 33.728C94.1793 33.4333 94.0206 33.0367 94.0206 32.538V18.7C94.0206 18.224 94.1793 17.8387 94.4966 17.544C94.8366 17.2267 95.256 17.068 95.7546 17.068C96.2533 17.068 96.65 17.2153 96.9446 17.51C97.2393 17.8047 97.3866 18.19 97.3866 18.666V20.06C97.9306 19.0627 98.69 18.3033 99.6646 17.782C100.639 17.2607 101.739 17 102.963 17ZM127.346 17.068C127.868 17.068 128.276 17.2267 128.57 17.544C128.888 17.8387 129.046 18.2353 129.046 18.734V32.674C129.046 35.2127 128.366 37.128 127.006 38.42C125.669 39.712 123.686 40.358 121.056 40.358C118.608 40.358 116.568 39.8933 114.936 38.964C114.098 38.488 113.678 37.9213 113.678 37.264C113.678 36.8787 113.78 36.5613 113.984 36.312C114.211 36.0627 114.483 35.938 114.8 35.938C115.095 35.938 115.56 36.108 116.194 36.448C117.01 36.8333 117.77 37.128 118.472 37.332C119.175 37.5587 120.014 37.672 120.988 37.672C124.116 37.672 125.68 36.0967 125.68 32.946V30.328C125.204 31.3253 124.479 32.1073 123.504 32.674C122.53 33.218 121.396 33.49 120.104 33.49C118.654 33.49 117.362 33.15 116.228 32.47C115.095 31.79 114.211 30.8267 113.576 29.58C112.964 28.3333 112.658 26.894 112.658 25.262C112.658 23.63 112.976 22.1907 113.61 20.944C114.245 19.6973 115.118 18.734 116.228 18.054C117.362 17.3513 118.654 17 120.104 17C121.374 17 122.484 17.272 123.436 17.816C124.411 18.36 125.148 19.1307 125.646 20.128V18.7C125.646 18.2013 125.794 17.8047 126.088 17.51C126.406 17.2153 126.825 17.068 127.346 17.068ZM120.92 30.77C122.394 30.77 123.55 30.2827 124.388 29.308C125.227 28.3333 125.646 26.9847 125.646 25.262C125.646 23.562 125.227 22.2247 124.388 21.25C123.572 20.2527 122.416 19.754 120.92 19.754C119.424 19.754 118.246 20.2413 117.384 21.216C116.546 22.1907 116.126 23.5393 116.126 25.262C116.126 26.9847 116.557 28.3333 117.418 29.308C118.28 30.2827 119.447 30.77 120.92 30.77ZM146.819 29.818C147.137 29.818 147.397 29.9427 147.601 30.192C147.805 30.4413 147.907 30.7587 147.907 31.144C147.907 31.8013 147.499 32.3567 146.683 32.81C145.89 33.2633 145.017 33.6147 144.065 33.864C143.136 34.1133 142.241 34.238 141.379 34.238C138.75 34.238 136.676 33.4787 135.157 31.96C133.639 30.4187 132.879 28.322 132.879 25.67C132.879 23.97 133.208 22.4627 133.865 21.148C134.545 19.8333 135.486 18.8133 136.687 18.088C137.911 17.3627 139.294 17 140.835 17C143.057 17 144.813 17.714 146.105 19.142C147.397 20.57 148.043 22.4967 148.043 24.922C148.043 25.8287 147.635 26.282 146.819 26.282H136.313C136.54 29.7953 138.229 31.552 141.379 31.552C142.218 31.552 142.943 31.4387 143.555 31.212C144.167 30.9853 144.813 30.6907 145.493 30.328C145.561 30.2827 145.743 30.192 146.037 30.056C146.355 29.8973 146.615 29.818 146.819 29.818ZM140.903 19.516C139.589 19.516 138.535 19.9353 137.741 20.774C136.948 21.6127 136.472 22.7913 136.313 24.31H145.085C145.017 22.7687 144.621 21.59 143.895 20.774C143.193 19.9353 142.195 19.516 140.903 19.516ZM162.526 34.17C162.027 34.17 161.608 34.034 161.268 33.762C160.951 33.49 160.792 33.082 160.792 32.538V11.526C160.792 10.982 160.951 10.574 161.268 10.302C161.608 10.0073 162.027 9.86 162.526 9.86C163.025 9.86 163.433 10.0073 163.75 10.302C164.067 10.574 164.226 10.982 164.226 11.526V32.538C164.226 33.082 164.067 33.49 163.75 33.762C163.433 34.034 163.025 34.17 162.526 34.17ZM170.76 34.17C170.262 34.17 169.842 34.034 169.502 33.762C169.185 33.49 169.026 33.082 169.026 32.538V18.734C169.026 18.19 169.185 17.782 169.502 17.51C169.842 17.2153 170.262 17.068 170.76 17.068C171.259 17.068 171.667 17.2153 171.984 17.51C172.302 17.782 172.46 18.19 172.46 18.734V32.538C172.46 33.082 172.302 33.49 171.984 33.762C171.667 34.034 171.259 34.17 170.76 34.17ZM170.76 13.736C170.103 13.736 169.582 13.5547 169.196 13.192C168.811 12.8293 168.618 12.3533 168.618 11.764C168.618 11.1747 168.811 10.71 169.196 10.37C169.582 10.0073 170.103 9.826 170.76 9.826C171.395 9.826 171.905 10.0073 172.29 10.37C172.698 10.71 172.902 11.1747 172.902 11.764C172.902 12.3533 172.71 12.8293 172.324 13.192C171.939 13.5547 171.418 13.736 170.76 13.736ZM183.041 34.238C180.729 34.238 178.836 33.762 177.363 32.81C176.955 32.5607 176.66 32.3 176.479 32.028C176.32 31.756 176.241 31.45 176.241 31.11C176.241 30.7473 176.343 30.4413 176.547 30.192C176.751 29.9427 177.012 29.818 177.329 29.818C177.624 29.818 178.088 29.9993 178.723 30.362C179.403 30.7247 180.06 31.0193 180.695 31.246C181.352 31.4727 182.168 31.586 183.143 31.586C184.231 31.586 185.081 31.3933 185.693 31.008C186.305 30.6227 186.611 30.0787 186.611 29.376C186.611 28.9227 186.486 28.56 186.237 28.288C186.01 28.016 185.602 27.778 185.013 27.574C184.424 27.3473 183.551 27.1093 182.395 26.86C180.4 26.4293 178.961 25.8513 178.077 25.126C177.216 24.378 176.785 23.3693 176.785 22.1C176.785 21.1253 177.068 20.2527 177.635 19.482C178.202 18.6887 178.984 18.0767 179.981 17.646C180.978 17.2153 182.112 17 183.381 17C184.288 17 185.172 17.1247 186.033 17.374C186.894 17.6007 187.654 17.9407 188.311 18.394C189.059 18.8927 189.433 19.4707 189.433 20.128C189.433 20.4907 189.32 20.7967 189.093 21.046C188.889 21.2953 188.64 21.42 188.345 21.42C188.141 21.42 187.937 21.3747 187.733 21.284C187.529 21.1933 187.257 21.046 186.917 20.842C186.305 20.4793 185.727 20.196 185.183 19.992C184.662 19.788 184.004 19.686 183.211 19.686C182.259 19.686 181.488 19.89 180.899 20.298C180.332 20.706 180.049 21.2613 180.049 21.964C180.049 22.5987 180.31 23.0973 180.831 23.46C181.375 23.8 182.384 24.1287 183.857 24.446C185.376 24.7633 186.566 25.126 187.427 25.534C188.288 25.942 188.9 26.452 189.263 27.064C189.648 27.6533 189.841 28.4127 189.841 29.342C189.841 30.8153 189.218 32.0053 187.971 32.912C186.747 33.796 185.104 34.238 183.041 34.238ZM201.623 31.552C202.122 31.5973 202.473 31.7333 202.677 31.96C202.904 32.164 203.017 32.4587 203.017 32.844C203.017 33.2973 202.836 33.6487 202.473 33.898C202.133 34.1247 201.623 34.2153 200.943 34.17L200.025 34.102C198.189 33.966 196.818 33.4107 195.911 32.436C195.005 31.4387 194.551 29.9767 194.551 28.05V20.06H192.511C191.514 20.06 191.015 19.618 191.015 18.734C191.015 18.326 191.14 18.0087 191.389 17.782C191.661 17.5327 192.035 17.408 192.511 17.408H194.551V13.906C194.551 13.3847 194.699 12.9767 194.993 12.682C195.311 12.3873 195.73 12.24 196.251 12.24C196.773 12.24 197.192 12.3873 197.509 12.682C197.827 12.9767 197.985 13.3847 197.985 13.906V17.408H201.351C201.827 17.408 202.19 17.5327 202.439 17.782C202.711 18.0087 202.847 18.326 202.847 18.734C202.847 19.1647 202.711 19.4933 202.439 19.72C202.19 19.9467 201.827 20.06 201.351 20.06H197.985V28.288C197.985 29.3533 198.201 30.1353 198.631 30.634C199.085 31.1327 199.765 31.416 200.671 31.484L201.623 31.552Z" fill="black"/>
</svg>
