<svg width="250" height="43" viewBox="0 0 250 43" fill="none" xmlns="http://www.w3.org/2000/svg">
<path d="M26.8792 10.761C27.0492 10.761 27.1852 10.812 27.2872 10.914C27.4005 11.016 27.4572 11.1577 27.4572 11.339V15.572C27.4572 15.844 27.4119 16.048 27.3212 16.184C27.2419 16.32 27.0889 16.4277 26.8622 16.507C26.4089 16.6997 25.8592 16.8527 25.2132 16.966C24.5672 17.0793 23.9212 17.136 23.2752 17.136C22.0852 17.136 21.0595 16.8923 20.1982 16.405C19.3369 15.9177 18.6739 15.215 18.2092 14.297C17.7559 13.379 17.5292 12.2797 17.5292 10.999C17.5292 9.741 17.7559 8.653 18.2092 7.735C18.6625 6.817 19.3142 6.11433 20.1642 5.627C21.0142 5.12833 22.0115 4.879 23.1562 4.879C23.9495 4.879 24.6862 5.00367 25.3662 5.253C26.0462 5.491 26.6185 5.83667 27.0832 6.29C27.2759 6.48267 27.3722 6.681 27.3722 6.885C27.3722 7.04367 27.3269 7.18533 27.2362 7.31C27.1455 7.42333 27.0322 7.48 26.8962 7.48C26.7602 7.48 26.6015 7.412 26.4202 7.276C25.8309 6.82267 25.2982 6.511 24.8222 6.341C24.3462 6.15967 23.7965 6.069 23.1732 6.069C21.8245 6.069 20.7875 6.494 20.0622 7.344C19.3482 8.194 18.9912 9.41233 18.9912 10.999C18.9912 12.6197 19.3539 13.855 20.0792 14.705C20.8159 15.5437 21.8925 15.963 23.3092 15.963C24.3632 15.963 25.3209 15.8043 26.1822 15.487V11.849H23.7002C23.5075 11.849 23.3545 11.798 23.2412 11.696C23.1279 11.594 23.0712 11.4637 23.0712 11.305C23.0712 11.135 23.1279 11.0047 23.2412 10.914C23.3545 10.812 23.5075 10.761 23.7002 10.761H26.8792ZM36.4779 15.079C36.6026 15.079 36.7103 15.13 36.8009 15.232C36.8916 15.334 36.9369 15.4643 36.9369 15.623C36.9369 15.9063 36.7386 16.167 36.3419 16.405C35.9339 16.643 35.5033 16.8243 35.0499 16.949C34.5966 17.0623 34.1546 17.119 33.7239 17.119C32.4433 17.119 31.4289 16.7393 30.6809 15.98C29.9443 15.2207 29.5759 14.1723 29.5759 12.835C29.5759 11.985 29.7403 11.237 30.0689 10.591C30.3976 9.93367 30.8566 9.42367 31.4459 9.061C32.0466 8.69833 32.7266 8.517 33.4859 8.517C34.5626 8.517 35.4183 8.86833 36.0529 9.571C36.6876 10.2737 37.0049 11.2257 37.0049 12.427C37.0049 12.6537 36.9596 12.818 36.8689 12.92C36.7783 13.022 36.6309 13.073 36.4269 13.073H30.9529C31.0549 15.0223 31.9786 15.997 33.7239 15.997C34.1659 15.997 34.5456 15.9403 34.8629 15.827C35.1803 15.7023 35.5203 15.538 35.8829 15.334C36.1776 15.164 36.3759 15.079 36.4779 15.079ZM33.5029 9.588C32.7776 9.588 32.1939 9.81467 31.7519 10.268C31.3213 10.7213 31.0663 11.3617 30.9869 12.189H35.7979C35.7753 11.3503 35.5656 10.71 35.1689 10.268C34.7723 9.81467 34.2169 9.588 33.5029 9.588ZM42.809 15.997C43.2057 16.031 43.404 16.2123 43.404 16.541C43.404 16.7337 43.3303 16.881 43.183 16.983C43.047 17.0737 42.8373 17.1077 42.554 17.085L42.095 17.051C41.1883 16.983 40.5197 16.711 40.089 16.235C39.6583 15.759 39.443 15.0393 39.443 14.076V9.809H38.304C38.1113 9.809 37.9583 9.76367 37.845 9.673C37.743 9.571 37.692 9.44067 37.692 9.282C37.692 9.112 37.743 8.976 37.845 8.874C37.9583 8.772 38.1113 8.721 38.304 8.721H39.443V6.8C39.443 6.58467 39.5053 6.42033 39.63 6.307C39.7547 6.18233 39.9247 6.12 40.14 6.12C40.344 6.12 40.5083 6.18233 40.633 6.307C40.7577 6.42033 40.82 6.58467 40.82 6.8V8.721H42.707C42.8883 8.721 43.03 8.772 43.132 8.874C43.2453 8.976 43.302 9.112 43.302 9.282C43.302 9.44067 43.2453 9.571 43.132 9.673C43.03 9.76367 42.8883 9.809 42.707 9.809H40.82V14.144C40.82 14.7673 40.9447 15.2207 41.194 15.504C41.4547 15.776 41.84 15.929 42.35 15.963L42.809 15.997ZM52.5271 8.517C54.6011 8.517 55.6381 9.605 55.6381 11.781V16.405C55.6381 16.609 55.5758 16.7733 55.4511 16.898C55.3378 17.0227 55.1791 17.085 54.9751 17.085C54.7711 17.085 54.6068 17.0227 54.4821 16.898C54.3575 16.7733 54.2951 16.609 54.2951 16.405V15.589C54.0798 16.0763 53.7511 16.456 53.3091 16.728C52.8671 16.9887 52.3571 17.119 51.7791 17.119C51.2465 17.119 50.7535 17.0113 50.3001 16.796C49.8581 16.5807 49.5068 16.2803 49.2461 15.895C48.9855 15.5097 48.8551 15.0847 48.8551 14.62C48.8551 13.9967 49.0138 13.515 49.3311 13.175C49.6485 12.8237 50.1698 12.5743 50.8951 12.427C51.6205 12.2683 52.6291 12.189 53.9211 12.189H54.2951V11.628C54.2951 10.948 54.1535 10.4493 53.8701 10.132C53.5981 9.81467 53.1505 9.656 52.5271 9.656C51.7565 9.656 50.9745 9.86567 50.1811 10.285C49.8751 10.4777 49.6598 10.574 49.5351 10.574C49.3991 10.574 49.2858 10.523 49.1951 10.421C49.1045 10.319 49.0591 10.1887 49.0591 10.03C49.0591 9.87133 49.1045 9.73533 49.1951 9.622C49.2971 9.49733 49.4558 9.37267 49.6711 9.248C50.0678 9.02133 50.5155 8.84567 51.0141 8.721C51.5241 8.585 52.0285 8.517 52.5271 8.517ZM51.9661 16.031C52.6461 16.031 53.2015 15.8043 53.6321 15.351C54.0741 14.8863 54.2951 14.2913 54.2951 13.566V13.073H53.9891C52.9918 13.073 52.2325 13.1183 51.7111 13.209C51.1898 13.2883 50.8158 13.43 50.5891 13.634C50.3738 13.8267 50.2661 14.1157 50.2661 14.501C50.2661 14.943 50.4248 15.3113 50.7421 15.606C51.0708 15.8893 51.4788 16.031 51.9661 16.031ZM62.3238 8.517C64.3071 8.517 65.2988 9.61067 65.2988 11.798V16.405C65.2988 16.6203 65.2365 16.7903 65.1118 16.915C64.9985 17.0283 64.8341 17.085 64.6188 17.085C64.4035 17.085 64.2335 17.0283 64.1088 16.915C63.9841 16.7903 63.9218 16.6203 63.9218 16.405V11.883C63.9218 11.1123 63.7688 10.5513 63.4628 10.2C63.1681 9.84867 62.6921 9.673 62.0348 9.673C61.2755 9.673 60.6691 9.90533 60.2158 10.37C59.7625 10.8347 59.5358 11.4637 59.5358 12.257V16.405C59.5358 16.6203 59.4735 16.7903 59.3488 16.915C59.2355 17.0283 59.0711 17.085 58.8558 17.085C58.6405 17.085 58.4705 17.0283 58.3458 16.915C58.2211 16.7903 58.1588 16.6203 58.1588 16.405V9.231C58.1588 9.027 58.2211 8.86267 58.3458 8.738C58.4705 8.61333 58.6405 8.551 58.8558 8.551C59.0598 8.551 59.2185 8.61333 59.3318 8.738C59.4565 8.86267 59.5188 9.02133 59.5188 9.214V10.081C59.7908 9.571 60.1705 9.18567 60.6578 8.925C61.1451 8.653 61.7005 8.517 62.3238 8.517ZM75.5867 8.517C77.6607 8.517 78.6977 9.605 78.6977 11.781V16.405C78.6977 16.609 78.6354 16.7733 78.5107 16.898C78.3974 17.0227 78.2387 17.085 78.0347 17.085C77.8307 17.085 77.6664 17.0227 77.5417 16.898C77.417 16.7733 77.3547 16.609 77.3547 16.405V15.589C77.1394 16.0763 76.8107 16.456 76.3687 16.728C75.9267 16.9887 75.4167 17.119 74.8387 17.119C74.306 17.119 73.813 17.0113 73.3597 16.796C72.9177 16.5807 72.5664 16.2803 72.3057 15.895C72.045 15.5097 71.9147 15.0847 71.9147 14.62C71.9147 13.9967 72.0734 13.515 72.3907 13.175C72.708 12.8237 73.2294 12.5743 73.9547 12.427C74.68 12.2683 75.6887 12.189 76.9807 12.189H77.3547V11.628C77.3547 10.948 77.213 10.4493 76.9297 10.132C76.6577 9.81467 76.21 9.656 75.5867 9.656C74.816 9.656 74.034 9.86567 73.2407 10.285C72.9347 10.4777 72.7194 10.574 72.5947 10.574C72.4587 10.574 72.3454 10.523 72.2547 10.421C72.164 10.319 72.1187 10.1887 72.1187 10.03C72.1187 9.87133 72.164 9.73533 72.2547 9.622C72.3567 9.49733 72.5154 9.37267 72.7307 9.248C73.1274 9.02133 73.575 8.84567 74.0737 8.721C74.5837 8.585 75.088 8.517 75.5867 8.517ZM75.0257 16.031C75.7057 16.031 76.261 15.8043 76.6917 15.351C77.1337 14.8863 77.3547 14.2913 77.3547 13.566V13.073H77.0487C76.0514 13.073 75.292 13.1183 74.7707 13.209C74.2494 13.2883 73.8754 13.43 73.6487 13.634C73.4334 13.8267 73.3257 14.1157 73.3257 14.501C73.3257 14.943 73.4844 15.3113 73.8017 15.606C74.1304 15.8893 74.5384 16.031 75.0257 16.031ZM81.9154 17.085C81.7114 17.085 81.5414 17.0283 81.4054 16.915C81.2807 16.7903 81.2184 16.6203 81.2184 16.405V5.61C81.2184 5.39467 81.2807 5.23033 81.4054 5.117C81.5414 4.99233 81.7114 4.93 81.9154 4.93C82.108 4.93 82.2667 4.99233 82.3914 5.117C82.5274 5.23033 82.5954 5.39467 82.5954 5.61V16.405C82.5954 16.6203 82.5274 16.7903 82.3914 16.915C82.2667 17.0283 82.108 17.085 81.9154 17.085ZM91.5785 15.079C91.7032 15.079 91.8109 15.13 91.9015 15.232C91.9922 15.334 92.0375 15.4643 92.0375 15.623C92.0375 15.9063 91.8392 16.167 91.4425 16.405C91.0345 16.643 90.6039 16.8243 90.1505 16.949C89.6972 17.0623 89.2552 17.119 88.8245 17.119C87.5439 17.119 86.5295 16.7393 85.7815 15.98C85.0449 15.2207 84.6765 14.1723 84.6765 12.835C84.6765 11.985 84.8409 11.237 85.1695 10.591C85.4982 9.93367 85.9572 9.42367 86.5465 9.061C87.1472 8.69833 87.8272 8.517 88.5865 8.517C89.6632 8.517 90.5189 8.86833 91.1535 9.571C91.7882 10.2737 92.1055 11.2257 92.1055 12.427C92.1055 12.6537 92.0602 12.818 91.9695 12.92C91.8789 13.022 91.7315 13.073 91.5275 13.073H86.0535C86.1555 15.0223 87.0792 15.997 88.8245 15.997C89.2665 15.997 89.6462 15.9403 89.9635 15.827C90.2809 15.7023 90.6209 15.538 90.9835 15.334C91.2782 15.164 91.4765 15.079 91.5785 15.079ZM88.6035 9.588C87.8782 9.588 87.2945 9.81467 86.8525 10.268C86.4219 10.7213 86.1669 11.3617 86.0875 12.189H90.8985C90.8759 11.3503 90.6662 10.71 90.2695 10.268C89.8729 9.81467 89.3175 9.588 88.6035 9.588ZM98.2314 8.551C98.7074 8.517 98.9454 8.70967 98.9454 9.129C98.9454 9.31033 98.8944 9.45767 98.7924 9.571C98.6904 9.673 98.5147 9.73533 98.2654 9.758L97.7554 9.809C96.996 9.877 96.4294 10.149 96.0554 10.625C95.6927 11.0897 95.5114 11.6393 95.5114 12.274V16.405C95.5114 16.6317 95.449 16.8017 95.3244 16.915C95.1997 17.0283 95.0354 17.085 94.8314 17.085C94.6274 17.085 94.4574 17.0283 94.3214 16.915C94.1967 16.7903 94.1344 16.6203 94.1344 16.405V9.231C94.1344 9.01567 94.2024 8.85133 94.3384 8.738C94.4744 8.61333 94.6387 8.551 94.8314 8.551C95.0127 8.551 95.1657 8.61333 95.2904 8.738C95.415 8.85133 95.4774 9.01 95.4774 9.214V10.166C95.7154 9.66733 96.0497 9.28767 96.4804 9.027C96.9224 8.76633 97.4267 8.61333 97.9934 8.568L98.2314 8.551ZM104.617 15.997C105.013 16.031 105.212 16.2123 105.212 16.541C105.212 16.7337 105.138 16.881 104.991 16.983C104.855 17.0737 104.645 17.1077 104.362 17.085L103.903 17.051C102.996 16.983 102.327 16.711 101.897 16.235C101.466 15.759 101.251 15.0393 101.251 14.076V9.809H100.112C99.9189 9.809 99.7659 9.76367 99.6526 9.673C99.5506 9.571 99.4996 9.44067 99.4996 9.282C99.4996 9.112 99.5506 8.976 99.6526 8.874C99.7659 8.772 99.9189 8.721 100.112 8.721H101.251V6.8C101.251 6.58467 101.313 6.42033 101.438 6.307C101.562 6.18233 101.732 6.12 101.948 6.12C102.152 6.12 102.316 6.18233 102.441 6.307C102.565 6.42033 102.628 6.58467 102.628 6.8V8.721H104.515C104.696 8.721 104.838 8.772 104.94 8.874C105.053 8.976 105.11 9.112 105.11 9.282C105.11 9.44067 105.053 9.571 104.94 9.673C104.838 9.76367 104.696 9.809 104.515 9.809H102.628V14.144C102.628 14.7673 102.752 15.2207 103.002 15.504C103.262 15.776 103.648 15.929 104.158 15.963L104.617 15.997ZM114.607 6.103C114.006 6.14833 113.553 6.341 113.247 6.681C112.941 7.00967 112.788 7.50833 112.788 8.177V8.721H114.675C114.867 8.721 115.015 8.772 115.117 8.874C115.219 8.976 115.27 9.112 115.27 9.282C115.27 9.452 115.219 9.58233 115.117 9.673C115.015 9.76367 114.867 9.809 114.675 9.809H112.788V16.405C112.788 16.6203 112.72 16.7903 112.584 16.915C112.459 17.0283 112.3 17.085 112.108 17.085C111.904 17.085 111.734 17.0283 111.598 16.915C111.473 16.7903 111.411 16.6203 111.411 16.405V9.809H110.272C110.079 9.809 109.926 9.76367 109.813 9.673C109.711 9.571 109.66 9.44067 109.66 9.282C109.66 9.112 109.711 8.976 109.813 8.874C109.926 8.772 110.079 8.721 110.272 8.721H111.411V8.415C111.411 7.395 111.666 6.596 112.176 6.018C112.686 5.42867 113.417 5.1 114.369 5.032L114.811 4.998C115.105 4.97533 115.315 5.00367 115.44 5.083C115.576 5.16233 115.644 5.304 115.644 5.508C115.644 5.83667 115.445 6.02367 115.049 6.069L114.607 6.103ZM119.881 17.119C119.099 17.119 118.408 16.9433 117.807 16.592C117.218 16.2407 116.759 15.742 116.43 15.096C116.113 14.4387 115.954 13.6793 115.954 12.818C115.954 11.9567 116.113 11.203 116.43 10.557C116.759 9.89967 117.218 9.39533 117.807 9.044C118.408 8.69267 119.099 8.517 119.881 8.517C120.663 8.517 121.354 8.69267 121.955 9.044C122.556 9.39533 123.015 9.89967 123.332 10.557C123.661 11.203 123.825 11.9567 123.825 12.818C123.825 13.6793 123.661 14.4387 123.332 15.096C123.015 15.742 122.556 16.2407 121.955 16.592C121.354 16.9433 120.663 17.119 119.881 17.119ZM119.881 15.98C120.697 15.98 121.32 15.7137 121.751 15.181C122.193 14.637 122.414 13.8493 122.414 12.818C122.414 11.8093 122.193 11.033 121.751 10.489C121.309 9.93367 120.686 9.656 119.881 9.656C119.076 9.656 118.453 9.93367 118.011 10.489C117.569 11.033 117.348 11.8093 117.348 12.818C117.348 13.838 117.563 14.62 117.994 15.164C118.436 15.708 119.065 15.98 119.881 15.98ZM129.974 8.551C130.45 8.517 130.688 8.70967 130.688 9.129C130.688 9.31033 130.637 9.45767 130.535 9.571C130.433 9.673 130.257 9.73533 130.008 9.758L129.498 9.809C128.738 9.877 128.172 10.149 127.798 10.625C127.435 11.0897 127.254 11.6393 127.254 12.274V16.405C127.254 16.6317 127.191 16.8017 127.067 16.915C126.942 17.0283 126.778 17.085 126.574 17.085C126.37 17.085 126.2 17.0283 126.064 16.915C125.939 16.7903 125.877 16.6203 125.877 16.405V9.231C125.877 9.01567 125.945 8.85133 126.081 8.738C126.217 8.61333 126.381 8.551 126.574 8.551C126.755 8.551 126.908 8.61333 127.033 8.738C127.157 8.85133 127.22 9.01 127.22 9.214V10.166C127.458 9.66733 127.792 9.28767 128.223 9.027C128.665 8.76633 129.169 8.61333 129.736 8.568L129.974 8.551ZM140.418 8.517C141.143 8.517 141.783 8.69833 142.339 9.061C142.894 9.42367 143.325 9.93367 143.631 10.591C143.937 11.237 144.09 11.9907 144.09 12.852C144.09 13.7133 143.937 14.467 143.631 15.113C143.325 15.7477 142.894 16.2407 142.339 16.592C141.795 16.9433 141.154 17.119 140.418 17.119C139.772 17.119 139.205 16.9773 138.718 16.694C138.242 16.4107 137.879 16.0083 137.63 15.487V19.482C137.63 19.686 137.567 19.8447 137.443 19.958C137.329 20.0827 137.165 20.145 136.95 20.145C136.734 20.145 136.564 20.0827 136.44 19.958C136.315 19.8333 136.253 19.6747 136.253 19.482V9.231C136.253 9.027 136.315 8.86267 136.44 8.738C136.564 8.61333 136.734 8.551 136.95 8.551C137.165 8.551 137.329 8.61333 137.443 8.738C137.567 8.86267 137.63 9.027 137.63 9.231V10.149C137.879 9.62767 138.242 9.22533 138.718 8.942C139.205 8.65867 139.772 8.517 140.418 8.517ZM140.146 15.98C140.95 15.98 141.574 15.708 142.016 15.164C142.458 14.62 142.679 13.8493 142.679 12.852C142.679 11.8547 142.458 11.0783 142.016 10.523C141.574 9.95633 140.95 9.673 140.146 9.673C139.341 9.673 138.718 9.945 138.276 10.489C137.845 11.033 137.63 11.8093 137.63 12.818C137.63 13.8267 137.845 14.6087 138.276 15.164C138.718 15.708 139.341 15.98 140.146 15.98ZM149.581 17.119C148.799 17.119 148.108 16.9433 147.507 16.592C146.918 16.2407 146.459 15.742 146.13 15.096C145.813 14.4387 145.654 13.6793 145.654 12.818C145.654 11.9567 145.813 11.203 146.13 10.557C146.459 9.89967 146.918 9.39533 147.507 9.044C148.108 8.69267 148.799 8.517 149.581 8.517C150.363 8.517 151.054 8.69267 151.655 9.044C152.256 9.39533 152.715 9.89967 153.032 10.557C153.361 11.203 153.525 11.9567 153.525 12.818C153.525 13.6793 153.361 14.4387 153.032 15.096C152.715 15.742 152.256 16.2407 151.655 16.592C151.054 16.9433 150.363 17.119 149.581 17.119ZM149.581 15.98C150.397 15.98 151.02 15.7137 151.451 15.181C151.893 14.637 152.114 13.8493 152.114 12.818C152.114 11.8093 151.893 11.033 151.451 10.489C151.009 9.93367 150.386 9.656 149.581 9.656C148.776 9.656 148.153 9.93367 147.711 10.489C147.269 11.033 147.048 11.8093 147.048 12.818C147.048 13.838 147.263 14.62 147.694 15.164C148.136 15.708 148.765 15.98 149.581 15.98ZM156.274 17.085C156.07 17.085 155.9 17.0283 155.764 16.915C155.639 16.7903 155.577 16.6203 155.577 16.405V5.61C155.577 5.39467 155.639 5.23033 155.764 5.117C155.9 4.99233 156.07 4.93 156.274 4.93C156.466 4.93 156.625 4.99233 156.75 5.117C156.886 5.23033 156.954 5.39467 156.954 5.61V16.405C156.954 16.6203 156.886 16.7903 156.75 16.915C156.625 17.0283 156.466 17.085 156.274 17.085ZM160.225 17.085C160.021 17.085 159.851 17.0283 159.715 16.915C159.59 16.7903 159.528 16.6203 159.528 16.405V5.61C159.528 5.39467 159.59 5.23033 159.715 5.117C159.851 4.99233 160.021 4.93 160.225 4.93C160.418 4.93 160.576 4.99233 160.701 5.117C160.837 5.23033 160.905 5.39467 160.905 5.61V16.405C160.905 16.6203 160.837 16.7903 160.701 16.915C160.576 17.0283 160.418 17.085 160.225 17.085ZM169.769 8.551C169.984 8.551 170.149 8.61333 170.262 8.738C170.387 8.86267 170.449 9.027 170.449 9.231V16.422C170.449 16.6147 170.387 16.7733 170.262 16.898C170.149 17.0227 169.984 17.085 169.769 17.085C169.565 17.085 169.401 17.0283 169.276 16.915C169.163 16.7903 169.106 16.6317 169.106 16.439V15.589C168.845 16.0877 168.477 16.4673 168.001 16.728C167.536 16.9887 167.009 17.119 166.42 17.119C165.434 17.119 164.692 16.847 164.193 16.303C163.694 15.7477 163.445 14.9317 163.445 13.855V9.231C163.445 9.027 163.507 8.86267 163.632 8.738C163.757 8.61333 163.927 8.551 164.142 8.551C164.357 8.551 164.522 8.61333 164.635 8.738C164.76 8.86267 164.822 9.027 164.822 9.231V13.821C164.822 14.5577 164.969 15.1017 165.264 15.453C165.559 15.793 166.023 15.963 166.658 15.963C167.383 15.963 167.967 15.7307 168.409 15.266C168.851 14.79 169.072 14.1667 169.072 13.396V9.231C169.072 9.027 169.134 8.86267 169.259 8.738C169.384 8.61333 169.554 8.551 169.769 8.551ZM176.833 15.997C177.23 16.031 177.428 16.2123 177.428 16.541C177.428 16.7337 177.355 16.881 177.207 16.983C177.071 17.0737 176.862 17.1077 176.578 17.085L176.119 17.051C175.213 16.983 174.544 16.711 174.113 16.235C173.683 15.759 173.467 15.0393 173.467 14.076V9.809H172.328C172.136 9.809 171.983 9.76367 171.869 9.673C171.767 9.571 171.716 9.44067 171.716 9.282C171.716 9.112 171.767 8.976 171.869 8.874C171.983 8.772 172.136 8.721 172.328 8.721H173.467V6.8C173.467 6.58467 173.53 6.42033 173.654 6.307C173.779 6.18233 173.949 6.12 174.164 6.12C174.368 6.12 174.533 6.18233 174.657 6.307C174.782 6.42033 174.844 6.58467 174.844 6.8V8.721H176.731C176.913 8.721 177.054 8.772 177.156 8.874C177.27 8.976 177.326 9.112 177.326 9.282C177.326 9.44067 177.27 9.571 177.156 9.673C177.054 9.76367 176.913 9.809 176.731 9.809H174.844V14.144C174.844 14.7673 174.969 15.2207 175.218 15.504C175.479 15.776 175.864 15.929 176.374 15.963L176.833 15.997ZM179.483 17.085C179.279 17.085 179.109 17.0283 178.973 16.915C178.848 16.7903 178.786 16.6203 178.786 16.405V9.231C178.786 9.01567 178.848 8.85133 178.973 8.738C179.109 8.61333 179.279 8.551 179.483 8.551C179.687 8.551 179.851 8.61333 179.976 8.738C180.1 8.85133 180.163 9.01567 180.163 9.231V16.405C180.163 16.6317 180.1 16.8017 179.976 16.915C179.851 17.0283 179.687 17.085 179.483 17.085ZM179.483 6.766C179.211 6.766 178.99 6.68667 178.82 6.528C178.65 6.36933 178.565 6.15967 178.565 5.899C178.565 5.64967 178.65 5.44567 178.82 5.287C178.99 5.12833 179.211 5.049 179.483 5.049C179.755 5.049 179.976 5.12833 180.146 5.287C180.316 5.44567 180.401 5.64967 180.401 5.899C180.401 6.15967 180.316 6.36933 180.146 6.528C179.976 6.68667 179.755 6.766 179.483 6.766ZM186.171 17.119C185.389 17.119 184.698 16.9433 184.097 16.592C183.508 16.2407 183.049 15.742 182.72 15.096C182.403 14.4387 182.244 13.6793 182.244 12.818C182.244 11.9567 182.403 11.203 182.72 10.557C183.049 9.89967 183.508 9.39533 184.097 9.044C184.698 8.69267 185.389 8.517 186.171 8.517C186.953 8.517 187.644 8.69267 188.245 9.044C188.846 9.39533 189.305 9.89967 189.622 10.557C189.951 11.203 190.115 11.9567 190.115 12.818C190.115 13.6793 189.951 14.4387 189.622 15.096C189.305 15.742 188.846 16.2407 188.245 16.592C187.644 16.9433 186.953 17.119 186.171 17.119ZM186.171 15.98C186.987 15.98 187.61 15.7137 188.041 15.181C188.483 14.637 188.704 13.8493 188.704 12.818C188.704 11.8093 188.483 11.033 188.041 10.489C187.599 9.93367 186.976 9.656 186.171 9.656C185.366 9.656 184.743 9.93367 184.301 10.489C183.859 11.033 183.638 11.8093 183.638 12.818C183.638 13.838 183.853 14.62 184.284 15.164C184.726 15.708 185.355 15.98 186.171 15.98ZM196.332 8.517C198.315 8.517 199.307 9.61067 199.307 11.798V16.405C199.307 16.6203 199.244 16.7903 199.12 16.915C199.006 17.0283 198.842 17.085 198.627 17.085C198.411 17.085 198.241 17.0283 198.117 16.915C197.992 16.7903 197.93 16.6203 197.93 16.405V11.883C197.93 11.1123 197.777 10.5513 197.471 10.2C197.176 9.84867 196.7 9.673 196.043 9.673C195.283 9.673 194.677 9.90533 194.224 10.37C193.77 10.8347 193.544 11.4637 193.544 12.257V16.405C193.544 16.6203 193.481 16.7903 193.357 16.915C193.243 17.0283 193.079 17.085 192.864 17.085C192.648 17.085 192.478 17.0283 192.354 16.915C192.229 16.7903 192.167 16.6203 192.167 16.405V9.231C192.167 9.027 192.229 8.86267 192.354 8.738C192.478 8.61333 192.648 8.551 192.864 8.551C193.068 8.551 193.226 8.61333 193.34 8.738C193.464 8.86267 193.527 9.02133 193.527 9.214V10.081C193.799 9.571 194.178 9.18567 194.666 8.925C195.153 8.653 195.708 8.517 196.332 8.517ZM209.595 8.517C211.669 8.517 212.706 9.605 212.706 11.781V16.405C212.706 16.609 212.643 16.7733 212.519 16.898C212.405 17.0227 212.247 17.085 212.043 17.085C211.839 17.085 211.674 17.0227 211.55 16.898C211.425 16.7733 211.363 16.609 211.363 16.405V15.589C211.147 16.0763 210.819 16.456 210.377 16.728C209.935 16.9887 209.425 17.119 208.847 17.119C208.314 17.119 207.821 17.0113 207.368 16.796C206.926 16.5807 206.574 16.2803 206.314 15.895C206.053 15.5097 205.923 15.0847 205.923 14.62C205.923 13.9967 206.081 13.515 206.399 13.175C206.716 12.8237 207.237 12.5743 207.963 12.427C208.688 12.2683 209.697 12.189 210.989 12.189H211.363V11.628C211.363 10.948 211.221 10.4493 210.938 10.132C210.666 9.81467 210.218 9.656 209.595 9.656C208.824 9.656 208.042 9.86567 207.249 10.285C206.943 10.4777 206.727 10.574 206.603 10.574C206.467 10.574 206.353 10.523 206.263 10.421C206.172 10.319 206.127 10.1887 206.127 10.03C206.127 9.87133 206.172 9.73533 206.263 9.622C206.365 9.49733 206.523 9.37267 206.739 9.248C207.135 9.02133 207.583 8.84567 208.082 8.721C208.592 8.585 209.096 8.517 209.595 8.517ZM209.034 16.031C209.714 16.031 210.269 15.8043 210.7 15.351C211.142 14.8863 211.363 14.2913 211.363 13.566V13.073H211.057C210.059 13.073 209.3 13.1183 208.779 13.209C208.257 13.2883 207.883 13.43 207.657 13.634C207.441 13.8267 207.334 14.1157 207.334 14.501C207.334 14.943 207.492 15.3113 207.81 15.606C208.138 15.8893 208.546 16.031 209.034 16.031ZM219.391 8.517C221.375 8.517 222.366 9.61067 222.366 11.798V16.405C222.366 16.6203 222.304 16.7903 222.179 16.915C222.066 17.0283 221.902 17.085 221.686 17.085C221.471 17.085 221.301 17.0283 221.176 16.915C221.052 16.7903 220.989 16.6203 220.989 16.405V11.883C220.989 11.1123 220.836 10.5513 220.53 10.2C220.236 9.84867 219.76 9.673 219.102 9.673C218.343 9.673 217.737 9.90533 217.283 10.37C216.83 10.8347 216.603 11.4637 216.603 12.257V16.405C216.603 16.6203 216.541 16.7903 216.416 16.915C216.303 17.0283 216.139 17.085 215.923 17.085C215.708 17.085 215.538 17.0283 215.413 16.915C215.289 16.7903 215.226 16.6203 215.226 16.405V9.231C215.226 9.027 215.289 8.86267 215.413 8.738C215.538 8.61333 215.708 8.551 215.923 8.551C216.127 8.551 216.286 8.61333 216.399 8.738C216.524 8.86267 216.586 9.02133 216.586 9.214V10.081C216.858 9.571 217.238 9.18567 217.725 8.925C218.213 8.653 218.768 8.517 219.391 8.517ZM231.535 4.93C231.751 4.93 231.921 4.99233 232.045 5.117C232.17 5.24167 232.232 5.40033 232.232 5.593V16.405C232.232 16.609 232.17 16.7733 232.045 16.898C231.921 17.0227 231.751 17.085 231.535 17.085C231.32 17.085 231.15 17.0227 231.025 16.898C230.912 16.7733 230.855 16.609 230.855 16.405V15.487C230.606 16.0083 230.238 16.4107 229.75 16.694C229.274 16.9773 228.713 17.119 228.067 17.119C227.342 17.119 226.702 16.9377 226.146 16.575C225.591 16.2123 225.16 15.708 224.854 15.062C224.548 14.4047 224.395 13.6453 224.395 12.784C224.395 11.934 224.548 11.186 224.854 10.54C225.16 9.894 225.591 9.39533 226.146 9.044C226.702 8.69267 227.342 8.517 228.067 8.517C228.713 8.517 229.274 8.65867 229.75 8.942C230.238 9.22533 230.606 9.62767 230.855 10.149V5.593C230.855 5.389 230.912 5.23033 231.025 5.117C231.15 4.99233 231.32 4.93 231.535 4.93ZM228.339 15.98C229.144 15.98 229.762 15.708 230.192 15.164C230.634 14.6087 230.855 13.8267 230.855 12.818C230.855 11.8093 230.634 11.033 230.192 10.489C229.762 9.945 229.144 9.673 228.339 9.673C227.535 9.673 226.906 9.945 226.452 10.489C226.01 11.033 225.789 11.798 225.789 12.784C225.789 13.7927 226.01 14.5803 226.452 15.147C226.906 15.7023 227.535 15.98 228.339 15.98ZM13.8915 38.079C14.0162 38.079 14.1239 38.13 14.2145 38.232C14.3052 38.334 14.3505 38.4643 14.3505 38.623C14.3505 38.9063 14.1522 39.167 13.7555 39.405C13.3475 39.643 12.9169 39.8243 12.4635 39.949C12.0102 40.0623 11.5682 40.119 11.1375 40.119C9.85685 40.119 8.84252 39.7393 8.09452 38.98C7.35785 38.2207 6.98952 37.1723 6.98952 35.835C6.98952 34.985 7.15385 34.237 7.48252 33.591C7.81119 32.9337 8.27019 32.4237 8.85952 32.061C9.46019 31.6983 10.1402 31.517 10.8995 31.517C11.9762 31.517 12.8319 31.8683 13.4665 32.571C14.1012 33.2737 14.4185 34.2257 14.4185 35.427C14.4185 35.6537 14.3732 35.818 14.2825 35.92C14.1919 36.022 14.0445 36.073 13.8405 36.073H8.36652C8.46852 38.0223 9.39219 38.997 11.1375 38.997C11.5795 38.997 11.9592 38.9403 12.2765 38.827C12.5939 38.7023 12.9339 38.538 13.2965 38.334C13.5912 38.164 13.7895 38.079 13.8915 38.079ZM10.9165 32.588C10.1912 32.588 9.60752 32.8147 9.16552 33.268C8.73485 33.7213 8.47985 34.3617 8.40052 35.189H13.2115C13.1889 34.3503 12.9792 33.71 12.5825 33.268C12.1859 32.8147 11.6305 32.588 10.9165 32.588ZM19.8304 31.517C21.9044 31.517 22.9414 32.605 22.9414 34.781V39.405C22.9414 39.609 22.879 39.7733 22.7544 39.898C22.641 40.0227 22.4824 40.085 22.2784 40.085C22.0744 40.085 21.91 40.0227 21.7854 39.898C21.6607 39.7733 21.5984 39.609 21.5984 39.405V38.589C21.383 39.0763 21.0544 39.456 20.6124 39.728C20.1704 39.9887 19.6604 40.119 19.0824 40.119C18.5497 40.119 18.0567 40.0113 17.6034 39.796C17.1614 39.5807 16.81 39.2803 16.5494 38.895C16.2887 38.5097 16.1584 38.0847 16.1584 37.62C16.1584 36.9967 16.317 36.515 16.6344 36.175C16.9517 35.8237 17.473 35.5743 18.1984 35.427C18.9237 35.2683 19.9324 35.189 21.2244 35.189H21.5984V34.628C21.5984 33.948 21.4567 33.4493 21.1734 33.132C20.9014 32.8147 20.4537 32.656 19.8304 32.656C19.0597 32.656 18.2777 32.8657 17.4844 33.285C17.1784 33.4777 16.963 33.574 16.8384 33.574C16.7024 33.574 16.589 33.523 16.4984 33.421C16.4077 33.319 16.3624 33.1887 16.3624 33.03C16.3624 32.8713 16.4077 32.7353 16.4984 32.622C16.6004 32.4973 16.759 32.3727 16.9744 32.248C17.371 32.0213 17.8187 31.8457 18.3174 31.721C18.8274 31.585 19.3317 31.517 19.8304 31.517ZM19.2694 39.031C19.9494 39.031 20.5047 38.8043 20.9354 38.351C21.3774 37.8863 21.5984 37.2913 21.5984 36.566V36.073H21.2924C20.295 36.073 19.5357 36.1183 19.0144 36.209C18.493 36.2883 18.119 36.43 17.8924 36.634C17.677 36.8267 17.5694 37.1157 17.5694 37.501C17.5694 37.943 17.728 38.3113 18.0454 38.606C18.374 38.8893 18.782 39.031 19.2694 39.031ZM29.559 31.551C30.035 31.517 30.273 31.7097 30.273 32.129C30.273 32.3103 30.222 32.4577 30.12 32.571C30.018 32.673 29.8423 32.7353 29.593 32.758L29.083 32.809C28.3237 32.877 27.757 33.149 27.383 33.625C27.0203 34.0897 26.839 34.6393 26.839 35.274V39.405C26.839 39.6317 26.7767 39.8017 26.652 39.915C26.5273 40.0283 26.363 40.085 26.159 40.085C25.955 40.085 25.785 40.0283 25.649 39.915C25.5243 39.7903 25.462 39.6203 25.462 39.405V32.231C25.462 32.0157 25.53 31.8513 25.666 31.738C25.802 31.6133 25.9663 31.551 26.159 31.551C26.3403 31.551 26.4933 31.6133 26.618 31.738C26.7427 31.8513 26.805 32.01 26.805 32.214V33.166C27.043 32.6673 27.3773 32.2877 27.808 32.027C28.25 31.7663 28.7543 31.6133 29.321 31.568L29.559 31.551ZM35.6202 31.517C37.6035 31.517 38.5952 32.6107 38.5952 34.798V39.405C38.5952 39.6203 38.5328 39.7903 38.4082 39.915C38.2948 40.0283 38.1305 40.085 37.9152 40.085C37.6998 40.085 37.5298 40.0283 37.4052 39.915C37.2805 39.7903 37.2182 39.6203 37.2182 39.405V34.883C37.2182 34.1123 37.0652 33.5513 36.7592 33.2C36.4645 32.8487 35.9885 32.673 35.3312 32.673C34.5718 32.673 33.9655 32.9053 33.5122 33.37C33.0588 33.8347 32.8322 34.4637 32.8322 35.257V39.405C32.8322 39.6203 32.7698 39.7903 32.6452 39.915C32.5318 40.0283 32.3675 40.085 32.1522 40.085C31.9368 40.085 31.7668 40.0283 31.6422 39.915C31.5175 39.7903 31.4552 39.6203 31.4552 39.405V32.231C31.4552 32.027 31.5175 31.8627 31.6422 31.738C31.7668 31.6133 31.9368 31.551 32.1522 31.551C32.3562 31.551 32.5148 31.6133 32.6282 31.738C32.7528 31.8627 32.8152 32.0213 32.8152 32.214V33.081C33.0872 32.571 33.4668 32.1857 33.9542 31.925C34.4415 31.653 34.9968 31.517 35.6202 31.517ZM54.7141 31.517C56.5501 31.517 57.4681 32.6107 57.4681 34.798V39.405C57.4681 39.6203 57.4058 39.7903 57.2811 39.915C57.1564 40.0283 56.9921 40.085 56.7881 40.085C56.5841 40.085 56.4141 40.0283 56.2781 39.915C56.1534 39.7903 56.0911 39.6203 56.0911 39.405V34.832C56.0911 34.0727 55.9551 33.523 55.6831 33.183C55.4111 32.843 54.9861 32.673 54.4081 32.673C53.7168 32.673 53.1728 32.9053 52.7761 33.37C52.3794 33.8347 52.1811 34.4637 52.1811 35.257V39.405C52.1811 39.6203 52.1131 39.7903 51.9771 39.915C51.8524 40.0283 51.6881 40.085 51.4841 40.085C51.2801 40.085 51.1158 40.0283 50.9911 39.915C50.8664 39.7903 50.8041 39.6203 50.8041 39.405V34.832C50.8041 34.0727 50.6681 33.523 50.3961 33.183C50.1241 32.843 49.6934 32.673 49.1041 32.673C48.4241 32.673 47.8801 32.9053 47.4721 33.37C47.0754 33.8347 46.8771 34.4637 46.8771 35.257V39.405C46.8771 39.6203 46.8148 39.7903 46.6901 39.915C46.5654 40.0283 46.4011 40.085 46.1971 40.085C45.9931 40.085 45.8231 40.0283 45.6871 39.915C45.5624 39.7903 45.5001 39.6203 45.5001 39.405V32.231C45.5001 32.027 45.5624 31.8627 45.6871 31.738C45.8231 31.6133 45.9931 31.551 46.1971 31.551C46.3898 31.551 46.5484 31.6133 46.6731 31.738C46.7978 31.8513 46.8601 32.01 46.8601 32.214V33.03C47.1094 32.5427 47.4551 32.1687 47.8971 31.908C48.3391 31.6473 48.8491 31.517 49.4271 31.517C50.7191 31.517 51.5634 32.061 51.9601 33.149C52.1981 32.6503 52.5608 32.2537 53.0481 31.959C53.5354 31.6643 54.0908 31.517 54.7141 31.517ZM63.4107 40.119C62.6287 40.119 61.9373 39.9433 61.3367 39.592C60.7473 39.2407 60.2883 38.742 59.9597 38.096C59.6423 37.4387 59.4837 36.6793 59.4837 35.818C59.4837 34.9567 59.6423 34.203 59.9597 33.557C60.2883 32.8997 60.7473 32.3953 61.3367 32.044C61.9373 31.6927 62.6287 31.517 63.4107 31.517C64.1927 31.517 64.884 31.6927 65.4847 32.044C66.0853 32.3953 66.5443 32.8997 66.8617 33.557C67.1903 34.203 67.3547 34.9567 67.3547 35.818C67.3547 36.6793 67.1903 37.4387 66.8617 38.096C66.5443 38.742 66.0853 39.2407 65.4847 39.592C64.884 39.9433 64.1927 40.119 63.4107 40.119ZM63.4107 38.98C64.2267 38.98 64.85 38.7137 65.2807 38.181C65.7227 37.637 65.9437 36.8493 65.9437 35.818C65.9437 34.8093 65.7227 34.033 65.2807 33.489C64.8387 32.9337 64.2153 32.656 63.4107 32.656C62.606 32.656 61.9827 32.9337 61.5407 33.489C61.0987 34.033 60.8777 34.8093 60.8777 35.818C60.8777 36.838 61.093 37.62 61.5237 38.164C61.9657 38.708 62.5947 38.98 63.4107 38.98ZM73.5033 31.551C73.9793 31.517 74.2173 31.7097 74.2173 32.129C74.2173 32.3103 74.1663 32.4577 74.0643 32.571C73.9623 32.673 73.7867 32.7353 73.5373 32.758L73.0273 32.809C72.268 32.877 71.7013 33.149 71.3273 33.625C70.9647 34.0897 70.7833 34.6393 70.7833 35.274V39.405C70.7833 39.6317 70.721 39.8017 70.5963 39.915C70.4717 40.0283 70.3073 40.085 70.1033 40.085C69.8993 40.085 69.7293 40.0283 69.5933 39.915C69.4687 39.7903 69.4063 39.6203 69.4063 39.405V32.231C69.4063 32.0157 69.4743 31.8513 69.6103 31.738C69.7463 31.6133 69.9107 31.551 70.1033 31.551C70.2847 31.551 70.4377 31.6133 70.5623 31.738C70.687 31.8513 70.7493 32.01 70.7493 32.214V33.166C70.9873 32.6673 71.3217 32.2877 71.7523 32.027C72.1943 31.7663 72.6987 31.6133 73.2653 31.568L73.5033 31.551ZM81.6425 38.079C81.7672 38.079 81.8748 38.13 81.9655 38.232C82.0562 38.334 82.1015 38.4643 82.1015 38.623C82.1015 38.9063 81.9032 39.167 81.5065 39.405C81.0985 39.643 80.6678 39.8243 80.2145 39.949C79.7612 40.0623 79.3192 40.119 78.8885 40.119C77.6078 40.119 76.5935 39.7393 75.8455 38.98C75.1088 38.2207 74.7405 37.1723 74.7405 35.835C74.7405 34.985 74.9048 34.237 75.2335 33.591C75.5622 32.9337 76.0212 32.4237 76.6105 32.061C77.2112 31.6983 77.8912 31.517 78.6505 31.517C79.7272 31.517 80.5828 31.8683 81.2175 32.571C81.8522 33.2737 82.1695 34.2257 82.1695 35.427C82.1695 35.6537 82.1242 35.818 82.0335 35.92C81.9428 36.022 81.7955 36.073 81.5915 36.073H76.1175C76.2195 38.0223 77.1432 38.997 78.8885 38.997C79.3305 38.997 79.7102 38.9403 80.0275 38.827C80.3448 38.7023 80.6848 38.538 81.0475 38.334C81.3422 38.164 81.5405 38.079 81.6425 38.079ZM78.6675 32.588C77.9422 32.588 77.3585 32.8147 76.9165 33.268C76.4858 33.7213 76.2308 34.3617 76.1515 35.189H80.9625C80.9398 34.3503 80.7302 33.71 80.3335 33.268C79.9368 32.8147 79.3815 32.588 78.6675 32.588ZM92.6782 31.551C93.1542 31.517 93.3922 31.7097 93.3922 32.129C93.3922 32.3103 93.3412 32.4577 93.2392 32.571C93.1372 32.673 92.9615 32.7353 92.7122 32.758L92.2022 32.809C91.4428 32.877 90.8762 33.149 90.5022 33.625C90.1395 34.0897 89.9582 34.6393 89.9582 35.274V39.405C89.9582 39.6317 89.8958 39.8017 89.7712 39.915C89.6465 40.0283 89.4822 40.085 89.2782 40.085C89.0742 40.085 88.9042 40.0283 88.7682 39.915C88.6435 39.7903 88.5812 39.6203 88.5812 39.405V32.231C88.5812 32.0157 88.6492 31.8513 88.7852 31.738C88.9212 31.6133 89.0855 31.551 89.2782 31.551C89.4595 31.551 89.6125 31.6133 89.7372 31.738C89.8618 31.8513 89.9242 32.01 89.9242 32.214V33.166C90.1622 32.6673 90.4965 32.2877 90.9272 32.027C91.3692 31.7663 91.8735 31.6133 92.4402 31.568L92.6782 31.551ZM100.817 38.079C100.942 38.079 101.05 38.13 101.14 38.232C101.231 38.334 101.276 38.4643 101.276 38.623C101.276 38.9063 101.078 39.167 100.681 39.405C100.273 39.643 99.8426 39.8243 99.3893 39.949C98.936 40.0623 98.494 40.119 98.0633 40.119C96.7826 40.119 95.7683 39.7393 95.0203 38.98C94.2836 38.2207 93.9153 37.1723 93.9153 35.835C93.9153 34.985 94.0796 34.237 94.4083 33.591C94.737 32.9337 95.196 32.4237 95.7853 32.061C96.386 31.6983 97.066 31.517 97.8253 31.517C98.902 31.517 99.7576 31.8683 100.392 32.571C101.027 33.2737 101.344 34.2257 101.344 35.427C101.344 35.6537 101.299 35.818 101.208 35.92C101.118 36.022 100.97 36.073 100.766 36.073H95.2923C95.3943 38.0223 96.318 38.997 98.0633 38.997C98.5053 38.997 98.885 38.9403 99.2023 38.827C99.5196 38.7023 99.8596 38.538 100.222 38.334C100.517 38.164 100.715 38.079 100.817 38.079ZM97.8423 32.588C97.117 32.588 96.5333 32.8147 96.0913 33.268C95.6606 33.7213 95.4056 34.3617 95.3263 35.189H100.137C100.115 34.3503 99.905 33.71 99.5083 33.268C99.1116 32.8147 98.5563 32.588 97.8423 32.588ZM114.596 31.993C114.709 31.721 114.896 31.585 115.157 31.585C115.327 31.585 115.48 31.6417 115.616 31.755C115.752 31.8683 115.82 32.01 115.82 32.18C115.82 32.2593 115.803 32.3443 115.769 32.435L112.947 39.575C112.879 39.7223 112.777 39.8413 112.641 39.932C112.516 40.0113 112.374 40.051 112.216 40.051C112.068 40.051 111.927 40.0113 111.791 39.932C111.666 39.8413 111.57 39.7223 111.502 39.575L109.156 33.608L106.827 39.575C106.77 39.7223 106.674 39.8413 106.538 39.932C106.402 40.0113 106.254 40.051 106.096 40.051C105.948 40.051 105.807 40.0113 105.671 39.932C105.535 39.8413 105.433 39.7223 105.365 39.575L102.543 32.452C102.509 32.3613 102.492 32.282 102.492 32.214C102.492 32.0327 102.565 31.8797 102.713 31.755C102.871 31.6303 103.041 31.568 103.223 31.568C103.495 31.568 103.687 31.704 103.801 31.976L106.13 38.249L108.527 32.027C108.595 31.8797 108.685 31.7663 108.799 31.687C108.923 31.6077 109.054 31.568 109.19 31.568C109.337 31.568 109.467 31.6077 109.581 31.687C109.705 31.7663 109.796 31.8797 109.853 32.027L112.25 38.232L114.596 31.993ZM120.818 31.517C122.892 31.517 123.929 32.605 123.929 34.781V39.405C123.929 39.609 123.866 39.7733 123.742 39.898C123.628 40.0227 123.47 40.085 123.266 40.085C123.062 40.085 122.897 40.0227 122.773 39.898C122.648 39.7733 122.586 39.609 122.586 39.405V38.589C122.37 39.0763 122.042 39.456 121.6 39.728C121.158 39.9887 120.648 40.119 120.07 40.119C119.537 40.119 119.044 40.0113 118.591 39.796C118.149 39.5807 117.797 39.2803 117.537 38.895C117.276 38.5097 117.146 38.0847 117.146 37.62C117.146 36.9967 117.304 36.515 117.622 36.175C117.939 35.8237 118.46 35.5743 119.186 35.427C119.911 35.2683 120.92 35.189 122.212 35.189H122.586V34.628C122.586 33.948 122.444 33.4493 122.161 33.132C121.889 32.8147 121.441 32.656 120.818 32.656C120.047 32.656 119.265 32.8657 118.472 33.285C118.166 33.4777 117.95 33.574 117.826 33.574C117.69 33.574 117.576 33.523 117.486 33.421C117.395 33.319 117.35 33.1887 117.35 33.03C117.35 32.8713 117.395 32.7353 117.486 32.622C117.588 32.4973 117.746 32.3727 117.962 32.248C118.358 32.0213 118.806 31.8457 119.305 31.721C119.815 31.585 120.319 31.517 120.818 31.517ZM120.257 39.031C120.937 39.031 121.492 38.8043 121.923 38.351C122.365 37.8863 122.586 37.2913 122.586 36.566V36.073H122.28C121.282 36.073 120.523 36.1183 120.002 36.209C119.48 36.2883 119.106 36.43 118.88 36.634C118.664 36.8267 118.557 37.1157 118.557 37.501C118.557 37.943 118.715 38.3113 119.033 38.606C119.361 38.8893 119.769 39.031 120.257 39.031ZM130.546 31.551C131.022 31.517 131.26 31.7097 131.26 32.129C131.26 32.3103 131.209 32.4577 131.107 32.571C131.005 32.673 130.83 32.7353 130.58 32.758L130.07 32.809C129.311 32.877 128.744 33.149 128.37 33.625C128.008 34.0897 127.826 34.6393 127.826 35.274V39.405C127.826 39.6317 127.764 39.8017 127.639 39.915C127.515 40.0283 127.35 40.085 127.146 40.085C126.942 40.085 126.772 40.0283 126.636 39.915C126.512 39.7903 126.449 39.6203 126.449 39.405V32.231C126.449 32.0157 126.517 31.8513 126.653 31.738C126.789 31.6133 126.954 31.551 127.146 31.551C127.328 31.551 127.481 31.6133 127.605 31.738C127.73 31.8513 127.792 32.01 127.792 32.214V33.166C128.03 32.6673 128.365 32.2877 128.795 32.027C129.237 31.7663 129.742 31.6133 130.308 31.568L130.546 31.551ZM138.923 27.93C139.139 27.93 139.309 27.9923 139.433 28.117C139.558 28.2417 139.62 28.4003 139.62 28.593V39.405C139.62 39.609 139.558 39.7733 139.433 39.898C139.309 40.0227 139.139 40.085 138.923 40.085C138.708 40.085 138.538 40.0227 138.413 39.898C138.3 39.7733 138.243 39.609 138.243 39.405V38.487C137.994 39.0083 137.626 39.4107 137.138 39.694C136.662 39.9773 136.101 40.119 135.455 40.119C134.73 40.119 134.09 39.9377 133.534 39.575C132.979 39.2123 132.548 38.708 132.242 38.062C131.936 37.4047 131.783 36.6453 131.783 35.784C131.783 34.934 131.936 34.186 132.242 33.54C132.548 32.894 132.979 32.3953 133.534 32.044C134.09 31.6927 134.73 31.517 135.455 31.517C136.101 31.517 136.662 31.6587 137.138 31.942C137.626 32.2253 137.994 32.6277 138.243 33.149V28.593C138.243 28.389 138.3 28.2303 138.413 28.117C138.538 27.9923 138.708 27.93 138.923 27.93ZM135.727 38.98C136.532 38.98 137.15 38.708 137.58 38.164C138.022 37.6087 138.243 36.8267 138.243 35.818C138.243 34.8093 138.022 34.033 137.58 33.489C137.15 32.945 136.532 32.673 135.727 32.673C134.923 32.673 134.294 32.945 133.84 33.489C133.398 34.033 133.177 34.798 133.177 35.784C133.177 36.7927 133.398 37.5803 133.84 38.147C134.294 38.7023 134.923 38.98 135.727 38.98ZM144.959 40.119C144.438 40.119 143.939 40.0567 143.463 39.932C142.998 39.8073 142.585 39.6317 142.222 39.405C142.018 39.269 141.871 39.1443 141.78 39.031C141.701 38.9063 141.661 38.759 141.661 38.589C141.661 38.4417 141.701 38.3227 141.78 38.232C141.871 38.13 141.984 38.079 142.12 38.079C142.256 38.079 142.454 38.164 142.715 38.334C143.055 38.538 143.389 38.7023 143.718 38.827C144.058 38.9403 144.477 38.997 144.976 38.997C145.588 38.997 146.064 38.8893 146.404 38.674C146.744 38.4587 146.914 38.147 146.914 37.739C146.914 37.4897 146.852 37.2913 146.727 37.144C146.602 36.9853 146.387 36.8493 146.081 36.736C145.775 36.6113 145.327 36.4867 144.738 36.362C143.741 36.1467 143.027 35.8577 142.596 35.495C142.165 35.1323 141.95 34.6393 141.95 34.016C141.95 33.5287 142.086 33.098 142.358 32.724C142.63 32.35 143.004 32.0553 143.48 31.84C143.967 31.6247 144.517 31.517 145.129 31.517C145.571 31.517 145.996 31.5793 146.404 31.704C146.823 31.8173 147.192 31.9817 147.509 32.197C147.894 32.469 148.087 32.7523 148.087 33.047C148.087 33.1943 148.042 33.319 147.951 33.421C147.86 33.523 147.753 33.574 147.628 33.574C147.492 33.574 147.288 33.4777 147.016 33.285C146.699 33.081 146.398 32.9223 146.115 32.809C145.832 32.6957 145.48 32.639 145.061 32.639C144.528 32.639 144.098 32.758 143.769 32.996C143.452 33.234 143.293 33.5513 143.293 33.948C143.293 34.1973 143.35 34.4013 143.463 34.56C143.588 34.7073 143.786 34.8433 144.058 34.968C144.341 35.0813 144.744 35.1947 145.265 35.308C146.036 35.478 146.631 35.665 147.05 35.869C147.481 36.073 147.787 36.3223 147.968 36.617C148.149 36.9117 148.24 37.2857 148.24 37.739C148.24 38.453 147.94 39.031 147.339 39.473C146.738 39.9037 145.945 40.119 144.959 40.119ZM155.419 40.085C155.215 40.085 155.045 40.0283 154.909 39.915C154.784 39.7903 154.722 39.6203 154.722 39.405V32.231C154.722 32.0157 154.784 31.8513 154.909 31.738C155.045 31.6133 155.215 31.551 155.419 31.551C155.623 31.551 155.787 31.6133 155.912 31.738C156.036 31.8513 156.099 32.0157 156.099 32.231V39.405C156.099 39.6317 156.036 39.8017 155.912 39.915C155.787 40.0283 155.623 40.085 155.419 40.085ZM155.419 29.766C155.147 29.766 154.926 29.6867 154.756 29.528C154.586 29.3693 154.501 29.1597 154.501 28.899C154.501 28.6497 154.586 28.4457 154.756 28.287C154.926 28.1283 155.147 28.049 155.419 28.049C155.691 28.049 155.912 28.1283 156.082 28.287C156.252 28.4457 156.337 28.6497 156.337 28.899C156.337 29.1597 156.252 29.3693 156.082 29.528C155.912 29.6867 155.691 29.766 155.419 29.766ZM162.838 31.517C164.821 31.517 165.813 32.6107 165.813 34.798V39.405C165.813 39.6203 165.751 39.7903 165.626 39.915C165.513 40.0283 165.348 40.085 165.133 40.085C164.918 40.085 164.748 40.0283 164.623 39.915C164.498 39.7903 164.436 39.6203 164.436 39.405V34.883C164.436 34.1123 164.283 33.5513 163.977 33.2C163.682 32.8487 163.206 32.673 162.549 32.673C161.79 32.673 161.183 32.9053 160.73 33.37C160.277 33.8347 160.05 34.4637 160.05 35.257V39.405C160.05 39.6203 159.988 39.7903 159.863 39.915C159.75 40.0283 159.585 40.085 159.37 40.085C159.155 40.085 158.985 40.0283 158.86 39.915C158.735 39.7903 158.673 39.6203 158.673 39.405V32.231C158.673 32.027 158.735 31.8627 158.86 31.738C158.985 31.6133 159.155 31.551 159.37 31.551C159.574 31.551 159.733 31.6133 159.846 31.738C159.971 31.8627 160.033 32.0213 160.033 32.214V33.081C160.305 32.571 160.685 32.1857 161.172 31.925C161.659 31.653 162.215 31.517 162.838 31.517ZM176.815 31.551C177.291 31.517 177.529 31.7097 177.529 32.129C177.529 32.3103 177.478 32.4577 177.376 32.571C177.274 32.673 177.098 32.7353 176.849 32.758L176.339 32.809C175.58 32.877 175.013 33.149 174.639 33.625C174.276 34.0897 174.095 34.6393 174.095 35.274V39.405C174.095 39.6317 174.033 39.8017 173.908 39.915C173.783 40.0283 173.619 40.085 173.415 40.085C173.211 40.085 173.041 40.0283 172.905 39.915C172.78 39.7903 172.718 39.6203 172.718 39.405V32.231C172.718 32.0157 172.786 31.8513 172.922 31.738C173.058 31.6133 173.222 31.551 173.415 31.551C173.596 31.551 173.749 31.6133 173.874 31.738C173.999 31.8513 174.061 32.01 174.061 32.214V33.166C174.299 32.6673 174.633 32.2877 175.064 32.027C175.506 31.7663 176.01 31.6133 176.577 31.568L176.815 31.551ZM185.001 31.551C185.216 31.551 185.381 31.6133 185.494 31.738C185.619 31.8627 185.681 32.027 185.681 32.231V39.422C185.681 39.6147 185.619 39.7733 185.494 39.898C185.381 40.0227 185.216 40.085 185.001 40.085C184.797 40.085 184.633 40.0283 184.508 39.915C184.395 39.7903 184.338 39.6317 184.338 39.439V38.589C184.077 39.0877 183.709 39.4673 183.233 39.728C182.768 39.9887 182.241 40.119 181.652 40.119C180.666 40.119 179.924 39.847 179.425 39.303C178.926 38.7477 178.677 37.9317 178.677 36.855V32.231C178.677 32.027 178.739 31.8627 178.864 31.738C178.989 31.6133 179.159 31.551 179.374 31.551C179.589 31.551 179.754 31.6133 179.867 31.738C179.992 31.8627 180.054 32.027 180.054 32.231V36.821C180.054 37.5577 180.201 38.1017 180.496 38.453C180.791 38.793 181.255 38.963 181.89 38.963C182.615 38.963 183.199 38.7307 183.641 38.266C184.083 37.79 184.304 37.1667 184.304 36.396V32.231C184.304 32.027 184.366 31.8627 184.491 31.738C184.616 31.6133 184.786 31.551 185.001 31.551ZM191.028 40.119C190.507 40.119 190.008 40.0567 189.532 39.932C189.068 39.8073 188.654 39.6317 188.291 39.405C188.087 39.269 187.94 39.1443 187.849 39.031C187.77 38.9063 187.73 38.759 187.73 38.589C187.73 38.4417 187.77 38.3227 187.849 38.232C187.94 38.13 188.053 38.079 188.189 38.079C188.325 38.079 188.524 38.164 188.784 38.334C189.124 38.538 189.459 38.7023 189.787 38.827C190.127 38.9403 190.547 38.997 191.045 38.997C191.657 38.997 192.133 38.8893 192.473 38.674C192.813 38.4587 192.983 38.147 192.983 37.739C192.983 37.4897 192.921 37.2913 192.796 37.144C192.672 36.9853 192.456 36.8493 192.15 36.736C191.844 36.6113 191.397 36.4867 190.807 36.362C189.81 36.1467 189.096 35.8577 188.665 35.495C188.235 35.1323 188.019 34.6393 188.019 34.016C188.019 33.5287 188.155 33.098 188.427 32.724C188.699 32.35 189.073 32.0553 189.549 31.84C190.037 31.6247 190.586 31.517 191.198 31.517C191.64 31.517 192.065 31.5793 192.473 31.704C192.893 31.8173 193.261 31.9817 193.578 32.197C193.964 32.469 194.156 32.7523 194.156 33.047C194.156 33.1943 194.111 33.319 194.02 33.421C193.93 33.523 193.822 33.574 193.697 33.574C193.561 33.574 193.357 33.4777 193.085 33.285C192.768 33.081 192.468 32.9223 192.184 32.809C191.901 32.6957 191.55 32.639 191.13 32.639C190.598 32.639 190.167 32.758 189.838 32.996C189.521 33.234 189.362 33.5513 189.362 33.948C189.362 34.1973 189.419 34.4013 189.532 34.56C189.657 34.7073 189.855 34.8433 190.127 34.968C190.411 35.0813 190.813 35.1947 191.334 35.308C192.105 35.478 192.7 35.665 193.119 35.869C193.55 36.073 193.856 36.3223 194.037 36.617C194.219 36.9117 194.309 37.2857 194.309 37.739C194.309 38.453 194.009 39.031 193.408 39.473C192.808 39.9037 192.014 40.119 191.028 40.119ZM200.59 31.517C201.565 31.517 202.302 31.7947 202.8 32.35C203.299 32.894 203.548 33.71 203.548 34.798V39.405C203.548 39.6203 203.486 39.7903 203.361 39.915C203.237 40.0283 203.072 40.085 202.868 40.085C202.653 40.085 202.483 40.0283 202.358 39.915C202.234 39.7903 202.171 39.6203 202.171 39.405V34.832C202.171 34.0953 202.018 33.5513 201.712 33.2C201.418 32.8487 200.942 32.673 200.284 32.673C199.525 32.673 198.919 32.9053 198.465 33.37C198.012 33.8347 197.785 34.4637 197.785 35.257V39.405C197.785 39.6203 197.723 39.7903 197.598 39.915C197.485 40.0283 197.321 40.085 197.105 40.085C196.89 40.085 196.72 40.0283 196.595 39.915C196.471 39.7903 196.408 39.6203 196.408 39.405V28.593C196.408 28.4003 196.471 28.2417 196.595 28.117C196.731 27.9923 196.901 27.93 197.105 27.93C197.321 27.93 197.485 27.9923 197.598 28.117C197.723 28.2303 197.785 28.389 197.785 28.593V33.047C198.057 32.5483 198.437 32.1687 198.924 31.908C199.412 31.6473 199.967 31.517 200.59 31.517ZM214.635 31.517C215.61 31.517 216.347 31.7947 216.845 32.35C217.344 32.894 217.593 33.71 217.593 34.798V39.405C217.593 39.6203 217.531 39.7903 217.406 39.915C217.282 40.0283 217.117 40.085 216.913 40.085C216.698 40.085 216.528 40.0283 216.403 39.915C216.279 39.7903 216.216 39.6203 216.216 39.405V34.832C216.216 34.0953 216.063 33.5513 215.757 33.2C215.463 32.8487 214.987 32.673 214.329 32.673C213.57 32.673 212.964 32.9053 212.51 33.37C212.057 33.8347 211.83 34.4637 211.83 35.257V39.405C211.83 39.6203 211.768 39.7903 211.643 39.915C211.53 40.0283 211.366 40.085 211.15 40.085C210.935 40.085 210.765 40.0283 210.64 39.915C210.516 39.7903 210.453 39.6203 210.453 39.405V28.593C210.453 28.4003 210.516 28.2417 210.64 28.117C210.776 27.9923 210.946 27.93 211.15 27.93C211.366 27.93 211.53 27.9923 211.643 28.117C211.768 28.2303 211.83 28.389 211.83 28.593V33.047C212.102 32.5483 212.482 32.1687 212.969 31.908C213.457 31.6473 214.012 31.517 214.635 31.517ZM223.549 40.119C222.767 40.119 222.076 39.9433 221.475 39.592C220.886 39.2407 220.427 38.742 220.098 38.096C219.781 37.4387 219.622 36.6793 219.622 35.818C219.622 34.9567 219.781 34.203 220.098 33.557C220.427 32.8997 220.886 32.3953 221.475 32.044C222.076 31.6927 222.767 31.517 223.549 31.517C224.331 31.517 225.023 31.6927 225.623 32.044C226.224 32.3953 226.683 32.8997 227 33.557C227.329 34.203 227.493 34.9567 227.493 35.818C227.493 36.6793 227.329 37.4387 227 38.096C226.683 38.742 226.224 39.2407 225.623 39.592C225.023 39.9433 224.331 40.119 223.549 40.119ZM223.549 38.98C224.365 38.98 224.989 38.7137 225.419 38.181C225.861 37.637 226.082 36.8493 226.082 35.818C226.082 34.8093 225.861 34.033 225.419 33.489C224.977 32.9337 224.354 32.656 223.549 32.656C222.745 32.656 222.121 32.9337 221.679 33.489C221.237 34.033 221.016 34.8093 221.016 35.818C221.016 36.838 221.232 37.62 221.662 38.164C222.104 38.708 222.733 38.98 223.549 38.98ZM235.835 31.551C236.05 31.551 236.215 31.6133 236.328 31.738C236.453 31.8627 236.515 32.027 236.515 32.231V39.422C236.515 39.6147 236.453 39.7733 236.328 39.898C236.215 40.0227 236.05 40.085 235.835 40.085C235.631 40.085 235.467 40.0283 235.342 39.915C235.229 39.7903 235.172 39.6317 235.172 39.439V38.589C234.911 39.0877 234.543 39.4673 234.067 39.728C233.602 39.9887 233.075 40.119 232.486 40.119C231.5 40.119 230.758 39.847 230.259 39.303C229.76 38.7477 229.511 37.9317 229.511 36.855V32.231C229.511 32.027 229.573 31.8627 229.698 31.738C229.823 31.6133 229.993 31.551 230.208 31.551C230.423 31.551 230.588 31.6133 230.701 31.738C230.826 31.8627 230.888 32.027 230.888 32.231V36.821C230.888 37.5577 231.035 38.1017 231.33 38.453C231.625 38.793 232.089 38.963 232.724 38.963C233.449 38.963 234.033 38.7307 234.475 38.266C234.917 37.79 235.138 37.1667 235.138 36.396V32.231C235.138 32.027 235.2 31.8627 235.325 31.738C235.45 31.6133 235.62 31.551 235.835 31.551ZM243.171 31.551C243.647 31.517 243.885 31.7097 243.885 32.129C243.885 32.3103 243.834 32.4577 243.732 32.571C243.63 32.673 243.455 32.7353 243.205 32.758L242.695 32.809C241.936 32.877 241.369 33.149 240.995 33.625C240.633 34.0897 240.451 34.6393 240.451 35.274V39.405C240.451 39.6317 240.389 39.8017 240.264 39.915C240.14 40.0283 239.975 40.085 239.771 40.085C239.567 40.085 239.397 40.0283 239.261 39.915C239.137 39.7903 239.074 39.6203 239.074 39.405V32.231C239.074 32.0157 239.142 31.8513 239.278 31.738C239.414 31.6133 239.579 31.551 239.771 31.551C239.953 31.551 240.106 31.6133 240.23 31.738C240.355 31.8513 240.417 32.01 240.417 32.214V33.166C240.655 32.6673 240.99 32.2877 241.42 32.027C241.862 31.7663 242.367 31.6133 242.933 31.568L243.171 31.551Z" fill="black"/>
</svg>
