<svg width="210" height="46" viewBox="0 0 210 46" fill="none" xmlns="http://www.w3.org/2000/svg">
<path d="M5.17016 34.204C4.51282 34.204 3.98016 34 3.57216 33.592C3.18682 33.184 2.99416 32.6513 2.99416 31.994V12.036C2.99416 11.3787 3.18682 10.8573 3.57216 10.472C3.98016 10.064 4.51282 9.86 5.17016 9.86C5.85016 9.86 6.38282 10.064 6.76816 10.472C7.17616 10.8573 7.38016 11.3787 7.38016 12.036V31.994C7.38016 32.6513 7.17616 33.184 6.76816 33.592C6.38282 34 5.85016 34.204 5.17016 34.204ZM30.7127 9.86C31.3473 9.86 31.846 10.064 32.2087 10.472C32.594 10.8573 32.7867 11.3787 32.7867 12.036V31.994C32.7867 32.6513 32.594 33.184 32.2087 33.592C31.8233 34 31.3247 34.204 30.7127 34.204C29.9873 34.204 29.432 33.9433 29.0467 33.422L16.6367 17.272V31.994C16.6367 32.6513 16.4553 33.184 16.0927 33.592C15.73 34 15.2313 34.204 14.5967 34.204C13.962 34.204 13.4633 34 13.1007 33.592C12.738 33.184 12.5567 32.6513 12.5567 31.994V12.036C12.5567 11.3787 12.7493 10.8573 13.1347 10.472C13.52 10.064 14.03 9.86 14.6647 9.86C15.3673 9.86 15.9113 10.1207 16.2967 10.642L28.6727 26.724V12.036C28.6727 11.3787 28.854 10.8573 29.2167 10.472C29.602 10.064 30.1007 9.86 30.7127 9.86ZM40.133 34.204C39.4757 34.204 38.943 34 38.535 33.592C38.1497 33.184 37.957 32.6513 37.957 31.994V12.104C37.957 11.4467 38.1384 10.9367 38.501 10.574C38.8864 10.2113 39.4077 10.03 40.065 10.03H51.999C53.3817 10.03 54.073 10.6193 54.073 11.798C54.073 12.954 53.3817 13.532 51.999 13.532H42.275V20.06H51.319C52.7017 20.06 53.393 20.6493 53.393 21.828C53.393 22.984 52.7017 23.562 51.319 23.562H42.275V31.994C42.275 32.6513 42.0824 33.184 41.697 33.592C41.3117 34 40.7904 34.204 40.133 34.204ZM59.2889 34C58.6315 34 58.1215 33.8187 57.7589 33.456C57.3962 33.0933 57.2149 32.5947 57.2149 31.96V12.036C57.2149 11.3787 57.4075 10.8573 57.7929 10.472C58.2009 10.064 58.7335 9.86 59.3909 9.86C60.0709 9.86 60.6035 10.064 60.9889 10.472C61.3969 10.8573 61.6009 11.3787 61.6009 12.036V30.396H71.1549C72.5149 30.396 73.1949 30.9967 73.1949 32.198C73.1949 33.3993 72.5149 34 71.1549 34H59.2889ZM85.0053 34.306C81.7187 34.306 79.2253 33.456 77.5253 31.756C75.8253 30.056 74.9753 27.574 74.9753 24.31V12.036C74.9753 11.3787 75.168 10.8573 75.5533 10.472C75.9387 10.064 76.46 9.86 77.1173 9.86C77.7747 9.86 78.296 10.064 78.6813 10.472C79.0667 10.8573 79.2593 11.3787 79.2593 12.036V24.548C79.2593 26.6107 79.7467 28.1747 80.7213 29.24C81.696 30.2827 83.124 30.804 85.0053 30.804C86.864 30.804 88.2807 30.2713 89.2553 29.206C90.23 28.1407 90.7173 26.588 90.7173 24.548V12.036C90.7173 11.3787 90.91 10.8573 91.2953 10.472C91.6807 10.064 92.202 9.86 92.8593 9.86C93.5167 9.86 94.038 10.064 94.4233 10.472C94.8087 10.8573 95.0013 11.3787 95.0013 12.036V24.31C95.0013 27.5513 94.1513 30.0333 92.4513 31.756C90.7513 33.456 88.2693 34.306 85.0053 34.306ZM102.155 34C101.498 34 100.976 33.8187 100.591 33.456C100.228 33.0933 100.047 32.5833 100.047 31.926V12.104C100.047 11.4467 100.228 10.9367 100.591 10.574C100.976 10.2113 101.498 10.03 102.155 10.03H114.429C115.086 10.03 115.596 10.1773 115.959 10.472C116.322 10.7667 116.503 11.186 116.503 11.73C116.503 12.2967 116.322 12.7387 115.959 13.056C115.596 13.3507 115.086 13.498 114.429 13.498H104.331V20.094H113.749C114.406 20.094 114.916 20.2413 115.279 20.536C115.642 20.8307 115.823 21.2613 115.823 21.828C115.823 22.372 115.642 22.7913 115.279 23.086C114.916 23.3807 114.406 23.528 113.749 23.528H104.331V30.532H114.429C115.086 30.532 115.596 30.6907 115.959 31.008C116.322 31.3027 116.503 31.7333 116.503 32.3C116.503 32.844 116.322 33.2633 115.959 33.558C115.596 33.8527 115.086 34 114.429 34H102.155ZM138.224 9.86C138.859 9.86 139.358 10.064 139.72 10.472C140.106 10.8573 140.298 11.3787 140.298 12.036V31.994C140.298 32.6513 140.106 33.184 139.72 33.592C139.335 34 138.836 34.204 138.224 34.204C137.499 34.204 136.944 33.9433 136.558 33.422L124.148 17.272V31.994C124.148 32.6513 123.967 33.184 123.604 33.592C123.242 34 122.743 34.204 122.108 34.204C121.474 34.204 120.975 34 120.612 33.592C120.25 33.184 120.068 32.6513 120.068 31.994V12.036C120.068 11.3787 120.261 10.8573 120.646 10.472C121.032 10.064 121.542 9.86 122.176 9.86C122.879 9.86 123.423 10.1207 123.808 10.642L136.184 26.724V12.036C136.184 11.3787 136.366 10.8573 136.728 10.472C137.114 10.064 137.612 9.86 138.224 9.86ZM156.179 34.306C153.867 34.306 151.838 33.8073 150.093 32.81C148.37 31.8127 147.044 30.3847 146.115 28.526C145.185 26.6673 144.721 24.4913 144.721 21.998C144.721 19.5047 145.185 17.34 146.115 15.504C147.044 13.6453 148.37 12.2173 150.093 11.22C151.838 10.2227 153.867 9.724 156.179 9.724C157.675 9.724 159.08 9.95067 160.395 10.404C161.709 10.8347 162.877 11.4693 163.897 12.308C164.191 12.5347 164.395 12.7727 164.509 13.022C164.622 13.2713 164.679 13.5773 164.679 13.94C164.679 14.4387 164.543 14.858 164.271 15.198C163.999 15.538 163.67 15.708 163.285 15.708C162.831 15.708 162.367 15.5493 161.891 15.232C160.916 14.5067 160.009 14.008 159.171 13.736C158.332 13.4413 157.403 13.294 156.383 13.294C154.025 13.294 152.235 14.0307 151.011 15.504C149.809 16.9773 149.209 19.142 149.209 21.998C149.209 24.8767 149.809 27.0527 151.011 28.526C152.235 29.9993 154.025 30.736 156.383 30.736C157.357 30.736 158.253 30.5887 159.069 30.294C159.907 29.9993 160.848 29.5007 161.891 28.798C162.117 28.662 162.344 28.5487 162.571 28.458C162.797 28.3673 163.035 28.322 163.285 28.322C163.67 28.322 163.999 28.492 164.271 28.832C164.543 29.172 164.679 29.5913 164.679 30.09C164.679 30.43 164.622 30.736 164.509 31.008C164.395 31.2573 164.191 31.4953 163.897 31.722C162.877 32.5607 161.709 33.2067 160.395 33.66C159.08 34.0907 157.675 34.306 156.179 34.306ZM170.62 34C169.962 34 169.441 33.8187 169.056 33.456C168.693 33.0933 168.512 32.5833 168.512 31.926V12.104C168.512 11.4467 168.693 10.9367 169.056 10.574C169.441 10.2113 169.962 10.03 170.62 10.03H182.894C183.551 10.03 184.061 10.1773 184.424 10.472C184.786 10.7667 184.968 11.186 184.968 11.73C184.968 12.2967 184.786 12.7387 184.424 13.056C184.061 13.3507 183.551 13.498 182.894 13.498H172.796V20.094H182.214C182.871 20.094 183.381 20.2413 183.744 20.536C184.106 20.8307 184.288 21.2613 184.288 21.828C184.288 22.372 184.106 22.7913 183.744 23.086C183.381 23.3807 182.871 23.528 182.214 23.528H172.796V30.532H182.894C183.551 30.532 184.061 30.6907 184.424 31.008C184.786 31.3027 184.968 31.7333 184.968 32.3C184.968 32.844 184.786 33.2633 184.424 33.558C184.061 33.8527 183.551 34 182.894 34H170.62ZM207.709 31.246C207.981 31.654 208.117 32.0507 208.117 32.436C208.117 32.9573 207.902 33.388 207.471 33.728C207.063 34.068 206.576 34.238 206.009 34.238C205.647 34.238 205.295 34.1587 204.955 34C204.638 33.8187 204.366 33.558 204.139 33.218L199.617 26.35C199.164 25.6247 198.677 25.1147 198.155 24.82C197.657 24.5253 196.999 24.378 196.183 24.378H192.851V31.994C192.851 32.674 192.659 33.218 192.273 33.626C191.888 34.0113 191.367 34.204 190.709 34.204C190.052 34.204 189.519 34.0113 189.111 33.626C188.726 33.218 188.533 32.674 188.533 31.994V12.104C188.533 11.4467 188.715 10.9367 189.077 10.574C189.463 10.2113 189.984 10.03 190.641 10.03H199.141C201.861 10.03 203.924 10.642 205.329 11.866C206.757 13.0673 207.471 14.8127 207.471 17.102C207.471 18.9607 206.939 20.4907 205.873 21.692C204.831 22.8707 203.346 23.63 201.419 23.97C202.077 24.1287 202.655 24.412 203.153 24.82C203.652 25.228 204.139 25.7947 204.615 26.52L207.709 31.246ZM198.529 21.012C200.184 21.012 201.397 20.706 202.167 20.094C202.938 19.4593 203.323 18.496 203.323 17.204C203.323 15.8893 202.938 14.9373 202.167 14.348C201.397 13.736 200.184 13.43 198.529 13.43H192.817V21.012H198.529Z" fill="black"/>
</svg>
