<svg width="341" height="46" viewBox="0 0 341 46" fill="none" xmlns="http://www.w3.org/2000/svg">
<path d="M5.12719 34.204C4.46985 34.204 3.93719 34.0113 3.52919 33.626C3.14385 33.218 2.95119 32.674 2.95119 31.994V12.104C2.95119 11.4467 3.13252 10.9367 3.49519 10.574C3.88052 10.2113 4.40185 10.03 5.05919 10.03H13.4232C15.9845 10.03 17.9792 10.676 19.4072 11.968C20.8352 13.2373 21.5492 15.028 21.5492 17.34C21.5492 19.652 20.8352 21.454 19.4072 22.746C17.9792 24.038 15.9845 24.684 13.4232 24.684H7.33719V31.994C7.33719 32.674 7.13319 33.218 6.72519 33.626C6.33985 34.0113 5.80719 34.204 5.12719 34.204ZM12.8792 21.318C15.8939 21.318 17.4012 20.0033 17.4012 17.374C17.4012 14.7447 15.8939 13.43 12.8792 13.43H7.33719V21.318H12.8792ZM35.2905 34.306C32.0038 34.306 29.5105 33.456 27.8105 31.756C26.1105 30.056 25.2605 27.574 25.2605 24.31V12.036C25.2605 11.3787 25.4532 10.8573 25.8385 10.472C26.2238 10.064 26.7452 9.86 27.4025 9.86C28.0598 9.86 28.5812 10.064 28.9665 10.472C29.3518 10.8573 29.5445 11.3787 29.5445 12.036V24.548C29.5445 26.6107 30.0318 28.1747 31.0065 29.24C31.9812 30.2827 33.4092 30.804 35.2905 30.804C37.1492 30.804 38.5658 30.2713 39.5405 29.206C40.5152 28.1407 41.0025 26.588 41.0025 24.548V12.036C41.0025 11.3787 41.1952 10.8573 41.5805 10.472C41.9658 10.064 42.4872 9.86 43.1445 9.86C43.8018 9.86 44.3232 10.064 44.7085 10.472C45.0938 10.8573 45.2865 11.3787 45.2865 12.036V24.31C45.2865 27.5513 44.4365 30.0333 42.7365 31.756C41.0365 33.456 38.5545 34.306 35.2905 34.306ZM65.088 21.624C66.4707 22.0093 67.536 22.712 68.284 23.732C69.0547 24.752 69.44 25.9987 69.44 27.472C69.44 29.512 68.7034 31.11 67.23 32.266C65.7794 33.422 63.7734 34 61.212 34H52.44C51.7827 34 51.2614 33.8187 50.876 33.456C50.5134 33.0933 50.332 32.5833 50.332 31.926V12.104C50.332 11.4467 50.5134 10.9367 50.876 10.574C51.2614 10.2113 51.7827 10.03 52.44 10.03H60.872C63.3654 10.03 65.3147 10.5853 66.72 11.696C68.148 12.784 68.862 14.314 68.862 16.286C68.862 17.5553 68.522 18.6547 67.842 19.584C67.1847 20.5133 66.2667 21.1933 65.088 21.624ZM54.616 20.128H60.158C63.1727 20.128 64.68 19.006 64.68 16.762C64.68 15.6287 64.306 14.79 63.558 14.246C62.81 13.702 61.6767 13.43 60.158 13.43H54.616V20.128ZM60.736 30.6C62.3227 30.6 63.4787 30.3167 64.204 29.75C64.9294 29.1833 65.292 28.2993 65.292 27.098C65.292 25.8967 64.918 25.0013 64.17 24.412C63.4447 23.8227 62.3 23.528 60.736 23.528H54.616V30.6H60.736ZM75.615 34C74.9577 34 74.4477 33.8187 74.085 33.456C73.7224 33.0933 73.541 32.5947 73.541 31.96V12.036C73.541 11.3787 73.7337 10.8573 74.119 10.472C74.527 10.064 75.0597 9.86 75.717 9.86C76.397 9.86 76.9297 10.064 77.315 10.472C77.723 10.8573 77.927 11.3787 77.927 12.036V30.396H87.481C88.841 30.396 89.521 30.9967 89.521 32.198C89.521 33.3993 88.841 34 87.481 34H75.615ZM94.5764 34.204C93.9191 34.204 93.3864 34 92.9784 33.592C92.5931 33.184 92.4004 32.6513 92.4004 31.994V12.036C92.4004 11.3787 92.5931 10.8573 92.9784 10.472C93.3864 10.064 93.9191 9.86 94.5764 9.86C95.2564 9.86 95.7891 10.064 96.1744 10.472C96.5824 10.8573 96.7864 11.3787 96.7864 12.036V31.994C96.7864 32.6513 96.5824 33.184 96.1744 33.592C95.7891 34 95.2564 34.204 94.5764 34.204ZM112.673 34.306C110.361 34.306 108.332 33.8073 106.587 32.81C104.864 31.8127 103.538 30.3847 102.609 28.526C101.68 26.6673 101.215 24.4913 101.215 21.998C101.215 19.5047 101.68 17.34 102.609 15.504C103.538 13.6453 104.864 12.2173 106.587 11.22C108.332 10.2227 110.361 9.724 112.673 9.724C114.169 9.724 115.574 9.95067 116.889 10.404C118.204 10.8347 119.371 11.4693 120.391 12.308C120.686 12.5347 120.89 12.7727 121.003 13.022C121.116 13.2713 121.173 13.5773 121.173 13.94C121.173 14.4387 121.037 14.858 120.765 15.198C120.493 15.538 120.164 15.708 119.779 15.708C119.326 15.708 118.861 15.5493 118.385 15.232C117.41 14.5067 116.504 14.008 115.665 13.736C114.826 13.4413 113.897 13.294 112.877 13.294C110.52 13.294 108.729 14.0307 107.505 15.504C106.304 16.9773 105.703 19.142 105.703 21.998C105.703 24.8767 106.304 27.0527 107.505 28.526C108.729 29.9993 110.52 30.736 112.877 30.736C113.852 30.736 114.747 30.5887 115.563 30.294C116.402 29.9993 117.342 29.5007 118.385 28.798C118.612 28.662 118.838 28.5487 119.065 28.458C119.292 28.3673 119.53 28.322 119.779 28.322C120.164 28.322 120.493 28.492 120.765 28.832C121.037 29.172 121.173 29.5913 121.173 30.09C121.173 30.43 121.116 30.736 121.003 31.008C120.89 31.2573 120.686 31.4953 120.391 31.722C119.371 32.5607 118.204 33.2067 116.889 33.66C115.574 34.0907 114.169 34.306 112.673 34.306ZM142.09 34.17C141.41 34.17 140.866 33.9773 140.458 33.592C140.073 33.184 139.88 32.6513 139.88 31.994V13.634H133.692C132.332 13.634 131.652 13.0333 131.652 11.832C131.652 10.6307 132.332 10.03 133.692 10.03H150.454C151.814 10.03 152.494 10.6307 152.494 11.832C152.494 13.0333 151.814 13.634 150.454 13.634H144.266V31.994C144.266 32.6513 144.062 33.184 143.654 33.592C143.269 33.9773 142.748 34.17 142.09 34.17ZM174.264 31.246C174.536 31.654 174.672 32.0507 174.672 32.436C174.672 32.9573 174.457 33.388 174.026 33.728C173.618 34.068 173.131 34.238 172.564 34.238C172.201 34.238 171.85 34.1587 171.51 34C171.193 33.8187 170.921 33.558 170.694 33.218L166.172 26.35C165.719 25.6247 165.231 25.1147 164.71 24.82C164.211 24.5253 163.554 24.378 162.738 24.378H159.406V31.994C159.406 32.674 159.213 33.218 158.828 33.626C158.443 34.0113 157.921 34.204 157.264 34.204C156.607 34.204 156.074 34.0113 155.666 33.626C155.281 33.218 155.088 32.674 155.088 31.994V12.104C155.088 11.4467 155.269 10.9367 155.632 10.574C156.017 10.2113 156.539 10.03 157.196 10.03H165.696C168.416 10.03 170.479 10.642 171.884 11.866C173.312 13.0673 174.026 14.8127 174.026 17.102C174.026 18.9607 173.493 20.4907 172.428 21.692C171.385 22.8707 169.901 23.63 167.974 23.97C168.631 24.1287 169.209 24.412 169.708 24.82C170.207 25.228 170.694 25.7947 171.17 26.52L174.264 31.246ZM165.084 21.012C166.739 21.012 167.951 20.706 168.722 20.094C169.493 19.4593 169.878 18.496 169.878 17.204C169.878 15.8893 169.493 14.9373 168.722 14.348C167.951 13.736 166.739 13.43 165.084 13.43H159.372V21.012H165.084ZM200.189 31.382C200.325 31.6767 200.393 31.9713 200.393 32.266C200.393 32.7873 200.178 33.2293 199.747 33.592C199.339 33.9547 198.863 34.136 198.319 34.136C197.956 34.136 197.616 34.0453 197.299 33.864C196.982 33.66 196.732 33.354 196.551 32.946L194.511 28.39H182.543L180.503 32.946C180.322 33.354 180.072 33.66 179.755 33.864C179.438 34.0453 179.086 34.136 178.701 34.136C178.18 34.136 177.704 33.9547 177.273 33.592C176.842 33.2293 176.627 32.7873 176.627 32.266C176.627 31.9713 176.695 31.6767 176.831 31.382L186.215 11.22C186.419 10.7667 186.725 10.4267 187.133 10.2C187.564 9.95067 188.017 9.826 188.493 9.826C188.969 9.826 189.411 9.95067 189.819 10.2C190.25 10.4267 190.567 10.7667 190.771 11.22L200.189 31.382ZM184.039 24.99H193.015L188.527 14.892L184.039 24.99ZM221.853 9.86C222.488 9.86 222.987 10.064 223.349 10.472C223.735 10.8573 223.927 11.3787 223.927 12.036V31.994C223.927 32.6513 223.735 33.184 223.349 33.592C222.964 34 222.465 34.204 221.853 34.204C221.128 34.204 220.573 33.9433 220.187 33.422L207.777 17.272V31.994C207.777 32.6513 207.596 33.184 207.233 33.592C206.871 34 206.372 34.204 205.737 34.204C205.103 34.204 204.604 34 204.241 33.592C203.879 33.184 203.697 32.6513 203.697 31.994V12.036C203.697 11.3787 203.89 10.8573 204.275 10.472C204.661 10.064 205.171 9.86 205.805 9.86C206.508 9.86 207.052 10.1207 207.437 10.642L219.813 26.724V12.036C219.813 11.3787 219.995 10.8573 220.357 10.472C220.743 10.064 221.241 9.86 221.853 9.86ZM237.394 34.306C235.648 34.306 233.994 34.0793 232.43 33.626C230.888 33.15 229.63 32.5153 228.656 31.722C228.134 31.3367 227.874 30.7927 227.874 30.09C227.874 29.614 228.01 29.206 228.282 28.866C228.576 28.5033 228.916 28.322 229.302 28.322C229.71 28.322 230.174 28.4807 230.696 28.798C231.67 29.5007 232.69 30.0107 233.756 30.328C234.821 30.6453 236 30.804 237.292 30.804C238.946 30.804 240.216 30.5207 241.1 29.954C241.984 29.3647 242.426 28.5147 242.426 27.404C242.426 26.5427 242.006 25.8853 241.168 25.432C240.352 24.956 238.98 24.5027 237.054 24.072C235.059 23.6413 233.438 23.1427 232.192 22.576C230.945 22.0093 230.004 21.284 229.37 20.4C228.735 19.516 228.418 18.394 228.418 17.034C228.418 15.6287 228.814 14.3707 229.608 13.26C230.401 12.1493 231.5 11.288 232.906 10.676C234.334 10.0413 235.932 9.724 237.7 9.724C240.941 9.724 243.582 10.5853 245.622 12.308C245.916 12.5573 246.12 12.8067 246.234 13.056C246.37 13.2827 246.438 13.5773 246.438 13.94C246.438 14.416 246.29 14.8353 245.996 15.198C245.724 15.538 245.395 15.708 245.01 15.708C244.783 15.708 244.568 15.674 244.364 15.606C244.182 15.538 243.933 15.4133 243.616 15.232C242.686 14.552 241.78 14.0533 240.896 13.736C240.034 13.396 238.969 13.226 237.7 13.226C236.158 13.226 234.934 13.5433 234.028 14.178C233.144 14.79 232.702 15.6513 232.702 16.762C232.702 17.6913 233.098 18.4053 233.892 18.904C234.685 19.4027 236.034 19.8673 237.938 20.298C239.955 20.7513 241.587 21.2613 242.834 21.828C244.103 22.372 245.066 23.0747 245.724 23.936C246.404 24.7973 246.744 25.874 246.744 27.166C246.744 28.5713 246.347 29.818 245.554 30.906C244.783 31.9713 243.684 32.81 242.256 33.422C240.85 34.0113 239.23 34.306 237.394 34.306ZM252.955 34.204C252.298 34.204 251.765 34.0113 251.357 33.626C250.972 33.218 250.779 32.674 250.779 31.994V12.104C250.779 11.4467 250.961 10.9367 251.323 10.574C251.709 10.2113 252.23 10.03 252.887 10.03H261.251C263.813 10.03 265.807 10.676 267.235 11.968C268.663 13.2373 269.377 15.028 269.377 17.34C269.377 19.652 268.663 21.454 267.235 22.746C265.807 24.038 263.813 24.684 261.251 24.684H255.165V31.994C255.165 32.674 254.961 33.218 254.553 33.626C254.168 34.0113 253.635 34.204 252.955 34.204ZM260.707 21.318C263.722 21.318 265.229 20.0033 265.229 17.374C265.229 14.7447 263.722 13.43 260.707 13.43H255.165V21.318H260.707ZM283.569 34.306C281.234 34.306 279.205 33.8073 277.483 32.81C275.783 31.8127 274.468 30.3847 273.539 28.526C272.609 26.6673 272.145 24.4913 272.145 21.998C272.145 19.5047 272.598 17.34 273.505 15.504C274.434 13.6453 275.76 12.2173 277.483 11.22C279.205 10.2227 281.234 9.724 283.569 9.724C285.903 9.724 287.921 10.2227 289.621 11.22C291.343 12.2173 292.658 13.6453 293.565 15.504C294.494 17.34 294.959 19.5047 294.959 21.998C294.959 24.4913 294.494 26.6673 293.565 28.526C292.635 30.3847 291.309 31.8127 289.587 32.81C287.887 33.8073 285.881 34.306 283.569 34.306ZM283.569 30.804C285.767 30.804 287.479 30.0447 288.703 28.526C289.949 27.0073 290.573 24.8313 290.573 21.998C290.573 19.1647 289.949 17 288.703 15.504C287.479 13.9853 285.767 13.226 283.569 13.226C281.347 13.226 279.613 13.9853 278.367 15.504C277.143 17 276.531 19.1647 276.531 21.998C276.531 24.8313 277.143 27.0073 278.367 28.526C279.613 30.0447 281.347 30.804 283.569 30.804ZM318.565 31.246C318.837 31.654 318.973 32.0507 318.973 32.436C318.973 32.9573 318.757 33.388 318.327 33.728C317.919 34.068 317.431 34.238 316.865 34.238C316.502 34.238 316.151 34.1587 315.811 34C315.493 33.8187 315.221 33.558 314.995 33.218L310.473 26.35C310.019 25.6247 309.532 25.1147 309.011 24.82C308.512 24.5253 307.855 24.378 307.039 24.378H303.707V31.994C303.707 32.674 303.514 33.218 303.129 33.626C302.743 34.0113 302.222 34.204 301.565 34.204C300.907 34.204 300.375 34.0113 299.967 33.626C299.581 33.218 299.389 32.674 299.389 31.994V12.104C299.389 11.4467 299.57 10.9367 299.933 10.574C300.318 10.2113 300.839 10.03 301.497 10.03H309.997C312.717 10.03 314.779 10.642 316.185 11.866C317.613 13.0673 318.327 14.8127 318.327 17.102C318.327 18.9607 317.794 20.4907 316.729 21.692C315.686 22.8707 314.201 23.63 312.275 23.97C312.932 24.1287 313.51 24.412 314.009 24.82C314.507 25.228 314.995 25.7947 315.471 26.52L318.565 31.246ZM309.385 21.012C311.039 21.012 312.252 20.706 313.023 20.094C313.793 19.4593 314.179 18.496 314.179 17.204C314.179 15.8893 313.793 14.9373 313.023 14.348C312.252 13.736 311.039 13.43 309.385 13.43H303.673V21.012H309.385ZM330.219 34.17C329.539 34.17 328.995 33.9773 328.587 33.592C328.202 33.184 328.009 32.6513 328.009 31.994V13.634H321.821C320.461 13.634 319.781 13.0333 319.781 11.832C319.781 10.6307 320.461 10.03 321.821 10.03H338.583C339.943 10.03 340.623 10.6307 340.623 11.832C340.623 13.0333 339.943 13.634 338.583 13.634H332.395V31.994C332.395 32.6513 332.191 33.184 331.783 33.592C331.398 33.9773 330.877 34.17 330.219 34.17Z" fill="black"/>
</svg>
