<svg width="51" height="22" viewBox="0 0 51 22" fill="none" xmlns="http://www.w3.org/2000/svg">
<path d="M5.304 17.136C4.454 17.136 3.638 17.0113 2.856 16.762C2.08533 16.5013 1.46767 16.1557 1.003 15.725C0.833 15.5663 0.748 15.368 0.748 15.13C0.748 14.9713 0.793333 14.8353 0.884 14.722C0.974667 14.5973 1.08233 14.535 1.207 14.535C1.35433 14.535 1.513 14.5973 1.683 14.722C2.737 15.538 3.93833 15.946 5.287 15.946C6.26167 15.946 7.00967 15.759 7.531 15.385C8.05233 15.011 8.313 14.4783 8.313 13.787C8.313 13.3903 8.18833 13.073 7.939 12.835C7.68967 12.5857 7.361 12.3873 6.953 12.24C6.545 12.0927 5.99533 11.9397 5.304 11.781C4.37467 11.5657 3.60967 11.339 3.009 11.101C2.41967 10.863 1.938 10.523 1.564 10.081C1.20133 9.639 1.02 9.061 1.02 8.347C1.02 7.667 1.20133 7.06633 1.564 6.545C1.938 6.01233 2.45367 5.60433 3.111 5.321C3.77967 5.02633 4.539 4.879 5.389 4.879C6.18233 4.879 6.919 5.00367 7.599 5.253C8.29033 5.491 8.86833 5.83667 9.333 6.29C9.51433 6.47133 9.605 6.66967 9.605 6.885C9.605 7.04367 9.55967 7.18533 9.469 7.31C9.37833 7.42333 9.27067 7.48 9.146 7.48C9.02133 7.48 8.857 7.41767 8.653 7.293C8.09767 6.83967 7.582 6.52233 7.106 6.341C6.63 6.15967 6.05767 6.069 5.389 6.069C4.44833 6.069 3.71733 6.26733 3.196 6.664C2.67467 7.04933 2.414 7.59333 2.414 8.296C2.414 8.89667 2.64067 9.35 3.094 9.656C3.55867 9.95067 4.267 10.2113 5.219 10.438C6.25033 10.6873 7.06067 10.9197 7.65 11.135C8.23933 11.339 8.72667 11.6507 9.112 12.07C9.50867 12.4893 9.707 13.0503 9.707 13.753C9.707 14.4217 9.52 15.011 9.146 15.521C8.78333 16.031 8.26767 16.4277 7.599 16.711C6.93033 16.9943 6.16533 17.136 5.304 17.136ZM17.7682 15.079C17.8929 15.079 18.0005 15.13 18.0912 15.232C18.1819 15.334 18.2272 15.4643 18.2272 15.623C18.2272 15.9063 18.0289 16.167 17.6322 16.405C17.2242 16.643 16.7935 16.8243 16.3402 16.949C15.8869 17.0623 15.4449 17.119 15.0142 17.119C13.7335 17.119 12.7192 16.7393 11.9712 15.98C11.2345 15.2207 10.8662 14.1723 10.8662 12.835C10.8662 11.985 11.0305 11.237 11.3592 10.591C11.6879 9.93367 12.1469 9.42367 12.7362 9.061C13.3369 8.69833 14.0169 8.517 14.7762 8.517C15.8529 8.517 16.7085 8.86833 17.3432 9.571C17.9779 10.2737 18.2952 11.2257 18.2952 12.427C18.2952 12.6537 18.2499 12.818 18.1592 12.92C18.0685 13.022 17.9212 13.073 17.7172 13.073H12.2432C12.3452 15.0223 13.2689 15.997 15.0142 15.997C15.4562 15.997 15.8359 15.9403 16.1532 15.827C16.4705 15.7023 16.8105 15.538 17.1732 15.334C17.4679 15.164 17.6662 15.079 17.7682 15.079ZM14.7932 9.588C14.0679 9.588 13.4842 9.81467 13.0422 10.268C12.6115 10.7213 12.3565 11.3617 12.2772 12.189H17.0882C17.0655 11.3503 16.8559 10.71 16.4592 10.268C16.0625 9.81467 15.5072 9.588 14.7932 9.588ZM23.299 8.517C25.373 8.517 26.41 9.605 26.41 11.781V16.405C26.41 16.609 26.3477 16.7733 26.223 16.898C26.1097 17.0227 25.951 17.085 25.747 17.085C25.543 17.085 25.3787 17.0227 25.254 16.898C25.1294 16.7733 25.067 16.609 25.067 16.405V15.589C24.8517 16.0763 24.523 16.456 24.081 16.728C23.639 16.9887 23.129 17.119 22.551 17.119C22.0184 17.119 21.5254 17.0113 21.072 16.796C20.63 16.5807 20.2787 16.2803 20.018 15.895C19.7574 15.5097 19.627 15.0847 19.627 14.62C19.627 13.9967 19.7857 13.515 20.103 13.175C20.4204 12.8237 20.9417 12.5743 21.667 12.427C22.3924 12.2683 23.401 12.189 24.693 12.189H25.067V11.628C25.067 10.948 24.9254 10.4493 24.642 10.132C24.37 9.81467 23.9224 9.656 23.299 9.656C22.5284 9.656 21.7464 9.86567 20.953 10.285C20.647 10.4777 20.4317 10.574 20.307 10.574C20.171 10.574 20.0577 10.523 19.967 10.421C19.8764 10.319 19.831 10.1887 19.831 10.03C19.831 9.87133 19.8764 9.73533 19.967 9.622C20.069 9.49733 20.2277 9.37267 20.443 9.248C20.8397 9.02133 21.2874 8.84567 21.786 8.721C22.296 8.585 22.8004 8.517 23.299 8.517ZM22.738 16.031C23.418 16.031 23.9734 15.8043 24.404 15.351C24.846 14.8863 25.067 14.2913 25.067 13.566V13.073H24.761C23.7637 13.073 23.0044 13.1183 22.483 13.209C21.9617 13.2883 21.5877 13.43 21.361 13.634C21.1457 13.8267 21.038 14.1157 21.038 14.501C21.038 14.943 21.1967 15.3113 21.514 15.606C21.8427 15.8893 22.2507 16.031 22.738 16.031ZM32.6197 8.551C33.0957 8.517 33.3337 8.70967 33.3337 9.129C33.3337 9.31033 33.2827 9.45767 33.1807 9.571C33.0787 9.673 32.903 9.73533 32.6537 9.758L32.1437 9.809C31.3843 9.877 30.8177 10.149 30.4437 10.625C30.081 11.0897 29.8997 11.6393 29.8997 12.274V16.405C29.8997 16.6317 29.8373 16.8017 29.7127 16.915C29.588 17.0283 29.4237 17.085 29.2197 17.085C29.0157 17.085 28.8457 17.0283 28.7097 16.915C28.585 16.7903 28.5227 16.6203 28.5227 16.405V9.231C28.5227 9.01567 28.5907 8.85133 28.7267 8.738C28.8627 8.61333 29.027 8.551 29.2197 8.551C29.401 8.551 29.554 8.61333 29.6787 8.738C29.8033 8.85133 29.8657 9.01 29.8657 9.214V10.166C30.1037 9.66733 30.438 9.28767 30.8687 9.027C31.3107 8.76633 31.815 8.61333 32.3817 8.568L32.6197 8.551ZM37.3588 17.119C36.5882 17.119 35.9025 16.9433 35.3018 16.592C34.7125 16.2407 34.2535 15.742 33.9248 15.096C33.6075 14.45 33.4488 13.702 33.4488 12.852C33.4488 12.002 33.6132 11.2483 33.9418 10.591C34.2818 9.93367 34.7522 9.42367 35.3528 9.061C35.9535 8.69833 36.6448 8.517 37.4268 8.517C37.8575 8.517 38.2825 8.57933 38.7018 8.704C39.1325 8.81733 39.5065 8.98733 39.8238 9.214C40.0278 9.35 40.1695 9.486 40.2488 9.622C40.3395 9.74667 40.3848 9.88833 40.3848 10.047C40.3848 10.2057 40.3395 10.336 40.2488 10.438C40.1695 10.54 40.0618 10.591 39.9258 10.591C39.8465 10.591 39.7615 10.5683 39.6708 10.523C39.5802 10.4777 39.5008 10.4323 39.4328 10.387C39.3762 10.3417 39.3365 10.3133 39.3138 10.302C39.0192 10.1093 38.7358 9.95633 38.4638 9.843C38.2032 9.72967 37.8802 9.673 37.4948 9.673C36.6675 9.673 36.0215 9.95633 35.5568 10.523C35.1035 11.0783 34.8768 11.8547 34.8768 12.852C34.8768 13.8493 35.1035 14.62 35.5568 15.164C36.0215 15.708 36.6675 15.98 37.4948 15.98C37.8802 15.98 38.2088 15.9233 38.4808 15.81C38.7642 15.6967 39.0475 15.5437 39.3308 15.351C39.4555 15.2717 39.5745 15.2037 39.6878 15.147C39.8012 15.0903 39.8975 15.062 39.9768 15.062C40.1015 15.062 40.2035 15.113 40.2828 15.215C40.3735 15.317 40.4188 15.4473 40.4188 15.606C40.4188 15.7533 40.3792 15.8893 40.2998 16.014C40.2205 16.1273 40.0732 16.2577 39.8578 16.405C39.5405 16.6203 39.1552 16.796 38.7018 16.932C38.2598 17.0567 37.8122 17.119 37.3588 17.119ZM45.8506 8.517C46.8253 8.517 47.5619 8.79467 48.0606 9.35C48.5593 9.894 48.8086 10.71 48.8086 11.798V16.405C48.8086 16.6203 48.7463 16.7903 48.6216 16.915C48.4969 17.0283 48.3326 17.085 48.1286 17.085C47.9133 17.085 47.7433 17.0283 47.6186 16.915C47.4939 16.7903 47.4316 16.6203 47.4316 16.405V11.832C47.4316 11.0953 47.2786 10.5513 46.9726 10.2C46.6779 9.84867 46.2019 9.673 45.5446 9.673C44.7853 9.673 44.1789 9.90533 43.7256 10.37C43.2723 10.8347 43.0456 11.4637 43.0456 12.257V16.405C43.0456 16.6203 42.9833 16.7903 42.8586 16.915C42.7453 17.0283 42.5809 17.085 42.3656 17.085C42.1503 17.085 41.9803 17.0283 41.8556 16.915C41.7309 16.7903 41.6686 16.6203 41.6686 16.405V5.593C41.6686 5.40033 41.7309 5.24167 41.8556 5.117C41.9916 4.99233 42.1616 4.93 42.3656 4.93C42.5809 4.93 42.7453 4.99233 42.8586 5.117C42.9833 5.23033 43.0456 5.389 43.0456 5.593V10.047C43.3176 9.54833 43.6973 9.16867 44.1846 8.908C44.6719 8.64733 45.2273 8.517 45.8506 8.517Z" fill="#3C3C43" fill-opacity="0.6"/>
</svg>
