<svg width="156" height="20" viewBox="0 0 156 20" fill="none" xmlns="http://www.w3.org/2000/svg">
<path d="M1.935 15C1.745 15 1.59 14.945 1.47 14.835C1.36 14.725 1.305 14.58 1.305 14.4V5.025C1.305 4.845 1.36 4.7 1.47 4.59C1.59 4.48 1.745 4.425 1.935 4.425H4.86C6.55 4.425 7.855 4.885 8.775 5.805C9.705 6.715 10.17 8.015 10.17 9.705C10.17 11.395 9.705 12.7 8.775 13.62C7.845 14.54 6.54 15 4.86 15H1.935ZM4.785 13.95C7.525 13.95 8.895 12.535 8.895 9.705C8.895 6.885 7.525 5.475 4.785 5.475H2.535V13.95H4.785ZM15.2439 15.105C14.5539 15.105 13.9439 14.95 13.4139 14.64C12.8939 14.33 12.4889 13.89 12.1989 13.32C11.9189 12.74 11.7789 12.07 11.7789 11.31C11.7789 10.55 11.9189 9.885 12.1989 9.315C12.4889 8.735 12.8939 8.29 13.4139 7.98C13.9439 7.67 14.5539 7.515 15.2439 7.515C15.9339 7.515 16.5439 7.67 17.0739 7.98C17.6039 8.29 18.0089 8.735 18.2889 9.315C18.5789 9.885 18.7239 10.55 18.7239 11.31C18.7239 12.07 18.5789 12.74 18.2889 13.32C18.0089 13.89 17.6039 14.33 17.0739 14.64C16.5439 14.95 15.9339 15.105 15.2439 15.105ZM15.2439 14.1C15.9639 14.1 16.5139 13.865 16.8939 13.395C17.2839 12.915 17.4789 12.22 17.4789 11.31C17.4789 10.42 17.2839 9.735 16.8939 9.255C16.5039 8.765 15.9539 8.52 15.2439 8.52C14.5339 8.52 13.9839 8.765 13.5939 9.255C13.2039 9.735 13.0089 10.42 13.0089 11.31C13.0089 12.21 13.1989 12.9 13.5789 13.38C13.9689 13.86 14.5239 14.1 15.2439 14.1ZM24.2092 7.515C25.9592 7.515 26.8342 8.48 26.8342 10.41V14.475C26.8342 14.665 26.7792 14.815 26.6692 14.925C26.5692 15.025 26.4242 15.075 26.2342 15.075C26.0442 15.075 25.8942 15.025 25.7842 14.925C25.6742 14.815 25.6192 14.665 25.6192 14.475V10.485C25.6192 9.805 25.4842 9.31 25.2142 9C24.9542 8.69 24.5342 8.535 23.9542 8.535C23.2842 8.535 22.7492 8.74 22.3492 9.15C21.9492 9.56 21.7492 10.115 21.7492 10.815V14.475C21.7492 14.665 21.6942 14.815 21.5842 14.925C21.4842 15.025 21.3392 15.075 21.1492 15.075C20.9592 15.075 20.8092 15.025 20.6992 14.925C20.5892 14.815 20.5342 14.665 20.5342 14.475V8.145C20.5342 7.965 20.5892 7.82 20.6992 7.71C20.8092 7.6 20.9592 7.545 21.1492 7.545C21.3292 7.545 21.4692 7.6 21.5692 7.71C21.6792 7.82 21.7342 7.96 21.7342 8.13V8.895C21.9742 8.445 22.3092 8.105 22.7392 7.875C23.1692 7.635 23.6592 7.515 24.2092 7.515ZM29.3513 4.35C29.6013 4.35 29.8013 4.45 29.9513 4.65C30.1113 4.84 30.1913 5.13 30.1913 5.52C30.1913 6.31 29.9363 6.975 29.4263 7.515C29.3263 7.615 29.2163 7.665 29.0963 7.665C28.9863 7.665 28.8913 7.63 28.8113 7.56C28.7313 7.48 28.6913 7.39 28.6913 7.29C28.6913 7.18 28.7313 7.085 28.8113 7.005C29.0713 6.745 29.2363 6.415 29.3063 6.015C29.0863 5.995 28.9013 5.91 28.7513 5.76C28.6113 5.61 28.5413 5.42 28.5413 5.19C28.5413 4.94 28.6163 4.74 28.7663 4.59C28.9263 4.43 29.1213 4.35 29.3513 4.35ZM35.6279 14.115C35.9779 14.145 36.1529 14.305 36.1529 14.595C36.1529 14.765 36.0879 14.895 35.9579 14.985C35.8379 15.065 35.6529 15.095 35.4029 15.075L34.9979 15.045C34.1979 14.985 33.6079 14.745 33.2279 14.325C32.8479 13.905 32.6579 13.27 32.6579 12.42V8.655H31.6529C31.4829 8.655 31.3479 8.615 31.2479 8.535C31.1579 8.445 31.1129 8.33 31.1129 8.19C31.1129 8.04 31.1579 7.92 31.2479 7.83C31.3479 7.74 31.4829 7.695 31.6529 7.695H32.6579V6C32.6579 5.81 32.7129 5.665 32.8229 5.565C32.9329 5.455 33.0829 5.4 33.2729 5.4C33.4529 5.4 33.5979 5.455 33.7079 5.565C33.8179 5.665 33.8729 5.81 33.8729 6V7.695H35.5379C35.6979 7.695 35.8229 7.74 35.9129 7.83C36.0129 7.92 36.0629 8.04 36.0629 8.19C36.0629 8.33 36.0129 8.445 35.9129 8.535C35.8229 8.615 35.6979 8.655 35.5379 8.655H33.8729V12.48C33.8729 13.03 33.9829 13.43 34.2029 13.68C34.4329 13.92 34.7729 14.055 35.2229 14.085L35.6279 14.115ZM44.9078 7.515C45.7678 7.515 46.4178 7.76 46.8578 8.25C47.2978 8.73 47.5178 9.45 47.5178 10.41V14.475C47.5178 14.665 47.4628 14.815 47.3528 14.925C47.2428 15.025 47.0978 15.075 46.9178 15.075C46.7278 15.075 46.5778 15.025 46.4678 14.925C46.3578 14.815 46.3028 14.665 46.3028 14.475V10.44C46.3028 9.79 46.1678 9.31 45.8978 9C45.6378 8.69 45.2178 8.535 44.6378 8.535C43.9678 8.535 43.4328 8.74 43.0328 9.15C42.6328 9.56 42.4328 10.115 42.4328 10.815V14.475C42.4328 14.665 42.3778 14.815 42.2678 14.925C42.1678 15.025 42.0228 15.075 41.8328 15.075C41.6428 15.075 41.4928 15.025 41.3828 14.925C41.2728 14.815 41.2178 14.665 41.2178 14.475V4.935C41.2178 4.765 41.2728 4.625 41.3828 4.515C41.5028 4.405 41.6528 4.35 41.8328 4.35C42.0228 4.35 42.1678 4.405 42.2678 4.515C42.3778 4.615 42.4328 4.755 42.4328 4.935V8.865C42.6728 8.425 43.0078 8.09 43.4378 7.86C43.8678 7.63 44.3578 7.515 44.9078 7.515ZM52.7282 7.515C54.5582 7.515 55.4732 8.475 55.4732 10.395V14.475C55.4732 14.655 55.4182 14.8 55.3082 14.91C55.2082 15.02 55.0682 15.075 54.8882 15.075C54.7082 15.075 54.5632 15.02 54.4532 14.91C54.3432 14.8 54.2882 14.655 54.2882 14.475V13.755C54.0982 14.185 53.8082 14.52 53.4182 14.76C53.0282 14.99 52.5782 15.105 52.0682 15.105C51.5982 15.105 51.1632 15.01 50.7632 14.82C50.3732 14.63 50.0632 14.365 49.8332 14.025C49.6032 13.685 49.4882 13.31 49.4882 12.9C49.4882 12.35 49.6282 11.925 49.9082 11.625C50.1882 11.315 50.6482 11.095 51.2882 10.965C51.9282 10.825 52.8182 10.755 53.9582 10.755H54.2882V10.26C54.2882 9.66 54.1632 9.22 53.9132 8.94C53.6732 8.66 53.2782 8.52 52.7282 8.52C52.0482 8.52 51.3582 8.705 50.6582 9.075C50.3882 9.245 50.1982 9.33 50.0882 9.33C49.9682 9.33 49.8682 9.285 49.7882 9.195C49.7082 9.105 49.6682 8.99 49.6682 8.85C49.6682 8.71 49.7082 8.59 49.7882 8.49C49.8782 8.38 50.0182 8.27 50.2082 8.16C50.5582 7.96 50.9532 7.805 51.3932 7.695C51.8432 7.575 52.2882 7.515 52.7282 7.515ZM52.2332 14.145C52.8332 14.145 53.3232 13.945 53.7032 13.545C54.0932 13.135 54.2882 12.61 54.2882 11.97V11.535H54.0182C53.1382 11.535 52.4682 11.575 52.0082 11.655C51.5482 11.725 51.2182 11.85 51.0182 12.03C50.8282 12.2 50.7332 12.455 50.7332 12.795C50.7332 13.185 50.8732 13.51 51.1532 13.77C51.4432 14.02 51.8032 14.145 52.2332 14.145ZM62.9623 7.92C63.0723 7.68 63.2473 7.56 63.4873 7.56C63.6373 7.56 63.7723 7.61 63.8923 7.71C64.0123 7.81 64.0723 7.935 64.0723 8.085C64.0723 8.175 64.0523 8.255 64.0123 8.325L61.0873 14.625C61.0273 14.755 60.9373 14.86 60.8173 14.94C60.6973 15.01 60.5673 15.045 60.4273 15.045C60.2973 15.045 60.1723 15.01 60.0523 14.94C59.9323 14.86 59.8373 14.755 59.7673 14.625L56.8573 8.325C56.8173 8.255 56.7973 8.18 56.7973 8.1C56.7973 7.95 56.8623 7.82 56.9923 7.71C57.1323 7.6 57.2823 7.545 57.4423 7.545C57.5423 7.545 57.6373 7.575 57.7273 7.635C57.8273 7.695 57.9023 7.78 57.9523 7.89L60.4573 13.515L62.9623 7.92ZM70.9695 13.305C71.0795 13.305 71.1745 13.35 71.2545 13.44C71.3345 13.53 71.3745 13.645 71.3745 13.785C71.3745 14.035 71.1995 14.265 70.8495 14.475C70.4895 14.685 70.1095 14.845 69.7095 14.955C69.3095 15.055 68.9195 15.105 68.5395 15.105C67.4095 15.105 66.5145 14.77 65.8545 14.1C65.2045 13.43 64.8795 12.505 64.8795 11.325C64.8795 10.575 65.0245 9.915 65.3145 9.345C65.6045 8.765 66.0095 8.315 66.5295 7.995C67.0595 7.675 67.6595 7.515 68.3295 7.515C69.2795 7.515 70.0345 7.825 70.5945 8.445C71.1545 9.065 71.4345 9.905 71.4345 10.965C71.4345 11.165 71.3945 11.31 71.3145 11.4C71.2345 11.49 71.1045 11.535 70.9245 11.535H66.0945C66.1845 13.255 66.9995 14.115 68.5395 14.115C68.9295 14.115 69.2645 14.065 69.5445 13.965C69.8245 13.855 70.1245 13.71 70.4445 13.53C70.7045 13.38 70.8795 13.305 70.9695 13.305ZM68.3445 8.46C67.7045 8.46 67.1895 8.66 66.7995 9.06C66.4195 9.46 66.1945 10.025 66.1245 10.755H70.3695C70.3495 10.015 70.1645 9.45 69.8145 9.06C69.4645 8.66 68.9745 8.46 68.3445 8.46ZM80.0768 7.515C81.9068 7.515 82.8218 8.475 82.8218 10.395V14.475C82.8218 14.655 82.7668 14.8 82.6568 14.91C82.5568 15.02 82.4168 15.075 82.2368 15.075C82.0568 15.075 81.9118 15.02 81.8018 14.91C81.6918 14.8 81.6368 14.655 81.6368 14.475V13.755C81.4468 14.185 81.1568 14.52 80.7668 14.76C80.3768 14.99 79.9268 15.105 79.4168 15.105C78.9468 15.105 78.5118 15.01 78.1118 14.82C77.7218 14.63 77.4118 14.365 77.1818 14.025C76.9518 13.685 76.8368 13.31 76.8368 12.9C76.8368 12.35 76.9768 11.925 77.2568 11.625C77.5368 11.315 77.9968 11.095 78.6368 10.965C79.2768 10.825 80.1668 10.755 81.3068 10.755H81.6368V10.26C81.6368 9.66 81.5118 9.22 81.2618 8.94C81.0218 8.66 80.6268 8.52 80.0768 8.52C79.3968 8.52 78.7068 8.705 78.0068 9.075C77.7368 9.245 77.5468 9.33 77.4368 9.33C77.3168 9.33 77.2168 9.285 77.1368 9.195C77.0568 9.105 77.0168 8.99 77.0168 8.85C77.0168 8.71 77.0568 8.59 77.1368 8.49C77.2268 8.38 77.3668 8.27 77.5568 8.16C77.9068 7.96 78.3018 7.805 78.7418 7.695C79.1918 7.575 79.6368 7.515 80.0768 7.515ZM79.5818 14.145C80.1818 14.145 80.6718 13.945 81.0518 13.545C81.4418 13.135 81.6368 12.61 81.6368 11.97V11.535H81.3668C80.4868 11.535 79.8168 11.575 79.3568 11.655C78.8968 11.725 78.5668 11.85 78.3668 12.03C78.1768 12.2 78.0818 12.455 78.0818 12.795C78.0818 13.185 78.2218 13.51 78.5018 13.77C78.7918 14.02 79.1518 14.145 79.5818 14.145ZM88.7209 7.515C90.4709 7.515 91.3459 8.48 91.3459 10.41V14.475C91.3459 14.665 91.2909 14.815 91.1809 14.925C91.0809 15.025 90.9359 15.075 90.7459 15.075C90.5559 15.075 90.4059 15.025 90.2959 14.925C90.1859 14.815 90.1309 14.665 90.1309 14.475V10.485C90.1309 9.805 89.9959 9.31 89.7259 9C89.4659 8.69 89.0459 8.535 88.4659 8.535C87.7959 8.535 87.2609 8.74 86.8609 9.15C86.4609 9.56 86.2609 10.115 86.2609 10.815V14.475C86.2609 14.665 86.2059 14.815 86.0959 14.925C85.9959 15.025 85.8509 15.075 85.6609 15.075C85.4709 15.075 85.3209 15.025 85.2109 14.925C85.1009 14.815 85.0459 14.665 85.0459 14.475V8.145C85.0459 7.965 85.1009 7.82 85.2109 7.71C85.3209 7.6 85.4709 7.545 85.6609 7.545C85.8409 7.545 85.9809 7.6 86.0809 7.71C86.1909 7.82 86.2459 7.96 86.2459 8.13V8.895C86.4859 8.445 86.8209 8.105 87.2509 7.875C87.6809 7.635 88.1709 7.515 88.7209 7.515ZM100.423 7.515C102.253 7.515 103.168 8.475 103.168 10.395V14.475C103.168 14.655 103.113 14.8 103.003 14.91C102.903 15.02 102.763 15.075 102.583 15.075C102.403 15.075 102.258 15.02 102.148 14.91C102.038 14.8 101.983 14.655 101.983 14.475V13.755C101.793 14.185 101.503 14.52 101.113 14.76C100.723 14.99 100.273 15.105 99.7635 15.105C99.2935 15.105 98.8585 15.01 98.4585 14.82C98.0685 14.63 97.7585 14.365 97.5285 14.025C97.2985 13.685 97.1835 13.31 97.1835 12.9C97.1835 12.35 97.3235 11.925 97.6035 11.625C97.8835 11.315 98.3435 11.095 98.9835 10.965C99.6235 10.825 100.513 10.755 101.653 10.755H101.983V10.26C101.983 9.66 101.858 9.22 101.608 8.94C101.368 8.66 100.973 8.52 100.423 8.52C99.7435 8.52 99.0535 8.705 98.3535 9.075C98.0835 9.245 97.8935 9.33 97.7835 9.33C97.6635 9.33 97.5635 9.285 97.4835 9.195C97.4035 9.105 97.3635 8.99 97.3635 8.85C97.3635 8.71 97.4035 8.59 97.4835 8.49C97.5735 8.38 97.7135 8.27 97.9035 8.16C98.2535 7.96 98.6485 7.805 99.0885 7.695C99.5385 7.575 99.9835 7.515 100.423 7.515ZM99.9285 14.145C100.528 14.145 101.018 13.945 101.398 13.545C101.788 13.135 101.983 12.61 101.983 11.97V11.535H101.713C100.833 11.535 100.163 11.575 99.7035 11.655C99.2435 11.725 98.9135 11.85 98.7135 12.03C98.5235 12.2 98.4285 12.455 98.4285 12.795C98.4285 13.185 98.5685 13.51 98.8485 13.77C99.1385 14.02 99.4985 14.145 99.9285 14.145ZM108.408 15.105C107.728 15.105 107.123 14.95 106.593 14.64C106.073 14.33 105.668 13.89 105.378 13.32C105.098 12.75 104.958 12.09 104.958 11.34C104.958 10.59 105.103 9.925 105.393 9.345C105.693 8.765 106.108 8.315 106.638 7.995C107.168 7.675 107.778 7.515 108.468 7.515C108.848 7.515 109.223 7.57 109.593 7.68C109.973 7.78 110.303 7.93 110.583 8.13C110.763 8.25 110.888 8.37 110.958 8.49C111.038 8.6 111.078 8.725 111.078 8.865C111.078 9.005 111.038 9.12 110.958 9.21C110.888 9.3 110.793 9.345 110.673 9.345C110.603 9.345 110.528 9.325 110.448 9.285C110.368 9.245 110.298 9.205 110.238 9.165C110.188 9.125 110.153 9.1 110.133 9.09C109.873 8.92 109.623 8.785 109.383 8.685C109.153 8.585 108.868 8.535 108.528 8.535C107.798 8.535 107.228 8.785 106.818 9.285C106.418 9.775 106.218 10.46 106.218 11.34C106.218 12.22 106.418 12.9 106.818 13.38C107.228 13.86 107.798 14.1 108.528 14.1C108.868 14.1 109.158 14.05 109.398 13.95C109.648 13.85 109.898 13.715 110.148 13.545C110.258 13.475 110.363 13.415 110.463 13.365C110.563 13.315 110.648 13.29 110.718 13.29C110.828 13.29 110.918 13.335 110.988 13.425C111.068 13.515 111.108 13.63 111.108 13.77C111.108 13.9 111.073 14.02 111.003 14.13C110.933 14.23 110.803 14.345 110.613 14.475C110.333 14.665 109.993 14.82 109.593 14.94C109.203 15.05 108.808 15.105 108.408 15.105ZM115.585 15.105C114.905 15.105 114.3 14.95 113.77 14.64C113.25 14.33 112.845 13.89 112.555 13.32C112.275 12.75 112.135 12.09 112.135 11.34C112.135 10.59 112.28 9.925 112.57 9.345C112.87 8.765 113.285 8.315 113.815 7.995C114.345 7.675 114.955 7.515 115.645 7.515C116.025 7.515 116.4 7.57 116.77 7.68C117.15 7.78 117.48 7.93 117.76 8.13C117.94 8.25 118.065 8.37 118.135 8.49C118.215 8.6 118.255 8.725 118.255 8.865C118.255 9.005 118.215 9.12 118.135 9.21C118.065 9.3 117.97 9.345 117.85 9.345C117.78 9.345 117.705 9.325 117.625 9.285C117.545 9.245 117.475 9.205 117.415 9.165C117.365 9.125 117.33 9.1 117.31 9.09C117.05 8.92 116.8 8.785 116.56 8.685C116.33 8.585 116.045 8.535 115.705 8.535C114.975 8.535 114.405 8.785 113.995 9.285C113.595 9.775 113.395 10.46 113.395 11.34C113.395 12.22 113.595 12.9 113.995 13.38C114.405 13.86 114.975 14.1 115.705 14.1C116.045 14.1 116.335 14.05 116.575 13.95C116.825 13.85 117.075 13.715 117.325 13.545C117.435 13.475 117.54 13.415 117.64 13.365C117.74 13.315 117.825 13.29 117.895 13.29C118.005 13.29 118.095 13.335 118.165 13.425C118.245 13.515 118.285 13.63 118.285 13.77C118.285 13.9 118.25 14.02 118.18 14.13C118.11 14.23 117.98 14.345 117.79 14.475C117.51 14.665 117.17 14.82 116.77 14.94C116.38 15.05 115.985 15.105 115.585 15.105ZM122.778 15.105C122.088 15.105 121.478 14.95 120.948 14.64C120.428 14.33 120.023 13.89 119.733 13.32C119.453 12.74 119.313 12.07 119.313 11.31C119.313 10.55 119.453 9.885 119.733 9.315C120.023 8.735 120.428 8.29 120.948 7.98C121.478 7.67 122.088 7.515 122.778 7.515C123.468 7.515 124.078 7.67 124.608 7.98C125.138 8.29 125.543 8.735 125.823 9.315C126.113 9.885 126.258 10.55 126.258 11.31C126.258 12.07 126.113 12.74 125.823 13.32C125.543 13.89 125.138 14.33 124.608 14.64C124.078 14.95 123.468 15.105 122.778 15.105ZM122.778 14.1C123.498 14.1 124.048 13.865 124.428 13.395C124.818 12.915 125.013 12.22 125.013 11.31C125.013 10.42 124.818 9.735 124.428 9.255C124.038 8.765 123.488 8.52 122.778 8.52C122.068 8.52 121.518 8.765 121.128 9.255C120.738 9.735 120.543 10.42 120.543 11.31C120.543 12.21 120.733 12.9 121.113 13.38C121.503 13.86 122.058 14.1 122.778 14.1ZM133.618 7.545C133.808 7.545 133.953 7.6 134.053 7.71C134.163 7.82 134.218 7.965 134.218 8.145V14.49C134.218 14.66 134.163 14.8 134.053 14.91C133.953 15.02 133.808 15.075 133.618 15.075C133.438 15.075 133.293 15.025 133.183 14.925C133.083 14.815 133.033 14.675 133.033 14.505V13.755C132.803 14.195 132.478 14.53 132.058 14.76C131.648 14.99 131.183 15.105 130.663 15.105C129.793 15.105 129.138 14.865 128.698 14.385C128.258 13.895 128.038 13.175 128.038 12.225V8.145C128.038 7.965 128.093 7.82 128.203 7.71C128.313 7.6 128.463 7.545 128.653 7.545C128.843 7.545 128.988 7.6 129.088 7.71C129.198 7.82 129.253 7.965 129.253 8.145V12.195C129.253 12.845 129.383 13.325 129.643 13.635C129.903 13.935 130.313 14.085 130.873 14.085C131.513 14.085 132.028 13.88 132.418 13.47C132.808 13.05 133.003 12.5 133.003 11.82V8.145C133.003 7.965 133.058 7.82 133.168 7.71C133.278 7.6 133.428 7.545 133.618 7.545ZM140.152 7.515C141.902 7.515 142.777 8.48 142.777 10.41V14.475C142.777 14.665 142.722 14.815 142.612 14.925C142.512 15.025 142.367 15.075 142.177 15.075C141.987 15.075 141.837 15.025 141.727 14.925C141.617 14.815 141.562 14.665 141.562 14.475V10.485C141.562 9.805 141.427 9.31 141.157 9C140.897 8.69 140.477 8.535 139.897 8.535C139.227 8.535 138.692 8.74 138.292 9.15C137.892 9.56 137.692 10.115 137.692 10.815V14.475C137.692 14.665 137.637 14.815 137.527 14.925C137.427 15.025 137.282 15.075 137.092 15.075C136.902 15.075 136.752 15.025 136.642 14.925C136.532 14.815 136.477 14.665 136.477 14.475V8.145C136.477 7.965 136.532 7.82 136.642 7.71C136.752 7.6 136.902 7.545 137.092 7.545C137.272 7.545 137.412 7.6 137.512 7.71C137.622 7.82 137.677 7.96 137.677 8.13V8.895C137.917 8.445 138.252 8.105 138.682 7.875C139.112 7.635 139.602 7.515 140.152 7.515ZM148.377 14.115C148.727 14.145 148.902 14.305 148.902 14.595C148.902 14.765 148.837 14.895 148.707 14.985C148.587 15.065 148.402 15.095 148.152 15.075L147.747 15.045C146.947 14.985 146.357 14.745 145.977 14.325C145.597 13.905 145.407 13.27 145.407 12.42V8.655H144.402C144.232 8.655 144.097 8.615 143.997 8.535C143.907 8.445 143.862 8.33 143.862 8.19C143.862 8.04 143.907 7.92 143.997 7.83C144.097 7.74 144.232 7.695 144.402 7.695H145.407V6C145.407 5.81 145.462 5.665 145.572 5.565C145.682 5.455 145.832 5.4 146.022 5.4C146.202 5.4 146.347 5.455 146.457 5.565C146.567 5.665 146.622 5.81 146.622 6V7.695H148.287C148.447 7.695 148.572 7.74 148.662 7.83C148.762 7.92 148.812 8.04 148.812 8.19C148.812 8.33 148.762 8.445 148.662 8.535C148.572 8.615 148.447 8.655 148.287 8.655H146.622V12.48C146.622 13.03 146.732 13.43 146.952 13.68C147.182 13.92 147.522 14.055 147.972 14.085L148.377 14.115ZM152.124 12.315C152.014 12.315 151.924 12.275 151.854 12.195C151.784 12.115 151.749 12.005 151.749 11.865C151.749 11.245 151.859 10.715 152.079 10.275C152.309 9.835 152.634 9.355 153.054 8.835C153.394 8.405 153.644 8.04 153.804 7.74C153.974 7.44 154.059 7.105 154.059 6.735C154.059 6.305 153.904 5.97 153.594 5.73C153.284 5.48 152.864 5.355 152.334 5.355C151.884 5.355 151.469 5.445 151.089 5.625C150.709 5.795 150.279 6.06 149.799 6.42C149.629 6.54 149.489 6.6 149.379 6.6C149.259 6.6 149.159 6.55 149.079 6.45C149.009 6.34 148.974 6.215 148.974 6.075C148.974 5.875 149.054 5.7 149.214 5.55C149.614 5.17 150.099 4.87 150.669 4.65C151.249 4.42 151.824 4.305 152.394 4.305C153.264 4.305 153.964 4.52 154.494 4.95C155.034 5.38 155.304 5.945 155.304 6.645C155.304 7.175 155.189 7.635 154.959 8.025C154.739 8.405 154.399 8.855 153.939 9.375C153.509 9.865 153.174 10.3 152.934 10.68C152.704 11.05 152.564 11.48 152.514 11.97C152.504 12.08 152.464 12.165 152.394 12.225C152.324 12.285 152.234 12.315 152.124 12.315ZM152.139 15.075C151.899 15.075 151.699 14.995 151.539 14.835C151.389 14.675 151.314 14.475 151.314 14.235C151.314 13.995 151.389 13.795 151.539 13.635C151.699 13.465 151.899 13.38 152.139 13.38C152.379 13.38 152.574 13.465 152.724 13.635C152.884 13.795 152.964 13.995 152.964 14.235C152.964 14.475 152.884 14.675 152.724 14.835C152.574 14.995 152.379 15.075 152.139 15.075Z" fill="white"/>
<path d="M0 16.5H155.664V17.25H0V16.5Z" fill="white"/>
</svg>
