<svg width="45" height="25" viewBox="0 0 45 25" fill="none" xmlns="http://www.w3.org/2000/svg">
<path d="M2.69283 18C2.40483 18 2.17683 17.922 2.00883 17.766C1.85283 17.598 1.77483 17.376 1.77483 17.1V6.21C1.77483 5.934 1.85283 5.718 2.00883 5.562C2.17683 5.394 2.40483 5.31 2.69283 5.31H9.31683C9.59283 5.31 9.80283 5.376 9.94683 5.508C10.1028 5.64 10.1808 5.826 10.1808 6.066C10.1808 6.306 10.1028 6.492 9.94683 6.624C9.80283 6.744 9.59283 6.804 9.31683 6.804H3.59283V10.8H8.95683C9.23283 10.8 9.44283 10.866 9.58683 10.998C9.74283 11.13 9.82083 11.316 9.82083 11.556C9.82083 11.796 9.74283 11.982 9.58683 12.114C9.44283 12.246 9.23283 12.312 8.95683 12.312H3.59283V16.506H9.31683C9.89283 16.506 10.1808 16.752 10.1808 17.244C10.1808 17.484 10.1028 17.67 9.94683 17.802C9.80283 17.934 9.59283 18 9.31683 18H2.69283ZM22.1681 9C24.1361 9 25.1201 10.182 25.1201 12.546V17.226C25.1201 17.502 25.0361 17.718 24.8681 17.874C24.7001 18.018 24.4781 18.09 24.2021 18.09C23.9381 18.09 23.7221 18.018 23.5541 17.874C23.3861 17.718 23.3021 17.502 23.3021 17.226V12.564C23.3021 11.832 23.1701 11.304 22.9061 10.98C22.6421 10.644 22.2281 10.476 21.6641 10.476C21.0041 10.476 20.4821 10.704 20.0981 11.16C19.7141 11.604 19.5221 12.216 19.5221 12.996V17.226C19.5221 17.502 19.4381 17.718 19.2701 17.874C19.1021 18.018 18.8801 18.09 18.6041 18.09C18.3401 18.09 18.1241 18.018 17.9561 17.874C17.7881 17.718 17.7041 17.502 17.7041 17.226V12.564C17.7041 11.832 17.5721 11.304 17.3081 10.98C17.0441 10.644 16.6301 10.476 16.0661 10.476C15.4061 10.476 14.8781 10.704 14.4821 11.16C14.0981 11.604 13.9061 12.216 13.9061 12.996V17.226C13.9061 17.502 13.8221 17.718 13.6541 17.874C13.4861 18.018 13.2701 18.09 13.0061 18.09C12.7421 18.09 12.5201 18.018 12.3401 17.874C12.1721 17.718 12.0881 17.502 12.0881 17.226V9.9C12.0881 9.636 12.1781 9.426 12.3581 9.27C12.5381 9.114 12.7541 9.036 13.0061 9.036C13.2581 9.036 13.4621 9.114 13.6181 9.27C13.7861 9.414 13.8701 9.618 13.8701 9.882V10.548C14.1341 10.044 14.5001 9.66 14.9681 9.396C15.4361 9.132 15.9761 9 16.5881 9C17.2601 9 17.8121 9.138 18.2441 9.414C18.6881 9.69 19.0181 10.116 19.2341 10.692C19.4981 10.176 19.8881 9.768 20.4041 9.468C20.9201 9.156 21.5081 9 22.1681 9ZM31.2996 9C32.4636 9 33.3276 9.294 33.8916 9.882C34.4676 10.47 34.7556 11.364 34.7556 12.564V17.226C34.7556 17.502 34.6776 17.718 34.5216 17.874C34.3656 18.018 34.1496 18.09 33.8736 18.09C33.6096 18.09 33.3996 18.012 33.2436 17.856C33.0876 17.7 33.0096 17.49 33.0096 17.226V16.56C32.7816 17.064 32.4396 17.454 31.9836 17.73C31.5396 17.994 31.0176 18.126 30.4176 18.126C29.8416 18.126 29.3136 18.012 28.8336 17.784C28.3656 17.544 27.9936 17.22 27.7176 16.812C27.4416 16.404 27.3036 15.942 27.3036 15.426C27.2916 14.778 27.4536 14.274 27.7896 13.914C28.1256 13.542 28.6716 13.278 29.4276 13.122C30.1836 12.954 31.2336 12.87 32.5776 12.87H32.9916V12.348C32.9916 11.676 32.8536 11.19 32.5776 10.89C32.3016 10.59 31.8576 10.44 31.2456 10.44C30.8256 10.44 30.4296 10.494 30.0576 10.602C29.6856 10.71 29.2776 10.866 28.8336 11.07C28.5096 11.25 28.2816 11.34 28.1496 11.34C27.9696 11.34 27.8196 11.274 27.6996 11.142C27.5916 11.01 27.5376 10.842 27.5376 10.638C27.5376 10.458 27.5856 10.302 27.6816 10.17C27.7896 10.026 27.9576 9.888 28.1856 9.756C28.6056 9.528 29.0976 9.348 29.6616 9.216C30.2256 9.072 30.7716 9 31.2996 9ZM30.7416 16.776C31.4016 16.776 31.9416 16.554 32.3616 16.11C32.7816 15.654 32.9916 15.072 32.9916 14.364V13.896H32.6676C31.7316 13.896 31.0116 13.938 30.5076 14.022C30.0036 14.106 29.6436 14.25 29.4276 14.454C29.2116 14.646 29.1036 14.928 29.1036 15.3C29.1036 15.732 29.2596 16.086 29.5716 16.362C29.8836 16.638 30.2736 16.776 30.7416 16.776ZM38.1604 18.09C37.8964 18.09 37.6744 18.018 37.4944 17.874C37.3264 17.73 37.2424 17.514 37.2424 17.226V9.918C37.2424 9.63 37.3264 9.414 37.4944 9.27C37.6744 9.114 37.8964 9.036 38.1604 9.036C38.4244 9.036 38.6404 9.114 38.8084 9.27C38.9764 9.414 39.0604 9.63 39.0604 9.918V17.226C39.0604 17.514 38.9764 17.73 38.8084 17.874C38.6404 18.018 38.4244 18.09 38.1604 18.09ZM38.1604 7.272C37.8124 7.272 37.5364 7.176 37.3324 6.984C37.1284 6.792 37.0264 6.54 37.0264 6.228C37.0264 5.916 37.1284 5.67 37.3324 5.49C37.5364 5.298 37.8124 5.202 38.1604 5.202C38.4964 5.202 38.7664 5.298 38.9704 5.49C39.1864 5.67 39.2944 5.916 39.2944 6.228C39.2944 6.54 39.1924 6.792 38.9884 6.984C38.7844 7.176 38.5084 7.272 38.1604 7.272ZM42.5198 18.09C42.2558 18.09 42.0338 18.018 41.8538 17.874C41.6858 17.73 41.6018 17.514 41.6018 17.226V6.102C41.6018 5.814 41.6858 5.598 41.8538 5.454C42.0338 5.298 42.2558 5.22 42.5198 5.22C42.7838 5.22 42.9998 5.298 43.1678 5.454C43.3358 5.598 43.4198 5.814 43.4198 6.102V17.226C43.4198 17.514 43.3358 17.73 43.1678 17.874C42.9998 18.018 42.7838 18.09 42.5198 18.09Z" fill="white"/>
</svg>
