<svg width="154" height="20" viewBox="0 0 154 20" fill="none" xmlns="http://www.w3.org/2000/svg">
<path d="M1.92 15.075C1.73 15.075 1.58 15.02 1.47 14.91C1.36 14.79 1.305 14.635 1.305 14.445V5.025C1.305 4.845 1.36 4.7 1.47 4.59C1.59 4.48 1.745 4.425 1.935 4.425H7.395C7.575 4.425 7.715 4.47 7.815 4.56C7.915 4.65 7.965 4.78 7.965 4.95C7.965 5.11 7.915 5.235 7.815 5.325C7.715 5.415 7.575 5.46 7.395 5.46H2.52V9.105H7.095C7.275 9.105 7.415 9.15 7.515 9.24C7.615 9.33 7.665 9.46 7.665 9.63C7.665 9.79 7.615 9.915 7.515 10.005C7.415 10.095 7.275 10.14 7.095 10.14H2.52V14.445C2.52 14.635 2.465 14.79 2.355 14.91C2.255 15.02 2.11 15.075 1.92 15.075ZM12.3581 15.105C11.6681 15.105 11.0581 14.95 10.5281 14.64C10.0081 14.33 9.60313 13.89 9.31313 13.32C9.03313 12.74 8.89313 12.07 8.89313 11.31C8.89313 10.55 9.03313 9.885 9.31313 9.315C9.60313 8.735 10.0081 8.29 10.5281 7.98C11.0581 7.67 11.6681 7.515 12.3581 7.515C13.0481 7.515 13.6581 7.67 14.1881 7.98C14.7181 8.29 15.1231 8.735 15.4031 9.315C15.6931 9.885 15.8381 10.55 15.8381 11.31C15.8381 12.07 15.6931 12.74 15.4031 13.32C15.1231 13.89 14.7181 14.33 14.1881 14.64C13.6581 14.95 13.0481 15.105 12.3581 15.105ZM12.3581 14.1C13.0781 14.1 13.6281 13.865 14.0081 13.395C14.3981 12.915 14.5931 12.22 14.5931 11.31C14.5931 10.42 14.3981 9.735 14.0081 9.255C13.6181 8.765 13.0681 8.52 12.3581 8.52C11.6481 8.52 11.0981 8.765 10.7081 9.255C10.3181 9.735 10.1231 10.42 10.1231 11.31C10.1231 12.21 10.3131 12.9 10.6931 13.38C11.0831 13.86 11.6381 14.1 12.3581 14.1ZM21.2634 7.545C21.6834 7.515 21.8934 7.685 21.8934 8.055C21.8934 8.215 21.8484 8.345 21.7584 8.445C21.6684 8.535 21.5134 8.59 21.2934 8.61L20.8434 8.655C20.1734 8.715 19.6734 8.955 19.3434 9.375C19.0234 9.785 18.8634 10.27 18.8634 10.83V14.475C18.8634 14.675 18.8084 14.825 18.6984 14.925C18.5884 15.025 18.4434 15.075 18.2634 15.075C18.0834 15.075 17.9334 15.025 17.8134 14.925C17.7034 14.815 17.6484 14.665 17.6484 14.475V8.145C17.6484 7.955 17.7084 7.81 17.8284 7.71C17.9484 7.6 18.0934 7.545 18.2634 7.545C18.4234 7.545 18.5584 7.6 18.6684 7.71C18.7784 7.81 18.8334 7.95 18.8334 8.13V8.97C19.0434 8.53 19.3384 8.195 19.7184 7.965C20.1084 7.735 20.5534 7.6 21.0534 7.56L21.2634 7.545ZM28.715 7.545C28.905 7.545 29.055 7.6 29.165 7.71C29.275 7.82 29.33 7.965 29.33 8.145V14.505C29.33 15.595 29.05 16.415 28.49 16.965C27.93 17.525 27.1 17.805 26 17.805C24.93 17.805 24.04 17.595 23.33 17.175C22.97 16.975 22.79 16.745 22.79 16.485C22.79 16.345 22.825 16.23 22.895 16.14C22.975 16.05 23.075 16.005 23.195 16.005C23.295 16.005 23.475 16.075 23.735 16.215C24.085 16.395 24.43 16.54 24.77 16.65C25.11 16.76 25.515 16.815 25.985 16.815C26.695 16.815 27.23 16.625 27.59 16.245C27.95 15.875 28.13 15.33 28.13 14.61V13.32C27.92 13.79 27.595 14.15 27.155 14.4C26.725 14.65 26.215 14.775 25.625 14.775C24.985 14.775 24.415 14.625 23.915 14.325C23.425 14.025 23.04 13.6 22.76 13.05C22.49 12.5 22.355 11.865 22.355 11.145C22.355 10.425 22.49 9.79 22.76 9.24C23.04 8.69 23.425 8.265 23.915 7.965C24.415 7.665 24.985 7.515 25.625 7.515C26.205 7.515 26.71 7.64 27.14 7.89C27.57 8.14 27.895 8.495 28.115 8.955V8.145C28.115 7.965 28.165 7.82 28.265 7.71C28.375 7.6 28.525 7.545 28.715 7.545ZM25.865 13.77C26.565 13.77 27.115 13.54 27.515 13.08C27.915 12.61 28.115 11.965 28.115 11.145C28.115 10.335 27.915 9.7 27.515 9.24C27.125 8.77 26.575 8.535 25.865 8.535C25.155 8.535 24.595 8.77 24.185 9.24C23.785 9.7 23.585 10.335 23.585 11.145C23.585 11.965 23.785 12.61 24.185 13.08C24.595 13.54 25.155 13.77 25.865 13.77ZM34.6091 15.105C33.9191 15.105 33.3091 14.95 32.7791 14.64C32.2591 14.33 31.8541 13.89 31.5641 13.32C31.2841 12.74 31.1441 12.07 31.1441 11.31C31.1441 10.55 31.2841 9.885 31.5641 9.315C31.8541 8.735 32.2591 8.29 32.7791 7.98C33.3091 7.67 33.9191 7.515 34.6091 7.515C35.2991 7.515 35.9091 7.67 36.4391 7.98C36.9691 8.29 37.3741 8.735 37.6541 9.315C37.9441 9.885 38.0891 10.55 38.0891 11.31C38.0891 12.07 37.9441 12.74 37.6541 13.32C37.3741 13.89 36.9691 14.33 36.4391 14.64C35.9091 14.95 35.2991 15.105 34.6091 15.105ZM34.6091 14.1C35.3291 14.1 35.8791 13.865 36.2591 13.395C36.6491 12.915 36.8441 12.22 36.8441 11.31C36.8441 10.42 36.6491 9.735 36.2591 9.255C35.8691 8.765 35.3191 8.52 34.6091 8.52C33.8991 8.52 33.3491 8.765 32.9591 9.255C32.5691 9.735 32.3741 10.42 32.3741 11.31C32.3741 12.21 32.5641 12.9 32.9441 13.38C33.3341 13.86 33.8891 14.1 34.6091 14.1ZM43.2598 14.115C43.6098 14.145 43.7848 14.305 43.7848 14.595C43.7848 14.765 43.7198 14.895 43.5898 14.985C43.4698 15.065 43.2848 15.095 43.0348 15.075L42.6298 15.045C41.8298 14.985 41.2398 14.745 40.8598 14.325C40.4798 13.905 40.2898 13.27 40.2898 12.42V8.655H39.2848C39.1148 8.655 38.9798 8.615 38.8798 8.535C38.7898 8.445 38.7448 8.33 38.7448 8.19C38.7448 8.04 38.7898 7.92 38.8798 7.83C38.9798 7.74 39.1148 7.695 39.2848 7.695H40.2898V6C40.2898 5.81 40.3448 5.665 40.4548 5.565C40.5648 5.455 40.7148 5.4 40.9048 5.4C41.0848 5.4 41.2298 5.455 41.3398 5.565C41.4498 5.665 41.5048 5.81 41.5048 6V7.695H43.1698C43.3298 7.695 43.4548 7.74 43.5448 7.83C43.6448 7.92 43.6948 8.04 43.6948 8.19C43.6948 8.33 43.6448 8.445 43.5448 8.535C43.4548 8.615 43.3298 8.655 43.1698 8.655H41.5048V12.48C41.5048 13.03 41.6148 13.43 41.8348 13.68C42.0648 13.92 42.4048 14.055 42.8548 14.085L43.2598 14.115ZM54.1146 7.92C54.2246 7.68 54.3996 7.56 54.6396 7.56C54.7896 7.56 54.9246 7.61 55.0446 7.71C55.1646 7.81 55.2246 7.935 55.2246 8.085C55.2246 8.175 55.2046 8.255 55.1646 8.325L50.9496 17.415C50.8996 17.525 50.8246 17.61 50.7246 17.67C50.6346 17.73 50.5396 17.76 50.4396 17.76C50.2896 17.76 50.1546 17.71 50.0346 17.61C49.9246 17.52 49.8696 17.4 49.8696 17.25C49.8696 17.17 49.8896 17.09 49.9296 17.01L50.9796 14.745L48.0096 8.325C47.9696 8.255 47.9496 8.18 47.9496 8.1C47.9496 7.95 48.0146 7.82 48.1446 7.71C48.2846 7.6 48.4346 7.545 48.5946 7.545C48.6946 7.545 48.7896 7.575 48.8796 7.635C48.9796 7.695 49.0546 7.78 49.1046 7.89L51.6096 13.515L54.1146 7.92ZM59.4968 15.105C58.8068 15.105 58.1968 14.95 57.6668 14.64C57.1468 14.33 56.7418 13.89 56.4518 13.32C56.1718 12.74 56.0318 12.07 56.0318 11.31C56.0318 10.55 56.1718 9.885 56.4518 9.315C56.7418 8.735 57.1468 8.29 57.6668 7.98C58.1968 7.67 58.8068 7.515 59.4968 7.515C60.1868 7.515 60.7968 7.67 61.3268 7.98C61.8568 8.29 62.2618 8.735 62.5418 9.315C62.8318 9.885 62.9768 10.55 62.9768 11.31C62.9768 12.07 62.8318 12.74 62.5418 13.32C62.2618 13.89 61.8568 14.33 61.3268 14.64C60.7968 14.95 60.1868 15.105 59.4968 15.105ZM59.4968 14.1C60.2168 14.1 60.7668 13.865 61.1468 13.395C61.5368 12.915 61.7318 12.22 61.7318 11.31C61.7318 10.42 61.5368 9.735 61.1468 9.255C60.7568 8.765 60.2068 8.52 59.4968 8.52C58.7868 8.52 58.2368 8.765 57.8468 9.255C57.4568 9.735 57.2618 10.42 57.2618 11.31C57.2618 12.21 57.4518 12.9 57.8318 13.38C58.2218 13.86 58.7768 14.1 59.4968 14.1ZM70.3371 7.545C70.5271 7.545 70.6721 7.6 70.7721 7.71C70.8821 7.82 70.9371 7.965 70.9371 8.145V14.49C70.9371 14.66 70.8821 14.8 70.7721 14.91C70.6721 15.02 70.5271 15.075 70.3371 15.075C70.1571 15.075 70.0121 15.025 69.9021 14.925C69.8021 14.815 69.7521 14.675 69.7521 14.505V13.755C69.5221 14.195 69.1971 14.53 68.7771 14.76C68.3671 14.99 67.9021 15.105 67.3821 15.105C66.5121 15.105 65.8571 14.865 65.4171 14.385C64.9771 13.895 64.7571 13.175 64.7571 12.225V8.145C64.7571 7.965 64.8121 7.82 64.9221 7.71C65.0321 7.6 65.1821 7.545 65.3721 7.545C65.5621 7.545 65.7071 7.6 65.8071 7.71C65.9171 7.82 65.9721 7.965 65.9721 8.145V12.195C65.9721 12.845 66.1021 13.325 66.3621 13.635C66.6221 13.935 67.0321 14.085 67.5921 14.085C68.2321 14.085 68.7471 13.88 69.1371 13.47C69.5271 13.05 69.7221 12.5 69.7221 11.82V8.145C69.7221 7.965 69.7771 7.82 69.8871 7.71C69.9971 7.6 70.1471 7.545 70.3371 7.545ZM76.8103 7.545C77.2303 7.515 77.4403 7.685 77.4403 8.055C77.4403 8.215 77.3953 8.345 77.3053 8.445C77.2153 8.535 77.0603 8.59 76.8403 8.61L76.3903 8.655C75.7203 8.715 75.2203 8.955 74.8903 9.375C74.5703 9.785 74.4103 10.27 74.4103 10.83V14.475C74.4103 14.675 74.3553 14.825 74.2453 14.925C74.1353 15.025 73.9903 15.075 73.8103 15.075C73.6303 15.075 73.4803 15.025 73.3603 14.925C73.2503 14.815 73.1953 14.665 73.1953 14.475V8.145C73.1953 7.955 73.2553 7.81 73.3753 7.71C73.4953 7.6 73.6403 7.545 73.8103 7.545C73.9703 7.545 74.1053 7.6 74.2153 7.71C74.3253 7.81 74.3803 7.95 74.3803 8.13V8.97C74.5903 8.53 74.8853 8.195 75.2653 7.965C75.6553 7.735 76.1003 7.6 76.6003 7.56L76.8103 7.545ZM86.0256 7.515C86.6656 7.515 87.2306 7.675 87.7206 7.995C88.2106 8.315 88.5906 8.765 88.8606 9.345C89.1306 9.915 89.2656 10.58 89.2656 11.34C89.2656 12.1 89.1306 12.765 88.8606 13.335C88.5906 13.895 88.2106 14.33 87.7206 14.64C87.2406 14.95 86.6756 15.105 86.0256 15.105C85.4556 15.105 84.9556 14.98 84.5256 14.73C84.1056 14.48 83.7856 14.125 83.5656 13.665V17.19C83.5656 17.37 83.5106 17.51 83.4006 17.61C83.3006 17.72 83.1556 17.775 82.9656 17.775C82.7756 17.775 82.6256 17.72 82.5156 17.61C82.4056 17.5 82.3506 17.36 82.3506 17.19V8.145C82.3506 7.965 82.4056 7.82 82.5156 7.71C82.6256 7.6 82.7756 7.545 82.9656 7.545C83.1556 7.545 83.3006 7.6 83.4006 7.71C83.5106 7.82 83.5656 7.965 83.5656 8.145V8.955C83.7856 8.495 84.1056 8.14 84.5256 7.89C84.9556 7.64 85.4556 7.515 86.0256 7.515ZM85.7856 14.1C86.4956 14.1 87.0456 13.86 87.4356 13.38C87.8256 12.9 88.0206 12.22 88.0206 11.34C88.0206 10.46 87.8256 9.775 87.4356 9.285C87.0456 8.785 86.4956 8.535 85.7856 8.535C85.0756 8.535 84.5256 8.775 84.1356 9.255C83.7556 9.735 83.5656 10.42 83.5656 11.31C83.5656 12.2 83.7556 12.89 84.1356 13.38C84.5256 13.86 85.0756 14.1 85.7856 14.1ZM94.0661 7.515C95.8961 7.515 96.8111 8.475 96.8111 10.395V14.475C96.8111 14.655 96.7561 14.8 96.6461 14.91C96.5461 15.02 96.4061 15.075 96.2261 15.075C96.0461 15.075 95.9011 15.02 95.7911 14.91C95.6811 14.8 95.6261 14.655 95.6261 14.475V13.755C95.4361 14.185 95.1461 14.52 94.7561 14.76C94.3661 14.99 93.9161 15.105 93.4061 15.105C92.9361 15.105 92.5011 15.01 92.1011 14.82C91.7111 14.63 91.4011 14.365 91.1711 14.025C90.9411 13.685 90.8261 13.31 90.8261 12.9C90.8261 12.35 90.9661 11.925 91.2461 11.625C91.5261 11.315 91.9861 11.095 92.6261 10.965C93.2661 10.825 94.1561 10.755 95.2961 10.755H95.6261V10.26C95.6261 9.66 95.5011 9.22 95.2511 8.94C95.0111 8.66 94.6161 8.52 94.0661 8.52C93.3861 8.52 92.6961 8.705 91.9961 9.075C91.7261 9.245 91.5361 9.33 91.4261 9.33C91.3061 9.33 91.2061 9.285 91.1261 9.195C91.0461 9.105 91.0061 8.99 91.0061 8.85C91.0061 8.71 91.0461 8.59 91.1261 8.49C91.2161 8.38 91.3561 8.27 91.5461 8.16C91.8961 7.96 92.2911 7.805 92.7311 7.695C93.1811 7.575 93.6261 7.515 94.0661 7.515ZM93.5711 14.145C94.1711 14.145 94.6611 13.945 95.0411 13.545C95.4311 13.135 95.6261 12.61 95.6261 11.97V11.535H95.3561C94.4761 11.535 93.8061 11.575 93.3461 11.655C92.8861 11.725 92.5561 11.85 92.3561 12.03C92.1661 12.2 92.0711 12.455 92.0711 12.795C92.0711 13.185 92.2111 13.51 92.4911 13.77C92.7811 14.02 93.1411 14.145 93.5711 14.145ZM101.495 15.105C101.035 15.105 100.595 15.05 100.175 14.94C99.7652 14.83 99.4002 14.675 99.0802 14.475C98.9002 14.355 98.7702 14.245 98.6902 14.145C98.6202 14.035 98.5852 13.905 98.5852 13.755C98.5852 13.625 98.6202 13.52 98.6902 13.44C98.7702 13.35 98.8702 13.305 98.9902 13.305C99.1102 13.305 99.2852 13.38 99.5152 13.53C99.8152 13.71 100.11 13.855 100.4 13.965C100.7 14.065 101.07 14.115 101.51 14.115C102.05 14.115 102.47 14.02 102.77 13.83C103.07 13.64 103.22 13.365 103.22 13.005C103.22 12.785 103.165 12.61 103.055 12.48C102.945 12.34 102.755 12.22 102.485 12.12C102.215 12.01 101.82 11.9 101.3 11.79C100.42 11.6 99.7902 11.345 99.4102 11.025C99.0302 10.705 98.8402 10.27 98.8402 9.72C98.8402 9.29 98.9602 8.91 99.2002 8.58C99.4402 8.25 99.7702 7.99 100.19 7.8C100.62 7.61 101.105 7.515 101.645 7.515C102.035 7.515 102.41 7.57 102.77 7.68C103.14 7.78 103.465 7.925 103.745 8.115C104.085 8.355 104.255 8.605 104.255 8.865C104.255 8.995 104.215 9.105 104.135 9.195C104.055 9.285 103.96 9.33 103.85 9.33C103.73 9.33 103.55 9.245 103.31 9.075C103.03 8.895 102.765 8.755 102.515 8.655C102.265 8.555 101.955 8.505 101.585 8.505C101.115 8.505 100.735 8.61 100.445 8.82C100.165 9.03 100.025 9.31 100.025 9.66C100.025 9.88 100.075 10.06 100.175 10.2C100.285 10.33 100.46 10.45 100.7 10.56C100.95 10.66 101.305 10.76 101.765 10.86C102.445 11.01 102.97 11.175 103.34 11.355C103.72 11.535 103.99 11.755 104.15 12.015C104.31 12.275 104.39 12.605 104.39 13.005C104.39 13.635 104.125 14.145 103.595 14.535C103.065 14.915 102.365 15.105 101.495 15.105ZM108.702 15.105C108.242 15.105 107.802 15.05 107.382 14.94C106.972 14.83 106.607 14.675 106.287 14.475C106.107 14.355 105.977 14.245 105.897 14.145C105.827 14.035 105.792 13.905 105.792 13.755C105.792 13.625 105.827 13.52 105.897 13.44C105.977 13.35 106.077 13.305 106.197 13.305C106.317 13.305 106.492 13.38 106.722 13.53C107.022 13.71 107.317 13.855 107.607 13.965C107.907 14.065 108.277 14.115 108.717 14.115C109.257 14.115 109.677 14.02 109.977 13.83C110.277 13.64 110.427 13.365 110.427 13.005C110.427 12.785 110.372 12.61 110.262 12.48C110.152 12.34 109.962 12.22 109.692 12.12C109.422 12.01 109.027 11.9 108.507 11.79C107.627 11.6 106.997 11.345 106.617 11.025C106.237 10.705 106.047 10.27 106.047 9.72C106.047 9.29 106.167 8.91 106.407 8.58C106.647 8.25 106.977 7.99 107.397 7.8C107.827 7.61 108.312 7.515 108.852 7.515C109.242 7.515 109.617 7.57 109.977 7.68C110.347 7.78 110.672 7.925 110.952 8.115C111.292 8.355 111.462 8.605 111.462 8.865C111.462 8.995 111.422 9.105 111.342 9.195C111.262 9.285 111.167 9.33 111.057 9.33C110.937 9.33 110.757 9.245 110.517 9.075C110.237 8.895 109.972 8.755 109.722 8.655C109.472 8.555 109.162 8.505 108.792 8.505C108.322 8.505 107.942 8.61 107.652 8.82C107.372 9.03 107.232 9.31 107.232 9.66C107.232 9.88 107.282 10.06 107.382 10.2C107.492 10.33 107.667 10.45 107.907 10.56C108.157 10.66 108.512 10.76 108.972 10.86C109.652 11.01 110.177 11.175 110.547 11.355C110.927 11.535 111.197 11.755 111.357 12.015C111.517 12.275 111.597 12.605 111.597 13.005C111.597 13.635 111.332 14.145 110.802 14.535C110.272 14.915 109.572 15.105 108.702 15.105ZM123.307 7.935C123.407 7.695 123.572 7.575 123.802 7.575C123.952 7.575 124.087 7.625 124.207 7.725C124.327 7.825 124.387 7.95 124.387 8.1C124.387 8.17 124.372 8.245 124.342 8.325L121.852 14.625C121.792 14.755 121.702 14.86 121.582 14.94C121.472 15.01 121.347 15.045 121.207 15.045C121.077 15.045 120.952 15.01 120.832 14.94C120.722 14.86 120.637 14.755 120.577 14.625L118.507 9.36L116.452 14.625C116.402 14.755 116.317 14.86 116.197 14.94C116.077 15.01 115.947 15.045 115.807 15.045C115.677 15.045 115.552 15.01 115.432 14.94C115.312 14.86 115.222 14.755 115.162 14.625L112.672 8.34C112.642 8.26 112.627 8.19 112.627 8.13C112.627 7.97 112.692 7.835 112.822 7.725C112.962 7.615 113.112 7.56 113.272 7.56C113.512 7.56 113.682 7.68 113.782 7.92L115.837 13.455L117.952 7.965C118.012 7.835 118.092 7.735 118.192 7.665C118.302 7.595 118.417 7.56 118.537 7.56C118.667 7.56 118.782 7.595 118.882 7.665C118.992 7.735 119.072 7.835 119.122 7.965L121.237 13.44L123.307 7.935ZM128.886 15.105C128.196 15.105 127.586 14.95 127.056 14.64C126.536 14.33 126.131 13.89 125.841 13.32C125.561 12.74 125.421 12.07 125.421 11.31C125.421 10.55 125.561 9.885 125.841 9.315C126.131 8.735 126.536 8.29 127.056 7.98C127.586 7.67 128.196 7.515 128.886 7.515C129.576 7.515 130.186 7.67 130.716 7.98C131.246 8.29 131.651 8.735 131.931 9.315C132.221 9.885 132.366 10.55 132.366 11.31C132.366 12.07 132.221 12.74 131.931 13.32C131.651 13.89 131.246 14.33 130.716 14.64C130.186 14.95 129.576 15.105 128.886 15.105ZM128.886 14.1C129.606 14.1 130.156 13.865 130.536 13.395C130.926 12.915 131.121 12.22 131.121 11.31C131.121 10.42 130.926 9.735 130.536 9.255C130.146 8.765 129.596 8.52 128.886 8.52C128.176 8.52 127.626 8.765 127.236 9.255C126.846 9.735 126.651 10.42 126.651 11.31C126.651 12.21 126.841 12.9 127.221 13.38C127.611 13.86 128.166 14.1 128.886 14.1ZM137.792 7.545C138.212 7.515 138.422 7.685 138.422 8.055C138.422 8.215 138.377 8.345 138.287 8.445C138.197 8.535 138.042 8.59 137.822 8.61L137.372 8.655C136.702 8.715 136.202 8.955 135.872 9.375C135.552 9.785 135.392 10.27 135.392 10.83V14.475C135.392 14.675 135.337 14.825 135.227 14.925C135.117 15.025 134.972 15.075 134.792 15.075C134.612 15.075 134.462 15.025 134.342 14.925C134.232 14.815 134.177 14.665 134.177 14.475V8.145C134.177 7.955 134.237 7.81 134.357 7.71C134.477 7.6 134.622 7.545 134.792 7.545C134.952 7.545 135.087 7.6 135.197 7.71C135.307 7.81 135.362 7.95 135.362 8.13V8.97C135.572 8.53 135.867 8.195 136.247 7.965C136.637 7.735 137.082 7.6 137.582 7.56L137.792 7.545ZM145.183 4.35C145.373 4.35 145.523 4.405 145.633 4.515C145.743 4.625 145.798 4.765 145.798 4.935V14.475C145.798 14.655 145.743 14.8 145.633 14.91C145.523 15.02 145.373 15.075 145.183 15.075C144.993 15.075 144.843 15.02 144.733 14.91C144.633 14.8 144.583 14.655 144.583 14.475V13.665C144.363 14.125 144.038 14.48 143.608 14.73C143.188 14.98 142.693 15.105 142.123 15.105C141.483 15.105 140.918 14.945 140.428 14.625C139.938 14.305 139.558 13.86 139.288 13.29C139.018 12.71 138.883 12.04 138.883 11.28C138.883 10.53 139.018 9.87 139.288 9.3C139.558 8.73 139.938 8.29 140.428 7.98C140.918 7.67 141.483 7.515 142.123 7.515C142.693 7.515 143.188 7.64 143.608 7.89C144.038 8.14 144.363 8.495 144.583 8.955V4.935C144.583 4.755 144.633 4.615 144.733 4.515C144.843 4.405 144.993 4.35 145.183 4.35ZM142.363 14.1C143.073 14.1 143.618 13.86 143.998 13.38C144.388 12.89 144.583 12.2 144.583 11.31C144.583 10.42 144.388 9.735 143.998 9.255C143.618 8.775 143.073 8.535 142.363 8.535C141.653 8.535 141.098 8.775 140.698 9.255C140.308 9.735 140.113 10.41 140.113 11.28C140.113 12.17 140.308 12.865 140.698 13.365C141.098 13.855 141.653 14.1 142.363 14.1ZM150.38 12.315C150.27 12.315 150.18 12.275 150.11 12.195C150.04 12.115 150.005 12.005 150.005 11.865C150.005 11.245 150.115 10.715 150.335 10.275C150.565 9.835 150.89 9.355 151.31 8.835C151.65 8.405 151.9 8.04 152.06 7.74C152.23 7.44 152.315 7.105 152.315 6.735C152.315 6.305 152.16 5.97 151.85 5.73C151.54 5.48 151.12 5.355 150.59 5.355C150.14 5.355 149.725 5.445 149.345 5.625C148.965 5.795 148.535 6.06 148.055 6.42C147.885 6.54 147.745 6.6 147.635 6.6C147.515 6.6 147.415 6.55 147.335 6.45C147.265 6.34 147.23 6.215 147.23 6.075C147.23 5.875 147.31 5.7 147.47 5.55C147.87 5.17 148.355 4.87 148.925 4.65C149.505 4.42 150.08 4.305 150.65 4.305C151.52 4.305 152.22 4.52 152.75 4.95C153.29 5.38 153.56 5.945 153.56 6.645C153.56 7.175 153.445 7.635 153.215 8.025C152.995 8.405 152.655 8.855 152.195 9.375C151.765 9.865 151.43 10.3 151.19 10.68C150.96 11.05 150.82 11.48 150.77 11.97C150.76 12.08 150.72 12.165 150.65 12.225C150.58 12.285 150.49 12.315 150.38 12.315ZM150.395 15.075C150.155 15.075 149.955 14.995 149.795 14.835C149.645 14.675 149.57 14.475 149.57 14.235C149.57 13.995 149.645 13.795 149.795 13.635C149.955 13.465 150.155 13.38 150.395 13.38C150.635 13.38 150.83 13.465 150.98 13.635C151.14 13.795 151.22 13.995 151.22 14.235C151.22 14.475 151.14 14.675 150.98 14.835C150.83 14.995 150.635 15.075 150.395 15.075Z" fill="white"/>
<path d="M0 16.5H153.92V17.25H0V16.5Z" fill="white"/>
</svg>
