<svg width="19" height="18" viewBox="0 0 19 18" fill="none" xmlns="http://www.w3.org/2000/svg">
<path d="M4.966 13.104C4.11667 13.104 3.37567 12.9133 2.743 12.532C2.119 12.1507 1.638 11.609 1.3 10.907C0.962 10.205 0.793 9.37733 0.793 8.424C0.793 7.462 0.957667 6.63 1.287 5.928C1.625 5.21733 2.106 4.67567 2.73 4.303C3.36267 3.92167 4.108 3.731 4.966 3.731C5.824 3.731 6.565 3.92167 7.189 4.303C7.82167 4.67567 8.30267 5.21733 8.632 5.928C8.97 6.63 9.139 7.45767 9.139 8.411C9.139 9.36433 8.97 10.1963 8.632 10.907C8.294 11.609 7.80867 12.1507 7.176 12.532C6.552 12.9133 5.81533 13.104 4.966 13.104ZM4.966 12.194C5.93667 12.194 6.69067 11.869 7.228 11.219C7.774 10.5603 8.047 9.62433 8.047 8.411C8.047 7.19767 7.77833 6.266 7.241 5.616C6.70367 4.966 5.94533 4.641 4.966 4.641C3.99533 4.641 3.237 4.97033 2.691 5.629C2.15367 6.279 1.885 7.20633 1.885 8.411C1.885 9.61567 2.15367 10.5473 2.691 11.206C3.237 11.8647 3.99533 12.194 4.966 12.194ZM18.0527 12.337C18.1134 12.4323 18.1437 12.532 18.1437 12.636C18.1437 12.766 18.0917 12.8743 17.9877 12.961C17.8924 13.039 17.7797 13.078 17.6497 13.078C17.4504 13.078 17.2944 12.9913 17.1817 12.818L15.4397 10.062C15.2144 9.70667 14.9804 9.464 14.7377 9.334C14.4951 9.19533 14.1657 9.126 13.7497 9.126H12.1117V12.519C12.1117 12.6837 12.0641 12.818 11.9687 12.922C11.8734 13.0173 11.7477 13.065 11.5917 13.065C11.4271 13.065 11.2971 13.0173 11.2017 12.922C11.1064 12.818 11.0587 12.6837 11.0587 12.519V4.355C11.0587 4.199 11.1064 4.07333 11.2017 3.978C11.3057 3.88267 11.4401 3.835 11.6047 3.835H14.8287C15.8254 3.835 16.5837 4.056 17.1037 4.498C17.6324 4.94 17.8967 5.59 17.8967 6.448C17.8967 7.176 17.6844 7.761 17.2597 8.203C16.8437 8.645 16.2457 8.91367 15.4657 9.009C15.6824 9.07833 15.8774 9.191 16.0507 9.347C16.2241 9.503 16.3974 9.71967 16.5707 9.997L18.0527 12.337ZM14.7377 8.242C15.4484 8.242 15.9771 8.09467 16.3237 7.8C16.6791 7.50533 16.8567 7.059 16.8567 6.461C16.8567 5.87167 16.6834 5.434 16.3367 5.148C15.9901 4.862 15.4571 4.719 14.7377 4.719H12.1117V8.242H14.7377Z" fill="white"/>
</svg>
