<svg width="81" height="25" viewBox="0 0 81 25" fill="none" xmlns="http://www.w3.org/2000/svg">
<path d="M2.394 18.09C2.118 18.09 1.896 18.006 1.728 17.838C1.56 17.67 1.476 17.442 1.476 17.154V6.21C1.476 5.934 1.554 5.718 1.71 5.562C1.878 5.394 2.106 5.31 2.394 5.31H6.732C8.076 5.31 9.12 5.64 9.864 6.3C10.608 6.96 10.98 7.896 10.98 9.108C10.98 10.308 10.608 11.244 9.864 11.916C9.12 12.588 8.076 12.924 6.732 12.924H3.33V17.154C3.33 17.442 3.246 17.67 3.078 17.838C2.922 18.006 2.694 18.09 2.394 18.09ZM6.534 11.43C8.31 11.43 9.198 10.656 9.198 9.108C9.198 7.572 8.31 6.804 6.534 6.804H3.33V11.43H6.534ZM16.4813 9C17.6453 9 18.5093 9.294 19.0733 9.882C19.6493 10.47 19.9373 11.364 19.9373 12.564V17.226C19.9373 17.502 19.8593 17.718 19.7033 17.874C19.5473 18.018 19.3313 18.09 19.0553 18.09C18.7913 18.09 18.5813 18.012 18.4253 17.856C18.2693 17.7 18.1913 17.49 18.1913 17.226V16.56C17.9633 17.064 17.6213 17.454 17.1653 17.73C16.7213 17.994 16.1993 18.126 15.5993 18.126C15.0233 18.126 14.4953 18.012 14.0153 17.784C13.5473 17.544 13.1753 17.22 12.8993 16.812C12.6233 16.404 12.4853 15.942 12.4853 15.426C12.4733 14.778 12.6353 14.274 12.9713 13.914C13.3073 13.542 13.8533 13.278 14.6093 13.122C15.3653 12.954 16.4153 12.87 17.7593 12.87H18.1733V12.348C18.1733 11.676 18.0353 11.19 17.7593 10.89C17.4833 10.59 17.0393 10.44 16.4273 10.44C16.0073 10.44 15.6113 10.494 15.2393 10.602C14.8673 10.71 14.4593 10.866 14.0153 11.07C13.6913 11.25 13.4633 11.34 13.3313 11.34C13.1513 11.34 13.0013 11.274 12.8813 11.142C12.7733 11.01 12.7192 10.842 12.7192 10.638C12.7192 10.458 12.7673 10.302 12.8633 10.17C12.9713 10.026 13.1393 9.888 13.3673 9.756C13.7873 9.528 14.2793 9.348 14.8433 9.216C15.4073 9.072 15.9533 9 16.4813 9ZM15.9233 16.776C16.5833 16.776 17.1233 16.554 17.5433 16.11C17.9633 15.654 18.1733 15.072 18.1733 14.364V13.896H17.8493C16.9133 13.896 16.1933 13.938 15.6893 14.022C15.1853 14.106 14.8253 14.25 14.6093 14.454C14.3933 14.646 14.2853 14.928 14.2853 15.3C14.2853 15.732 14.4413 16.086 14.7533 16.362C15.0653 16.638 15.4553 16.776 15.9233 16.776ZM25.4841 18.126C24.2601 18.126 23.2581 17.874 22.4781 17.37C22.2621 17.238 22.1061 17.1 22.0101 16.956C21.9261 16.812 21.8841 16.65 21.8841 16.47C21.8841 16.278 21.9381 16.116 22.0461 15.984C22.1541 15.852 22.2921 15.786 22.4601 15.786C22.6161 15.786 22.8621 15.882 23.1981 16.074C23.5581 16.266 23.9061 16.422 24.2421 16.542C24.5901 16.662 25.0221 16.722 25.5381 16.722C26.1141 16.722 26.5641 16.62 26.8881 16.416C27.2121 16.212 27.3741 15.924 27.3741 15.552C27.3741 15.312 27.3081 15.12 27.1761 14.976C27.0561 14.832 26.8401 14.706 26.5281 14.598C26.2161 14.478 25.7541 14.352 25.1421 14.22C24.0861 13.992 23.3241 13.686 22.8561 13.302C22.4001 12.906 22.1721 12.372 22.1721 11.7C22.1721 11.184 22.3221 10.722 22.6221 10.314C22.9221 9.894 23.3361 9.57 23.8641 9.342C24.3921 9.114 24.9921 9 25.6641 9C26.1441 9 26.6121 9.066 27.0681 9.198C27.5241 9.318 27.9261 9.498 28.2741 9.738C28.6701 10.002 28.8681 10.308 28.8681 10.656C28.8681 10.848 28.8081 11.01 28.6881 11.142C28.5801 11.274 28.4481 11.34 28.2921 11.34C28.1841 11.34 28.0761 11.316 27.9681 11.268C27.8601 11.22 27.7161 11.142 27.5361 11.034C27.2121 10.842 26.9061 10.692 26.6181 10.584C26.3421 10.476 25.9941 10.422 25.5741 10.422C25.0701 10.422 24.6621 10.53 24.3501 10.746C24.0501 10.962 23.9001 11.256 23.9001 11.628C23.9001 11.964 24.0381 12.228 24.3141 12.42C24.6021 12.6 25.1361 12.774 25.9161 12.942C26.7201 13.11 27.3501 13.302 27.8061 13.518C28.2621 13.734 28.5861 14.004 28.7781 14.328C28.9821 14.64 29.0841 15.042 29.0841 15.534C29.0841 16.314 28.7541 16.944 28.0941 17.424C27.4461 17.892 26.5761 18.126 25.4841 18.126ZM34.1677 18.126C32.9437 18.126 31.9417 17.874 31.1617 17.37C30.9457 17.238 30.7897 17.1 30.6937 16.956C30.6097 16.812 30.5677 16.65 30.5677 16.47C30.5677 16.278 30.6217 16.116 30.7297 15.984C30.8377 15.852 30.9757 15.786 31.1437 15.786C31.2997 15.786 31.5457 15.882 31.8817 16.074C32.2417 16.266 32.5897 16.422 32.9257 16.542C33.2737 16.662 33.7057 16.722 34.2217 16.722C34.7977 16.722 35.2477 16.62 35.5717 16.416C35.8957 16.212 36.0577 15.924 36.0577 15.552C36.0577 15.312 35.9917 15.12 35.8597 14.976C35.7397 14.832 35.5237 14.706 35.2117 14.598C34.8997 14.478 34.4377 14.352 33.8257 14.22C32.7697 13.992 32.0077 13.686 31.5397 13.302C31.0837 12.906 30.8557 12.372 30.8557 11.7C30.8557 11.184 31.0057 10.722 31.3057 10.314C31.6057 9.894 32.0197 9.57 32.5477 9.342C33.0757 9.114 33.6757 9 34.3477 9C34.8277 9 35.2957 9.066 35.7517 9.198C36.2077 9.318 36.6097 9.498 36.9577 9.738C37.3537 10.002 37.5517 10.308 37.5517 10.656C37.5517 10.848 37.4917 11.01 37.3717 11.142C37.2637 11.274 37.1317 11.34 36.9757 11.34C36.8677 11.34 36.7597 11.316 36.6517 11.268C36.5437 11.22 36.3997 11.142 36.2197 11.034C35.8957 10.842 35.5897 10.692 35.3017 10.584C35.0257 10.476 34.6777 10.422 34.2577 10.422C33.7537 10.422 33.3457 10.53 33.0337 10.746C32.7337 10.962 32.5837 11.256 32.5837 11.628C32.5837 11.964 32.7217 12.228 32.9977 12.42C33.2857 12.6 33.8197 12.774 34.5997 12.942C35.4037 13.11 36.0337 13.302 36.4897 13.518C36.9457 13.734 37.2697 14.004 37.4617 14.328C37.6657 14.64 37.7677 15.042 37.7677 15.534C37.7677 16.314 37.4377 16.944 36.7777 17.424C36.1297 17.892 35.2597 18.126 34.1677 18.126ZM51.6026 9.594C51.7346 9.234 51.9806 9.054 52.3406 9.054C52.5686 9.054 52.7726 9.132 52.9526 9.288C53.1326 9.444 53.2226 9.636 53.2226 9.864C53.2226 9.984 53.1986 10.092 53.1506 10.188L50.1626 17.478C50.0906 17.67 49.9706 17.82 49.8026 17.928C49.6346 18.024 49.4486 18.072 49.2446 18.072C49.0526 18.072 48.8726 18.024 48.7046 17.928C48.5366 17.82 48.4166 17.67 48.3446 17.478L46.0046 11.7L43.7186 17.478C43.6466 17.67 43.5266 17.82 43.3586 17.928C43.2026 18.024 43.0226 18.072 42.8186 18.072C42.6266 18.072 42.4406 18.024 42.2606 17.928C42.0926 17.82 41.9666 17.67 41.8826 17.478L38.9126 10.188C38.8646 10.092 38.8406 9.99 38.8406 9.882C38.8406 9.642 38.9366 9.444 39.1286 9.288C39.3326 9.132 39.5546 9.054 39.7946 9.054C40.1546 9.054 40.4006 9.228 40.5326 9.576L42.8546 15.714L45.2306 9.63C45.3026 9.438 45.4166 9.294 45.5726 9.198C45.7286 9.102 45.8966 9.054 46.0766 9.054C46.2446 9.054 46.4066 9.102 46.5626 9.198C46.7186 9.294 46.8326 9.438 46.9046 9.63L49.2806 15.678L51.6026 9.594ZM58.6014 18.126C57.7374 18.126 56.9754 17.94 56.3154 17.568C55.6674 17.196 55.1634 16.668 54.8034 15.984C54.4554 15.288 54.2814 14.484 54.2814 13.572C54.2814 12.648 54.4554 11.844 54.8034 11.16C55.1634 10.464 55.6674 9.93 56.3154 9.558C56.9754 9.186 57.7374 9 58.6014 9C59.4654 9 60.2214 9.186 60.8694 9.558C61.5294 9.93 62.0334 10.464 62.3814 11.16C62.7414 11.844 62.9214 12.648 62.9214 13.572C62.9214 14.484 62.7414 15.288 62.3814 15.984C62.0334 16.668 61.5294 17.196 60.8694 17.568C60.2214 17.94 59.4654 18.126 58.6014 18.126ZM58.6014 16.686C59.4054 16.686 60.0174 16.422 60.4374 15.894C60.8694 15.366 61.0854 14.592 61.0854 13.572C61.0854 12.564 60.8694 11.796 60.4374 11.268C60.0054 10.728 59.3934 10.458 58.6014 10.458C57.8094 10.458 57.1974 10.728 56.7654 11.268C56.3334 11.796 56.1174 12.564 56.1174 13.572C56.1174 14.592 56.3274 15.366 56.7474 15.894C57.1794 16.422 57.7974 16.686 58.6014 16.686ZM69.5535 9.036C70.1295 9 70.4175 9.246 70.4175 9.774C70.4175 10.038 70.3515 10.236 70.2195 10.368C70.0875 10.5 69.8595 10.578 69.5355 10.602L68.9955 10.656C68.2395 10.728 67.6755 10.992 67.3035 11.448C66.9435 11.904 66.7635 12.456 66.7635 13.104V17.226C66.7635 17.514 66.6795 17.73 66.5115 17.874C66.3435 18.018 66.1275 18.09 65.8635 18.09C65.5995 18.09 65.3775 18.018 65.1975 17.874C65.0295 17.73 64.9455 17.514 64.9455 17.226V9.9C64.9455 9.624 65.0295 9.414 65.1975 9.27C65.3775 9.114 65.5995 9.036 65.8635 9.036C66.1035 9.036 66.3015 9.114 66.4575 9.27C66.6255 9.414 66.7095 9.618 66.7095 9.882V10.746C66.9495 10.218 67.2975 9.816 67.7535 9.54C68.2095 9.264 68.7255 9.102 69.3015 9.054L69.5535 9.036ZM78.5436 5.22C78.8196 5.22 79.0416 5.298 79.2096 5.454C79.3776 5.61 79.4616 5.82 79.4616 6.084V17.208C79.4616 17.484 79.3776 17.7 79.2096 17.856C79.0536 18.012 78.8376 18.09 78.5616 18.09C78.2856 18.09 78.0636 18.012 77.8956 17.856C77.7396 17.7 77.6616 17.484 77.6616 17.208V16.488C77.3976 17.016 77.0136 17.424 76.5096 17.712C76.0056 17.988 75.4236 18.126 74.7636 18.126C74.0076 18.126 73.3296 17.934 72.7296 17.55C72.1416 17.166 71.6796 16.626 71.3436 15.93C71.0196 15.234 70.8576 14.436 70.8576 13.536C70.8576 12.624 71.0196 11.826 71.3436 11.142C71.6796 10.458 72.1416 9.93 72.7296 9.558C73.3176 9.186 73.9956 9 74.7636 9C75.4236 9 75.9996 9.144 76.4916 9.432C76.9956 9.708 77.3796 10.104 77.6436 10.62V6.048C77.6436 5.796 77.7216 5.598 77.8776 5.454C78.0456 5.298 78.2676 5.22 78.5436 5.22ZM75.1956 16.686C75.9756 16.686 76.5816 16.416 77.0136 15.876C77.4456 15.336 77.6616 14.568 77.6616 13.572C77.6616 12.576 77.4456 11.808 77.0136 11.268C76.5936 10.728 75.9876 10.458 75.1956 10.458C74.4036 10.458 73.7856 10.728 73.3416 11.268C72.9096 11.796 72.6936 12.552 72.6936 13.536C72.6936 14.52 72.9156 15.294 73.3596 15.858C73.8036 16.41 74.4156 16.686 75.1956 16.686Z" fill="white"/>
</svg>
