<svg width="150" height="25" viewBox="0 0 150 25" fill="none" xmlns="http://www.w3.org/2000/svg">
<path d="M7.002 18.144C5.79 18.144 4.734 17.886 3.834 17.37C2.934 16.842 2.244 16.092 1.764 15.12C1.284 14.136 1.044 12.978 1.044 11.646C1.044 10.326 1.284 9.18 1.764 8.208C2.244 7.224 2.934 6.474 3.834 5.958C4.734 5.43 5.79 5.166 7.002 5.166C7.794 5.166 8.544 5.292 9.252 5.544C9.96 5.784 10.578 6.138 11.106 6.606C11.334 6.786 11.448 7.026 11.448 7.326C11.448 7.542 11.388 7.728 11.268 7.884C11.148 8.028 11.004 8.1 10.836 8.1C10.632 8.1 10.434 8.022 10.242 7.866C9.666 7.434 9.138 7.134 8.658 6.966C8.19 6.786 7.656 6.696 7.056 6.696C5.736 6.696 4.722 7.122 4.014 7.974C3.306 8.826 2.952 10.05 2.952 11.646C2.952 13.254 3.306 14.484 4.014 15.336C4.722 16.188 5.736 16.614 7.056 16.614C7.632 16.614 8.154 16.524 8.622 16.344C9.102 16.164 9.642 15.864 10.242 15.444C10.482 15.288 10.68 15.21 10.836 15.21C11.004 15.21 11.148 15.288 11.268 15.444C11.388 15.588 11.448 15.768 11.448 15.984C11.448 16.284 11.334 16.524 11.106 16.704C10.578 17.172 9.96 17.532 9.252 17.784C8.544 18.024 7.794 18.144 7.002 18.144ZM17.0819 18.126C16.2179 18.126 15.4559 17.94 14.7959 17.568C14.1479 17.196 13.6439 16.668 13.2839 15.984C12.9359 15.288 12.7619 14.484 12.7619 13.572C12.7619 12.648 12.9359 11.844 13.2839 11.16C13.6439 10.464 14.1479 9.93 14.7959 9.558C15.4559 9.186 16.2179 9 17.0819 9C17.9459 9 18.7019 9.186 19.3499 9.558C20.0099 9.93 20.5139 10.464 20.8619 11.16C21.2219 11.844 21.4019 12.648 21.4019 13.572C21.4019 14.484 21.2219 15.288 20.8619 15.984C20.5139 16.668 20.0099 17.196 19.3499 17.568C18.7019 17.94 17.9459 18.126 17.0819 18.126ZM17.0819 16.686C17.8859 16.686 18.4979 16.422 18.9179 15.894C19.3499 15.366 19.5659 14.592 19.5659 13.572C19.5659 12.564 19.3499 11.796 18.9179 11.268C18.4859 10.728 17.8739 10.458 17.0819 10.458C16.2899 10.458 15.6779 10.728 15.2459 11.268C14.8139 11.796 14.5979 12.564 14.5979 13.572C14.5979 14.592 14.8079 15.366 15.2279 15.894C15.6599 16.422 16.2779 16.686 17.0819 16.686ZM28.16 9C30.26 9 31.31 10.182 31.31 12.546V17.226C31.31 17.502 31.226 17.718 31.058 17.874C30.902 18.018 30.68 18.09 30.392 18.09C30.116 18.09 29.894 18.012 29.726 17.856C29.57 17.7 29.492 17.49 29.492 17.226V12.636C29.492 11.892 29.342 11.346 29.042 10.998C28.754 10.65 28.298 10.476 27.674 10.476C26.942 10.476 26.354 10.704 25.91 11.16C25.466 11.616 25.244 12.228 25.244 12.996V17.226C25.244 17.49 25.16 17.7 24.992 17.856C24.836 18.012 24.62 18.09 24.344 18.09C24.068 18.09 23.846 18.012 23.678 17.856C23.51 17.7 23.426 17.49 23.426 17.226V9.9C23.426 9.648 23.51 9.444 23.678 9.288C23.858 9.12 24.08 9.036 24.344 9.036C24.608 9.036 24.818 9.114 24.974 9.27C25.13 9.426 25.208 9.63 25.208 9.882V10.62C25.496 10.092 25.898 9.69 26.414 9.414C26.93 9.138 27.512 9 28.16 9ZM40.8531 7.272C40.5051 7.272 40.2291 7.176 40.0251 6.984C39.8211 6.792 39.7191 6.54 39.7191 6.228C39.7191 5.916 39.8211 5.67 40.0251 5.49C40.2291 5.298 40.5051 5.202 40.8531 5.202C41.1891 5.202 41.4591 5.298 41.6631 5.49C41.8791 5.67 41.9871 5.916 41.9871 6.228C41.9871 6.54 41.8851 6.792 41.6811 6.984C41.4771 7.176 41.2011 7.272 40.8531 7.272ZM40.9611 9.216C41.2131 9.216 41.4051 9.282 41.5371 9.414C41.6811 9.534 41.7531 9.702 41.7531 9.918V17.226C41.7531 17.514 41.6691 17.73 41.5011 17.874C41.3331 18.018 41.1171 18.09 40.8531 18.09C40.5891 18.09 40.3671 18.018 40.1871 17.874C40.0191 17.73 39.9351 17.514 39.9351 17.226V10.62H36.1731V17.208C36.1731 17.496 36.0831 17.718 35.9031 17.874C35.7351 18.018 35.5191 18.09 35.2551 18.09C34.9911 18.09 34.7751 18.018 34.6071 17.874C34.4391 17.718 34.3551 17.496 34.3551 17.208V10.62H33.2751C33.0231 10.62 32.8251 10.56 32.6811 10.44C32.5491 10.308 32.4831 10.134 32.4831 9.918C32.4831 9.702 32.5491 9.534 32.6811 9.414C32.8251 9.282 33.0231 9.216 33.2751 9.216H34.3551V9.018C34.3551 7.914 34.6371 7.05 35.2011 6.426C35.7651 5.79 36.5631 5.424 37.5951 5.328L38.0271 5.292L38.2611 5.274C38.7891 5.274 39.0531 5.496 39.0531 5.94C39.0531 6.36 38.8191 6.6 38.3511 6.66L37.9371 6.696C37.3371 6.744 36.8931 6.936 36.6051 7.272C36.3171 7.596 36.1731 8.076 36.1731 8.712V9.216H40.9611ZM48.8993 9.036C49.4753 9 49.7633 9.246 49.7633 9.774C49.7633 10.038 49.6973 10.236 49.5653 10.368C49.4333 10.5 49.2053 10.578 48.8813 10.602L48.3413 10.656C47.5853 10.728 47.0213 10.992 46.6493 11.448C46.2893 11.904 46.1093 12.456 46.1093 13.104V17.226C46.1093 17.514 46.0253 17.73 45.8573 17.874C45.6893 18.018 45.4733 18.09 45.2093 18.09C44.9453 18.09 44.7233 18.018 44.5433 17.874C44.3753 17.73 44.2913 17.514 44.2913 17.226V9.9C44.2913 9.624 44.3753 9.414 44.5433 9.27C44.7233 9.114 44.9453 9.036 45.2093 9.036C45.4493 9.036 45.6473 9.114 45.8033 9.27C45.9713 9.414 46.0553 9.618 46.0553 9.882V10.746C46.2953 10.218 46.6433 9.816 47.0993 9.54C47.5553 9.264 48.0713 9.102 48.6473 9.054L48.8993 9.036ZM60.963 9C62.931 9 63.915 10.182 63.915 12.546V17.226C63.915 17.502 63.831 17.718 63.663 17.874C63.495 18.018 63.273 18.09 62.997 18.09C62.733 18.09 62.517 18.018 62.349 17.874C62.181 17.718 62.097 17.502 62.097 17.226V12.564C62.097 11.832 61.965 11.304 61.701 10.98C61.437 10.644 61.023 10.476 60.459 10.476C59.799 10.476 59.277 10.704 58.893 11.16C58.509 11.604 58.317 12.216 58.317 12.996V17.226C58.317 17.502 58.233 17.718 58.065 17.874C57.897 18.018 57.675 18.09 57.399 18.09C57.135 18.09 56.919 18.018 56.751 17.874C56.583 17.718 56.499 17.502 56.499 17.226V12.564C56.499 11.832 56.367 11.304 56.103 10.98C55.839 10.644 55.425 10.476 54.861 10.476C54.201 10.476 53.673 10.704 53.277 11.16C52.893 11.604 52.701 12.216 52.701 12.996V17.226C52.701 17.502 52.617 17.718 52.449 17.874C52.281 18.018 52.065 18.09 51.801 18.09C51.537 18.09 51.315 18.018 51.135 17.874C50.967 17.718 50.883 17.502 50.883 17.226V9.9C50.883 9.636 50.973 9.426 51.153 9.27C51.333 9.114 51.549 9.036 51.801 9.036C52.053 9.036 52.257 9.114 52.413 9.27C52.581 9.414 52.665 9.618 52.665 9.882V10.548C52.929 10.044 53.295 9.66 53.763 9.396C54.231 9.132 54.771 9 55.383 9C56.055 9 56.607 9.138 57.039 9.414C57.483 9.69 57.813 10.116 58.029 10.692C58.293 10.176 58.683 9.768 59.199 9.468C59.715 9.156 60.303 9 60.963 9ZM75.8666 9C76.6226 9 77.2946 9.192 77.8826 9.576C78.4826 9.96 78.9446 10.5 79.2686 11.196C79.6046 11.892 79.7726 12.696 79.7726 13.608C79.7726 14.508 79.6106 15.3 79.2866 15.984C78.9626 16.668 78.5006 17.196 77.9006 17.568C77.3126 17.94 76.6346 18.126 75.8666 18.126C75.2066 18.126 74.6246 17.988 74.1206 17.712C73.6166 17.424 73.2326 17.016 72.9686 16.488V20.502C72.9686 20.754 72.8846 20.952 72.7166 21.096C72.5606 21.252 72.3506 21.33 72.0866 21.33C71.8106 21.33 71.5826 21.252 71.4026 21.096C71.2346 20.94 71.1506 20.73 71.1506 20.466V9.918C71.1506 9.654 71.2346 9.444 71.4026 9.288C71.5706 9.12 71.7926 9.036 72.0686 9.036C72.3326 9.036 72.5486 9.12 72.7166 9.288C72.8846 9.444 72.9686 9.654 72.9686 9.918V10.656C73.2326 10.128 73.6166 9.72 74.1206 9.432C74.6246 9.144 75.2066 9 75.8666 9ZM75.4346 16.686C76.2266 16.686 76.8386 16.422 77.2706 15.894C77.7026 15.354 77.9186 14.592 77.9186 13.608C77.9186 12.612 77.6966 11.838 77.2526 11.286C76.8206 10.734 76.2146 10.458 75.4346 10.458C74.6426 10.458 74.0306 10.728 73.5986 11.268C73.1786 11.808 72.9686 12.576 72.9686 13.572C72.9686 14.568 73.1786 15.336 73.5986 15.876C74.0306 16.416 74.6426 16.686 75.4346 16.686ZM85.4754 9C86.6394 9 87.5034 9.294 88.0674 9.882C88.6434 10.47 88.9314 11.364 88.9314 12.564V17.226C88.9314 17.502 88.8534 17.718 88.6974 17.874C88.5414 18.018 88.3254 18.09 88.0494 18.09C87.7854 18.09 87.5754 18.012 87.4194 17.856C87.2634 17.7 87.1854 17.49 87.1854 17.226V16.56C86.9574 17.064 86.6154 17.454 86.1594 17.73C85.7154 17.994 85.1934 18.126 84.5934 18.126C84.0174 18.126 83.4894 18.012 83.0094 17.784C82.5414 17.544 82.1694 17.22 81.8934 16.812C81.6174 16.404 81.4794 15.942 81.4794 15.426C81.4674 14.778 81.6294 14.274 81.9654 13.914C82.3014 13.542 82.8474 13.278 83.6034 13.122C84.3594 12.954 85.4094 12.87 86.7534 12.87H87.1674V12.348C87.1674 11.676 87.0294 11.19 86.7534 10.89C86.4774 10.59 86.0334 10.44 85.4214 10.44C85.0014 10.44 84.6054 10.494 84.2334 10.602C83.8614 10.71 83.4534 10.866 83.0094 11.07C82.6854 11.25 82.4574 11.34 82.3254 11.34C82.1454 11.34 81.9954 11.274 81.8754 11.142C81.7674 11.01 81.7134 10.842 81.7134 10.638C81.7134 10.458 81.7614 10.302 81.8574 10.17C81.9654 10.026 82.1334 9.888 82.3614 9.756C82.7814 9.528 83.2734 9.348 83.8374 9.216C84.4014 9.072 84.9474 9 85.4754 9ZM84.9174 16.776C85.5774 16.776 86.1174 16.554 86.5374 16.11C86.9574 15.654 87.1674 15.072 87.1674 14.364V13.896H86.8434C85.9074 13.896 85.1874 13.938 84.6834 14.022C84.1794 14.106 83.8194 14.25 83.6034 14.454C83.3874 14.646 83.2794 14.928 83.2794 15.3C83.2794 15.732 83.4354 16.086 83.7474 16.362C84.0594 16.638 84.4494 16.776 84.9174 16.776ZM94.4782 18.126C93.2542 18.126 92.2522 17.874 91.4722 17.37C91.2562 17.238 91.1002 17.1 91.0042 16.956C90.9202 16.812 90.8782 16.65 90.8782 16.47C90.8782 16.278 90.9322 16.116 91.0402 15.984C91.1482 15.852 91.2862 15.786 91.4542 15.786C91.6102 15.786 91.8562 15.882 92.1922 16.074C92.5522 16.266 92.9002 16.422 93.2362 16.542C93.5842 16.662 94.0162 16.722 94.5322 16.722C95.1082 16.722 95.5582 16.62 95.8822 16.416C96.2062 16.212 96.3682 15.924 96.3682 15.552C96.3682 15.312 96.3022 15.12 96.1702 14.976C96.0502 14.832 95.8342 14.706 95.5222 14.598C95.2102 14.478 94.7482 14.352 94.1362 14.22C93.0802 13.992 92.3182 13.686 91.8502 13.302C91.3942 12.906 91.1662 12.372 91.1662 11.7C91.1662 11.184 91.3162 10.722 91.6162 10.314C91.9162 9.894 92.3302 9.57 92.8582 9.342C93.3862 9.114 93.9862 9 94.6582 9C95.1382 9 95.6062 9.066 96.0622 9.198C96.5182 9.318 96.9202 9.498 97.2682 9.738C97.6642 10.002 97.8622 10.308 97.8622 10.656C97.8622 10.848 97.8022 11.01 97.6822 11.142C97.5742 11.274 97.4422 11.34 97.2862 11.34C97.1782 11.34 97.0702 11.316 96.9622 11.268C96.8542 11.22 96.7102 11.142 96.5302 11.034C96.2062 10.842 95.9002 10.692 95.6122 10.584C95.3362 10.476 94.9882 10.422 94.5682 10.422C94.0642 10.422 93.6562 10.53 93.3442 10.746C93.0442 10.962 92.8942 11.256 92.8942 11.628C92.8942 11.964 93.0322 12.228 93.3082 12.42C93.5962 12.6 94.1302 12.774 94.9102 12.942C95.7142 13.11 96.3442 13.302 96.8002 13.518C97.2562 13.734 97.5802 14.004 97.7722 14.328C97.9762 14.64 98.0782 15.042 98.0782 15.534C98.0782 16.314 97.7482 16.944 97.0882 17.424C96.4402 17.892 95.5702 18.126 94.4782 18.126ZM103.162 18.126C101.938 18.126 100.936 17.874 100.156 17.37C99.9398 17.238 99.7838 17.1 99.6878 16.956C99.6038 16.812 99.5618 16.65 99.5618 16.47C99.5618 16.278 99.6158 16.116 99.7238 15.984C99.8318 15.852 99.9698 15.786 100.138 15.786C100.294 15.786 100.54 15.882 100.876 16.074C101.236 16.266 101.584 16.422 101.92 16.542C102.268 16.662 102.7 16.722 103.216 16.722C103.792 16.722 104.242 16.62 104.566 16.416C104.89 16.212 105.052 15.924 105.052 15.552C105.052 15.312 104.986 15.12 104.854 14.976C104.734 14.832 104.518 14.706 104.206 14.598C103.894 14.478 103.432 14.352 102.82 14.22C101.764 13.992 101.002 13.686 100.534 13.302C100.078 12.906 99.8498 12.372 99.8498 11.7C99.8498 11.184 99.9998 10.722 100.3 10.314C100.6 9.894 101.014 9.57 101.542 9.342C102.07 9.114 102.67 9 103.342 9C103.822 9 104.29 9.066 104.746 9.198C105.202 9.318 105.604 9.498 105.952 9.738C106.348 10.002 106.546 10.308 106.546 10.656C106.546 10.848 106.486 11.01 106.366 11.142C106.258 11.274 106.126 11.34 105.97 11.34C105.862 11.34 105.754 11.316 105.646 11.268C105.538 11.22 105.394 11.142 105.214 11.034C104.89 10.842 104.584 10.692 104.296 10.584C104.02 10.476 103.672 10.422 103.252 10.422C102.748 10.422 102.34 10.53 102.028 10.746C101.728 10.962 101.578 11.256 101.578 11.628C101.578 11.964 101.716 12.228 101.992 12.42C102.28 12.6 102.814 12.774 103.594 12.942C104.398 13.11 105.028 13.302 105.484 13.518C105.94 13.734 106.264 14.004 106.456 14.328C106.66 14.64 106.762 15.042 106.762 15.534C106.762 16.314 106.432 16.944 105.772 17.424C105.124 17.892 104.254 18.126 103.162 18.126ZM120.597 9.594C120.729 9.234 120.975 9.054 121.335 9.054C121.563 9.054 121.767 9.132 121.947 9.288C122.127 9.444 122.217 9.636 122.217 9.864C122.217 9.984 122.193 10.092 122.145 10.188L119.157 17.478C119.085 17.67 118.965 17.82 118.797 17.928C118.629 18.024 118.443 18.072 118.239 18.072C118.047 18.072 117.867 18.024 117.699 17.928C117.531 17.82 117.411 17.67 117.339 17.478L114.999 11.7L112.713 17.478C112.641 17.67 112.521 17.82 112.353 17.928C112.197 18.024 112.017 18.072 111.813 18.072C111.621 18.072 111.435 18.024 111.255 17.928C111.087 17.82 110.961 17.67 110.877 17.478L107.907 10.188C107.859 10.092 107.835 9.99 107.835 9.882C107.835 9.642 107.931 9.444 108.123 9.288C108.327 9.132 108.549 9.054 108.789 9.054C109.149 9.054 109.395 9.228 109.527 9.576L111.849 15.714L114.225 9.63C114.297 9.438 114.411 9.294 114.567 9.198C114.723 9.102 114.891 9.054 115.071 9.054C115.239 9.054 115.401 9.102 115.557 9.198C115.713 9.294 115.827 9.438 115.899 9.63L118.275 15.678L120.597 9.594ZM127.596 18.126C126.732 18.126 125.97 17.94 125.31 17.568C124.662 17.196 124.158 16.668 123.798 15.984C123.45 15.288 123.276 14.484 123.276 13.572C123.276 12.648 123.45 11.844 123.798 11.16C124.158 10.464 124.662 9.93 125.31 9.558C125.97 9.186 126.732 9 127.596 9C128.46 9 129.216 9.186 129.864 9.558C130.524 9.93 131.028 10.464 131.376 11.16C131.736 11.844 131.916 12.648 131.916 13.572C131.916 14.484 131.736 15.288 131.376 15.984C131.028 16.668 130.524 17.196 129.864 17.568C129.216 17.94 128.46 18.126 127.596 18.126ZM127.596 16.686C128.4 16.686 129.012 16.422 129.432 15.894C129.864 15.366 130.08 14.592 130.08 13.572C130.08 12.564 129.864 11.796 129.432 11.268C129 10.728 128.388 10.458 127.596 10.458C126.804 10.458 126.192 10.728 125.76 11.268C125.328 11.796 125.112 12.564 125.112 13.572C125.112 14.592 125.322 15.366 125.742 15.894C126.174 16.422 126.792 16.686 127.596 16.686ZM138.548 9.036C139.124 9 139.412 9.246 139.412 9.774C139.412 10.038 139.346 10.236 139.214 10.368C139.082 10.5 138.854 10.578 138.53 10.602L137.99 10.656C137.234 10.728 136.67 10.992 136.298 11.448C135.938 11.904 135.758 12.456 135.758 13.104V17.226C135.758 17.514 135.674 17.73 135.506 17.874C135.338 18.018 135.122 18.09 134.858 18.09C134.594 18.09 134.372 18.018 134.192 17.874C134.024 17.73 133.94 17.514 133.94 17.226V9.9C133.94 9.624 134.024 9.414 134.192 9.27C134.372 9.114 134.594 9.036 134.858 9.036C135.098 9.036 135.296 9.114 135.452 9.27C135.62 9.414 135.704 9.618 135.704 9.882V10.746C135.944 10.218 136.292 9.816 136.748 9.54C137.204 9.264 137.72 9.102 138.296 9.054L138.548 9.036ZM147.538 5.22C147.814 5.22 148.036 5.298 148.204 5.454C148.372 5.61 148.456 5.82 148.456 6.084V17.208C148.456 17.484 148.372 17.7 148.204 17.856C148.048 18.012 147.832 18.09 147.556 18.09C147.28 18.09 147.058 18.012 146.89 17.856C146.734 17.7 146.656 17.484 146.656 17.208V16.488C146.392 17.016 146.008 17.424 145.504 17.712C145 17.988 144.418 18.126 143.758 18.126C143.002 18.126 142.324 17.934 141.724 17.55C141.136 17.166 140.674 16.626 140.338 15.93C140.014 15.234 139.852 14.436 139.852 13.536C139.852 12.624 140.014 11.826 140.338 11.142C140.674 10.458 141.136 9.93 141.724 9.558C142.312 9.186 142.99 9 143.758 9C144.418 9 144.994 9.144 145.486 9.432C145.99 9.708 146.374 10.104 146.638 10.62V6.048C146.638 5.796 146.716 5.598 146.872 5.454C147.04 5.298 147.262 5.22 147.538 5.22ZM144.19 16.686C144.97 16.686 145.576 16.416 146.008 15.876C146.44 15.336 146.656 14.568 146.656 13.572C146.656 12.576 146.44 11.808 146.008 11.268C145.588 10.728 144.982 10.458 144.19 10.458C143.398 10.458 142.78 10.728 142.336 11.268C141.904 11.796 141.688 12.552 141.688 13.536C141.688 14.52 141.91 15.294 142.354 15.858C142.798 16.41 143.41 16.686 144.19 16.686Z" fill="white"/>
</svg>
