<svg width="45" height="25" viewBox="0 0 45 25" fill="none" xmlns="http://www.w3.org/2000/svg">
<path d="M2.394 18C2.106 18 1.878 17.922 1.71 17.766C1.554 17.598 1.476 17.376 1.476 17.1V6.21C1.476 5.934 1.554 5.718 1.71 5.562C1.878 5.394 2.106 5.31 2.394 5.31H9.018C9.294 5.31 9.504 5.376 9.648 5.508C9.804 5.64 9.882 5.826 9.882 6.066C9.882 6.306 9.804 6.492 9.648 6.624C9.504 6.744 9.294 6.804 9.018 6.804H3.294V10.8H8.658C8.934 10.8 9.144 10.866 9.288 10.998C9.444 11.13 9.522 11.316 9.522 11.556C9.522 11.796 9.444 11.982 9.288 12.114C9.144 12.246 8.934 12.312 8.658 12.312H3.294V16.506H9.018C9.594 16.506 9.882 16.752 9.882 17.244C9.882 17.484 9.804 17.67 9.648 17.802C9.504 17.934 9.294 18 9.018 18H2.394ZM21.8693 9C23.8373 9 24.8213 10.182 24.8213 12.546V17.226C24.8213 17.502 24.7373 17.718 24.5693 17.874C24.4013 18.018 24.1793 18.09 23.9033 18.09C23.6393 18.09 23.4233 18.018 23.2553 17.874C23.0873 17.718 23.0033 17.502 23.0033 17.226V12.564C23.0033 11.832 22.8713 11.304 22.6073 10.98C22.3433 10.644 21.9293 10.476 21.3653 10.476C20.7053 10.476 20.1833 10.704 19.7993 11.16C19.4153 11.604 19.2233 12.216 19.2233 12.996V17.226C19.2233 17.502 19.1393 17.718 18.9713 17.874C18.8033 18.018 18.5813 18.09 18.3053 18.09C18.0413 18.09 17.8253 18.018 17.6573 17.874C17.4893 17.718 17.4053 17.502 17.4053 17.226V12.564C17.4053 11.832 17.2733 11.304 17.0093 10.98C16.7453 10.644 16.3313 10.476 15.7673 10.476C15.1073 10.476 14.5793 10.704 14.1833 11.16C13.7993 11.604 13.6073 12.216 13.6073 12.996V17.226C13.6073 17.502 13.5233 17.718 13.3553 17.874C13.1873 18.018 12.9713 18.09 12.7073 18.09C12.4433 18.09 12.2213 18.018 12.0413 17.874C11.8733 17.718 11.7893 17.502 11.7893 17.226V9.9C11.7893 9.636 11.8793 9.426 12.0593 9.27C12.2393 9.114 12.4553 9.036 12.7073 9.036C12.9593 9.036 13.1633 9.114 13.3193 9.27C13.4873 9.414 13.5713 9.618 13.5713 9.882V10.548C13.8353 10.044 14.2013 9.66 14.6693 9.396C15.1373 9.132 15.6773 9 16.2893 9C16.9613 9 17.5133 9.138 17.9453 9.414C18.3893 9.69 18.7193 10.116 18.9353 10.692C19.1993 10.176 19.5893 9.768 20.1053 9.468C20.6213 9.156 21.2093 9 21.8693 9ZM31.0008 9C32.1648 9 33.0288 9.294 33.5928 9.882C34.1688 10.47 34.4568 11.364 34.4568 12.564V17.226C34.4568 17.502 34.3788 17.718 34.2228 17.874C34.0668 18.018 33.8508 18.09 33.5748 18.09C33.3108 18.09 33.1008 18.012 32.9448 17.856C32.7888 17.7 32.7108 17.49 32.7108 17.226V16.56C32.4828 17.064 32.1408 17.454 31.6848 17.73C31.2408 17.994 30.7188 18.126 30.1188 18.126C29.5428 18.126 29.0148 18.012 28.5348 17.784C28.0668 17.544 27.6948 17.22 27.4188 16.812C27.1428 16.404 27.0048 15.942 27.0048 15.426C26.9928 14.778 27.1548 14.274 27.4908 13.914C27.8268 13.542 28.3728 13.278 29.1288 13.122C29.8848 12.954 30.9348 12.87 32.2788 12.87H32.6928V12.348C32.6928 11.676 32.5548 11.19 32.2788 10.89C32.0028 10.59 31.5588 10.44 30.9468 10.44C30.5268 10.44 30.1308 10.494 29.7588 10.602C29.3868 10.71 28.9788 10.866 28.5348 11.07C28.2108 11.25 27.9828 11.34 27.8508 11.34C27.6708 11.34 27.5208 11.274 27.4008 11.142C27.2928 11.01 27.2388 10.842 27.2388 10.638C27.2388 10.458 27.2868 10.302 27.3828 10.17C27.4908 10.026 27.6588 9.888 27.8868 9.756C28.3068 9.528 28.7988 9.348 29.3628 9.216C29.9268 9.072 30.4728 9 31.0008 9ZM30.4428 16.776C31.1028 16.776 31.6428 16.554 32.0628 16.11C32.4828 15.654 32.6928 15.072 32.6928 14.364V13.896H32.3688C31.4328 13.896 30.7128 13.938 30.2088 14.022C29.7048 14.106 29.3448 14.25 29.1288 14.454C28.9128 14.646 28.8048 14.928 28.8048 15.3C28.8048 15.732 28.9608 16.086 29.2728 16.362C29.5848 16.638 29.9748 16.776 30.4428 16.776ZM37.8616 18.09C37.5976 18.09 37.3756 18.018 37.1956 17.874C37.0276 17.73 36.9436 17.514 36.9436 17.226V9.918C36.9436 9.63 37.0276 9.414 37.1956 9.27C37.3756 9.114 37.5976 9.036 37.8616 9.036C38.1256 9.036 38.3416 9.114 38.5096 9.27C38.6776 9.414 38.7616 9.63 38.7616 9.918V17.226C38.7616 17.514 38.6776 17.73 38.5096 17.874C38.3416 18.018 38.1256 18.09 37.8616 18.09ZM37.8616 7.272C37.5136 7.272 37.2376 7.176 37.0336 6.984C36.8296 6.792 36.7276 6.54 36.7276 6.228C36.7276 5.916 36.8296 5.67 37.0336 5.49C37.2376 5.298 37.5136 5.202 37.8616 5.202C38.1976 5.202 38.4676 5.298 38.6716 5.49C38.8876 5.67 38.9956 5.916 38.9956 6.228C38.9956 6.54 38.8936 6.792 38.6896 6.984C38.4856 7.176 38.2096 7.272 37.8616 7.272ZM42.221 18.09C41.957 18.09 41.735 18.018 41.555 17.874C41.387 17.73 41.303 17.514 41.303 17.226V6.102C41.303 5.814 41.387 5.598 41.555 5.454C41.735 5.298 41.957 5.22 42.221 5.22C42.485 5.22 42.701 5.298 42.869 5.454C43.037 5.598 43.121 5.814 43.121 6.102V17.226C43.121 17.514 43.037 17.73 42.869 17.874C42.701 18.018 42.485 18.09 42.221 18.09Z" fill="white"/>
</svg>
