<svg width="78" height="25" viewBox="0 0 78 25" fill="none" xmlns="http://www.w3.org/2000/svg">
<path d="M12.672 16.92C12.732 17.064 12.762 17.184 12.762 17.28C12.762 17.508 12.666 17.7 12.474 17.856C12.294 18.012 12.09 18.09 11.862 18.09C11.706 18.09 11.556 18.048 11.412 17.964C11.28 17.868 11.178 17.736 11.106 17.568L9.918 14.868H3.33L2.142 17.568C2.07 17.736 1.962 17.868 1.818 17.964C1.674 18.048 1.524 18.09 1.368 18.09C1.128 18.09 0.912 18.012 0.72 17.856C0.54 17.7 0.45 17.508 0.45 17.28C0.45 17.184 0.48 17.064 0.54 16.92L5.616 5.814C5.7 5.622 5.832 5.472 6.012 5.364C6.204 5.256 6.402 5.202 6.606 5.202C6.81 5.202 7.002 5.256 7.182 5.364C7.374 5.472 7.512 5.622 7.596 5.814L12.672 16.92ZM3.996 13.392H9.27L6.624 7.434L3.996 13.392ZM19.1948 9C19.9628 9 20.6408 9.186 21.2288 9.558C21.8168 9.93 22.2728 10.458 22.5968 11.142C22.9328 11.826 23.1008 12.624 23.1008 13.536C23.1008 14.436 22.9328 15.234 22.5968 15.93C22.2728 16.626 21.8108 17.166 21.2108 17.55C20.6228 17.934 19.9508 18.126 19.1948 18.126C18.5348 18.126 17.9528 17.988 17.4488 17.712C16.9448 17.424 16.5608 17.016 16.2968 16.488V17.208C16.2968 17.472 16.2128 17.688 16.0448 17.856C15.8888 18.012 15.6728 18.09 15.3968 18.09C15.1208 18.09 14.8988 18.012 14.7308 17.856C14.5628 17.688 14.4788 17.472 14.4788 17.208V6.084C14.4788 5.82 14.5628 5.61 14.7308 5.454C14.9108 5.298 15.1388 5.22 15.4148 5.22C15.6788 5.22 15.8888 5.298 16.0448 5.454C16.2128 5.598 16.2968 5.796 16.2968 6.048V10.656C16.5608 10.128 16.9448 9.72 17.4488 9.432C17.9528 9.144 18.5348 9 19.1948 9ZM18.7628 16.686C19.5428 16.686 20.1488 16.41 20.5808 15.858C21.0248 15.306 21.2468 14.532 21.2468 13.536C21.2468 12.552 21.0308 11.796 20.5988 11.268C20.1668 10.728 19.5548 10.458 18.7628 10.458C17.9708 10.458 17.3588 10.728 16.9268 11.268C16.5068 11.808 16.2968 12.576 16.2968 13.572C16.2968 14.568 16.5068 15.336 16.9268 15.876C17.3588 16.416 17.9708 16.686 18.7628 16.686ZM28.9295 18.126C28.0655 18.126 27.3035 17.94 26.6435 17.568C25.9955 17.196 25.4915 16.668 25.1315 15.984C24.7835 15.288 24.6095 14.484 24.6095 13.572C24.6095 12.648 24.7835 11.844 25.1315 11.16C25.4915 10.464 25.9955 9.93 26.6435 9.558C27.3035 9.186 28.0655 9 28.9295 9C29.7935 9 30.5495 9.186 31.1975 9.558C31.8575 9.93 32.3615 10.464 32.7095 11.16C33.0695 11.844 33.2495 12.648 33.2495 13.572C33.2495 14.484 33.0695 15.288 32.7095 15.984C32.3615 16.668 31.8575 17.196 31.1975 17.568C30.5495 17.94 29.7935 18.126 28.9295 18.126ZM28.9295 16.686C29.7335 16.686 30.3455 16.422 30.7655 15.894C31.1975 15.366 31.4135 14.592 31.4135 13.572C31.4135 12.564 31.1975 11.796 30.7655 11.268C30.3335 10.728 29.7215 10.458 28.9295 10.458C28.1375 10.458 27.5255 10.728 27.0935 11.268C26.6615 11.796 26.4455 12.564 26.4455 13.572C26.4455 14.592 26.6555 15.366 27.0755 15.894C27.5075 16.422 28.1255 16.686 28.9295 16.686ZM42.0777 9.036C42.3537 9.036 42.5697 9.114 42.7257 9.27C42.8937 9.426 42.9777 9.642 42.9777 9.918V17.244C42.9777 17.496 42.8937 17.7 42.7257 17.856C42.5577 18.012 42.3357 18.09 42.0597 18.09C41.8077 18.09 41.6037 18.018 41.4477 17.874C41.2917 17.718 41.2137 17.514 41.2137 17.262V16.578C40.9377 17.082 40.5537 17.466 40.0617 17.73C39.5817 17.994 39.0417 18.126 38.4417 18.126C36.3057 18.126 35.2377 16.95 35.2377 14.598V9.918C35.2377 9.642 35.3157 9.426 35.4717 9.27C35.6397 9.114 35.8677 9.036 36.1557 9.036C36.4317 9.036 36.6477 9.114 36.8037 9.27C36.9717 9.426 37.0557 9.642 37.0557 9.918V14.58C37.0557 15.288 37.1997 15.81 37.4877 16.146C37.7757 16.482 38.2197 16.65 38.8197 16.65C39.5277 16.65 40.0917 16.422 40.5117 15.966C40.9437 15.51 41.1597 14.904 41.1597 14.148V9.918C41.1597 9.654 41.2437 9.444 41.4117 9.288C41.5797 9.12 41.8017 9.036 42.0777 9.036ZM49.8237 16.704C50.0877 16.728 50.2737 16.8 50.3817 16.92C50.5017 17.028 50.5617 17.184 50.5617 17.388C50.5617 17.628 50.4657 17.814 50.2737 17.946C50.0937 18.066 49.8237 18.114 49.4637 18.09L48.9777 18.054C48.0057 17.982 47.2797 17.688 46.7997 17.172C46.3197 16.644 46.0797 15.87 46.0797 14.85V10.62H44.9997C44.4717 10.62 44.2077 10.386 44.2077 9.918C44.2077 9.702 44.2737 9.534 44.4057 9.414C44.5497 9.282 44.7477 9.216 44.9997 9.216H46.0797V7.362C46.0797 7.086 46.1577 6.87 46.3137 6.714C46.4817 6.558 46.7037 6.48 46.9797 6.48C47.2557 6.48 47.4777 6.558 47.6457 6.714C47.8137 6.87 47.8977 7.086 47.8977 7.362V9.216H49.6797C49.9317 9.216 50.1237 9.282 50.2557 9.414C50.3997 9.534 50.4717 9.702 50.4717 9.918C50.4717 10.146 50.3997 10.32 50.2557 10.44C50.1237 10.56 49.9317 10.62 49.6797 10.62H47.8977V14.976C47.8977 15.54 48.0117 15.954 48.2397 16.218C48.4797 16.482 48.8397 16.632 49.3197 16.668L49.8237 16.704ZM61.9055 18.144C60.2135 18.144 58.9295 17.706 58.0535 16.83C57.1775 15.954 56.7395 14.664 56.7395 12.96V6.156C56.7395 5.868 56.8235 5.64 56.9915 5.472C57.1595 5.304 57.3815 5.22 57.6575 5.22C57.9335 5.22 58.1555 5.304 58.3235 5.472C58.4915 5.64 58.5755 5.868 58.5755 6.156V13.086C58.5755 14.25 58.8515 15.132 59.4035 15.732C59.9675 16.332 60.8015 16.632 61.9055 16.632C62.9975 16.632 63.8255 16.332 64.3895 15.732C64.9535 15.132 65.2355 14.25 65.2355 13.086V6.156C65.2355 5.88 65.3195 5.658 65.4875 5.49C65.6555 5.31 65.8775 5.22 66.1535 5.22C66.4295 5.22 66.6515 5.304 66.8195 5.472C66.9875 5.64 67.0715 5.868 67.0715 6.156V12.96C67.0715 14.652 66.6275 15.942 65.7395 16.83C64.8635 17.706 63.5855 18.144 61.9055 18.144ZM72.7692 18.126C71.5452 18.126 70.5432 17.874 69.7632 17.37C69.5472 17.238 69.3912 17.1 69.2952 16.956C69.2112 16.812 69.1692 16.65 69.1692 16.47C69.1692 16.278 69.2232 16.116 69.3312 15.984C69.4392 15.852 69.5772 15.786 69.7452 15.786C69.9012 15.786 70.1472 15.882 70.4832 16.074C70.8432 16.266 71.1912 16.422 71.5272 16.542C71.8752 16.662 72.3072 16.722 72.8232 16.722C73.3992 16.722 73.8492 16.62 74.1732 16.416C74.4972 16.212 74.6592 15.924 74.6592 15.552C74.6592 15.312 74.5932 15.12 74.4612 14.976C74.3412 14.832 74.1252 14.706 73.8132 14.598C73.5012 14.478 73.0392 14.352 72.4272 14.22C71.3712 13.992 70.6092 13.686 70.1412 13.302C69.6852 12.906 69.4572 12.372 69.4572 11.7C69.4572 11.184 69.6072 10.722 69.9072 10.314C70.2072 9.894 70.6212 9.57 71.1492 9.342C71.6772 9.114 72.2772 9 72.9492 9C73.4292 9 73.8972 9.066 74.3532 9.198C74.8092 9.318 75.2112 9.498 75.5592 9.738C75.9552 10.002 76.1532 10.308 76.1532 10.656C76.1532 10.848 76.0932 11.01 75.9732 11.142C75.8652 11.274 75.7332 11.34 75.5772 11.34C75.4692 11.34 75.3612 11.316 75.2532 11.268C75.1452 11.22 75.0012 11.142 74.8212 11.034C74.4972 10.842 74.1912 10.692 73.9032 10.584C73.6272 10.476 73.2792 10.422 72.8592 10.422C72.3552 10.422 71.9472 10.53 71.6352 10.746C71.3352 10.962 71.1852 11.256 71.1852 11.628C71.1852 11.964 71.3232 12.228 71.5992 12.42C71.8872 12.6 72.4212 12.774 73.2012 12.942C74.0052 13.11 74.6352 13.302 75.0912 13.518C75.5472 13.734 75.8712 14.004 76.0632 14.328C76.2672 14.64 76.3692 15.042 76.3692 15.534C76.3692 16.314 76.0392 16.944 75.3792 17.424C74.7312 17.892 73.8612 18.126 72.7692 18.126Z" fill="black"/>
</svg>
