<svg width="95" height="25" viewBox="0 0 95 25" fill="none" xmlns="http://www.w3.org/2000/svg">
<path d="M11.016 5.22C11.28 5.22 11.49 5.31 11.646 5.49C11.814 5.658 11.898 5.88 11.898 6.156V17.154C11.898 17.43 11.814 17.658 11.646 17.838C11.478 18.006 11.262 18.09 10.998 18.09C10.686 18.09 10.446 17.97 10.278 17.73L3.222 8.424V17.154C3.222 17.43 3.138 17.658 2.97 17.838C2.814 18.006 2.604 18.09 2.34 18.09C2.076 18.09 1.866 18.006 1.71 17.838C1.554 17.67 1.476 17.442 1.476 17.154V6.156C1.476 5.88 1.56 5.658 1.728 5.49C1.896 5.31 2.112 5.22 2.376 5.22C2.688 5.22 2.928 5.34 3.096 5.58L10.152 14.904V6.156C10.152 5.88 10.23 5.658 10.386 5.49C10.542 5.31 10.752 5.22 11.016 5.22ZM18.453 18.126C17.589 18.126 16.827 17.94 16.167 17.568C15.519 17.196 15.015 16.668 14.655 15.984C14.307 15.288 14.133 14.484 14.133 13.572C14.133 12.648 14.307 11.844 14.655 11.16C15.015 10.464 15.519 9.93 16.167 9.558C16.827 9.186 17.589 9 18.453 9C19.317 9 20.073 9.186 20.721 9.558C21.381 9.93 21.885 10.464 22.233 11.16C22.593 11.844 22.773 12.648 22.773 13.572C22.773 14.484 22.593 15.288 22.233 15.984C21.885 16.668 21.381 17.196 20.721 17.568C20.073 17.94 19.317 18.126 18.453 18.126ZM18.453 16.686C19.257 16.686 19.869 16.422 20.289 15.894C20.721 15.366 20.937 14.592 20.937 13.572C20.937 12.564 20.721 11.796 20.289 11.268C19.857 10.728 19.245 10.458 18.453 10.458C17.661 10.458 17.049 10.728 16.617 11.268C16.185 11.796 15.969 12.564 15.969 13.572C15.969 14.592 16.179 15.366 16.599 15.894C17.031 16.422 17.649 16.686 18.453 16.686ZM29.064 16.704C29.328 16.728 29.514 16.8 29.622 16.92C29.742 17.028 29.802 17.184 29.802 17.388C29.802 17.628 29.706 17.814 29.514 17.946C29.334 18.066 29.064 18.114 28.704 18.09L28.218 18.054C27.246 17.982 26.52 17.688 26.04 17.172C25.56 16.644 25.32 15.87 25.32 14.85V10.62H24.24C23.712 10.62 23.448 10.386 23.448 9.918C23.448 9.702 23.514 9.534 23.646 9.414C23.79 9.282 23.988 9.216 24.24 9.216H25.32V7.362C25.32 7.086 25.398 6.87 25.554 6.714C25.722 6.558 25.944 6.48 26.22 6.48C26.496 6.48 26.718 6.558 26.886 6.714C27.054 6.87 27.138 7.086 27.138 7.362V9.216H28.92C29.172 9.216 29.364 9.282 29.496 9.414C29.64 9.534 29.712 9.702 29.712 9.918C29.712 10.146 29.64 10.32 29.496 10.44C29.364 10.56 29.172 10.62 28.92 10.62H27.138V14.976C27.138 15.54 27.252 15.954 27.48 16.218C27.72 16.482 28.08 16.632 28.56 16.668L29.064 16.704ZM32.0257 18.09C31.7617 18.09 31.5397 18.018 31.3597 17.874C31.1917 17.73 31.1077 17.514 31.1077 17.226V9.918C31.1077 9.63 31.1917 9.414 31.3597 9.27C31.5397 9.114 31.7617 9.036 32.0257 9.036C32.2897 9.036 32.5057 9.114 32.6737 9.27C32.8417 9.414 32.9257 9.63 32.9257 9.918V17.226C32.9257 17.514 32.8417 17.73 32.6737 17.874C32.5057 18.018 32.2897 18.09 32.0257 18.09ZM32.0257 7.272C31.6777 7.272 31.4017 7.176 31.1977 6.984C30.9937 6.792 30.8917 6.54 30.8917 6.228C30.8917 5.916 30.9937 5.67 31.1977 5.49C31.4017 5.298 31.6777 5.202 32.0257 5.202C32.3617 5.202 32.6317 5.298 32.8357 5.49C33.0517 5.67 33.1597 5.916 33.1597 6.228C33.1597 6.54 33.0577 6.792 32.8537 6.984C32.6497 7.176 32.3737 7.272 32.0257 7.272ZM42.523 7.272C42.175 7.272 41.899 7.176 41.695 6.984C41.491 6.792 41.389 6.54 41.389 6.228C41.389 5.916 41.491 5.67 41.695 5.49C41.899 5.298 42.175 5.202 42.523 5.202C42.859 5.202 43.129 5.298 43.333 5.49C43.549 5.67 43.657 5.916 43.657 6.228C43.657 6.54 43.555 6.792 43.351 6.984C43.147 7.176 42.871 7.272 42.523 7.272ZM42.631 9.216C42.883 9.216 43.075 9.282 43.207 9.414C43.351 9.534 43.423 9.702 43.423 9.918V17.226C43.423 17.514 43.339 17.73 43.171 17.874C43.003 18.018 42.787 18.09 42.523 18.09C42.259 18.09 42.037 18.018 41.857 17.874C41.689 17.73 41.605 17.514 41.605 17.226V10.62H37.843V17.208C37.843 17.496 37.753 17.718 37.573 17.874C37.405 18.018 37.189 18.09 36.925 18.09C36.661 18.09 36.445 18.018 36.277 17.874C36.109 17.718 36.025 17.496 36.025 17.208V10.62H34.945C34.693 10.62 34.495 10.56 34.351 10.44C34.219 10.308 34.153 10.134 34.153 9.918C34.153 9.702 34.219 9.534 34.351 9.414C34.495 9.282 34.693 9.216 34.945 9.216H36.025V9.018C36.025 7.914 36.307 7.05 36.871 6.426C37.435 5.79 38.233 5.424 39.265 5.328L39.697 5.292L39.931 5.274C40.459 5.274 40.723 5.496 40.723 5.94C40.723 6.36 40.489 6.6 40.021 6.66L39.607 6.696C39.007 6.744 38.563 6.936 38.275 7.272C37.987 7.596 37.843 8.076 37.843 8.712V9.216H42.631ZM49.7232 18.126C48.8712 18.126 48.1212 17.94 47.4732 17.568C46.8372 17.196 46.3392 16.668 45.9792 15.984C45.6312 15.3 45.4572 14.508 45.4572 13.608C45.4572 12.696 45.6372 11.892 45.9972 11.196C46.3692 10.5 46.8852 9.96 47.5452 9.576C48.2052 9.192 48.9612 9 49.8132 9C50.2692 9 50.7252 9.066 51.1812 9.198C51.6492 9.33 52.0632 9.51 52.4232 9.738C52.8072 10.002 52.9992 10.308 52.9992 10.656C52.9992 10.86 52.9452 11.034 52.8372 11.178C52.7292 11.31 52.5912 11.376 52.4232 11.376C52.3152 11.376 52.2072 11.352 52.0992 11.304C51.9912 11.244 51.8532 11.16 51.6852 11.052C51.3852 10.86 51.1032 10.716 50.8392 10.62C50.5872 10.512 50.2812 10.458 49.9212 10.458C49.1052 10.458 48.4692 10.734 48.0132 11.286C47.5692 11.838 47.3472 12.606 47.3472 13.59C47.3472 14.574 47.5692 15.336 48.0132 15.876C48.4572 16.404 49.0872 16.668 49.9032 16.668C50.2632 16.668 50.5812 16.614 50.8572 16.506C51.1332 16.398 51.4152 16.254 51.7032 16.074C51.8352 15.99 51.9672 15.918 52.0992 15.858C52.2312 15.798 52.3512 15.768 52.4592 15.768C52.6272 15.768 52.7652 15.84 52.8732 15.984C52.9812 16.116 53.0352 16.284 53.0352 16.488C53.0352 16.656 52.9872 16.812 52.8912 16.956C52.8072 17.088 52.6572 17.226 52.4412 17.37C52.0812 17.61 51.6612 17.796 51.1812 17.928C50.7012 18.06 50.2152 18.126 49.7232 18.126ZM58.3523 9C59.5163 9 60.3803 9.294 60.9443 9.882C61.5203 10.47 61.8083 11.364 61.8083 12.564V17.226C61.8083 17.502 61.7303 17.718 61.5743 17.874C61.4183 18.018 61.2023 18.09 60.9263 18.09C60.6623 18.09 60.4523 18.012 60.2963 17.856C60.1403 17.7 60.0623 17.49 60.0623 17.226V16.56C59.8343 17.064 59.4923 17.454 59.0363 17.73C58.5923 17.994 58.0703 18.126 57.4703 18.126C56.8943 18.126 56.3663 18.012 55.8863 17.784C55.4183 17.544 55.0463 17.22 54.7703 16.812C54.4943 16.404 54.3563 15.942 54.3563 15.426C54.3443 14.778 54.5063 14.274 54.8423 13.914C55.1783 13.542 55.7243 13.278 56.4803 13.122C57.2363 12.954 58.2863 12.87 59.6303 12.87H60.0443V12.348C60.0443 11.676 59.9063 11.19 59.6303 10.89C59.3543 10.59 58.9103 10.44 58.2983 10.44C57.8783 10.44 57.4823 10.494 57.1103 10.602C56.7383 10.71 56.3303 10.866 55.8863 11.07C55.5623 11.25 55.3343 11.34 55.2023 11.34C55.0223 11.34 54.8723 11.274 54.7523 11.142C54.6443 11.01 54.5903 10.842 54.5903 10.638C54.5903 10.458 54.6383 10.302 54.7343 10.17C54.8423 10.026 55.0103 9.888 55.2383 9.756C55.6583 9.528 56.1503 9.348 56.7143 9.216C57.2783 9.072 57.8243 9 58.3523 9ZM57.7943 16.776C58.4543 16.776 58.9943 16.554 59.4143 16.11C59.8343 15.654 60.0443 15.072 60.0443 14.364V13.896H59.7203C58.7843 13.896 58.0643 13.938 57.5603 14.022C57.0563 14.106 56.6963 14.25 56.4803 14.454C56.2643 14.646 56.1563 14.928 56.1563 15.3C56.1563 15.732 56.3123 16.086 56.6243 16.362C56.9363 16.638 57.3263 16.776 57.7943 16.776ZM68.5972 16.704C68.8612 16.728 69.0472 16.8 69.1552 16.92C69.2752 17.028 69.3352 17.184 69.3352 17.388C69.3352 17.628 69.2392 17.814 69.0472 17.946C68.8672 18.066 68.5972 18.114 68.2372 18.09L67.7512 18.054C66.7792 17.982 66.0532 17.688 65.5732 17.172C65.0932 16.644 64.8532 15.87 64.8532 14.85V10.62H63.7732C63.2452 10.62 62.9812 10.386 62.9812 9.918C62.9812 9.702 63.0472 9.534 63.1792 9.414C63.3232 9.282 63.5212 9.216 63.7732 9.216H64.8532V7.362C64.8532 7.086 64.9312 6.87 65.0872 6.714C65.2552 6.558 65.4772 6.48 65.7532 6.48C66.0292 6.48 66.2512 6.558 66.4192 6.714C66.5872 6.87 66.6712 7.086 66.6712 7.362V9.216H68.4532C68.7052 9.216 68.8972 9.282 69.0292 9.414C69.1732 9.534 69.2452 9.702 69.2452 9.918C69.2452 10.146 69.1732 10.32 69.0292 10.44C68.8972 10.56 68.7052 10.62 68.4532 10.62H66.6712V14.976C66.6712 15.54 66.7852 15.954 67.0132 16.218C67.2532 16.482 67.6132 16.632 68.0932 16.668L68.5972 16.704ZM71.5589 18.09C71.2949 18.09 71.0729 18.018 70.8929 17.874C70.7249 17.73 70.6409 17.514 70.6409 17.226V9.918C70.6409 9.63 70.7249 9.414 70.8929 9.27C71.0729 9.114 71.2949 9.036 71.5589 9.036C71.8229 9.036 72.0389 9.114 72.2069 9.27C72.3749 9.414 72.4589 9.63 72.4589 9.918V17.226C72.4589 17.514 72.3749 17.73 72.2069 17.874C72.0389 18.018 71.8229 18.09 71.5589 18.09ZM71.5589 7.272C71.2109 7.272 70.9349 7.176 70.7309 6.984C70.5269 6.792 70.4249 6.54 70.4249 6.228C70.4249 5.916 70.5269 5.67 70.7309 5.49C70.9349 5.298 71.2109 5.202 71.5589 5.202C71.8949 5.202 72.1649 5.298 72.3689 5.49C72.5849 5.67 72.6929 5.916 72.6929 6.228C72.6929 6.54 72.5909 6.792 72.3869 6.984C72.1829 7.176 71.9069 7.272 71.5589 7.272ZM78.8162 18.126C77.9522 18.126 77.1902 17.94 76.5302 17.568C75.8822 17.196 75.3782 16.668 75.0182 15.984C74.6702 15.288 74.4962 14.484 74.4962 13.572C74.4962 12.648 74.6702 11.844 75.0182 11.16C75.3782 10.464 75.8822 9.93 76.5302 9.558C77.1902 9.186 77.9522 9 78.8162 9C79.6802 9 80.4362 9.186 81.0842 9.558C81.7442 9.93 82.2482 10.464 82.5962 11.16C82.9562 11.844 83.1362 12.648 83.1362 13.572C83.1362 14.484 82.9562 15.288 82.5962 15.984C82.2482 16.668 81.7442 17.196 81.0842 17.568C80.4362 17.94 79.6802 18.126 78.8162 18.126ZM78.8162 16.686C79.6202 16.686 80.2322 16.422 80.6522 15.894C81.0842 15.366 81.3002 14.592 81.3002 13.572C81.3002 12.564 81.0842 11.796 80.6522 11.268C80.2202 10.728 79.6082 10.458 78.8162 10.458C78.0242 10.458 77.4122 10.728 76.9802 11.268C76.5482 11.796 76.3322 12.564 76.3322 13.572C76.3322 14.592 76.5422 15.366 76.9622 15.894C77.3942 16.422 78.0122 16.686 78.8162 16.686ZM89.8944 9C91.9944 9 93.0444 10.182 93.0444 12.546V17.226C93.0444 17.502 92.9604 17.718 92.7924 17.874C92.6364 18.018 92.4144 18.09 92.1264 18.09C91.8504 18.09 91.6284 18.012 91.4604 17.856C91.3044 17.7 91.2264 17.49 91.2264 17.226V12.636C91.2264 11.892 91.0764 11.346 90.7764 10.998C90.4884 10.65 90.0324 10.476 89.4084 10.476C88.6764 10.476 88.0884 10.704 87.6444 11.16C87.2004 11.616 86.9784 12.228 86.9784 12.996V17.226C86.9784 17.49 86.8944 17.7 86.7264 17.856C86.5704 18.012 86.3544 18.09 86.0784 18.09C85.8024 18.09 85.5804 18.012 85.4124 17.856C85.2444 17.7 85.1604 17.49 85.1604 17.226V9.9C85.1604 9.648 85.2444 9.444 85.4124 9.288C85.5924 9.12 85.8144 9.036 86.0784 9.036C86.3424 9.036 86.5524 9.114 86.7084 9.27C86.8644 9.426 86.9424 9.63 86.9424 9.882V10.62C87.2304 10.092 87.6324 9.69 88.1484 9.414C88.6644 9.138 89.2464 9 89.8944 9Z" fill="black"/>
</svg>
