<svg width="97" height="25" viewBox="0 0 97 25" fill="none" xmlns="http://www.w3.org/2000/svg">
<path d="M2.394 18.09C2.118 18.09 1.896 18.006 1.728 17.838C1.56 17.67 1.476 17.442 1.476 17.154V6.21C1.476 5.934 1.554 5.718 1.71 5.562C1.878 5.394 2.106 5.31 2.394 5.31H6.732C8.076 5.31 9.12 5.64 9.864 6.3C10.608 6.96 10.98 7.896 10.98 9.108C10.98 10.308 10.608 11.244 9.864 11.916C9.12 12.588 8.076 12.924 6.732 12.924H3.33V17.154C3.33 17.442 3.246 17.67 3.078 17.838C2.922 18.006 2.694 18.09 2.394 18.09ZM6.534 11.43C8.31 11.43 9.198 10.656 9.198 9.108C9.198 7.572 8.31 6.804 6.534 6.804H3.33V11.43H6.534ZM17.4344 9.036C18.0104 9 18.2984 9.246 18.2984 9.774C18.2984 10.038 18.2324 10.236 18.1004 10.368C17.9684 10.5 17.7404 10.578 17.4164 10.602L16.8764 10.656C16.1204 10.728 15.5564 10.992 15.1844 11.448C14.8244 11.904 14.6444 12.456 14.6444 13.104V17.226C14.6444 17.514 14.5604 17.73 14.3924 17.874C14.2244 18.018 14.0084 18.09 13.7444 18.09C13.4804 18.09 13.2584 18.018 13.0784 17.874C12.9104 17.73 12.8264 17.514 12.8264 17.226V9.9C12.8264 9.624 12.9104 9.414 13.0784 9.27C13.2584 9.114 13.4804 9.036 13.7444 9.036C13.9844 9.036 14.1824 9.114 14.3384 9.27C14.5064 9.414 14.5904 9.618 14.5904 9.882V10.746C14.8304 10.218 15.1784 9.816 15.6344 9.54C16.0904 9.264 16.6064 9.102 17.1824 9.054L17.4344 9.036ZM26.1184 15.786C26.2864 15.786 26.4244 15.852 26.5324 15.984C26.6404 16.116 26.6944 16.284 26.6944 16.488C26.6944 16.836 26.4784 17.13 26.0464 17.37C25.6264 17.61 25.1644 17.796 24.6604 17.928C24.1684 18.06 23.6944 18.126 23.2384 18.126C21.8464 18.126 20.7484 17.724 19.9444 16.92C19.1404 16.104 18.7384 14.994 18.7384 13.59C18.7384 12.69 18.9124 11.892 19.2604 11.196C19.6204 10.5 20.1184 9.96 20.7544 9.576C21.4024 9.192 22.1344 9 22.9504 9C24.1264 9 25.0564 9.378 25.7404 10.134C26.4244 10.89 26.7664 11.91 26.7664 13.194C26.7664 13.674 26.5504 13.914 26.1184 13.914H20.5564C20.6764 15.774 21.5704 16.704 23.2384 16.704C23.6824 16.704 24.0664 16.644 24.3904 16.524C24.7144 16.404 25.0564 16.248 25.4164 16.056C25.4524 16.032 25.5484 15.984 25.7044 15.912C25.8724 15.828 26.0104 15.786 26.1184 15.786ZM22.9864 10.332C22.2904 10.332 21.7324 10.554 21.3124 10.998C20.8924 11.442 20.6404 12.066 20.5564 12.87H25.2004C25.1644 12.054 24.9544 11.43 24.5704 10.998C24.1984 10.554 23.6704 10.332 22.9864 10.332ZM32.8746 6.696C32.2746 6.744 31.8306 6.936 31.5426 7.272C31.2546 7.596 31.1106 8.076 31.1106 8.712V9.216H32.8926C33.1446 9.216 33.3366 9.282 33.4686 9.414C33.6126 9.534 33.6846 9.702 33.6846 9.918C33.6846 10.134 33.6126 10.308 33.4686 10.44C33.3366 10.56 33.1446 10.62 32.8926 10.62H31.1106V17.208C31.1106 17.496 31.0206 17.718 30.8406 17.874C30.6726 18.018 30.4566 18.09 30.1926 18.09C29.9286 18.09 29.7126 18.018 29.5446 17.874C29.3766 17.718 29.2926 17.496 29.2926 17.208V10.62H28.2126C27.9606 10.62 27.7626 10.56 27.6186 10.44C27.4866 10.308 27.4206 10.134 27.4206 9.918C27.4206 9.702 27.4866 9.534 27.6186 9.414C27.7626 9.282 27.9606 9.216 28.2126 9.216H29.2926V8.982C29.2926 7.878 29.5746 7.014 30.1386 6.39C30.7026 5.754 31.5006 5.4 32.5326 5.328L33.0006 5.292C33.3846 5.268 33.6606 5.31 33.8286 5.418C34.0086 5.526 34.0986 5.7 34.0986 5.94C34.0986 6.36 33.8466 6.6 33.3426 6.66L32.8746 6.696ZM41.6751 15.786C41.8431 15.786 41.9811 15.852 42.0891 15.984C42.1971 16.116 42.2511 16.284 42.2511 16.488C42.2511 16.836 42.0351 17.13 41.6031 17.37C41.1831 17.61 40.7211 17.796 40.2171 17.928C39.7251 18.06 39.2511 18.126 38.7951 18.126C37.4031 18.126 36.3051 17.724 35.5011 16.92C34.6971 16.104 34.2951 14.994 34.2951 13.59C34.2951 12.69 34.4691 11.892 34.8171 11.196C35.1771 10.5 35.6751 9.96 36.3111 9.576C36.9591 9.192 37.6911 9 38.5071 9C39.6831 9 40.6131 9.378 41.2971 10.134C41.9811 10.89 42.3231 11.91 42.3231 13.194C42.3231 13.674 42.1071 13.914 41.6751 13.914H36.1131C36.2331 15.774 37.1271 16.704 38.7951 16.704C39.2391 16.704 39.6231 16.644 39.9471 16.524C40.2711 16.404 40.6131 16.248 40.9731 16.056C41.0091 16.032 41.1051 15.984 41.2611 15.912C41.4291 15.828 41.5671 15.786 41.6751 15.786ZM38.5431 10.332C37.8471 10.332 37.2891 10.554 36.8691 10.998C36.4491 11.442 36.1971 12.066 36.1131 12.87H40.7571C40.7211 12.054 40.5111 11.43 40.1271 10.998C39.7551 10.554 39.2271 10.332 38.5431 10.332ZM48.9344 9.036C49.5104 9 49.7984 9.246 49.7984 9.774C49.7984 10.038 49.7324 10.236 49.6004 10.368C49.4684 10.5 49.2404 10.578 48.9164 10.602L48.3764 10.656C47.6204 10.728 47.0564 10.992 46.6844 11.448C46.3244 11.904 46.1444 12.456 46.1444 13.104V17.226C46.1444 17.514 46.0604 17.73 45.8924 17.874C45.7244 18.018 45.5084 18.09 45.2444 18.09C44.9804 18.09 44.7584 18.018 44.5784 17.874C44.4104 17.73 44.3264 17.514 44.3264 17.226V9.9C44.3264 9.624 44.4104 9.414 44.5784 9.27C44.7584 9.114 44.9804 9.036 45.2444 9.036C45.4844 9.036 45.6824 9.114 45.8384 9.27C46.0064 9.414 46.0904 9.618 46.0904 9.882V10.746C46.3304 10.218 46.6784 9.816 47.1344 9.54C47.5904 9.264 48.1064 9.102 48.6824 9.054L48.9344 9.036ZM57.6184 15.786C57.7864 15.786 57.9244 15.852 58.0324 15.984C58.1404 16.116 58.1944 16.284 58.1944 16.488C58.1944 16.836 57.9784 17.13 57.5464 17.37C57.1264 17.61 56.6644 17.796 56.1604 17.928C55.6684 18.06 55.1944 18.126 54.7384 18.126C53.3464 18.126 52.2484 17.724 51.4444 16.92C50.6404 16.104 50.2384 14.994 50.2384 13.59C50.2384 12.69 50.4124 11.892 50.7604 11.196C51.1204 10.5 51.6184 9.96 52.2544 9.576C52.9024 9.192 53.6344 9 54.4504 9C55.6264 9 56.5564 9.378 57.2404 10.134C57.9244 10.89 58.2664 11.91 58.2664 13.194C58.2664 13.674 58.0504 13.914 57.6184 13.914H52.0564C52.1764 15.774 53.0704 16.704 54.7384 16.704C55.1824 16.704 55.5664 16.644 55.8904 16.524C56.2144 16.404 56.5564 16.248 56.9164 16.056C56.9524 16.032 57.0484 15.984 57.2044 15.912C57.3724 15.828 57.5104 15.786 57.6184 15.786ZM54.4864 10.332C53.7904 10.332 53.2324 10.554 52.8124 10.998C52.3924 11.442 52.1404 12.066 52.0564 12.87H56.7004C56.6644 12.054 56.4544 11.43 56.0704 10.998C55.6984 10.554 55.1704 10.332 54.4864 10.332ZM65.0038 9C67.1038 9 68.1538 10.182 68.1538 12.546V17.226C68.1538 17.502 68.0698 17.718 67.9018 17.874C67.7458 18.018 67.5238 18.09 67.2358 18.09C66.9598 18.09 66.7378 18.012 66.5698 17.856C66.4138 17.7 66.3358 17.49 66.3358 17.226V12.636C66.3358 11.892 66.1858 11.346 65.8858 10.998C65.5978 10.65 65.1418 10.476 64.5178 10.476C63.7858 10.476 63.1978 10.704 62.7538 11.16C62.3098 11.616 62.0878 12.228 62.0878 12.996V17.226C62.0878 17.49 62.0038 17.7 61.8358 17.856C61.6798 18.012 61.4638 18.09 61.1878 18.09C60.9118 18.09 60.6898 18.012 60.5218 17.856C60.3538 17.7 60.2698 17.49 60.2698 17.226V9.9C60.2698 9.648 60.3538 9.444 60.5218 9.288C60.7018 9.12 60.9238 9.036 61.1878 9.036C61.4518 9.036 61.6618 9.114 61.8178 9.27C61.9738 9.426 62.0518 9.63 62.0518 9.882V10.62C62.3398 10.092 62.7418 9.69 63.2578 9.414C63.7738 9.138 64.3558 9 65.0038 9ZM74.4029 18.126C73.5509 18.126 72.8009 17.94 72.1529 17.568C71.5169 17.196 71.0189 16.668 70.6589 15.984C70.3109 15.3 70.1369 14.508 70.1369 13.608C70.1369 12.696 70.3169 11.892 70.6769 11.196C71.0489 10.5 71.5649 9.96 72.2249 9.576C72.8849 9.192 73.6409 9 74.4929 9C74.9489 9 75.4049 9.066 75.8609 9.198C76.3289 9.33 76.7429 9.51 77.1029 9.738C77.4869 10.002 77.6789 10.308 77.6789 10.656C77.6789 10.86 77.6249 11.034 77.5169 11.178C77.4089 11.31 77.2709 11.376 77.1029 11.376C76.9949 11.376 76.8869 11.352 76.7789 11.304C76.6709 11.244 76.5329 11.16 76.3649 11.052C76.0649 10.86 75.7829 10.716 75.5189 10.62C75.2669 10.512 74.9609 10.458 74.6009 10.458C73.7849 10.458 73.1489 10.734 72.6929 11.286C72.2489 11.838 72.0269 12.606 72.0269 13.59C72.0269 14.574 72.2489 15.336 72.6929 15.876C73.1369 16.404 73.7669 16.668 74.5829 16.668C74.9429 16.668 75.2609 16.614 75.5369 16.506C75.8129 16.398 76.0949 16.254 76.3829 16.074C76.5149 15.99 76.6469 15.918 76.7789 15.858C76.9109 15.798 77.0309 15.768 77.1389 15.768C77.3069 15.768 77.4449 15.84 77.5529 15.984C77.6609 16.116 77.7149 16.284 77.7149 16.488C77.7149 16.656 77.6669 16.812 77.5709 16.956C77.4869 17.088 77.3369 17.226 77.1209 17.37C76.7609 17.61 76.3409 17.796 75.8609 17.928C75.3809 18.06 74.8949 18.126 74.4029 18.126ZM86.218 15.786C86.386 15.786 86.524 15.852 86.632 15.984C86.74 16.116 86.794 16.284 86.794 16.488C86.794 16.836 86.578 17.13 86.146 17.37C85.726 17.61 85.264 17.796 84.76 17.928C84.268 18.06 83.794 18.126 83.338 18.126C81.946 18.126 80.848 17.724 80.044 16.92C79.24 16.104 78.838 14.994 78.838 13.59C78.838 12.69 79.012 11.892 79.36 11.196C79.72 10.5 80.218 9.96 80.854 9.576C81.502 9.192 82.234 9 83.05 9C84.226 9 85.156 9.378 85.84 10.134C86.524 10.89 86.866 11.91 86.866 13.194C86.866 13.674 86.65 13.914 86.218 13.914H80.656C80.776 15.774 81.67 16.704 83.338 16.704C83.782 16.704 84.166 16.644 84.49 16.524C84.814 16.404 85.156 16.248 85.516 16.056C85.552 16.032 85.648 15.984 85.804 15.912C85.972 15.828 86.11 15.786 86.218 15.786ZM83.086 10.332C82.39 10.332 81.832 10.554 81.412 10.998C80.992 11.442 80.74 12.066 80.656 12.87H85.3C85.264 12.054 85.054 11.43 84.67 10.998C84.298 10.554 83.77 10.332 83.086 10.332ZM91.9294 18.126C90.7054 18.126 89.7034 17.874 88.9234 17.37C88.7074 17.238 88.5514 17.1 88.4554 16.956C88.3714 16.812 88.3294 16.65 88.3294 16.47C88.3294 16.278 88.3834 16.116 88.4914 15.984C88.5994 15.852 88.7374 15.786 88.9054 15.786C89.0614 15.786 89.3074 15.882 89.6434 16.074C90.0034 16.266 90.3514 16.422 90.6874 16.542C91.0354 16.662 91.4674 16.722 91.9834 16.722C92.5594 16.722 93.0094 16.62 93.3334 16.416C93.6574 16.212 93.8194 15.924 93.8194 15.552C93.8194 15.312 93.7534 15.12 93.6214 14.976C93.5014 14.832 93.2854 14.706 92.9734 14.598C92.6614 14.478 92.1994 14.352 91.5874 14.22C90.5314 13.992 89.7694 13.686 89.3014 13.302C88.8454 12.906 88.6174 12.372 88.6174 11.7C88.6174 11.184 88.7674 10.722 89.0674 10.314C89.3674 9.894 89.7814 9.57 90.3094 9.342C90.8374 9.114 91.4374 9 92.1094 9C92.5894 9 93.0574 9.066 93.5134 9.198C93.9694 9.318 94.3714 9.498 94.7194 9.738C95.1154 10.002 95.3134 10.308 95.3134 10.656C95.3134 10.848 95.2534 11.01 95.1334 11.142C95.0254 11.274 94.8934 11.34 94.7374 11.34C94.6294 11.34 94.5214 11.316 94.4134 11.268C94.3054 11.22 94.1614 11.142 93.9814 11.034C93.6574 10.842 93.3514 10.692 93.0634 10.584C92.7874 10.476 92.4394 10.422 92.0194 10.422C91.5154 10.422 91.1074 10.53 90.7954 10.746C90.4954 10.962 90.3454 11.256 90.3454 11.628C90.3454 11.964 90.4834 12.228 90.7594 12.42C91.0474 12.6 91.5814 12.774 92.3614 12.942C93.1654 13.11 93.7954 13.302 94.2514 13.518C94.7074 13.734 95.0314 14.004 95.2234 14.328C95.4274 14.64 95.5294 15.042 95.5294 15.534C95.5294 16.314 95.1994 16.944 94.5394 17.424C93.8914 17.892 93.0214 18.126 91.9294 18.126Z" fill="black"/>
</svg>
