<svg width="128" height="46" viewBox="0 0 128 46" fill="none" xmlns="http://www.w3.org/2000/svg">
<path d="M10.71 34.272C8.98733 34.272 7.344 34.034 5.78 33.558C4.23867 33.082 3.00333 32.4247 2.074 31.586C1.64333 31.2233 1.428 30.7587 1.428 30.192C1.428 29.784 1.54133 29.444 1.768 29.172C1.99467 28.8773 2.26667 28.73 2.584 28.73C2.90133 28.73 3.28667 28.8773 3.74 29.172C5.75733 30.668 8.058 31.416 10.642 31.416C12.4553 31.416 13.8493 31.076 14.824 30.396C15.7987 29.716 16.286 28.7413 16.286 27.472C16.286 26.4747 15.8327 25.7267 14.926 25.228C14.0193 24.7293 12.5687 24.2533 10.574 23.8C8.67 23.392 7.106 22.9273 5.882 22.406C4.658 21.8847 3.69467 21.182 2.992 20.298C2.312 19.3913 1.972 18.2467 1.972 16.864C1.972 15.4813 2.346 14.2573 3.094 13.192C3.86467 12.104 4.93 11.2653 6.29 10.676C7.65 10.064 9.20267 9.758 10.948 9.758C12.5573 9.758 14.042 9.98467 15.402 10.438C16.762 10.8913 17.918 11.56 18.87 12.444C19.3233 12.8293 19.55 13.294 19.55 13.838C19.55 14.2233 19.4253 14.5633 19.176 14.858C18.9493 15.1527 18.6773 15.3 18.36 15.3C18.0653 15.3 17.6913 15.1527 17.238 14.858C16.1953 14.0647 15.2093 13.498 14.28 13.158C13.3733 12.7953 12.274 12.614 10.982 12.614C9.23667 12.614 7.87667 12.9767 6.902 13.702C5.92733 14.4047 5.44 15.3907 5.44 16.66C5.44 17.748 5.87067 18.5753 6.732 19.142C7.59333 19.686 8.976 20.1847 10.88 20.638C12.8747 21.0913 14.484 21.5673 15.708 22.066C16.9547 22.542 17.9407 23.2107 18.666 24.072C19.414 24.9107 19.788 25.9987 19.788 27.336C19.788 28.696 19.4027 29.9087 18.632 30.974C17.884 32.0167 16.8187 32.8327 15.436 33.422C14.076 33.9887 12.5007 34.272 10.71 34.272ZM36.6844 29.818C37.0017 29.818 37.2624 29.9427 37.4664 30.192C37.6704 30.4413 37.7724 30.7587 37.7724 31.144C37.7724 31.8013 37.3644 32.3567 36.5484 32.81C35.7551 33.2633 34.8824 33.6147 33.9304 33.864C33.0011 34.1133 32.1057 34.238 31.2444 34.238C28.6151 34.238 26.5411 33.4787 25.0224 31.96C23.5037 30.4187 22.7444 28.322 22.7444 25.67C22.7444 23.97 23.0731 22.4627 23.7304 21.148C24.4104 19.8333 25.3511 18.8133 26.5524 18.088C27.7764 17.3627 29.1591 17 30.7004 17C32.9217 17 34.6784 17.714 35.9704 19.142C37.2624 20.57 37.9084 22.4967 37.9084 24.922C37.9084 25.8287 37.5004 26.282 36.6844 26.282H26.1784C26.4051 29.7953 28.0937 31.552 31.2444 31.552C32.0831 31.552 32.8084 31.4387 33.4204 31.212C34.0324 30.9853 34.6784 30.6907 35.3584 30.328C35.4264 30.2827 35.6077 30.192 35.9024 30.056C36.2197 29.8973 36.4804 29.818 36.6844 29.818ZM30.7684 19.516C29.4537 19.516 28.3997 19.9353 27.6064 20.774C26.8131 21.6127 26.3371 22.7913 26.1784 24.31H34.9504C34.8824 22.7687 34.4857 21.59 33.7604 20.774C33.0577 19.9353 32.0604 19.516 30.7684 19.516ZM49.6525 31.552C50.1512 31.5973 50.5025 31.7333 50.7065 31.96C50.9332 32.164 51.0465 32.4587 51.0465 32.844C51.0465 33.2973 50.8652 33.6487 50.5025 33.898C50.1625 34.1247 49.6525 34.2153 48.9725 34.17L48.0545 34.102C46.2185 33.966 44.8472 33.4107 43.9405 32.436C43.0338 31.4387 42.5805 29.9767 42.5805 28.05V20.06H40.5405C39.5432 20.06 39.0445 19.618 39.0445 18.734C39.0445 18.326 39.1692 18.0087 39.4185 17.782C39.6905 17.5327 40.0645 17.408 40.5405 17.408H42.5805V13.906C42.5805 13.3847 42.7278 12.9767 43.0225 12.682C43.3398 12.3873 43.7592 12.24 44.2805 12.24C44.8018 12.24 45.2212 12.3873 45.5385 12.682C45.8558 12.9767 46.0145 13.3847 46.0145 13.906V17.408H49.3805C49.8565 17.408 50.2192 17.5327 50.4685 17.782C50.7405 18.0087 50.8765 18.326 50.8765 18.734C50.8765 19.1647 50.7405 19.4933 50.4685 19.72C50.2192 19.9467 49.8565 20.06 49.3805 20.06H46.0145V28.288C46.0145 29.3533 46.2298 30.1353 46.6605 30.634C47.1138 31.1327 47.7938 31.416 48.7005 31.484L49.6525 31.552ZM61.5724 31.552C62.0711 31.5973 62.4224 31.7333 62.6264 31.96C62.8531 32.164 62.9664 32.4587 62.9664 32.844C62.9664 33.2973 62.7851 33.6487 62.4224 33.898C62.0824 34.1247 61.5724 34.2153 60.8924 34.17L59.9744 34.102C58.1384 33.966 56.7671 33.4107 55.8604 32.436C54.9537 31.4387 54.5004 29.9767 54.5004 28.05V20.06H52.4604C51.4631 20.06 50.9644 19.618 50.9644 18.734C50.9644 18.326 51.0891 18.0087 51.3384 17.782C51.6104 17.5327 51.9844 17.408 52.4604 17.408H54.5004V13.906C54.5004 13.3847 54.6477 12.9767 54.9424 12.682C55.2597 12.3873 55.6791 12.24 56.2004 12.24C56.7217 12.24 57.1411 12.3873 57.4584 12.682C57.7757 12.9767 57.9344 13.3847 57.9344 13.906V17.408H61.3004C61.7764 17.408 62.1391 17.5327 62.3884 17.782C62.6604 18.0087 62.7964 18.326 62.7964 18.734C62.7964 19.1647 62.6604 19.4933 62.3884 19.72C62.1391 19.9467 61.7764 20.06 61.3004 20.06H57.9344V28.288C57.9344 29.3533 58.1497 30.1353 58.5804 30.634C59.0337 31.1327 59.7137 31.416 60.6204 31.484L61.5724 31.552ZM67.1667 34.17C66.6681 34.17 66.2487 34.034 65.9087 33.762C65.5914 33.49 65.4327 33.082 65.4327 32.538V18.734C65.4327 18.19 65.5914 17.782 65.9087 17.51C66.2487 17.2153 66.6681 17.068 67.1667 17.068C67.6654 17.068 68.0734 17.2153 68.3907 17.51C68.7081 17.782 68.8667 18.19 68.8667 18.734V32.538C68.8667 33.082 68.7081 33.49 68.3907 33.762C68.0734 34.034 67.6654 34.17 67.1667 34.17ZM67.1667 13.736C66.5094 13.736 65.9881 13.5547 65.6027 13.192C65.2174 12.8293 65.0247 12.3533 65.0247 11.764C65.0247 11.1747 65.2174 10.71 65.6027 10.37C65.9881 10.0073 66.5094 9.826 67.1667 9.826C67.8014 9.826 68.3114 10.0073 68.6967 10.37C69.1047 10.71 69.3087 11.1747 69.3087 11.764C69.3087 12.3533 69.1161 12.8293 68.7307 13.192C68.3454 13.5547 67.8241 13.736 67.1667 13.736ZM82.6091 17C86.5758 17 88.5591 19.2327 88.5591 23.698V32.538C88.5591 33.0593 88.4004 33.4673 88.0831 33.762C87.7884 34.034 87.3691 34.17 86.8251 34.17C86.3038 34.17 85.8844 34.0227 85.5671 33.728C85.2724 33.4333 85.1251 33.0367 85.1251 32.538V23.868C85.1251 22.4627 84.8418 21.4313 84.2751 20.774C83.7311 20.1167 82.8698 19.788 81.6911 19.788C80.3084 19.788 79.1978 20.2187 78.3591 21.08C77.5204 21.9413 77.1011 23.0973 77.1011 24.548V32.538C77.1011 33.0367 76.9424 33.4333 76.6251 33.728C76.3304 34.0227 75.9224 34.17 75.4011 34.17C74.8798 34.17 74.4604 34.0227 74.1431 33.728C73.8258 33.4333 73.6671 33.0367 73.6671 32.538V18.7C73.6671 18.224 73.8258 17.8387 74.1431 17.544C74.4831 17.2267 74.9024 17.068 75.4011 17.068C75.8998 17.068 76.2964 17.2153 76.5911 17.51C76.8858 17.8047 77.0331 18.19 77.0331 18.666V20.06C77.5771 19.0627 78.3364 18.3033 79.3111 17.782C80.2858 17.2607 81.3851 17 82.6091 17ZM106.993 17.068C107.514 17.068 107.922 17.2267 108.217 17.544C108.534 17.8387 108.693 18.2353 108.693 18.734V32.674C108.693 35.2127 108.013 37.128 106.653 38.42C105.316 39.712 103.332 40.358 100.703 40.358C98.255 40.358 96.215 39.8933 94.583 38.964C93.7443 38.488 93.325 37.9213 93.325 37.264C93.325 36.8787 93.427 36.5613 93.631 36.312C93.8576 36.0627 94.1296 35.938 94.447 35.938C94.7416 35.938 95.2063 36.108 95.841 36.448C96.657 36.8333 97.4163 37.128 98.119 37.332C98.8216 37.5587 99.6603 37.672 100.635 37.672C103.763 37.672 105.327 36.0967 105.327 32.946V30.328C104.851 31.3253 104.126 32.1073 103.151 32.674C102.176 33.218 101.043 33.49 99.751 33.49C98.3003 33.49 97.0083 33.15 95.875 32.47C94.7416 31.79 93.8576 30.8267 93.223 29.58C92.611 28.3333 92.305 26.894 92.305 25.262C92.305 23.63 92.6223 22.1907 93.257 20.944C93.8916 19.6973 94.7643 18.734 95.875 18.054C97.0083 17.3513 98.3003 17 99.751 17C101.02 17 102.131 17.272 103.083 17.816C104.058 18.36 104.794 19.1307 105.293 20.128V18.7C105.293 18.2013 105.44 17.8047 105.735 17.51C106.052 17.2153 106.472 17.068 106.993 17.068ZM100.567 30.77C102.04 30.77 103.196 30.2827 104.035 29.308C104.874 28.3333 105.293 26.9847 105.293 25.262C105.293 23.562 104.874 22.2247 104.035 21.25C103.219 20.2527 102.063 19.754 100.567 19.754C99.071 19.754 97.8923 20.2413 97.031 21.216C96.1923 22.1907 95.773 23.5393 95.773 25.262C95.773 26.9847 96.2036 28.3333 97.065 29.308C97.9263 30.2827 99.0936 30.77 100.567 30.77ZM119.258 34.238C116.946 34.238 115.053 33.762 113.58 32.81C113.172 32.5607 112.877 32.3 112.696 32.028C112.537 31.756 112.458 31.45 112.458 31.11C112.458 30.7473 112.56 30.4413 112.764 30.192C112.968 29.9427 113.228 29.818 113.546 29.818C113.84 29.818 114.305 29.9993 114.94 30.362C115.62 30.7247 116.277 31.0193 116.912 31.246C117.569 31.4727 118.385 31.586 119.36 31.586C120.448 31.586 121.298 31.3933 121.91 31.008C122.522 30.6227 122.828 30.0787 122.828 29.376C122.828 28.9227 122.703 28.56 122.454 28.288C122.227 28.016 121.819 27.778 121.23 27.574C120.64 27.3473 119.768 27.1093 118.612 26.86C116.617 26.4293 115.178 25.8513 114.294 25.126C113.432 24.378 113.002 23.3693 113.002 22.1C113.002 21.1253 113.285 20.2527 113.852 19.482C114.418 18.6887 115.2 18.0767 116.198 17.646C117.195 17.2153 118.328 17 119.598 17C120.504 17 121.388 17.1247 122.25 17.374C123.111 17.6007 123.87 17.9407 124.528 18.394C125.276 18.8927 125.65 19.4707 125.65 20.128C125.65 20.4907 125.536 20.7967 125.31 21.046C125.106 21.2953 124.856 21.42 124.562 21.42C124.358 21.42 124.154 21.3747 123.95 21.284C123.746 21.1933 123.474 21.046 123.134 20.842C122.522 20.4793 121.944 20.196 121.4 19.992C120.878 19.788 120.221 19.686 119.428 19.686C118.476 19.686 117.705 19.89 117.116 20.298C116.549 20.706 116.266 21.2613 116.266 21.964C116.266 22.5987 116.526 23.0973 117.048 23.46C117.592 23.8 118.6 24.1287 120.074 24.446C121.592 24.7633 122.782 25.126 123.644 25.534C124.505 25.942 125.117 26.452 125.48 27.064C125.865 27.6533 126.058 28.4127 126.058 29.342C126.058 30.8153 125.434 32.0053 124.188 32.912C122.964 33.796 121.32 34.238 119.258 34.238Z" fill="black"/>
</svg>
