<svg width="67" height="25" viewBox="0 0 67 25" fill="none" xmlns="http://www.w3.org/2000/svg">
<path d="M5.67 18.144C4.758 18.144 3.888 18.018 3.06 17.766C2.244 17.514 1.59 17.166 1.098 16.722C0.87 16.53 0.756 16.284 0.756 15.984C0.756 15.768 0.816 15.588 0.936 15.444C1.056 15.288 1.2 15.21 1.368 15.21C1.536 15.21 1.74 15.288 1.98 15.444C3.048 16.236 4.266 16.632 5.634 16.632C6.594 16.632 7.332 16.452 7.848 16.092C8.364 15.732 8.622 15.216 8.622 14.544C8.622 14.016 8.382 13.62 7.902 13.356C7.422 13.092 6.654 12.84 5.598 12.6C4.59 12.384 3.762 12.138 3.114 11.862C2.466 11.586 1.956 11.214 1.584 10.746C1.224 10.266 1.044 9.66 1.044 8.928C1.044 8.196 1.242 7.548 1.638 6.984C2.046 6.408 2.61 5.964 3.33 5.652C4.05 5.328 4.872 5.166 5.796 5.166C6.648 5.166 7.434 5.286 8.154 5.526C8.874 5.766 9.486 6.12 9.99 6.588C10.23 6.792 10.35 7.038 10.35 7.326C10.35 7.53 10.284 7.71 10.152 7.866C10.032 8.022 9.888 8.1 9.72 8.1C9.564 8.1 9.366 8.022 9.126 7.866C8.574 7.446 8.052 7.146 7.56 6.966C7.08 6.774 6.498 6.678 5.814 6.678C4.89 6.678 4.17 6.87 3.654 7.254C3.138 7.626 2.88 8.148 2.88 8.82C2.88 9.396 3.108 9.834 3.564 10.134C4.02 10.422 4.752 10.686 5.76 10.926C6.816 11.166 7.668 11.418 8.316 11.682C8.976 11.934 9.498 12.288 9.882 12.744C10.278 13.188 10.476 13.764 10.476 14.472C10.476 15.192 10.272 15.834 9.864 16.398C9.468 16.95 8.904 17.382 8.172 17.694C7.452 17.994 6.618 18.144 5.67 18.144ZM19.3492 9.036C19.6252 9.036 19.8412 9.114 19.9972 9.27C20.1652 9.426 20.2492 9.642 20.2492 9.918V17.244C20.2492 17.496 20.1652 17.7 19.9972 17.856C19.8292 18.012 19.6072 18.09 19.3312 18.09C19.0792 18.09 18.8752 18.018 18.7192 17.874C18.5632 17.718 18.4852 17.514 18.4852 17.262V16.578C18.2092 17.082 17.8252 17.466 17.3332 17.73C16.8532 17.994 16.3132 18.126 15.7132 18.126C13.5772 18.126 12.5092 16.95 12.5092 14.598V9.918C12.5092 9.642 12.5872 9.426 12.7432 9.27C12.9112 9.114 13.1392 9.036 13.4272 9.036C13.7032 9.036 13.9192 9.114 14.0752 9.27C14.2432 9.426 14.3272 9.642 14.3272 9.918V14.58C14.3272 15.288 14.4712 15.81 14.7592 16.146C15.0472 16.482 15.4912 16.65 16.0912 16.65C16.7992 16.65 17.3632 16.422 17.7832 15.966C18.2152 15.51 18.4312 14.904 18.4312 14.148V9.918C18.4312 9.654 18.5152 9.444 18.6832 9.288C18.8512 9.12 19.0732 9.036 19.3492 9.036ZM27.5092 9C28.2652 9 28.9372 9.192 29.5252 9.576C30.1252 9.96 30.5872 10.5 30.9112 11.196C31.2472 11.892 31.4152 12.696 31.4152 13.608C31.4152 14.508 31.2532 15.3 30.9292 15.984C30.6052 16.668 30.1432 17.196 29.5432 17.568C28.9552 17.94 28.2772 18.126 27.5092 18.126C26.8492 18.126 26.2672 17.988 25.7632 17.712C25.2592 17.424 24.8752 17.016 24.6112 16.488V20.502C24.6112 20.754 24.5272 20.952 24.3592 21.096C24.2032 21.252 23.9932 21.33 23.7292 21.33C23.4532 21.33 23.2252 21.252 23.0452 21.096C22.8772 20.94 22.7932 20.73 22.7932 20.466V9.918C22.7932 9.654 22.8772 9.444 23.0452 9.288C23.2132 9.12 23.4352 9.036 23.7112 9.036C23.9752 9.036 24.1912 9.12 24.3592 9.288C24.5272 9.444 24.6112 9.654 24.6112 9.918V10.656C24.8752 10.128 25.2592 9.72 25.7632 9.432C26.2672 9.144 26.8492 9 27.5092 9ZM27.0772 16.686C27.8692 16.686 28.4812 16.422 28.9132 15.894C29.3452 15.354 29.5612 14.592 29.5612 13.608C29.5612 12.612 29.3392 11.838 28.8952 11.286C28.4632 10.734 27.8572 10.458 27.0772 10.458C26.2852 10.458 25.6732 10.728 25.2412 11.268C24.8212 11.808 24.6112 12.576 24.6112 13.572C24.6112 14.568 24.8212 15.336 25.2412 15.876C25.6732 16.416 26.2852 16.686 27.0772 16.686ZM38.144 9C38.9 9 39.572 9.192 40.16 9.576C40.76 9.96 41.222 10.5 41.546 11.196C41.882 11.892 42.05 12.696 42.05 13.608C42.05 14.508 41.888 15.3 41.564 15.984C41.24 16.668 40.778 17.196 40.178 17.568C39.59 17.94 38.912 18.126 38.144 18.126C37.484 18.126 36.902 17.988 36.398 17.712C35.894 17.424 35.51 17.016 35.246 16.488V20.502C35.246 20.754 35.162 20.952 34.994 21.096C34.838 21.252 34.628 21.33 34.364 21.33C34.088 21.33 33.86 21.252 33.68 21.096C33.512 20.94 33.428 20.73 33.428 20.466V9.918C33.428 9.654 33.512 9.444 33.68 9.288C33.848 9.12 34.07 9.036 34.346 9.036C34.61 9.036 34.826 9.12 34.994 9.288C35.162 9.444 35.246 9.654 35.246 9.918V10.656C35.51 10.128 35.894 9.72 36.398 9.432C36.902 9.144 37.484 9 38.144 9ZM37.712 16.686C38.504 16.686 39.116 16.422 39.548 15.894C39.98 15.354 40.196 14.592 40.196 13.608C40.196 12.612 39.974 11.838 39.53 11.286C39.098 10.734 38.492 10.458 37.712 10.458C36.92 10.458 36.308 10.728 35.876 11.268C35.456 11.808 35.246 12.576 35.246 13.572C35.246 14.568 35.456 15.336 35.876 15.876C36.308 16.416 36.92 16.686 37.712 16.686ZM47.8787 18.126C47.0147 18.126 46.2527 17.94 45.5927 17.568C44.9447 17.196 44.4407 16.668 44.0807 15.984C43.7327 15.288 43.5587 14.484 43.5587 13.572C43.5587 12.648 43.7327 11.844 44.0807 11.16C44.4407 10.464 44.9447 9.93 45.5927 9.558C46.2527 9.186 47.0147 9 47.8787 9C48.7427 9 49.4987 9.186 50.1467 9.558C50.8067 9.93 51.3107 10.464 51.6587 11.16C52.0187 11.844 52.1987 12.648 52.1987 13.572C52.1987 14.484 52.0187 15.288 51.6587 15.984C51.3107 16.668 50.8067 17.196 50.1467 17.568C49.4987 17.94 48.7427 18.126 47.8787 18.126ZM47.8787 16.686C48.6827 16.686 49.2947 16.422 49.7147 15.894C50.1467 15.366 50.3627 14.592 50.3627 13.572C50.3627 12.564 50.1467 11.796 49.7147 11.268C49.2827 10.728 48.6707 10.458 47.8787 10.458C47.0867 10.458 46.4747 10.728 46.0427 11.268C45.6107 11.796 45.3947 12.564 45.3947 13.572C45.3947 14.592 45.6047 15.366 46.0247 15.894C46.4567 16.422 47.0747 16.686 47.8787 16.686ZM58.8309 9.036C59.4069 9 59.6949 9.246 59.6949 9.774C59.6949 10.038 59.6289 10.236 59.4969 10.368C59.3649 10.5 59.1369 10.578 58.8129 10.602L58.2729 10.656C57.5169 10.728 56.9529 10.992 56.5809 11.448C56.2209 11.904 56.0409 12.456 56.0409 13.104V17.226C56.0409 17.514 55.9569 17.73 55.7889 17.874C55.6209 18.018 55.4049 18.09 55.1409 18.09C54.8769 18.09 54.6549 18.018 54.4749 17.874C54.3069 17.73 54.2229 17.514 54.2229 17.226V9.9C54.2229 9.624 54.3069 9.414 54.4749 9.27C54.6549 9.114 54.8769 9.036 55.1409 9.036C55.3809 9.036 55.5789 9.114 55.7349 9.27C55.9029 9.414 55.9869 9.618 55.9869 9.882V10.746C56.2269 10.218 56.5749 9.816 57.0309 9.54C57.4869 9.264 58.0029 9.102 58.5789 9.054L58.8309 9.036ZM65.8725 16.704C66.1365 16.728 66.3225 16.8 66.4305 16.92C66.5505 17.028 66.6105 17.184 66.6105 17.388C66.6105 17.628 66.5145 17.814 66.3225 17.946C66.1425 18.066 65.8725 18.114 65.5125 18.09L65.0265 18.054C64.0545 17.982 63.3285 17.688 62.8485 17.172C62.3685 16.644 62.1285 15.87 62.1285 14.85V10.62H61.0485C60.5205 10.62 60.2565 10.386 60.2565 9.918C60.2565 9.702 60.3225 9.534 60.4545 9.414C60.5985 9.282 60.7965 9.216 61.0485 9.216H62.1285V7.362C62.1285 7.086 62.2065 6.87 62.3625 6.714C62.5305 6.558 62.7525 6.48 63.0285 6.48C63.3045 6.48 63.5265 6.558 63.6945 6.714C63.8625 6.87 63.9465 7.086 63.9465 7.362V9.216H65.7285C65.9805 9.216 66.1725 9.282 66.3045 9.414C66.4485 9.534 66.5205 9.702 66.5205 9.918C66.5205 10.146 66.4485 10.32 66.3045 10.44C66.1725 10.56 65.9805 10.62 65.7285 10.62H63.9465V14.976C63.9465 15.54 64.0605 15.954 64.2885 16.218C64.5285 16.482 64.8885 16.632 65.3685 16.668L65.8725 16.704Z" fill="black"/>
</svg>
