<svg width="76" height="25" viewBox="0 0 76 25" fill="none" xmlns="http://www.w3.org/2000/svg">
<path d="M13.0284 16.92C13.0884 17.064 13.1184 17.184 13.1184 17.28C13.1184 17.508 13.0224 17.7 12.8304 17.856C12.6504 18.012 12.4464 18.09 12.2184 18.09C12.0624 18.09 11.9124 18.048 11.7684 17.964C11.6364 17.868 11.5344 17.736 11.4624 17.568L10.2744 14.868H3.68645L2.49845 17.568C2.42645 17.736 2.31845 17.868 2.17445 17.964C2.03045 18.048 1.88045 18.09 1.72445 18.09C1.48445 18.09 1.26845 18.012 1.07645 17.856C0.896445 17.7 0.806445 17.508 0.806445 17.28C0.806445 17.184 0.836445 17.064 0.896445 16.92L5.97245 5.814C6.05645 5.622 6.18845 5.472 6.36845 5.364C6.56045 5.256 6.75845 5.202 6.96245 5.202C7.16645 5.202 7.35845 5.256 7.53845 5.364C7.73045 5.472 7.86845 5.622 7.95245 5.814L13.0284 16.92ZM9.62645 13.392L6.98045 7.434L4.35245 13.392H9.62645ZM18.5972 18.126C17.7452 18.126 16.9952 17.94 16.3472 17.568C15.7112 17.196 15.2132 16.668 14.8532 15.984C14.5052 15.3 14.3312 14.508 14.3312 13.608C14.3312 12.696 14.5112 11.892 14.8712 11.196C15.2432 10.5 15.7592 9.96 16.4192 9.576C17.0792 9.192 17.8352 9 18.6872 9C19.1432 9 19.5992 9.066 20.0552 9.198C20.5232 9.33 20.9372 9.51 21.2972 9.738C21.6812 10.002 21.8732 10.308 21.8732 10.656C21.8732 10.86 21.8192 11.034 21.7112 11.178C21.6032 11.31 21.4652 11.376 21.2972 11.376C21.1892 11.376 21.0812 11.352 20.9732 11.304C20.8652 11.244 20.7272 11.16 20.5592 11.052C20.2592 10.86 19.9772 10.716 19.7132 10.62C19.4612 10.512 19.1552 10.458 18.7952 10.458C17.9792 10.458 17.3432 10.734 16.8872 11.286C16.4432 11.838 16.2212 12.606 16.2212 13.59C16.2212 14.574 16.4432 15.336 16.8872 15.876C17.3312 16.404 17.9612 16.668 18.7772 16.668C19.1372 16.668 19.4552 16.614 19.7312 16.506C20.0072 16.398 20.2892 16.254 20.5772 16.074C20.7092 15.99 20.8412 15.918 20.9732 15.858C21.1052 15.798 21.2252 15.768 21.3332 15.768C21.5012 15.768 21.6392 15.84 21.7472 15.984C21.8552 16.116 21.9092 16.284 21.9092 16.488C21.9092 16.656 21.8612 16.812 21.7652 16.956C21.6812 17.088 21.5312 17.226 21.3152 17.37C20.9552 17.61 20.5352 17.796 20.0552 17.928C19.5752 18.06 19.0892 18.126 18.5972 18.126ZM27.8735 16.704C28.1375 16.728 28.3235 16.8 28.4315 16.92C28.5515 17.028 28.6115 17.184 28.6115 17.388C28.6115 17.628 28.5155 17.814 28.3235 17.946C28.1435 18.066 27.8735 18.114 27.5135 18.09L27.0275 18.054C26.0555 17.982 25.3295 17.688 24.8495 17.172C24.3695 16.644 24.1295 15.87 24.1295 14.85V10.62H23.0495C22.5215 10.62 22.2575 10.386 22.2575 9.918C22.2575 9.702 22.3235 9.534 22.4555 9.414C22.5995 9.282 22.7975 9.216 23.0495 9.216H24.1295V7.362C24.1295 7.086 24.2075 6.87 24.3635 6.714C24.5315 6.558 24.7535 6.48 25.0295 6.48C25.3055 6.48 25.5275 6.558 25.6955 6.714C25.8635 6.87 25.9475 7.086 25.9475 7.362V9.216H27.7295C27.9815 9.216 28.1735 9.282 28.3055 9.414C28.4495 9.534 28.5215 9.702 28.5215 9.918C28.5215 10.146 28.4495 10.32 28.3055 10.44C28.1735 10.56 27.9815 10.62 27.7295 10.62H25.9475V14.976C25.9475 15.54 26.0615 15.954 26.2895 16.218C26.5295 16.482 26.8895 16.632 27.3695 16.668L27.8735 16.704ZM30.8352 18.09C30.5712 18.09 30.3492 18.018 30.1692 17.874C30.0012 17.73 29.9172 17.514 29.9172 17.226V9.918C29.9172 9.63 30.0012 9.414 30.1692 9.27C30.3492 9.114 30.5712 9.036 30.8352 9.036C31.0992 9.036 31.3152 9.114 31.4832 9.27C31.6512 9.414 31.7352 9.63 31.7352 9.918V17.226C31.7352 17.514 31.6512 17.73 31.4832 17.874C31.3152 18.018 31.0992 18.09 30.8352 18.09ZM30.8352 7.272C30.4872 7.272 30.2112 7.176 30.0072 6.984C29.8032 6.792 29.7012 6.54 29.7012 6.228C29.7012 5.916 29.8032 5.67 30.0072 5.49C30.2112 5.298 30.4872 5.202 30.8352 5.202C31.1712 5.202 31.4412 5.298 31.6452 5.49C31.8612 5.67 31.9692 5.916 31.9692 6.228C31.9692 6.54 31.8672 6.792 31.6632 6.984C31.4592 7.176 31.1832 7.272 30.8352 7.272ZM40.5226 9.576C40.5946 9.396 40.6966 9.264 40.8286 9.18C40.9726 9.096 41.1226 9.054 41.2786 9.054C41.5066 9.054 41.7046 9.132 41.8726 9.288C42.0526 9.444 42.1426 9.63 42.1426 9.846C42.1426 9.966 42.1186 10.08 42.0706 10.188L38.6326 17.478C38.5486 17.67 38.4166 17.82 38.2366 17.928C38.0686 18.024 37.8886 18.072 37.6966 18.072C37.5046 18.072 37.3186 18.024 37.1386 17.928C36.9706 17.82 36.8446 17.67 36.7606 17.478L33.3226 10.188C33.2746 10.092 33.2506 9.978 33.2506 9.846C33.2506 9.63 33.3466 9.444 33.5386 9.288C33.7306 9.132 33.9466 9.054 34.1866 9.054C34.5346 9.054 34.7926 9.222 34.9606 9.558L37.7506 15.75L40.5226 9.576ZM44.5462 18.09C44.2822 18.09 44.0602 18.018 43.8802 17.874C43.7122 17.73 43.6282 17.514 43.6282 17.226V9.918C43.6282 9.63 43.7122 9.414 43.8802 9.27C44.0602 9.114 44.2822 9.036 44.5462 9.036C44.8102 9.036 45.0262 9.114 45.1942 9.27C45.3622 9.414 45.4462 9.63 45.4462 9.918V17.226C45.4462 17.514 45.3622 17.73 45.1942 17.874C45.0262 18.018 44.8102 18.09 44.5462 18.09ZM44.5462 7.272C44.1982 7.272 43.9222 7.176 43.7182 6.984C43.5142 6.792 43.4122 6.54 43.4122 6.228C43.4122 5.916 43.5142 5.67 43.7182 5.49C43.9222 5.298 44.1982 5.202 44.5462 5.202C44.8822 5.202 45.1522 5.298 45.3562 5.49C45.5722 5.67 45.6802 5.916 45.6802 6.228C45.6802 6.54 45.5782 6.792 45.3742 6.984C45.1702 7.176 44.8942 7.272 44.5462 7.272ZM52.2895 16.704C52.5535 16.728 52.7395 16.8 52.8475 16.92C52.9675 17.028 53.0275 17.184 53.0275 17.388C53.0275 17.628 52.9315 17.814 52.7395 17.946C52.5595 18.066 52.2895 18.114 51.9295 18.09L51.4435 18.054C50.4715 17.982 49.7455 17.688 49.2655 17.172C48.7855 16.644 48.5455 15.87 48.5455 14.85V10.62H47.4655C46.9375 10.62 46.6735 10.386 46.6735 9.918C46.6735 9.702 46.7395 9.534 46.8715 9.414C47.0155 9.282 47.2135 9.216 47.4655 9.216H48.5455V7.362C48.5455 7.086 48.6235 6.87 48.7795 6.714C48.9475 6.558 49.1695 6.48 49.4455 6.48C49.7215 6.48 49.9435 6.558 50.1115 6.714C50.2795 6.87 50.3635 7.086 50.3635 7.362V9.216H52.1455C52.3975 9.216 52.5895 9.282 52.7215 9.414C52.8655 9.534 52.9375 9.702 52.9375 9.918C52.9375 10.146 52.8655 10.32 52.7215 10.44C52.5895 10.56 52.3975 10.62 52.1455 10.62H50.3635V14.976C50.3635 15.54 50.4775 15.954 50.7055 16.218C50.9455 16.482 51.3055 16.632 51.7855 16.668L52.2895 16.704ZM55.2512 18.09C54.9872 18.09 54.7652 18.018 54.5852 17.874C54.4172 17.73 54.3332 17.514 54.3332 17.226V9.918C54.3332 9.63 54.4172 9.414 54.5852 9.27C54.7652 9.114 54.9872 9.036 55.2512 9.036C55.5152 9.036 55.7312 9.114 55.8992 9.27C56.0672 9.414 56.1512 9.63 56.1512 9.918V17.226C56.1512 17.514 56.0672 17.73 55.8992 17.874C55.7312 18.018 55.5152 18.09 55.2512 18.09ZM55.2512 7.272C54.9032 7.272 54.6272 7.176 54.4232 6.984C54.2192 6.792 54.1172 6.54 54.1172 6.228C54.1172 5.916 54.2192 5.67 54.4232 5.49C54.6272 5.298 54.9032 5.202 55.2512 5.202C55.5872 5.202 55.8572 5.298 56.0612 5.49C56.2772 5.67 56.3852 5.916 56.3852 6.228C56.3852 6.54 56.2832 6.792 56.0792 6.984C55.8752 7.176 55.5992 7.272 55.2512 7.272ZM65.5686 15.786C65.7366 15.786 65.8746 15.852 65.9826 15.984C66.0906 16.116 66.1446 16.284 66.1446 16.488C66.1446 16.836 65.9286 17.13 65.4966 17.37C65.0766 17.61 64.6146 17.796 64.1106 17.928C63.6186 18.06 63.1446 18.126 62.6886 18.126C61.2966 18.126 60.1986 17.724 59.3946 16.92C58.5906 16.104 58.1886 14.994 58.1886 13.59C58.1886 12.69 58.3626 11.892 58.7106 11.196C59.0706 10.5 59.5686 9.96 60.2046 9.576C60.8526 9.192 61.5846 9 62.4006 9C63.5766 9 64.5066 9.378 65.1906 10.134C65.8746 10.89 66.2166 11.91 66.2166 13.194C66.2166 13.674 66.0006 13.914 65.5686 13.914H60.0066C60.1266 15.774 61.0206 16.704 62.6886 16.704C63.1326 16.704 63.5166 16.644 63.8406 16.524C64.1646 16.404 64.5066 16.248 64.8666 16.056C64.9026 16.032 64.9986 15.984 65.1546 15.912C65.3226 15.828 65.4606 15.786 65.5686 15.786ZM62.4366 10.332C61.7406 10.332 61.1826 10.554 60.7626 10.998C60.3426 11.442 60.0906 12.066 60.0066 12.87H64.6506C64.6146 12.054 64.4046 11.43 64.0206 10.998C63.6486 10.554 63.1206 10.332 62.4366 10.332ZM71.28 18.126C70.056 18.126 69.054 17.874 68.274 17.37C68.058 17.238 67.902 17.1 67.806 16.956C67.722 16.812 67.68 16.65 67.68 16.47C67.68 16.278 67.734 16.116 67.842 15.984C67.95 15.852 68.088 15.786 68.256 15.786C68.412 15.786 68.658 15.882 68.994 16.074C69.354 16.266 69.702 16.422 70.038 16.542C70.386 16.662 70.818 16.722 71.334 16.722C71.91 16.722 72.36 16.62 72.684 16.416C73.008 16.212 73.17 15.924 73.17 15.552C73.17 15.312 73.104 15.12 72.972 14.976C72.852 14.832 72.636 14.706 72.324 14.598C72.012 14.478 71.55 14.352 70.938 14.22C69.882 13.992 69.12 13.686 68.652 13.302C68.196 12.906 67.968 12.372 67.968 11.7C67.968 11.184 68.118 10.722 68.418 10.314C68.718 9.894 69.132 9.57 69.66 9.342C70.188 9.114 70.788 9 71.46 9C71.94 9 72.408 9.066 72.864 9.198C73.32 9.318 73.722 9.498 74.07 9.738C74.466 10.002 74.664 10.308 74.664 10.656C74.664 10.848 74.604 11.01 74.484 11.142C74.376 11.274 74.244 11.34 74.088 11.34C73.98 11.34 73.872 11.316 73.764 11.268C73.656 11.22 73.512 11.142 73.332 11.034C73.008 10.842 72.702 10.692 72.414 10.584C72.138 10.476 71.79 10.422 71.37 10.422C70.866 10.422 70.458 10.53 70.146 10.746C69.846 10.962 69.696 11.256 69.696 11.628C69.696 11.964 69.834 12.228 70.11 12.42C70.398 12.6 70.932 12.774 71.712 12.942C72.516 13.11 73.146 13.302 73.602 13.518C74.058 13.734 74.382 14.004 74.574 14.328C74.778 14.64 74.88 15.042 74.88 15.534C74.88 16.314 74.55 16.944 73.89 17.424C73.242 17.892 72.372 18.126 71.28 18.126Z" fill="black"/>
</svg>
