<svg width="44" height="19" viewBox="0 0 44 19" fill="none" xmlns="http://www.w3.org/2000/svg">
<path d="M8.554 8.862C8.694 8.862 8.806 8.904 8.89 8.988C8.98333 9.072 9.03 9.18867 9.03 9.338V12.824C9.03 13.048 8.99267 13.216 8.918 13.328C8.85267 13.44 8.72667 13.5287 8.54 13.594C8.16667 13.7527 7.714 13.8787 7.182 13.972C6.65 14.0653 6.118 14.112 5.586 14.112C4.606 14.112 3.76133 13.9113 3.052 13.51C2.34267 13.1087 1.79667 12.53 1.414 11.774C1.04067 11.018 0.854 10.1127 0.854 9.058C0.854 8.022 1.04067 7.126 1.414 6.37C1.78733 5.614 2.324 5.03533 3.024 4.634C3.724 4.22333 4.54533 4.018 5.488 4.018C6.14133 4.018 6.748 4.12067 7.308 4.326C7.868 4.522 8.33933 4.80667 8.722 5.18C8.88067 5.33867 8.96 5.502 8.96 5.67C8.96 5.80067 8.92267 5.91733 8.848 6.02C8.77333 6.11333 8.68 6.16 8.568 6.16C8.456 6.16 8.32533 6.104 8.176 5.992C7.69067 5.61867 7.252 5.362 6.86 5.222C6.468 5.07267 6.01533 4.998 5.502 4.998C4.39133 4.998 3.53733 5.348 2.94 6.048C2.352 6.748 2.058 7.75133 2.058 9.058C2.058 10.3927 2.35667 11.41 2.954 12.11C3.56067 12.8007 4.44733 13.146 5.614 13.146C6.482 13.146 7.27067 13.0153 7.98 12.754V9.758H5.936C5.77733 9.758 5.65133 9.716 5.558 9.632C5.46467 9.548 5.418 9.44067 5.418 9.31C5.418 9.17 5.46467 9.06267 5.558 8.988C5.65133 8.904 5.77733 8.862 5.936 8.862H8.554ZM14.0089 14.098C13.3649 14.098 12.7955 13.9533 12.3009 13.664C11.8155 13.3747 11.4375 12.964 11.1669 12.432C10.9055 11.8907 10.7749 11.2653 10.7749 10.556C10.7749 9.84667 10.9055 9.226 11.1669 8.694C11.4375 8.15267 11.8155 7.73733 12.3009 7.448C12.7955 7.15867 13.3649 7.014 14.0089 7.014C14.6529 7.014 15.2222 7.15867 15.7169 7.448C16.2115 7.73733 16.5895 8.15267 16.8509 8.694C17.1215 9.226 17.2569 9.84667 17.2569 10.556C17.2569 11.2653 17.1215 11.8907 16.8509 12.432C16.5895 12.964 16.2115 13.3747 15.7169 13.664C15.2222 13.9533 14.6529 14.098 14.0089 14.098ZM14.0089 13.16C14.6809 13.16 15.1942 12.9407 15.5489 12.502C15.9129 12.054 16.0949 11.4053 16.0949 10.556C16.0949 9.72533 15.9129 9.086 15.5489 8.638C15.1849 8.18067 14.6715 7.952 14.0089 7.952C13.3462 7.952 12.8329 8.18067 12.4689 8.638C12.1049 9.086 11.9229 9.72533 11.9229 10.556C11.9229 11.396 12.1002 12.04 12.4549 12.488C12.8189 12.936 13.3369 13.16 14.0089 13.16ZM21.7325 7.014C23.4405 7.014 24.2945 7.91 24.2945 9.702V13.51C24.2945 13.678 24.2432 13.8133 24.1405 13.916C24.0472 14.0187 23.9165 14.07 23.7485 14.07C23.5805 14.07 23.4452 14.0187 23.3425 13.916C23.2398 13.8133 23.1885 13.678 23.1885 13.51V12.838C23.0112 13.2393 22.7405 13.552 22.3765 13.776C22.0125 13.9907 21.5925 14.098 21.1165 14.098C20.6778 14.098 20.2718 14.0093 19.8985 13.832C19.5345 13.6547 19.2452 13.4073 19.0305 13.09C18.8158 12.7727 18.7085 12.4227 18.7085 12.04C18.7085 11.5267 18.8392 11.13 19.1005 10.85C19.3618 10.5607 19.7912 10.3553 20.3885 10.234C20.9858 10.1033 21.8165 10.038 22.8805 10.038H23.1885V9.576C23.1885 9.016 23.0718 8.60533 22.8385 8.344C22.6145 8.08267 22.2458 7.952 21.7325 7.952C21.0978 7.952 20.4538 8.12467 19.8005 8.47C19.5485 8.62867 19.3712 8.708 19.2685 8.708C19.1565 8.708 19.0632 8.666 18.9885 8.582C18.9138 8.498 18.8765 8.39067 18.8765 8.26C18.8765 8.12933 18.9138 8.01733 18.9885 7.924C19.0725 7.82133 19.2032 7.71867 19.3805 7.616C19.7072 7.42933 20.0758 7.28467 20.4865 7.182C20.9065 7.07 21.3218 7.014 21.7325 7.014ZM21.2705 13.202C21.8305 13.202 22.2878 13.0153 22.6425 12.642C23.0065 12.2593 23.1885 11.7693 23.1885 11.172V10.766H22.9365C22.1152 10.766 21.4898 10.8033 21.0605 10.878C20.6312 10.9433 20.3232 11.06 20.1365 11.228C19.9592 11.3867 19.8705 11.6247 19.8705 11.942C19.8705 12.306 20.0012 12.6093 20.2625 12.852C20.5332 13.0853 20.8692 13.202 21.2705 13.202ZM26.9443 14.07C26.7763 14.07 26.6363 14.0233 26.5243 13.93C26.4216 13.8273 26.3703 13.6873 26.3703 13.51V4.62C26.3703 4.44267 26.4216 4.30733 26.5243 4.214C26.6363 4.11133 26.7763 4.06 26.9443 4.06C27.103 4.06 27.2336 4.11133 27.3363 4.214C27.4483 4.30733 27.5043 4.44267 27.5043 4.62V13.51C27.5043 13.6873 27.4483 13.8273 27.3363 13.93C27.2336 14.0233 27.103 14.07 26.9443 14.07ZM29.0362 14.742C28.8962 14.742 28.7842 14.7047 28.7002 14.63C28.6162 14.5647 28.5742 14.4807 28.5742 14.378C28.5742 14.2753 28.6162 14.1867 28.7002 14.112C28.7842 14.0373 28.8962 14 29.0362 14H35.1122C35.2522 14 35.3642 14.0373 35.4482 14.112C35.5322 14.1867 35.5742 14.2753 35.5742 14.378C35.5742 14.4807 35.5322 14.5647 35.4482 14.63C35.3642 14.7047 35.2522 14.742 35.1122 14.742H29.0362ZM42.6862 13.034C42.8542 13.034 42.9849 13.076 43.0782 13.16C43.1716 13.244 43.2182 13.3607 43.2182 13.51C43.2182 13.8367 43.0409 14 42.6862 14H37.1982C37.0396 14 36.9089 13.9533 36.8062 13.86C36.7036 13.7573 36.6522 13.636 36.6522 13.496C36.6522 13.3187 36.7176 13.1647 36.8482 13.034L40.2222 9.324C40.6889 8.80133 41.0249 8.33467 41.2302 7.924C41.4449 7.504 41.5522 7.084 41.5522 6.664C41.5522 6.12267 41.3936 5.70733 41.0762 5.418C40.7682 5.12867 40.3296 4.984 39.7602 4.984C39.3122 4.984 38.8829 5.068 38.4722 5.236C38.0616 5.39467 37.6509 5.642 37.2402 5.978C37.1002 6.09 36.9696 6.146 36.8482 6.146C36.7456 6.146 36.6569 6.09933 36.5822 6.006C36.5076 5.90333 36.4702 5.782 36.4702 5.642C36.4702 5.446 36.5449 5.28733 36.6942 5.166C37.0769 4.81133 37.5436 4.53133 38.0942 4.326C38.6449 4.12067 39.2096 4.018 39.7882 4.018C40.6749 4.018 41.3796 4.25133 41.9022 4.718C42.4342 5.18467 42.7002 5.81467 42.7002 6.608C42.7002 7.17733 42.5696 7.72333 42.3082 8.246C42.0562 8.76867 41.6362 9.352 41.0482 9.996L38.2482 13.034H42.6862Z" fill="black"/>
</svg>
