<svg width="44" height="20" viewBox="0 0 44 20" fill="none" xmlns="http://www.w3.org/2000/svg">
<path d="M8.554 9.74609C8.694 9.74609 8.806 9.78809 8.89 9.87209C8.98333 9.95609 9.03 10.0728 9.03 10.2221V13.7081C9.03 13.9321 8.99267 14.1001 8.918 14.2121C8.85267 14.3241 8.72667 14.4128 8.54 14.4781C8.16667 14.6368 7.714 14.7628 7.182 14.8561C6.65 14.9494 6.118 14.9961 5.586 14.9961C4.606 14.9961 3.76133 14.7954 3.052 14.3941C2.34267 13.9928 1.79667 13.4141 1.414 12.6581C1.04067 11.9021 0.854 10.9968 0.854 9.94209C0.854 8.90609 1.04067 8.01009 1.414 7.25409C1.78733 6.49809 2.324 5.91943 3.024 5.51809C3.724 5.10743 4.54533 4.90209 5.488 4.90209C6.14133 4.90209 6.748 5.00476 7.308 5.21009C7.868 5.40609 8.33933 5.69076 8.722 6.06409C8.88067 6.22276 8.96 6.38609 8.96 6.55409C8.96 6.68476 8.92267 6.80143 8.848 6.90409C8.77333 6.99743 8.68 7.04409 8.568 7.04409C8.456 7.04409 8.32533 6.98809 8.176 6.87609C7.69067 6.50276 7.252 6.24609 6.86 6.10609C6.468 5.95676 6.01533 5.88209 5.502 5.88209C4.39133 5.88209 3.53733 6.23209 2.94 6.93209C2.352 7.63209 2.058 8.63543 2.058 9.94209C2.058 11.2768 2.35667 12.2941 2.954 12.9941C3.56067 13.6848 4.44733 14.0301 5.614 14.0301C6.482 14.0301 7.27067 13.8994 7.98 13.6381V10.6421H5.936C5.77733 10.6421 5.65133 10.6001 5.558 10.5161C5.46467 10.4321 5.418 10.3248 5.418 10.1941C5.418 10.0541 5.46467 9.94676 5.558 9.87209C5.65133 9.78809 5.77733 9.74609 5.936 9.74609H8.554ZM14.0089 14.9821C13.3649 14.9821 12.7955 14.8374 12.3009 14.5481C11.8155 14.2588 11.4375 13.8481 11.1669 13.3161C10.9055 12.7748 10.7749 12.1494 10.7749 11.4401C10.7749 10.7308 10.9055 10.1101 11.1669 9.57809C11.4375 9.03676 11.8155 8.62143 12.3009 8.33209C12.7955 8.04276 13.3649 7.89809 14.0089 7.89809C14.6529 7.89809 15.2222 8.04276 15.7169 8.33209C16.2115 8.62143 16.5895 9.03676 16.8509 9.57809C17.1215 10.1101 17.2569 10.7308 17.2569 11.4401C17.2569 12.1494 17.1215 12.7748 16.8509 13.3161C16.5895 13.8481 16.2115 14.2588 15.7169 14.5481C15.2222 14.8374 14.6529 14.9821 14.0089 14.9821ZM14.0089 14.0441C14.6809 14.0441 15.1942 13.8248 15.5489 13.3861C15.9129 12.9381 16.0949 12.2894 16.0949 11.4401C16.0949 10.6094 15.9129 9.97009 15.5489 9.52209C15.1849 9.06476 14.6715 8.83609 14.0089 8.83609C13.3462 8.83609 12.8329 9.06476 12.4689 9.52209C12.1049 9.97009 11.9229 10.6094 11.9229 11.4401C11.9229 12.2801 12.1002 12.9241 12.4549 13.3721C12.8189 13.8201 13.3369 14.0441 14.0089 14.0441ZM21.7325 7.89809C23.4405 7.89809 24.2945 8.79409 24.2945 10.5861V14.3941C24.2945 14.5621 24.2432 14.6974 24.1405 14.8001C24.0472 14.9028 23.9165 14.9541 23.7485 14.9541C23.5805 14.9541 23.4452 14.9028 23.3425 14.8001C23.2398 14.6974 23.1885 14.5621 23.1885 14.3941V13.7221C23.0112 14.1234 22.7405 14.4361 22.3765 14.6601C22.0125 14.8748 21.5925 14.9821 21.1165 14.9821C20.6778 14.9821 20.2718 14.8934 19.8985 14.7161C19.5345 14.5388 19.2452 14.2914 19.0305 13.9741C18.8158 13.6568 18.7085 13.3068 18.7085 12.9241C18.7085 12.4108 18.8392 12.0141 19.1005 11.7341C19.3618 11.4448 19.7912 11.2394 20.3885 11.1181C20.9858 10.9874 21.8165 10.9221 22.8805 10.9221H23.1885V10.4601C23.1885 9.90009 23.0718 9.48943 22.8385 9.22809C22.6145 8.96676 22.2458 8.83609 21.7325 8.83609C21.0978 8.83609 20.4538 9.00876 19.8005 9.35409C19.5485 9.51276 19.3712 9.59209 19.2685 9.59209C19.1565 9.59209 19.0632 9.55009 18.9885 9.46609C18.9138 9.38209 18.8765 9.27476 18.8765 9.14409C18.8765 9.01343 18.9138 8.90143 18.9885 8.80809C19.0725 8.70543 19.2032 8.60276 19.3805 8.50009C19.7072 8.31343 20.0758 8.16876 20.4865 8.06609C20.9065 7.95409 21.3218 7.89809 21.7325 7.89809ZM21.2705 14.0861C21.8305 14.0861 22.2878 13.8994 22.6425 13.5261C23.0065 13.1434 23.1885 12.6534 23.1885 12.0561V11.6501H22.9365C22.1152 11.6501 21.4898 11.6874 21.0605 11.7621C20.6312 11.8274 20.3232 11.9441 20.1365 12.1121C19.9592 12.2708 19.8705 12.5088 19.8705 12.8261C19.8705 13.1901 20.0012 13.4934 20.2625 13.7361C20.5332 13.9694 20.8692 14.0861 21.2705 14.0861ZM26.9443 14.9541C26.7763 14.9541 26.6363 14.9074 26.5243 14.8141C26.4216 14.7114 26.3703 14.5714 26.3703 14.3941V5.50409C26.3703 5.32676 26.4216 5.19143 26.5243 5.09809C26.6363 4.99543 26.7763 4.94409 26.9443 4.94409C27.103 4.94409 27.2336 4.99543 27.3363 5.09809C27.4483 5.19143 27.5043 5.32676 27.5043 5.50409V14.3941C27.5043 14.5714 27.4483 14.7114 27.3363 14.8141C27.2336 14.9074 27.103 14.9541 26.9443 14.9541ZM29.0362 15.6261C28.8962 15.6261 28.7842 15.5888 28.7002 15.5141C28.6162 15.4488 28.5742 15.3648 28.5742 15.2621C28.5742 15.1594 28.6162 15.0708 28.7002 14.9961C28.7842 14.9214 28.8962 14.8841 29.0362 14.8841H35.1122C35.2522 14.8841 35.3642 14.9214 35.4482 14.9961C35.5322 15.0708 35.5742 15.1594 35.5742 15.2621C35.5742 15.3648 35.5322 15.4488 35.4482 15.5141C35.3642 15.5888 35.2522 15.6261 35.1122 15.6261H29.0362ZM41.0902 9.81609C41.6876 9.98409 42.1402 10.2734 42.4482 10.6841C42.7656 11.0948 42.9242 11.6034 42.9242 12.2101C42.9242 13.0688 42.6349 13.7454 42.0562 14.2401C41.4776 14.7348 40.6889 14.9821 39.6902 14.9821C39.0836 14.9821 38.5002 14.8794 37.9402 14.6741C37.3896 14.4688 36.9229 14.1888 36.5402 13.8341C36.3909 13.6941 36.3162 13.5354 36.3162 13.3581C36.3162 13.2181 36.3536 13.1014 36.4282 13.0081C36.5029 12.9148 36.5916 12.8681 36.6942 12.8681C36.8249 12.8681 36.9556 12.9194 37.0862 13.0221C37.5156 13.3674 37.9356 13.6194 38.3462 13.7781C38.7569 13.9368 39.2002 14.0161 39.6762 14.0161C40.3669 14.0161 40.8896 13.8574 41.2442 13.5401C41.6082 13.2228 41.7902 12.7654 41.7902 12.1681C41.7902 10.9641 41.0342 10.3621 39.5222 10.3621H38.7802C38.6309 10.3621 38.5096 10.3154 38.4162 10.2221C38.3322 10.1194 38.2902 10.0028 38.2902 9.87209C38.2902 9.74143 38.3322 9.62943 38.4162 9.53609C38.5096 9.44276 38.6309 9.39609 38.7802 9.39609H39.2982C40.0262 9.39609 40.5862 9.23743 40.9782 8.92009C41.3702 8.59343 41.5662 8.12676 41.5662 7.52009C41.5662 6.98809 41.4076 6.58209 41.0902 6.30209C40.7729 6.01276 40.3249 5.86809 39.7462 5.86809C39.3076 5.86809 38.8829 5.95209 38.4722 6.12009C38.0616 6.27876 37.6509 6.52609 37.2402 6.86209C37.1096 6.96476 36.9789 7.01609 36.8482 7.01609C36.7456 7.01609 36.6569 6.96943 36.5822 6.87609C36.5076 6.78276 36.4702 6.66609 36.4702 6.52609C36.4702 6.34876 36.5449 6.19009 36.6942 6.05009C37.0769 5.69543 37.5389 5.41543 38.0802 5.21009C38.6309 5.00476 39.1956 4.90209 39.7742 4.90209C40.6702 4.90209 41.3842 5.13076 41.9162 5.58809C42.4482 6.04543 42.7096 6.66143 42.7002 7.43609C42.6909 7.99609 42.5416 8.48609 42.2522 8.90609C41.9722 9.32609 41.5849 9.62943 41.0902 9.81609Z" fill="black"/>
</svg>
