<svg width="41" height="21" viewBox="0 0 41 21" fill="none" xmlns="http://www.w3.org/2000/svg">
<path d="M11.2089 3.77C11.3735 3.77 11.4992 3.822 11.5859 3.926C11.6812 4.02133 11.7289 4.15133 11.7289 4.316V12.519C11.7289 12.6837 11.6812 12.818 11.5859 12.922C11.4992 13.0173 11.3735 13.065 11.2089 13.065C11.0442 13.065 10.9142 13.0173 10.8189 12.922C10.7235 12.818 10.6759 12.6837 10.6759 12.519V8.801H5.18986V12.519C5.18986 12.6837 5.14219 12.818 5.04686 12.922C4.95153 13.0173 4.82153 13.065 4.65686 13.065C4.49219 13.065 4.36219 13.0173 4.26686 12.922C4.18019 12.818 4.13686 12.6837 4.13686 12.519V4.316C4.13686 4.15133 4.18019 4.02133 4.26686 3.926C4.36219 3.822 4.49219 3.77 4.65686 3.77C4.82153 3.77 4.95153 3.822 5.04686 3.926C5.14219 4.02133 5.18986 4.15133 5.18986 4.316V7.891H10.6759V4.316C10.6759 4.15133 10.7235 4.02133 10.8189 3.926C10.9142 3.822 11.0442 3.77 11.2089 3.77ZM16.4584 13.091C15.8604 13.091 15.3318 12.9567 14.8724 12.688C14.4218 12.4193 14.0708 12.038 13.8194 11.544C13.5768 11.0413 13.4554 10.4607 13.4554 9.802C13.4554 9.14333 13.5768 8.567 13.8194 8.073C14.0708 7.57033 14.4218 7.18467 14.8724 6.916C15.3318 6.64733 15.8604 6.513 16.4584 6.513C17.0564 6.513 17.5851 6.64733 18.0444 6.916C18.5038 7.18467 18.8548 7.57033 19.0974 8.073C19.3488 8.567 19.4744 9.14333 19.4744 9.802C19.4744 10.4607 19.3488 11.0413 19.0974 11.544C18.8548 12.038 18.5038 12.4193 18.0444 12.688C17.5851 12.9567 17.0564 13.091 16.4584 13.091ZM16.4584 12.22C17.0824 12.22 17.5591 12.0163 17.8884 11.609C18.2264 11.193 18.3954 10.5907 18.3954 9.802C18.3954 9.03067 18.2264 8.437 17.8884 8.021C17.5504 7.59633 17.0738 7.384 16.4584 7.384C15.8431 7.384 15.3664 7.59633 15.0284 8.021C14.6904 8.437 14.5214 9.03067 14.5214 9.802C14.5214 10.582 14.6861 11.18 15.0154 11.596C15.3534 12.012 15.8344 12.22 16.4584 12.22ZM28.0894 6.513C29.4934 6.513 30.1954 7.34933 30.1954 9.022V12.545C30.1954 12.7097 30.1477 12.8397 30.0524 12.935C29.957 13.0217 29.8314 13.065 29.6754 13.065C29.5194 13.065 29.3894 13.0217 29.2854 12.935C29.19 12.8397 29.1424 12.7097 29.1424 12.545V9.048C29.1424 8.46733 29.0384 8.047 28.8304 7.787C28.6224 7.527 28.2974 7.397 27.8554 7.397C27.3267 7.397 26.9107 7.57467 26.6074 7.93C26.304 8.28533 26.1524 8.76633 26.1524 9.373V12.545C26.1524 12.7097 26.1004 12.8397 25.9964 12.935C25.901 13.0217 25.7754 13.065 25.6194 13.065C25.4634 13.065 25.3377 13.0217 25.2424 12.935C25.147 12.8397 25.0994 12.7097 25.0994 12.545V9.048C25.0994 8.46733 24.9954 8.047 24.7874 7.787C24.5794 7.527 24.25 7.397 23.7994 7.397C23.2794 7.397 22.8634 7.57467 22.5514 7.93C22.248 8.28533 22.0964 8.76633 22.0964 9.373V12.545C22.0964 12.7097 22.0487 12.8397 21.9534 12.935C21.858 13.0217 21.7324 13.065 21.5764 13.065C21.4204 13.065 21.2904 13.0217 21.1864 12.935C21.091 12.8397 21.0434 12.7097 21.0434 12.545V7.059C21.0434 6.903 21.091 6.77733 21.1864 6.682C21.2904 6.58667 21.4204 6.539 21.5764 6.539C21.7237 6.539 21.845 6.58667 21.9404 6.682C22.0357 6.76867 22.0834 6.89 22.0834 7.046V7.67C22.274 7.29733 22.5384 7.01133 22.8764 6.812C23.2144 6.61267 23.6044 6.513 24.0464 6.513C25.0344 6.513 25.68 6.929 25.9834 7.761C26.1654 7.37967 26.4427 7.07633 26.8154 6.851C27.188 6.62567 27.6127 6.513 28.0894 6.513ZM37.0147 11.531C37.11 11.531 37.1923 11.57 37.2617 11.648C37.331 11.726 37.3657 11.8257 37.3657 11.947C37.3657 12.1637 37.214 12.363 36.9107 12.545C36.5987 12.727 36.2693 12.8657 35.9227 12.961C35.576 13.0477 35.238 13.091 34.9087 13.091C33.9293 13.091 33.1537 12.8007 32.5817 12.22C32.0183 11.6393 31.7367 10.8377 31.7367 9.815C31.7367 9.165 31.8623 8.593 32.1137 8.099C32.365 7.59633 32.716 7.20633 33.1667 6.929C33.626 6.65167 34.146 6.513 34.7267 6.513C35.55 6.513 36.2043 6.78167 36.6897 7.319C37.175 7.85633 37.4177 8.58433 37.4177 9.503C37.4177 9.67633 37.383 9.802 37.3137 9.88C37.2443 9.958 37.1317 9.997 36.9757 9.997H32.7897C32.8677 11.4877 33.574 12.233 34.9087 12.233C35.2467 12.233 35.537 12.1897 35.7797 12.103C36.0223 12.0077 36.2823 11.882 36.5597 11.726C36.785 11.596 36.9367 11.531 37.0147 11.531ZM34.7397 7.332C34.185 7.332 33.7387 7.50533 33.4007 7.852C33.0713 8.19867 32.8763 8.68833 32.8157 9.321H36.4947C36.4773 8.67967 36.317 8.19 36.0137 7.852C35.7103 7.50533 35.2857 7.332 34.7397 7.332Z" fill="black"/>
</svg>
