<svg width="100" height="46" viewBox="0 0 100 46" fill="none" xmlns="http://www.w3.org/2000/svg">
<path d="M4.522 34.17C4.00067 34.17 3.58133 34.0113 3.264 33.694C2.94667 33.3767 2.788 32.946 2.788 32.402V11.73C2.788 11.2087 2.93533 10.8007 3.23 10.506C3.54733 10.1887 3.978 10.03 4.522 10.03H12.716C15.2547 10.03 17.2267 10.6533 18.632 11.9C20.0373 13.1467 20.74 14.9147 20.74 17.204C20.74 19.4707 20.0373 21.2387 18.632 22.508C17.2267 23.7773 15.2547 24.412 12.716 24.412H6.29V32.402C6.29 32.946 6.13133 33.3767 5.814 33.694C5.51933 34.0113 5.08867 34.17 4.522 34.17ZM12.342 21.59C15.6967 21.59 17.374 20.128 17.374 17.204C17.374 14.3027 15.6967 12.852 12.342 12.852H6.29V21.59H12.342ZM32.9317 17.068C34.0197 17 34.5637 17.4647 34.5637 18.462C34.5637 18.9607 34.439 19.3347 34.1897 19.584C33.9403 19.8333 33.5097 19.9807 32.8977 20.026L31.8777 20.128C30.4497 20.264 29.3843 20.7627 28.6817 21.624C28.0017 22.4853 27.6617 23.528 27.6617 24.752V32.538C27.6617 33.082 27.503 33.49 27.1857 33.762C26.8683 34.034 26.4603 34.17 25.9617 34.17C25.463 34.17 25.0437 34.034 24.7037 33.762C24.3863 33.49 24.2277 33.082 24.2277 32.538V18.7C24.2277 18.1787 24.3863 17.782 24.7037 17.51C25.0437 17.2153 25.463 17.068 25.9617 17.068C26.415 17.068 26.789 17.2153 27.0837 17.51C27.401 17.782 27.5597 18.1673 27.5597 18.666V20.298C28.013 19.3007 28.6703 18.5413 29.5317 18.02C30.393 17.4987 31.3677 17.1927 32.4557 17.102L32.9317 17.068ZM43.5548 34.238C41.9228 34.238 40.4835 33.8867 39.2368 33.184C38.0128 32.4813 37.0608 31.484 36.3808 30.192C35.7235 28.8773 35.3948 27.3587 35.3948 25.636C35.3948 23.8907 35.7235 22.372 36.3808 21.08C37.0608 19.7653 38.0128 18.7567 39.2368 18.054C40.4835 17.3513 41.9228 17 43.5548 17C45.1868 17 46.6148 17.3513 47.8388 18.054C49.0855 18.7567 50.0375 19.7653 50.6948 21.08C51.3748 22.372 51.7148 23.8907 51.7148 25.636C51.7148 27.3587 51.3748 28.8773 50.6948 30.192C50.0375 31.484 49.0855 32.4813 47.8388 33.184C46.6148 33.8867 45.1868 34.238 43.5548 34.238ZM43.5548 31.518C45.0735 31.518 46.2295 31.0193 47.0228 30.022C47.8388 29.0247 48.2468 27.5627 48.2468 25.636C48.2468 23.732 47.8388 22.2813 47.0228 21.284C46.2068 20.264 45.0508 19.754 43.5548 19.754C42.0588 19.754 40.9028 20.264 40.0868 21.284C39.2708 22.2813 38.8628 23.732 38.8628 25.636C38.8628 27.5627 39.2595 29.0247 40.0528 30.022C40.8688 31.0193 42.0361 31.518 43.5548 31.518ZM68.7998 13.736C68.1425 13.736 67.6211 13.5547 67.2358 13.192C66.8505 12.8293 66.6578 12.3533 66.6578 11.764C66.6578 11.1747 66.8505 10.71 67.2358 10.37C67.6211 10.0073 68.1425 9.826 68.7998 9.826C69.4345 9.826 69.9445 10.0073 70.3298 10.37C70.7378 10.71 70.9418 11.1747 70.9418 11.764C70.9418 12.3533 70.7491 12.8293 70.3638 13.192C69.9785 13.5547 69.4571 13.736 68.7998 13.736ZM69.0038 17.408C69.4798 17.408 69.8425 17.5327 70.0918 17.782C70.3638 18.0087 70.4998 18.326 70.4998 18.734V32.538C70.4998 33.082 70.3411 33.49 70.0238 33.762C69.7065 34.034 69.2985 34.17 68.7998 34.17C68.3011 34.17 67.8818 34.034 67.5418 33.762C67.2245 33.49 67.0658 33.082 67.0658 32.538V20.06H59.9598V32.504C59.9598 33.048 59.7898 33.4673 59.4498 33.762C59.1325 34.034 58.7245 34.17 58.2258 34.17C57.7271 34.17 57.3191 34.034 57.0018 33.762C56.6845 33.4673 56.5258 33.048 56.5258 32.504V20.06H54.4858C54.0098 20.06 53.6358 19.9467 53.3638 19.72C53.1145 19.4707 52.9898 19.142 52.9898 18.734C52.9898 18.326 53.1145 18.0087 53.3638 17.782C53.6358 17.5327 54.0098 17.408 54.4858 17.408H56.5258V17.034C56.5258 14.9487 57.0585 13.3167 58.1238 12.138C59.1891 10.9367 60.6965 10.2453 62.6458 10.064L63.4618 9.996L63.9038 9.962C64.9011 9.962 65.3998 10.3813 65.3998 11.22C65.3998 12.0133 64.9578 12.4667 64.0738 12.58L63.2918 12.648C62.1585 12.7387 61.3198 13.1013 60.7758 13.736C60.2318 14.348 59.9598 15.2547 59.9598 16.456V17.408H69.0038ZM77.0281 34.17C76.5294 34.17 76.1101 34.034 75.7701 33.762C75.4527 33.49 75.2941 33.082 75.2941 32.538V11.526C75.2941 10.982 75.4527 10.574 75.7701 10.302C76.1101 10.0073 76.5294 9.86 77.0281 9.86C77.5267 9.86 77.9347 10.0073 78.2521 10.302C78.5694 10.574 78.7281 10.982 78.7281 11.526V32.538C78.7281 33.082 78.5694 33.49 78.2521 33.762C77.9347 34.034 77.5267 34.17 77.0281 34.17ZM96.5164 29.818C96.8338 29.818 97.0944 29.9427 97.2984 30.192C97.5024 30.4413 97.6044 30.7587 97.6044 31.144C97.6044 31.8013 97.1964 32.3567 96.3804 32.81C95.5871 33.2633 94.7144 33.6147 93.7624 33.864C92.8331 34.1133 91.9378 34.238 91.0764 34.238C88.4471 34.238 86.3731 33.4787 84.8544 31.96C83.3358 30.4187 82.5764 28.322 82.5764 25.67C82.5764 23.97 82.9051 22.4627 83.5624 21.148C84.2424 19.8333 85.1831 18.8133 86.3844 18.088C87.6084 17.3627 88.9911 17 90.5324 17C92.7538 17 94.5104 17.714 95.8024 19.142C97.0944 20.57 97.7404 22.4967 97.7404 24.922C97.7404 25.8287 97.3324 26.282 96.5164 26.282H86.0104C86.2371 29.7953 87.9258 31.552 91.0764 31.552C91.9151 31.552 92.6404 31.4387 93.2524 31.212C93.8644 30.9853 94.5104 30.6907 95.1904 30.328C95.2584 30.2827 95.4398 30.192 95.7344 30.056C96.0518 29.8973 96.3124 29.818 96.5164 29.818ZM90.6004 19.516C89.2858 19.516 88.2318 19.9353 87.4384 20.774C86.6451 21.6127 86.1691 22.7913 86.0104 24.31H94.7824C94.7144 22.7687 94.3178 21.59 93.5924 20.774C92.8898 19.9353 91.8924 19.516 90.6004 19.516Z" fill="black"/>
</svg>
