<svg width="82" height="26" viewBox="0 0 82 26" fill="none" xmlns="http://www.w3.org/2000/svg">
<path d="M3.10451 19.095C2.81318 19.095 2.57885 19.0063 2.40151 18.829C2.22418 18.6517 2.13551 18.411 2.13551 18.107V6.555C2.13551 6.26367 2.21785 6.03567 2.38251 5.871C2.55985 5.69367 2.80051 5.605 3.10451 5.605H7.68351C9.10218 5.605 10.2042 5.95333 10.9895 6.65C11.7748 7.34667 12.1675 8.33467 12.1675 9.614C12.1675 10.8807 11.7748 11.8687 10.9895 12.578C10.2042 13.2873 9.10218 13.642 7.68351 13.642H4.09251V18.107C4.09251 18.411 4.00385 18.6517 3.82651 18.829C3.66185 19.0063 3.42118 19.095 3.10451 19.095ZM7.47451 12.065C9.34918 12.065 10.2865 11.248 10.2865 9.614C10.2865 7.99267 9.34918 7.182 7.47451 7.182H4.09251V12.065H7.47451ZM18.9805 9.538C19.5885 9.5 19.8925 9.75967 19.8925 10.317C19.8925 10.5957 19.8228 10.8047 19.6835 10.944C19.5442 11.0833 19.3035 11.1657 18.9615 11.191L18.3915 11.248C17.5935 11.324 16.9982 11.6027 16.6055 12.084C16.2255 12.5653 16.0355 13.148 16.0355 13.832V18.183C16.0355 18.487 15.9468 18.715 15.7695 18.867C15.5922 19.019 15.3642 19.095 15.0855 19.095C14.8068 19.095 14.5725 19.019 14.3825 18.867C14.2052 18.715 14.1165 18.487 14.1165 18.183V10.45C14.1165 10.1587 14.2052 9.937 14.3825 9.785C14.5725 9.62033 14.8068 9.538 15.0855 9.538C15.3388 9.538 15.5478 9.62033 15.7125 9.785C15.8898 9.937 15.9785 10.1523 15.9785 10.431V11.343C16.2318 10.7857 16.5992 10.3613 17.0805 10.07C17.5618 9.77867 18.1065 9.60767 18.7145 9.557L18.9805 9.538ZM24.917 19.133C24.005 19.133 23.2006 18.9367 22.504 18.544C21.82 18.1513 21.288 17.594 20.908 16.872C20.5406 16.1373 20.357 15.2887 20.357 14.326C20.357 13.3507 20.5406 12.502 20.908 11.78C21.288 11.0453 21.82 10.4817 22.504 10.089C23.2006 9.69633 24.005 9.5 24.917 9.5C25.829 9.5 26.627 9.69633 27.311 10.089C28.0076 10.4817 28.5396 11.0453 28.907 11.78C29.287 12.502 29.477 13.3507 29.477 14.326C29.477 15.2887 29.287 16.1373 28.907 16.872C28.5396 17.594 28.0076 18.1513 27.311 18.544C26.627 18.9367 25.829 19.133 24.917 19.133ZM24.917 17.613C25.7656 17.613 26.4116 17.3343 26.855 16.777C27.311 16.2197 27.539 15.4027 27.539 14.326C27.539 13.262 27.311 12.4513 26.855 11.894C26.399 11.324 25.753 11.039 24.917 11.039C24.081 11.039 23.435 11.324 22.979 11.894C22.523 12.4513 22.295 13.262 22.295 14.326C22.295 15.4027 22.5166 16.2197 22.96 16.777C23.416 17.3343 24.0683 17.613 24.917 17.613ZM36.1175 17.632C36.3961 17.6573 36.5925 17.7333 36.7065 17.86C36.8331 17.974 36.8965 18.1387 36.8965 18.354C36.8965 18.6073 36.7951 18.8037 36.5925 18.943C36.4025 19.0697 36.1175 19.1203 35.7375 19.095L35.2245 19.057C34.1985 18.981 33.4321 18.6707 32.9255 18.126C32.4188 17.5687 32.1655 16.7517 32.1655 15.675V11.21H31.0255C30.4681 11.21 30.1895 10.963 30.1895 10.469C30.1895 10.241 30.2591 10.0637 30.3985 9.937C30.5505 9.79767 30.7595 9.728 31.0255 9.728H32.1655V7.771C32.1655 7.47967 32.2478 7.25167 32.4125 7.087C32.5898 6.92233 32.8241 6.84 33.1155 6.84C33.4068 6.84 33.6411 6.92233 33.8185 7.087C33.9958 7.25167 34.0845 7.47967 34.0845 7.771V9.728H35.9655C36.2315 9.728 36.4341 9.79767 36.5735 9.937C36.7255 10.0637 36.8015 10.241 36.8015 10.469C36.8015 10.7097 36.7255 10.8933 36.5735 11.02C36.4341 11.1467 36.2315 11.21 35.9655 11.21H34.0845V15.808C34.0845 16.4033 34.2048 16.8403 34.4455 17.119C34.6988 17.3977 35.0788 17.556 35.5855 17.594L36.1175 17.632ZM45.5327 16.663C45.71 16.663 45.8557 16.7327 45.9697 16.872C46.0837 17.0113 46.1407 17.1887 46.1407 17.404C46.1407 17.7713 45.9127 18.0817 45.4567 18.335C45.0134 18.5883 44.5257 18.7847 43.9937 18.924C43.4744 19.0633 42.974 19.133 42.4927 19.133C41.0234 19.133 39.8644 18.7087 39.0157 17.86C38.167 16.9987 37.7427 15.827 37.7427 14.345C37.7427 13.395 37.9264 12.5527 38.2937 11.818C38.6737 11.0833 39.1994 10.5133 39.8707 10.108C40.5547 9.70267 41.3274 9.5 42.1887 9.5C43.43 9.5 44.4117 9.899 45.1337 10.697C45.8557 11.495 46.2167 12.5717 46.2167 13.927C46.2167 14.4337 45.9887 14.687 45.5327 14.687H39.6617C39.7884 16.6503 40.732 17.632 42.4927 17.632C42.9614 17.632 43.3667 17.5687 43.7087 17.442C44.0507 17.3153 44.4117 17.1507 44.7917 16.948C44.8297 16.9227 44.931 16.872 45.0957 16.796C45.273 16.7073 45.4187 16.663 45.5327 16.663ZM42.2267 10.906C41.492 10.906 40.903 11.1403 40.4597 11.609C40.0164 12.0777 39.7504 12.7363 39.6617 13.585H44.5637C44.5257 12.7237 44.304 12.065 43.8987 11.609C43.506 11.1403 42.9487 10.906 42.2267 10.906ZM52.3023 19.133C51.403 19.133 50.6113 18.9367 49.9273 18.544C49.256 18.1513 48.7303 17.594 48.3503 16.872C47.983 16.15 47.7993 15.314 47.7993 14.364C47.7993 13.4013 47.9893 12.5527 48.3693 11.818C48.762 11.0833 49.3067 10.5133 50.0033 10.108C50.7 9.70267 51.498 9.5 52.3973 9.5C52.8787 9.5 53.36 9.56967 53.8413 9.709C54.3353 9.84833 54.7723 10.0383 55.1523 10.279C55.5577 10.5577 55.7603 10.8807 55.7603 11.248C55.7603 11.4633 55.7033 11.647 55.5893 11.799C55.4753 11.9383 55.3297 12.008 55.1523 12.008C55.0383 12.008 54.9243 11.9827 54.8103 11.932C54.6963 11.8687 54.5507 11.78 54.3733 11.666C54.0567 11.4633 53.759 11.3113 53.4803 11.21C53.2143 11.096 52.8913 11.039 52.5113 11.039C51.65 11.039 50.9787 11.3303 50.4973 11.913C50.0287 12.4957 49.7943 13.3063 49.7943 14.345C49.7943 15.3837 50.0287 16.188 50.4973 16.758C50.966 17.3153 51.631 17.594 52.4923 17.594C52.8723 17.594 53.208 17.537 53.4993 17.423C53.7907 17.309 54.0883 17.157 54.3923 16.967C54.5317 16.8783 54.671 16.8023 54.8103 16.739C54.9497 16.6757 55.0763 16.644 55.1903 16.644C55.3677 16.644 55.5133 16.72 55.6273 16.872C55.7413 17.0113 55.7983 17.1887 55.7983 17.404C55.7983 17.5813 55.7477 17.746 55.6463 17.898C55.5577 18.0373 55.3993 18.183 55.1713 18.335C54.7913 18.5883 54.348 18.7847 53.8413 18.924C53.3347 19.0633 52.8217 19.133 52.3023 19.133ZM62.094 17.632C62.3727 17.6573 62.569 17.7333 62.683 17.86C62.8097 17.974 62.873 18.1387 62.873 18.354C62.873 18.6073 62.7717 18.8037 62.569 18.943C62.379 19.0697 62.094 19.1203 61.714 19.095L61.201 19.057C60.175 18.981 59.4087 18.6707 58.902 18.126C58.3954 17.5687 58.142 16.7517 58.142 15.675V11.21H57.002C56.4447 11.21 56.166 10.963 56.166 10.469C56.166 10.241 56.2357 10.0637 56.375 9.937C56.527 9.79767 56.736 9.728 57.002 9.728H58.142V7.771C58.142 7.47967 58.2244 7.25167 58.389 7.087C58.5664 6.92233 58.8007 6.84 59.092 6.84C59.3834 6.84 59.6177 6.92233 59.795 7.087C59.9724 7.25167 60.061 7.47967 60.061 7.771V9.728H61.942C62.208 9.728 62.4107 9.79767 62.55 9.937C62.702 10.0637 62.778 10.241 62.778 10.469C62.778 10.7097 62.702 10.8933 62.55 11.02C62.4107 11.1467 62.208 11.21 61.942 11.21H60.061V15.808C60.061 16.4033 60.1814 16.8403 60.422 17.119C60.6754 17.3977 61.0554 17.556 61.562 17.594L62.094 17.632ZM68.2793 19.133C67.3673 19.133 66.5629 18.9367 65.8663 18.544C65.1823 18.1513 64.6503 17.594 64.2703 16.872C63.9029 16.1373 63.7193 15.2887 63.7193 14.326C63.7193 13.3507 63.9029 12.502 64.2703 11.78C64.6503 11.0453 65.1823 10.4817 65.8663 10.089C66.5629 9.69633 67.3673 9.5 68.2793 9.5C69.1913 9.5 69.9893 9.69633 70.6733 10.089C71.3699 10.4817 71.9019 11.0453 72.2693 11.78C72.6493 12.502 72.8393 13.3507 72.8393 14.326C72.8393 15.2887 72.6493 16.1373 72.2693 16.872C71.9019 17.594 71.3699 18.1513 70.6733 18.544C69.9893 18.9367 69.1913 19.133 68.2793 19.133ZM68.2793 17.613C69.1279 17.613 69.7739 17.3343 70.2173 16.777C70.6733 16.2197 70.9013 15.4027 70.9013 14.326C70.9013 13.262 70.6733 12.4513 70.2173 11.894C69.7613 11.324 69.1153 11.039 68.2793 11.039C67.4433 11.039 66.7973 11.324 66.3413 11.894C65.8853 12.4513 65.6573 13.262 65.6573 14.326C65.6573 15.4027 65.8789 16.2197 66.3223 16.777C66.7783 17.3343 67.4306 17.613 68.2793 17.613ZM79.8399 9.538C80.4479 9.5 80.7519 9.75967 80.7519 10.317C80.7519 10.5957 80.6822 10.8047 80.5429 10.944C80.4035 11.0833 80.1629 11.1657 79.8209 11.191L79.2509 11.248C78.4529 11.324 77.8575 11.6027 77.4649 12.084C77.0849 12.5653 76.8949 13.148 76.8949 13.832V18.183C76.8949 18.487 76.8062 18.715 76.6289 18.867C76.4515 19.019 76.2235 19.095 75.9449 19.095C75.6662 19.095 75.4319 19.019 75.2419 18.867C75.0645 18.715 74.9759 18.487 74.9759 18.183V10.45C74.9759 10.1587 75.0645 9.937 75.2419 9.785C75.4319 9.62033 75.6662 9.538 75.9449 9.538C76.1982 9.538 76.4072 9.62033 76.5719 9.785C76.7492 9.937 76.8379 10.1523 76.8379 10.431V11.343C77.0912 10.7857 77.4585 10.3613 77.9399 10.07C78.4212 9.77867 78.9659 9.60767 79.5739 9.557L79.8399 9.538Z" fill="black"/>
</svg>
