<svg width="38" height="21" viewBox="0 0 38 21" fill="none" xmlns="http://www.w3.org/2000/svg">
<path d="M15.905 4.095C15.9397 3.98233 16.0004 3.9 16.087 3.848C16.1737 3.78733 16.269 3.757 16.373 3.757C16.5117 3.757 16.6287 3.80033 16.724 3.887C16.828 3.965 16.88 4.07333 16.88 4.212C16.88 4.27267 16.867 4.342 16.841 4.42L13.903 12.701C13.8597 12.8223 13.786 12.9177 13.682 12.987C13.578 13.0477 13.461 13.078 13.331 13.078C13.2097 13.078 13.097 13.0477 12.993 12.987C12.889 12.9177 12.8154 12.8223 12.772 12.701L10.224 5.499L7.65004 12.701C7.6067 12.8223 7.53304 12.9177 7.42904 12.987C7.32504 13.0477 7.21237 13.078 7.09104 13.078C6.9697 13.078 6.85704 13.0477 6.75304 12.987C6.64904 12.9177 6.57537 12.8223 6.53204 12.701L3.58104 4.42C3.55504 4.35067 3.54204 4.28567 3.54204 4.225C3.54204 4.08633 3.59404 3.97367 3.69804 3.887C3.8107 3.80033 3.93637 3.757 4.07504 3.757C4.17904 3.757 4.27437 3.78733 4.36104 3.848C4.45637 3.9 4.52137 3.98233 4.55604 4.095L7.11704 11.479L9.71704 4.173C9.76037 4.043 9.8297 3.94767 9.92504 3.887C10.0204 3.81767 10.1244 3.783 10.237 3.783C10.3497 3.783 10.4537 3.81767 10.549 3.887C10.6444 3.95633 10.7137 4.056 10.757 4.186L13.318 11.505L15.905 4.095ZM20.246 13.091C19.648 13.091 19.1194 12.9567 18.66 12.688C18.2094 12.4193 17.8584 12.038 17.607 11.544C17.3644 11.0413 17.243 10.4607 17.243 9.802C17.243 9.14333 17.3644 8.567 17.607 8.073C17.8584 7.57033 18.2094 7.18467 18.66 6.916C19.1194 6.64733 19.648 6.513 20.246 6.513C20.844 6.513 21.3727 6.64733 21.832 6.916C22.2914 7.18467 22.6424 7.57033 22.885 8.073C23.1364 8.567 23.262 9.14333 23.262 9.802C23.262 10.4607 23.1364 11.0413 22.885 11.544C22.6424 12.038 22.2914 12.4193 21.832 12.688C21.3727 12.9567 20.844 13.091 20.246 13.091ZM20.246 12.22C20.87 12.22 21.3467 12.0163 21.676 11.609C22.014 11.193 22.183 10.5907 22.183 9.802C22.183 9.03067 22.014 8.437 21.676 8.021C21.338 7.59633 20.8614 7.384 20.246 7.384C19.6307 7.384 19.154 7.59633 18.816 8.021C18.478 8.437 18.309 9.03067 18.309 9.802C18.309 10.582 18.4737 11.18 18.803 11.596C19.141 12.012 19.622 12.22 20.246 12.22ZM27.964 6.539C28.328 6.513 28.51 6.66033 28.51 6.981C28.51 7.11967 28.471 7.23233 28.393 7.319C28.315 7.397 28.1806 7.44467 27.99 7.462L27.6 7.501C27.0193 7.553 26.586 7.761 26.3 8.125C26.0226 8.48033 25.884 8.90067 25.884 9.386V12.545C25.884 12.7183 25.8363 12.8483 25.741 12.935C25.6456 13.0217 25.52 13.065 25.364 13.065C25.208 13.065 25.078 13.0217 24.974 12.935C24.8786 12.8397 24.831 12.7097 24.831 12.545V7.059C24.831 6.89433 24.883 6.76867 24.987 6.682C25.091 6.58667 25.2166 6.539 25.364 6.539C25.5026 6.539 25.6196 6.58667 25.715 6.682C25.8103 6.76867 25.858 6.89 25.858 7.046V7.774C26.04 7.39267 26.2956 7.10233 26.625 6.903C26.963 6.70367 27.3486 6.58667 27.782 6.552L27.964 6.539ZM34.471 12.168C34.6096 12.298 34.679 12.4367 34.679 12.584C34.679 12.714 34.6313 12.8267 34.536 12.922C34.4493 13.0173 34.341 13.065 34.211 13.065C34.0983 13.065 33.9813 13.013 33.86 12.909L30.467 9.984V12.545C30.467 12.7097 30.415 12.8397 30.311 12.935C30.2156 13.0217 30.0943 13.065 29.947 13.065C29.791 13.065 29.661 13.0217 29.557 12.935C29.4616 12.8397 29.414 12.7097 29.414 12.545V4.29C29.414 4.12533 29.4616 3.99967 29.557 3.913C29.661 3.81767 29.791 3.77 29.947 3.77C30.0943 3.77 30.2156 3.81767 30.311 3.913C30.415 3.99967 30.467 4.12533 30.467 4.29V9.568L33.574 6.721C33.678 6.617 33.795 6.565 33.925 6.565C34.055 6.565 34.1676 6.61267 34.263 6.708C34.3583 6.80333 34.406 6.916 34.406 7.046C34.406 7.19333 34.3453 7.32333 34.224 7.436L31.663 9.724L34.471 12.168Z" fill="black"/>
</svg>
