<svg width="229" height="46" viewBox="0 0 229 46" fill="none" xmlns="http://www.w3.org/2000/svg">
<path d="M24.8071 31.382C24.9431 31.6767 25.0111 31.9713 25.0111 32.266C25.0111 32.7873 24.7957 33.2293 24.3651 33.592C23.9571 33.9547 23.4811 34.136 22.9371 34.136C22.5744 34.136 22.2344 34.0453 21.9171 33.864C21.5997 33.66 21.3504 33.354 21.1691 32.946L19.1291 28.39H7.16107L5.12107 32.946C4.93974 33.354 4.6904 33.66 4.37307 33.864C4.05574 34.0453 3.7044 34.136 3.31907 34.136C2.79774 34.136 2.32174 33.9547 1.89107 33.592C1.4604 33.2293 1.24507 32.7873 1.24507 32.266C1.24507 31.9713 1.31307 31.6767 1.44907 31.382L10.8331 11.22C11.0371 10.7667 11.3431 10.4267 11.7511 10.2C12.1817 9.95067 12.6351 9.826 13.1111 9.826C13.5871 9.826 14.0291 9.95067 14.4371 10.2C14.8677 10.4267 15.1851 10.7667 15.3891 11.22L24.8071 31.382ZM8.65707 24.99H17.6331L13.1451 14.892L8.65707 24.99ZM46.4714 9.86C47.1061 9.86 47.6048 10.064 47.9674 10.472C48.3528 10.8573 48.5454 11.3787 48.5454 12.036V31.994C48.5454 32.6513 48.3528 33.184 47.9674 33.592C47.5821 34 47.0834 34.204 46.4714 34.204C45.7461 34.204 45.1908 33.9433 44.8054 33.422L32.3954 17.272V31.994C32.3954 32.6513 32.2141 33.184 31.8514 33.592C31.4888 34 30.9901 34.204 30.3554 34.204C29.7208 34.204 29.2221 34 28.8594 33.592C28.4968 33.184 28.3154 32.6513 28.3154 31.994V12.036C28.3154 11.3787 28.5081 10.8573 28.8934 10.472C29.2788 10.064 29.7888 9.86 30.4234 9.86C31.1261 9.86 31.6701 10.1207 32.0554 10.642L44.4314 26.724V12.036C44.4314 11.3787 44.6128 10.8573 44.9754 10.472C45.3608 10.064 45.8594 9.86 46.4714 9.86ZM84.6723 31.382C84.8083 31.6767 84.8763 31.9713 84.8763 32.266C84.8763 32.7873 84.661 33.2293 84.2303 33.592C83.8223 33.9547 83.3463 34.136 82.8023 34.136C82.4396 34.136 82.0996 34.0453 81.7823 33.864C81.465 33.66 81.2156 33.354 81.0343 32.946L78.9943 28.39H67.0263L64.9863 32.946C64.805 33.354 64.5556 33.66 64.2383 33.864C63.921 34.0453 63.5696 34.136 63.1843 34.136C62.663 34.136 62.187 33.9547 61.7563 33.592C61.3256 33.2293 61.1103 32.7873 61.1103 32.266C61.1103 31.9713 61.1783 31.6767 61.3143 31.382L70.6983 11.22C70.9023 10.7667 71.2083 10.4267 71.6163 10.2C72.047 9.95067 72.5003 9.826 72.9763 9.826C73.4523 9.826 73.8943 9.95067 74.3023 10.2C74.733 10.4267 75.0503 10.7667 75.2543 11.22L84.6723 31.382ZM68.5223 24.99H77.4983L73.0103 14.892L68.5223 24.99ZM90.3567 34.204C89.6993 34.204 89.1667 34 88.7587 33.592C88.3733 33.184 88.1807 32.6513 88.1807 31.994V12.036C88.1807 11.3787 88.3733 10.8573 88.7587 10.472C89.1667 10.064 89.6993 9.86 90.3567 9.86C91.0367 9.86 91.5693 10.064 91.9547 10.472C92.3627 10.8573 92.5667 11.3787 92.5667 12.036V31.994C92.5667 32.6513 92.3627 33.184 91.9547 33.592C91.5693 34 91.0367 34.204 90.3567 34.204ZM116.919 31.246C117.191 31.654 117.327 32.0507 117.327 32.436C117.327 32.9573 117.112 33.388 116.681 33.728C116.273 34.068 115.786 34.238 115.219 34.238C114.857 34.238 114.505 34.1587 114.165 34C113.848 33.8187 113.576 33.558 113.349 33.218L108.827 26.35C108.374 25.6247 107.887 25.1147 107.365 24.82C106.867 24.5253 106.209 24.378 105.393 24.378H102.061V31.994C102.061 32.674 101.869 33.218 101.483 33.626C101.098 34.0113 100.577 34.204 99.9192 34.204C99.2618 34.204 98.7292 34.0113 98.3212 33.626C97.9358 33.218 97.7432 32.674 97.7432 31.994V12.104C97.7432 11.4467 97.9245 10.9367 98.2872 10.574C98.6725 10.2113 99.1938 10.03 99.8512 10.03H108.351C111.071 10.03 113.134 10.642 114.539 11.866C115.967 13.0673 116.681 14.8127 116.681 17.102C116.681 18.9607 116.149 20.4907 115.083 21.692C114.041 22.8707 112.556 23.63 110.629 23.97C111.287 24.1287 111.865 24.412 112.363 24.82C112.862 25.228 113.349 25.7947 113.825 26.52L116.919 31.246ZM107.739 21.012C109.394 21.012 110.607 20.706 111.377 20.094C112.148 19.4593 112.533 18.496 112.533 17.204C112.533 15.8893 112.148 14.9373 111.377 14.348C110.607 13.736 109.394 13.43 107.739 13.43H102.027V21.012H107.739ZM132.79 34.204C132.133 34.204 131.6 34 131.192 33.592C130.807 33.184 130.614 32.6513 130.614 31.994V12.104C130.614 11.4467 130.796 10.9367 131.158 10.574C131.544 10.2113 132.065 10.03 132.722 10.03H144.656C146.039 10.03 146.73 10.6193 146.73 11.798C146.73 12.954 146.039 13.532 144.656 13.532H134.932V20.06H143.976C145.359 20.06 146.05 20.6493 146.05 21.828C146.05 22.984 145.359 23.562 143.976 23.562H134.932V31.994C134.932 32.6513 134.74 33.184 134.354 33.592C133.969 34 133.448 34.204 132.79 34.204ZM151.946 34C151.289 34 150.779 33.8187 150.416 33.456C150.053 33.0933 149.872 32.5947 149.872 31.96V12.036C149.872 11.3787 150.065 10.8573 150.45 10.472C150.858 10.064 151.391 9.86 152.048 9.86C152.728 9.86 153.261 10.064 153.646 10.472C154.054 10.8573 154.258 11.3787 154.258 12.036V30.396H163.812C165.172 30.396 165.852 30.9967 165.852 32.198C165.852 33.3993 165.172 34 163.812 34H151.946ZM178.113 34.306C175.778 34.306 173.749 33.8073 172.027 32.81C170.327 31.8127 169.012 30.3847 168.083 28.526C167.153 26.6673 166.689 24.4913 166.689 21.998C166.689 19.5047 167.142 17.34 168.049 15.504C168.978 13.6453 170.304 12.2173 172.027 11.22C173.749 10.2227 175.778 9.724 178.113 9.724C180.447 9.724 182.465 10.2227 184.165 11.22C185.887 12.2173 187.202 13.6453 188.109 15.504C189.038 17.34 189.503 19.5047 189.503 21.998C189.503 24.4913 189.038 26.6673 188.109 28.526C187.179 30.3847 185.853 31.8127 184.131 32.81C182.431 33.8073 180.425 34.306 178.113 34.306ZM178.113 30.804C180.311 30.804 182.023 30.0447 183.247 28.526C184.493 27.0073 185.117 24.8313 185.117 21.998C185.117 19.1647 184.493 17 183.247 15.504C182.023 13.9853 180.311 13.226 178.113 13.226C175.891 13.226 174.157 13.9853 172.911 15.504C171.687 17 171.075 19.1647 171.075 21.998C171.075 24.8313 171.687 27.0073 172.911 28.526C174.157 30.0447 175.891 30.804 178.113 30.804ZM223.391 11.186C223.55 10.7327 223.799 10.3927 224.139 10.166C224.502 9.93933 224.898 9.826 225.329 9.826C225.873 9.826 226.338 9.996 226.723 10.336C227.131 10.676 227.335 11.1293 227.335 11.696C227.335 11.9 227.278 12.1947 227.165 12.58L219.855 32.81C219.674 33.2633 219.368 33.6147 218.937 33.864C218.529 34.1133 218.076 34.238 217.577 34.238C217.078 34.238 216.614 34.1133 216.183 33.864C215.752 33.6147 215.458 33.2633 215.299 32.81L209.655 16.796L203.909 32.81C203.728 33.2633 203.422 33.6147 202.991 33.864C202.583 34.1133 202.13 34.238 201.631 34.238C201.132 34.238 200.668 34.1133 200.237 33.864C199.829 33.6147 199.546 33.2633 199.387 32.81L192.077 12.58C191.964 12.24 191.907 11.9453 191.907 11.696C191.907 11.1293 192.111 10.676 192.519 10.336C192.95 9.996 193.448 9.826 194.015 9.826C194.468 9.826 194.876 9.93933 195.239 10.166C195.602 10.3927 195.862 10.7327 196.021 11.186L201.801 27.812L207.751 11.288C207.91 10.8347 208.17 10.4833 208.533 10.234C208.896 9.962 209.292 9.826 209.723 9.826C210.154 9.826 210.55 9.962 210.913 10.234C211.298 10.4833 211.57 10.846 211.729 11.322L217.509 28.016L223.391 11.186Z" fill="black"/>
</svg>
