<svg width="277" height="46" viewBox="0 0 277 46" fill="none" xmlns="http://www.w3.org/2000/svg">
<path d="M5.06859 34.204C4.41126 34.204 3.87859 34.0113 3.47059 33.626C3.08526 33.218 2.89259 32.674 2.89259 31.994V12.104C2.89259 11.4467 3.07393 10.9367 3.43659 10.574C3.82193 10.2113 4.34326 10.03 5.00059 10.03H13.3646C15.9259 10.03 17.9206 10.676 19.3486 11.968C20.7766 13.2373 21.4906 15.028 21.4906 17.34C21.4906 19.652 20.7766 21.454 19.3486 22.746C17.9206 24.038 15.9259 24.684 13.3646 24.684H7.27859V31.994C7.27859 32.674 7.07459 33.218 6.66659 33.626C6.28126 34.0113 5.74859 34.204 5.06859 34.204ZM12.8206 21.318C15.8353 21.318 17.3426 20.0033 17.3426 17.374C17.3426 14.7447 15.8353 13.43 12.8206 13.43H7.27859V21.318H12.8206ZM44.5073 31.382C44.6433 31.6767 44.7113 31.9713 44.7113 32.266C44.7113 32.7873 44.4959 33.2293 44.0653 33.592C43.6573 33.9547 43.1813 34.136 42.6373 34.136C42.2746 34.136 41.9346 34.0453 41.6173 33.864C41.2999 33.66 41.0506 33.354 40.8693 32.946L38.8293 28.39H26.8613L24.8213 32.946C24.6399 33.354 24.3906 33.66 24.0733 33.864C23.7559 34.0453 23.4046 34.136 23.0193 34.136C22.4979 34.136 22.0219 33.9547 21.5913 33.592C21.1606 33.2293 20.9453 32.7873 20.9453 32.266C20.9453 31.9713 21.0133 31.6767 21.1493 31.382L30.5333 11.22C30.7373 10.7667 31.0433 10.4267 31.4513 10.2C31.8819 9.95067 32.3353 9.826 32.8113 9.826C33.2873 9.826 33.7293 9.95067 34.1373 10.2C34.5679 10.4267 34.8853 10.7667 35.0893 11.22L44.5073 31.382ZM28.3573 24.99H37.3333L32.8453 14.892L28.3573 24.99ZM67.1916 31.246C67.4636 31.654 67.5996 32.0507 67.5996 32.436C67.5996 32.9573 67.3843 33.388 66.9536 33.728C66.5456 34.068 66.0583 34.238 65.4916 34.238C65.129 34.238 64.7776 34.1587 64.4376 34C64.1203 33.8187 63.8483 33.558 63.6216 33.218L59.0996 26.35C58.6463 25.6247 58.159 25.1147 57.6376 24.82C57.139 24.5253 56.4816 24.378 55.6656 24.378H52.3336V31.994C52.3336 32.674 52.141 33.218 51.7556 33.626C51.3703 34.0113 50.849 34.204 50.1916 34.204C49.5343 34.204 49.0016 34.0113 48.5936 33.626C48.2083 33.218 48.0156 32.674 48.0156 31.994V12.104C48.0156 11.4467 48.197 10.9367 48.5596 10.574C48.945 10.2113 49.4663 10.03 50.1236 10.03H58.6236C61.3436 10.03 63.4063 10.642 64.8116 11.866C66.2396 13.0673 66.9536 14.8127 66.9536 17.102C66.9536 18.9607 66.421 20.4907 65.3556 21.692C64.313 22.8707 62.8283 23.63 60.9016 23.97C61.559 24.1287 62.137 24.412 62.6356 24.82C63.1343 25.228 63.6216 25.7947 64.0976 26.52L67.1916 31.246ZM58.0116 21.012C59.6663 21.012 60.879 20.706 61.6496 20.094C62.4203 19.4593 62.8056 18.496 62.8056 17.204C62.8056 15.8893 62.4203 14.9373 61.6496 14.348C60.879 13.736 59.6663 13.43 58.0116 13.43H52.2996V21.012H58.0116ZM78.8462 34.17C78.1662 34.17 77.6222 33.9773 77.2142 33.592C76.8289 33.184 76.6362 32.6513 76.6362 31.994V13.634H70.4482C69.0882 13.634 68.4082 13.0333 68.4082 11.832C68.4082 10.6307 69.0882 10.03 70.4482 10.03H87.2102C88.5702 10.03 89.2502 10.6307 89.2502 11.832C89.2502 13.0333 88.5702 13.634 87.2102 13.634H81.0222V31.994C81.0222 32.6513 80.8182 33.184 80.4102 33.592C80.0249 33.9773 79.5035 34.17 78.8462 34.17ZM94.0198 34.204C93.3624 34.204 92.8298 34 92.4218 33.592C92.0364 33.184 91.8438 32.6513 91.8438 31.994V12.036C91.8438 11.3787 92.0364 10.8573 92.4218 10.472C92.8298 10.064 93.3624 9.86 94.0198 9.86C94.6998 9.86 95.2324 10.064 95.6178 10.472C96.0258 10.8573 96.2298 11.3787 96.2298 12.036V31.994C96.2298 32.6513 96.0258 33.184 95.6178 33.592C95.2324 34 94.6998 34.204 94.0198 34.204ZM112.116 34.306C109.804 34.306 107.776 33.8073 106.03 32.81C104.308 31.8127 102.982 30.3847 102.052 28.526C101.123 26.6673 100.658 24.4913 100.658 21.998C100.658 19.5047 101.123 17.34 102.052 15.504C102.982 13.6453 104.308 12.2173 106.03 11.22C107.776 10.2227 109.804 9.724 112.116 9.724C113.612 9.724 115.018 9.95067 116.332 10.404C117.647 10.8347 118.814 11.4693 119.834 12.308C120.129 12.5347 120.333 12.7727 120.446 13.022C120.56 13.2713 120.616 13.5773 120.616 13.94C120.616 14.4387 120.48 14.858 120.208 15.198C119.936 15.538 119.608 15.708 119.222 15.708C118.769 15.708 118.304 15.5493 117.828 15.232C116.854 14.5067 115.947 14.008 115.108 13.736C114.27 13.4413 113.34 13.294 112.32 13.294C109.963 13.294 108.172 14.0307 106.948 15.504C105.747 16.9773 105.146 19.142 105.146 21.998C105.146 24.8767 105.747 27.0527 106.948 28.526C108.172 29.9993 109.963 30.736 112.32 30.736C113.295 30.736 114.19 30.5887 115.006 30.294C115.845 29.9993 116.786 29.5007 117.828 28.798C118.055 28.662 118.282 28.5487 118.508 28.458C118.735 28.3673 118.973 28.322 119.222 28.322C119.608 28.322 119.936 28.492 120.208 28.832C120.48 29.172 120.616 29.5913 120.616 30.09C120.616 30.43 120.56 30.736 120.446 31.008C120.333 31.2573 120.129 31.4953 119.834 31.722C118.814 32.5607 117.647 33.2067 116.332 33.66C115.018 34.0907 113.612 34.306 112.116 34.306ZM126.523 34C125.866 34 125.356 33.8187 124.993 33.456C124.631 33.0933 124.449 32.5947 124.449 31.96V12.036C124.449 11.3787 124.642 10.8573 125.027 10.472C125.435 10.064 125.968 9.86 126.625 9.86C127.305 9.86 127.838 10.064 128.223 10.472C128.631 10.8573 128.835 11.3787 128.835 12.036V30.396H138.389C139.749 30.396 140.429 30.9967 140.429 32.198C140.429 33.3993 139.749 34 138.389 34H126.523ZM145.417 34C144.759 34 144.238 33.8187 143.853 33.456C143.49 33.0933 143.309 32.5833 143.309 31.926V12.104C143.309 11.4467 143.49 10.9367 143.853 10.574C144.238 10.2113 144.759 10.03 145.417 10.03H157.691C158.348 10.03 158.858 10.1773 159.221 10.472C159.583 10.7667 159.765 11.186 159.765 11.73C159.765 12.2967 159.583 12.7387 159.221 13.056C158.858 13.3507 158.348 13.498 157.691 13.498H147.593V20.094H157.011C157.668 20.094 158.178 20.2413 158.541 20.536C158.903 20.8307 159.085 21.2613 159.085 21.828C159.085 22.372 158.903 22.7913 158.541 23.086C158.178 23.3807 157.668 23.528 157.011 23.528H147.593V30.532H157.691C158.348 30.532 158.858 30.6907 159.221 31.008C159.583 31.3027 159.765 31.7333 159.765 32.3C159.765 32.844 159.583 33.2633 159.221 33.558C158.858 33.8527 158.348 34 157.691 34H145.417ZM171.294 34.306C169.549 34.306 167.894 34.0793 166.33 33.626C164.789 33.15 163.531 32.5153 162.556 31.722C162.035 31.3367 161.774 30.7927 161.774 30.09C161.774 29.614 161.91 29.206 162.182 28.866C162.477 28.5033 162.817 28.322 163.202 28.322C163.61 28.322 164.075 28.4807 164.596 28.798C165.571 29.5007 166.591 30.0107 167.656 30.328C168.721 30.6453 169.9 30.804 171.192 30.804C172.847 30.804 174.116 30.5207 175 29.954C175.884 29.3647 176.326 28.5147 176.326 27.404C176.326 26.5427 175.907 25.8853 175.068 25.432C174.252 24.956 172.881 24.5027 170.954 24.072C168.959 23.6413 167.339 23.1427 166.092 22.576C164.845 22.0093 163.905 21.284 163.27 20.4C162.635 19.516 162.318 18.394 162.318 17.034C162.318 15.6287 162.715 14.3707 163.508 13.26C164.301 12.1493 165.401 11.288 166.806 10.676C168.234 10.0413 169.832 9.724 171.6 9.724C174.841 9.724 177.482 10.5853 179.522 12.308C179.817 12.5573 180.021 12.8067 180.134 13.056C180.27 13.2827 180.338 13.5773 180.338 13.94C180.338 14.416 180.191 14.8353 179.896 15.198C179.624 15.538 179.295 15.708 178.91 15.708C178.683 15.708 178.468 15.674 178.264 15.606C178.083 15.538 177.833 15.4133 177.516 15.232C176.587 14.552 175.68 14.0533 174.796 13.736C173.935 13.396 172.869 13.226 171.6 13.226C170.059 13.226 168.835 13.5433 167.928 14.178C167.044 14.79 166.602 15.6513 166.602 16.762C166.602 17.6913 166.999 18.4053 167.792 18.904C168.585 19.4027 169.934 19.8673 171.838 20.298C173.855 20.7513 175.487 21.2613 176.734 21.828C178.003 22.372 178.967 23.0747 179.624 23.936C180.304 24.7973 180.644 25.874 180.644 27.166C180.644 28.5713 180.247 29.818 179.454 30.906C178.683 31.9713 177.584 32.81 176.156 33.422C174.751 34.0113 173.13 34.306 171.294 34.306ZM202.206 34.306C200.461 34.306 198.806 34.0793 197.242 33.626C195.701 33.15 194.443 32.5153 193.468 31.722C192.947 31.3367 192.686 30.7927 192.686 30.09C192.686 29.614 192.822 29.206 193.094 28.866C193.389 28.5033 193.729 28.322 194.114 28.322C194.522 28.322 194.987 28.4807 195.508 28.798C196.483 29.5007 197.503 30.0107 198.568 30.328C199.634 30.6453 200.812 30.804 202.104 30.804C203.759 30.804 205.028 30.5207 205.912 29.954C206.796 29.3647 207.238 28.5147 207.238 27.404C207.238 26.5427 206.819 25.8853 205.98 25.432C205.164 24.956 203.793 24.5027 201.866 24.072C199.872 23.6413 198.251 23.1427 197.004 22.576C195.758 22.0093 194.817 21.284 194.182 20.4C193.548 19.516 193.23 18.394 193.23 17.034C193.23 15.6287 193.627 14.3707 194.42 13.26C195.214 12.1493 196.313 11.288 197.718 10.676C199.146 10.0413 200.744 9.724 202.512 9.724C205.754 9.724 208.394 10.5853 210.434 12.308C210.729 12.5573 210.933 12.8067 211.046 13.056C211.182 13.2827 211.25 13.5773 211.25 13.94C211.25 14.416 211.103 14.8353 210.808 15.198C210.536 15.538 210.208 15.708 209.822 15.708C209.596 15.708 209.38 15.674 209.176 15.606C208.995 15.538 208.746 15.4133 208.428 15.232C207.499 14.552 206.592 14.0533 205.708 13.736C204.847 13.396 203.782 13.226 202.512 13.226C200.971 13.226 199.747 13.5433 198.84 14.178C197.956 14.79 197.514 15.6513 197.514 16.762C197.514 17.6913 197.911 18.4053 198.704 18.904C199.498 19.4027 200.846 19.8673 202.75 20.298C204.768 20.7513 206.4 21.2613 207.646 21.828C208.916 22.372 209.879 23.0747 210.536 23.936C211.216 24.7973 211.556 25.874 211.556 27.166C211.556 28.5713 211.16 29.818 210.366 30.906C209.596 31.9713 208.496 32.81 207.068 33.422C205.663 34.0113 204.042 34.306 202.206 34.306ZM217.7 34C217.042 34 216.521 33.8187 216.136 33.456C215.773 33.0933 215.592 32.5833 215.592 31.926V12.104C215.592 11.4467 215.773 10.9367 216.136 10.574C216.521 10.2113 217.042 10.03 217.7 10.03H229.974C230.631 10.03 231.141 10.1773 231.504 10.472C231.866 10.7667 232.048 11.186 232.048 11.73C232.048 12.2967 231.866 12.7387 231.504 13.056C231.141 13.3507 230.631 13.498 229.974 13.498H219.876V20.094H229.294C229.951 20.094 230.461 20.2413 230.824 20.536C231.186 20.8307 231.368 21.2613 231.368 21.828C231.368 22.372 231.186 22.7913 230.824 23.086C230.461 23.3807 229.951 23.528 229.294 23.528H219.876V30.532H229.974C230.631 30.532 231.141 30.6907 231.504 31.008C231.866 31.3027 232.048 31.7333 232.048 32.3C232.048 32.844 231.866 33.2633 231.504 33.558C231.141 33.8527 230.631 34 229.974 34H217.7ZM237.721 34C237.064 34 236.543 33.8187 236.157 33.456C235.795 33.0933 235.613 32.5833 235.613 31.926V12.104C235.613 11.4467 235.795 10.9367 236.157 10.574C236.543 10.2113 237.064 10.03 237.721 10.03H249.995C250.653 10.03 251.163 10.1773 251.525 10.472C251.888 10.7667 252.069 11.186 252.069 11.73C252.069 12.2967 251.888 12.7387 251.525 13.056C251.163 13.3507 250.653 13.498 249.995 13.498H239.897V20.094H249.315C249.973 20.094 250.483 20.2413 250.845 20.536C251.208 20.8307 251.389 21.2613 251.389 21.828C251.389 22.372 251.208 22.7913 250.845 23.086C250.483 23.3807 249.973 23.528 249.315 23.528H239.897V30.532H249.995C250.653 30.532 251.163 30.6907 251.525 31.008C251.888 31.3027 252.069 31.7333 252.069 32.3C252.069 32.844 251.888 33.2633 251.525 33.558C251.163 33.8527 250.653 34 249.995 34H237.721ZM274.811 31.246C275.083 31.654 275.219 32.0507 275.219 32.436C275.219 32.9573 275.003 33.388 274.573 33.728C274.165 34.068 273.677 34.238 273.111 34.238C272.748 34.238 272.397 34.1587 272.057 34C271.739 33.8187 271.467 33.558 271.241 33.218L266.719 26.35C266.265 25.6247 265.778 25.1147 265.257 24.82C264.758 24.5253 264.101 24.378 263.285 24.378H259.953V31.994C259.953 32.674 259.76 33.218 259.375 33.626C258.989 34.0113 258.468 34.204 257.811 34.204C257.153 34.204 256.621 34.0113 256.213 33.626C255.827 33.218 255.635 32.674 255.635 31.994V12.104C255.635 11.4467 255.816 10.9367 256.179 10.574C256.564 10.2113 257.085 10.03 257.743 10.03H266.243C268.963 10.03 271.025 10.642 272.431 11.866C273.859 13.0673 274.573 14.8127 274.573 17.102C274.573 18.9607 274.04 20.4907 272.975 21.692C271.932 22.8707 270.447 23.63 268.521 23.97C269.178 24.1287 269.756 24.412 270.255 24.82C270.753 25.228 271.241 25.7947 271.717 26.52L274.811 31.246ZM265.631 21.012C267.285 21.012 268.498 20.706 269.269 20.094C270.039 19.4593 270.425 18.496 270.425 17.204C270.425 15.8893 270.039 14.9373 269.269 14.348C268.498 13.736 267.285 13.43 265.631 13.43H259.919V21.012H265.631Z" fill="black"/>
</svg>
