<svg width="281" height="99" viewBox="0 0 281 99" fill="none" xmlns="http://www.w3.org/2000/svg">
<path d="M22.1506 17.136C20.5866 17.136 19.4022 16.728 18.5976 15.912C17.7929 15.096 17.3906 13.8947 17.3906 12.308V5.644C17.3906 5.42867 17.4529 5.25867 17.5776 5.134C17.7022 4.998 17.8722 4.93 18.0876 4.93C18.2916 4.93 18.4559 4.998 18.5806 5.134C18.7052 5.25867 18.7676 5.42867 18.7676 5.644V12.427C18.7676 13.5943 19.0509 14.4727 19.6176 15.062C20.1956 15.6513 21.0399 15.946 22.1506 15.946C23.2612 15.946 24.0999 15.6513 24.6666 15.062C25.2332 14.4727 25.5166 13.5943 25.5166 12.427V5.644C25.5166 5.42867 25.5789 5.25867 25.7036 5.134C25.8396 4.998 26.0096 4.93 26.2136 4.93C26.4289 4.93 26.5989 4.998 26.7236 5.134C26.8482 5.25867 26.9106 5.42867 26.9106 5.644V12.308C26.9106 13.8833 26.5026 15.0847 25.6866 15.912C24.8819 16.728 23.7032 17.136 22.1506 17.136ZM32.3613 17.119C31.84 17.119 31.3413 17.0567 30.8653 16.932C30.4007 16.8073 29.987 16.6317 29.6243 16.405C29.4203 16.269 29.273 16.1443 29.1823 16.031C29.103 15.9063 29.0633 15.759 29.0633 15.589C29.0633 15.4417 29.103 15.3227 29.1823 15.232C29.273 15.13 29.3863 15.079 29.5223 15.079C29.6583 15.079 29.8567 15.164 30.1173 15.334C30.4573 15.538 30.7917 15.7023 31.1203 15.827C31.4603 15.9403 31.8797 15.997 32.3783 15.997C32.9903 15.997 33.4663 15.8893 33.8063 15.674C34.1463 15.4587 34.3163 15.147 34.3163 14.739C34.3163 14.4897 34.254 14.2913 34.1293 14.144C34.0047 13.9853 33.7893 13.8493 33.4833 13.736C33.1773 13.6113 32.7297 13.4867 32.1403 13.362C31.143 13.1467 30.429 12.8577 29.9983 12.495C29.5677 12.1323 29.3523 11.6393 29.3523 11.016C29.3523 10.5287 29.4883 10.098 29.7603 9.724C30.0323 9.35 30.4063 9.05533 30.8823 8.84C31.3697 8.62467 31.9193 8.517 32.5313 8.517C32.9733 8.517 33.3983 8.57933 33.8063 8.704C34.2257 8.81733 34.594 8.98167 34.9113 9.197C35.2967 9.469 35.4893 9.75233 35.4893 10.047C35.4893 10.1943 35.444 10.319 35.3533 10.421C35.2627 10.523 35.155 10.574 35.0303 10.574C34.8943 10.574 34.6903 10.4777 34.4183 10.285C34.101 10.081 33.8007 9.92233 33.5173 9.809C33.234 9.69567 32.8827 9.639 32.4633 9.639C31.9307 9.639 31.5 9.758 31.1713 9.996C30.854 10.234 30.6953 10.5513 30.6953 10.948C30.6953 11.1973 30.752 11.4013 30.8653 11.56C30.99 11.7073 31.1883 11.8433 31.4603 11.968C31.7437 12.0813 32.146 12.1947 32.6673 12.308C33.438 12.478 34.033 12.665 34.4523 12.869C34.883 13.073 35.189 13.3223 35.3703 13.617C35.5517 13.9117 35.6423 14.2857 35.6423 14.739C35.6423 15.453 35.342 16.031 34.7413 16.473C34.1407 16.9037 33.3473 17.119 32.3613 17.119ZM38.4383 17.085C38.2343 17.085 38.0643 17.0283 37.9283 16.915C37.8036 16.7903 37.7413 16.6203 37.7413 16.405V9.231C37.7413 9.01567 37.8036 8.85133 37.9283 8.738C38.0643 8.61333 38.2343 8.551 38.4383 8.551C38.6423 8.551 38.8066 8.61333 38.9313 8.738C39.056 8.85133 39.1183 9.01567 39.1183 9.231V16.405C39.1183 16.6317 39.056 16.8017 38.9313 16.915C38.8066 17.0283 38.6423 17.085 38.4383 17.085ZM38.4383 6.766C38.1663 6.766 37.9453 6.68667 37.7753 6.528C37.6053 6.36933 37.5203 6.15967 37.5203 5.899C37.5203 5.64967 37.6053 5.44567 37.7753 5.287C37.9453 5.12833 38.1663 5.049 38.4383 5.049C38.7103 5.049 38.9313 5.12833 39.1013 5.287C39.2713 5.44567 39.3563 5.64967 39.3563 5.899C39.3563 6.15967 39.2713 6.36933 39.1013 6.528C38.9313 6.68667 38.7103 6.766 38.4383 6.766ZM45.8575 8.517C47.8408 8.517 48.8325 9.61067 48.8325 11.798V16.405C48.8325 16.6203 48.7701 16.7903 48.6455 16.915C48.5321 17.0283 48.3678 17.085 48.1525 17.085C47.9371 17.085 47.7671 17.0283 47.6425 16.915C47.5178 16.7903 47.4555 16.6203 47.4555 16.405V11.883C47.4555 11.1123 47.3025 10.5513 46.9965 10.2C46.7018 9.84867 46.2258 9.673 45.5685 9.673C44.8091 9.673 44.2028 9.90533 43.7495 10.37C43.2961 10.8347 43.0695 11.4637 43.0695 12.257V16.405C43.0695 16.6203 43.0071 16.7903 42.8825 16.915C42.7691 17.0283 42.6048 17.085 42.3895 17.085C42.1741 17.085 42.0041 17.0283 41.8795 16.915C41.7548 16.7903 41.6925 16.6203 41.6925 16.405V9.231C41.6925 9.027 41.7548 8.86267 41.8795 8.738C42.0041 8.61333 42.1741 8.551 42.3895 8.551C42.5935 8.551 42.7521 8.61333 42.8655 8.738C42.9901 8.86267 43.0525 9.02133 43.0525 9.214V10.081C43.3245 9.571 43.7041 9.18567 44.1915 8.925C44.6788 8.653 45.2341 8.517 45.8575 8.517ZM58.0696 8.551C58.2849 8.551 58.4549 8.61333 58.5796 8.738C58.7043 8.86267 58.7666 9.027 58.7666 9.231V16.439C58.7666 17.6743 58.4493 18.6037 57.8146 19.227C57.1799 19.8617 56.2393 20.179 54.9926 20.179C53.7799 20.179 52.7713 19.941 51.9666 19.465C51.5586 19.2383 51.3546 18.9777 51.3546 18.683C51.3546 18.5243 51.3943 18.394 51.4736 18.292C51.5643 18.19 51.6776 18.139 51.8136 18.139C51.9269 18.139 52.1309 18.2183 52.4256 18.377C52.8223 18.581 53.2133 18.7453 53.5986 18.87C53.9839 18.9947 54.4429 19.057 54.9756 19.057C55.7803 19.057 56.3866 18.8417 56.7946 18.411C57.2026 17.9917 57.4066 17.374 57.4066 16.558V15.096C57.1686 15.6287 56.8003 16.0367 56.3016 16.32C55.8143 16.6033 55.2363 16.745 54.5676 16.745C53.8423 16.745 53.1963 16.575 52.6296 16.235C52.0743 15.895 51.6379 15.4133 51.3206 14.79C51.0146 14.1667 50.8616 13.447 50.8616 12.631C50.8616 11.815 51.0146 11.0953 51.3206 10.472C51.6379 9.84867 52.0743 9.367 52.6296 9.027C53.1963 8.687 53.8423 8.517 54.5676 8.517C55.2249 8.517 55.7973 8.65867 56.2846 8.942C56.7719 9.22533 57.1403 9.62767 57.3896 10.149V9.231C57.3896 9.027 57.4463 8.86267 57.5596 8.738C57.6843 8.61333 57.8543 8.551 58.0696 8.551ZM54.8396 15.606C55.6329 15.606 56.2563 15.3453 56.7096 14.824C57.1629 14.2913 57.3896 13.5603 57.3896 12.631C57.3896 11.713 57.1629 10.9933 56.7096 10.472C56.2676 9.93933 55.6443 9.673 54.8396 9.673C54.0349 9.673 53.4003 9.93933 52.9356 10.472C52.4823 10.9933 52.2556 11.713 52.2556 12.631C52.2556 13.5603 52.4823 14.2913 52.9356 14.824C53.4003 15.3453 54.0349 15.606 54.8396 15.606ZM76.2213 16.201C76.2667 16.2917 76.2893 16.388 76.2893 16.49C76.2893 16.66 76.2213 16.8017 76.0853 16.915C75.9607 17.0283 75.8077 17.085 75.6263 17.085C75.343 17.085 75.1447 16.949 75.0313 16.677L73.8243 13.923H67.4153L66.1913 16.677C66.078 16.949 65.8797 17.085 65.5963 17.085C65.415 17.085 65.2563 17.0283 65.1203 16.915C64.9843 16.7903 64.9163 16.643 64.9163 16.473C64.9163 16.3823 64.939 16.2917 64.9843 16.201L69.8463 5.389C69.9143 5.23033 70.0163 5.11133 70.1523 5.032C70.2883 4.95267 70.4357 4.913 70.5943 4.913C70.7643 4.913 70.9173 4.95833 71.0533 5.049C71.1893 5.12833 71.2913 5.24167 71.3593 5.389L76.2213 16.201ZM67.9253 12.767H73.3143L70.6113 6.664L67.9253 12.767ZM84.1193 15.912C84.312 15.912 84.4593 15.963 84.5613 16.065C84.6633 16.1557 84.7143 16.286 84.7143 16.456C84.7143 16.626 84.6633 16.762 84.5613 16.864C84.4593 16.9547 84.312 17 84.1193 17H78.1693C77.9766 17 77.818 16.9433 77.6933 16.83C77.5686 16.7053 77.5063 16.558 77.5063 16.388C77.5063 16.2067 77.5743 16.031 77.7103 15.861L82.7423 9.809H78.0843C77.8916 9.809 77.7386 9.76367 77.6253 9.673C77.5233 9.571 77.4723 9.44067 77.4723 9.282C77.4723 9.112 77.5233 8.976 77.6253 8.874C77.7386 8.772 77.8916 8.721 78.0843 8.721H83.8473C84.0513 8.721 84.2156 8.78333 84.3403 8.908C84.465 9.02133 84.5273 9.163 84.5273 9.333C84.5273 9.51433 84.4593 9.69 84.3233 9.86L79.2743 15.912H84.1193ZM92.8731 8.551C93.0884 8.551 93.2528 8.61333 93.3661 8.738C93.4908 8.86267 93.5531 9.027 93.5531 9.231V16.422C93.5531 16.6147 93.4908 16.7733 93.3661 16.898C93.2528 17.0227 93.0884 17.085 92.8731 17.085C92.6691 17.085 92.5048 17.0283 92.3801 16.915C92.2668 16.7903 92.2101 16.6317 92.2101 16.439V15.589C91.9494 16.0877 91.5811 16.4673 91.1051 16.728C90.6404 16.9887 90.1134 17.119 89.5241 17.119C88.5381 17.119 87.7958 16.847 87.2971 16.303C86.7984 15.7477 86.5491 14.9317 86.5491 13.855V9.231C86.5491 9.027 86.6114 8.86267 86.7361 8.738C86.8608 8.61333 87.0308 8.551 87.2461 8.551C87.4614 8.551 87.6258 8.61333 87.7391 8.738C87.8638 8.86267 87.9261 9.027 87.9261 9.231V13.821C87.9261 14.5577 88.0734 15.1017 88.3681 15.453C88.6628 15.793 89.1274 15.963 89.7621 15.963C90.4874 15.963 91.0711 15.7307 91.5131 15.266C91.9551 14.79 92.1761 14.1667 92.1761 13.396V9.231C92.1761 9.027 92.2384 8.86267 92.3631 8.738C92.4878 8.61333 92.6578 8.551 92.8731 8.551ZM100.209 8.551C100.685 8.517 100.923 8.70967 100.923 9.129C100.923 9.31033 100.872 9.45767 100.77 9.571C100.668 9.673 100.493 9.73533 100.243 9.758L99.7334 9.809C98.9741 9.877 98.4074 10.149 98.0334 10.625C97.6707 11.0897 97.4894 11.6393 97.4894 12.274V16.405C97.4894 16.6317 97.4271 16.8017 97.3024 16.915C97.1777 17.0283 97.0134 17.085 96.8094 17.085C96.6054 17.085 96.4354 17.0283 96.2994 16.915C96.1747 16.7903 96.1124 16.6203 96.1124 16.405V9.231C96.1124 9.01567 96.1804 8.85133 96.3164 8.738C96.4524 8.61333 96.6167 8.551 96.8094 8.551C96.9907 8.551 97.1437 8.61333 97.2684 8.738C97.3931 8.85133 97.4554 9.01 97.4554 9.214V10.166C97.6934 9.66733 98.0277 9.28767 98.4584 9.027C98.9004 8.76633 99.4047 8.61333 99.9714 8.568L100.209 8.551ZM108.349 15.079C108.473 15.079 108.581 15.13 108.672 15.232C108.762 15.334 108.808 15.4643 108.808 15.623C108.808 15.9063 108.609 16.167 108.213 16.405C107.805 16.643 107.374 16.8243 106.921 16.949C106.467 17.0623 106.025 17.119 105.595 17.119C104.314 17.119 103.3 16.7393 102.552 15.98C101.815 15.2207 101.447 14.1723 101.447 12.835C101.447 11.985 101.611 11.237 101.94 10.591C102.268 9.93367 102.727 9.42367 103.317 9.061C103.917 8.69833 104.597 8.517 105.357 8.517C106.433 8.517 107.289 8.86833 107.924 9.571C108.558 10.2737 108.876 11.2257 108.876 12.427C108.876 12.6537 108.83 12.818 108.74 12.92C108.649 13.022 108.502 13.073 108.298 13.073H102.824C102.926 15.0223 103.849 15.997 105.595 15.997C106.037 15.997 106.416 15.9403 106.734 15.827C107.051 15.7023 107.391 15.538 107.754 15.334C108.048 15.164 108.247 15.079 108.349 15.079ZM105.374 9.588C104.648 9.588 104.065 9.81467 103.623 10.268C103.192 10.7213 102.937 11.3617 102.858 12.189H107.669C107.646 11.3503 107.436 10.71 107.04 10.268C106.643 9.81467 106.088 9.588 105.374 9.588ZM126.133 4.93C126.349 4.93 126.513 4.998 126.626 5.134C126.751 5.25867 126.813 5.42867 126.813 5.644V16.405C126.813 16.609 126.757 16.7733 126.643 16.898C126.53 17.0227 126.371 17.085 126.167 17.085C125.963 17.085 125.81 17.0227 125.708 16.898C125.606 16.7733 125.555 16.609 125.555 16.405V7.718L121.866 14.79C121.708 15.1187 121.475 15.283 121.169 15.283C120.875 15.283 120.642 15.1187 120.472 14.79L116.766 7.803V16.405C116.766 16.609 116.71 16.7733 116.596 16.898C116.494 17.0227 116.341 17.085 116.137 17.085C115.933 17.085 115.775 17.0227 115.661 16.898C115.548 16.7733 115.491 16.609 115.491 16.405V5.644C115.491 5.42867 115.554 5.25867 115.678 5.134C115.803 4.998 115.973 4.93 116.188 4.93C116.472 4.93 116.698 5.09433 116.868 5.423L121.186 13.702L125.453 5.423C125.544 5.24167 125.64 5.117 125.742 5.049C125.856 4.96967 125.986 4.93 126.133 4.93ZM132.964 8.517C135.038 8.517 136.075 9.605 136.075 11.781V16.405C136.075 16.609 136.013 16.7733 135.888 16.898C135.775 17.0227 135.616 17.085 135.412 17.085C135.208 17.085 135.044 17.0227 134.919 16.898C134.794 16.7733 134.732 16.609 134.732 16.405V15.589C134.517 16.0763 134.188 16.456 133.746 16.728C133.304 16.9887 132.794 17.119 132.216 17.119C131.683 17.119 131.19 17.0113 130.737 16.796C130.295 16.5807 129.944 16.2803 129.683 15.895C129.422 15.5097 129.292 15.0847 129.292 14.62C129.292 13.9967 129.451 13.515 129.768 13.175C130.085 12.8237 130.607 12.5743 131.332 12.427C132.057 12.2683 133.066 12.189 134.358 12.189H134.732V11.628C134.732 10.948 134.59 10.4493 134.307 10.132C134.035 9.81467 133.587 9.656 132.964 9.656C132.193 9.656 131.411 9.86567 130.618 10.285C130.312 10.4777 130.097 10.574 129.972 10.574C129.836 10.574 129.723 10.523 129.632 10.421C129.541 10.319 129.496 10.1887 129.496 10.03C129.496 9.87133 129.541 9.73533 129.632 9.622C129.734 9.49733 129.893 9.37267 130.108 9.248C130.505 9.02133 130.952 8.84567 131.451 8.721C131.961 8.585 132.465 8.517 132.964 8.517ZM132.403 16.031C133.083 16.031 133.638 15.8043 134.069 15.351C134.511 14.8863 134.732 14.2913 134.732 13.566V13.073H134.426C133.429 13.073 132.669 13.1183 132.148 13.209C131.627 13.2883 131.253 13.43 131.026 13.634C130.811 13.8267 130.703 14.1157 130.703 14.501C130.703 14.943 130.862 15.3113 131.179 15.606C131.508 15.8893 131.916 16.031 132.403 16.031ZM142.761 8.517C143.486 8.517 144.126 8.69833 144.682 9.061C145.237 9.42367 145.668 9.93367 145.974 10.591C146.28 11.237 146.433 11.9907 146.433 12.852C146.433 13.7133 146.28 14.467 145.974 15.113C145.668 15.7477 145.237 16.2407 144.682 16.592C144.138 16.9433 143.497 17.119 142.761 17.119C142.115 17.119 141.548 16.9773 141.061 16.694C140.585 16.4107 140.222 16.0083 139.973 15.487V19.482C139.973 19.686 139.91 19.8447 139.786 19.958C139.672 20.0827 139.508 20.145 139.293 20.145C139.077 20.145 138.907 20.0827 138.783 19.958C138.658 19.8333 138.596 19.6747 138.596 19.482V9.231C138.596 9.027 138.658 8.86267 138.783 8.738C138.907 8.61333 139.077 8.551 139.293 8.551C139.508 8.551 139.672 8.61333 139.786 8.738C139.91 8.86267 139.973 9.027 139.973 9.231V10.149C140.222 9.62767 140.585 9.22533 141.061 8.942C141.548 8.65867 142.115 8.517 142.761 8.517ZM142.489 15.98C143.293 15.98 143.917 15.708 144.359 15.164C144.801 14.62 145.022 13.8493 145.022 12.852C145.022 11.8547 144.801 11.0783 144.359 10.523C143.917 9.95633 143.293 9.673 142.489 9.673C141.684 9.673 141.061 9.945 140.619 10.489C140.188 11.033 139.973 11.8093 139.973 12.818C139.973 13.8267 140.188 14.6087 140.619 15.164C141.061 15.708 141.684 15.98 142.489 15.98ZM151.278 17.119C150.757 17.119 150.258 17.0567 149.782 16.932C149.318 16.8073 148.904 16.6317 148.541 16.405C148.337 16.269 148.19 16.1443 148.099 16.031C148.02 15.9063 147.98 15.759 147.98 15.589C147.98 15.4417 148.02 15.3227 148.099 15.232C148.19 15.13 148.303 15.079 148.439 15.079C148.575 15.079 148.774 15.164 149.034 15.334C149.374 15.538 149.709 15.7023 150.037 15.827C150.377 15.9403 150.797 15.997 151.295 15.997C151.907 15.997 152.383 15.8893 152.723 15.674C153.063 15.4587 153.233 15.147 153.233 14.739C153.233 14.4897 153.171 14.2913 153.046 14.144C152.922 13.9853 152.706 13.8493 152.4 13.736C152.094 13.6113 151.647 13.4867 151.057 13.362C150.06 13.1467 149.346 12.8577 148.915 12.495C148.485 12.1323 148.269 11.6393 148.269 11.016C148.269 10.5287 148.405 10.098 148.677 9.724C148.949 9.35 149.323 9.05533 149.799 8.84C150.287 8.62467 150.836 8.517 151.448 8.517C151.89 8.517 152.315 8.57933 152.723 8.704C153.143 8.81733 153.511 8.98167 153.828 9.197C154.214 9.469 154.406 9.75233 154.406 10.047C154.406 10.1943 154.361 10.319 154.27 10.421C154.18 10.523 154.072 10.574 153.947 10.574C153.811 10.574 153.607 10.4777 153.335 10.285C153.018 10.081 152.718 9.92233 152.434 9.809C152.151 9.69567 151.8 9.639 151.38 9.639C150.848 9.639 150.417 9.758 150.088 9.996C149.771 10.234 149.612 10.5513 149.612 10.948C149.612 11.1973 149.669 11.4013 149.782 11.56C149.907 11.7073 150.105 11.8433 150.377 11.968C150.661 12.0813 151.063 12.1947 151.584 12.308C152.355 12.478 152.95 12.665 153.369 12.869C153.8 13.073 154.106 13.3223 154.287 13.617C154.469 13.9117 154.559 14.2857 154.559 14.739C154.559 15.453 154.259 16.031 153.658 16.473C153.058 16.9037 152.264 17.119 151.278 17.119ZM172.363 8.993C172.476 8.721 172.663 8.585 172.924 8.585C173.094 8.585 173.247 8.64167 173.383 8.755C173.519 8.86833 173.587 9.01 173.587 9.18C173.587 9.25933 173.57 9.34433 173.536 9.435L170.714 16.575C170.646 16.7223 170.544 16.8413 170.408 16.932C170.283 17.0113 170.142 17.051 169.983 17.051C169.836 17.051 169.694 17.0113 169.558 16.932C169.433 16.8413 169.337 16.7223 169.269 16.575L166.923 10.608L164.594 16.575C164.537 16.7223 164.441 16.8413 164.305 16.932C164.169 17.0113 164.022 17.051 163.863 17.051C163.716 17.051 163.574 17.0113 163.438 16.932C163.302 16.8413 163.2 16.7223 163.132 16.575L160.31 9.452C160.276 9.36133 160.259 9.282 160.259 9.214C160.259 9.03267 160.333 8.87967 160.48 8.755C160.639 8.63033 160.809 8.568 160.99 8.568C161.262 8.568 161.455 8.704 161.568 8.976L163.897 15.249L166.294 9.027C166.362 8.87967 166.453 8.76633 166.566 8.687C166.691 8.60767 166.821 8.568 166.957 8.568C167.104 8.568 167.235 8.60767 167.348 8.687C167.473 8.76633 167.563 8.87967 167.62 9.027L170.017 15.232L172.363 8.993ZM176.264 17.085C176.06 17.085 175.89 17.0283 175.754 16.915C175.63 16.7903 175.567 16.6203 175.567 16.405V9.231C175.567 9.01567 175.63 8.85133 175.754 8.738C175.89 8.61333 176.06 8.551 176.264 8.551C176.468 8.551 176.633 8.61333 176.757 8.738C176.882 8.85133 176.944 9.01567 176.944 9.231V16.405C176.944 16.6317 176.882 16.8017 176.757 16.915C176.633 17.0283 176.468 17.085 176.264 17.085ZM176.264 6.766C175.992 6.766 175.771 6.68667 175.601 6.528C175.431 6.36933 175.346 6.15967 175.346 5.899C175.346 5.64967 175.431 5.44567 175.601 5.287C175.771 5.12833 175.992 5.049 176.264 5.049C176.536 5.049 176.757 5.12833 176.927 5.287C177.097 5.44567 177.182 5.64967 177.182 5.899C177.182 6.15967 177.097 6.36933 176.927 6.528C176.757 6.68667 176.536 6.766 176.264 6.766ZM183.476 15.997C183.873 16.031 184.071 16.2123 184.071 16.541C184.071 16.7337 183.998 16.881 183.85 16.983C183.714 17.0737 183.505 17.1077 183.221 17.085L182.762 17.051C181.856 16.983 181.187 16.711 180.756 16.235C180.326 15.759 180.11 15.0393 180.11 14.076V9.809H178.971C178.779 9.809 178.626 9.76367 178.512 9.673C178.41 9.571 178.359 9.44067 178.359 9.282C178.359 9.112 178.41 8.976 178.512 8.874C178.626 8.772 178.779 8.721 178.971 8.721H180.11V6.8C180.11 6.58467 180.173 6.42033 180.297 6.307C180.422 6.18233 180.592 6.12 180.807 6.12C181.011 6.12 181.176 6.18233 181.3 6.307C181.425 6.42033 181.487 6.58467 181.487 6.8V8.721H183.374C183.556 8.721 183.697 8.772 183.799 8.874C183.913 8.976 183.969 9.112 183.969 9.282C183.969 9.44067 183.913 9.571 183.799 9.673C183.697 9.76367 183.556 9.809 183.374 9.809H181.487V14.144C181.487 14.7673 181.612 15.2207 181.861 15.504C182.122 15.776 182.507 15.929 183.017 15.963L183.476 15.997ZM189.611 8.517C190.585 8.517 191.322 8.79467 191.821 9.35C192.319 9.894 192.569 10.71 192.569 11.798V16.405C192.569 16.6203 192.506 16.7903 192.382 16.915C192.257 17.0283 192.093 17.085 191.889 17.085C191.673 17.085 191.503 17.0283 191.379 16.915C191.254 16.7903 191.192 16.6203 191.192 16.405V11.832C191.192 11.0953 191.039 10.5513 190.733 10.2C190.438 9.84867 189.962 9.673 189.305 9.673C188.545 9.673 187.939 9.90533 187.486 10.37C187.032 10.8347 186.806 11.4637 186.806 12.257V16.405C186.806 16.6203 186.743 16.7903 186.619 16.915C186.505 17.0283 186.341 17.085 186.126 17.085C185.91 17.085 185.74 17.0283 185.616 16.915C185.491 16.7903 185.429 16.6203 185.429 16.405V5.593C185.429 5.40033 185.491 5.24167 185.616 5.117C185.752 4.99233 185.922 4.93 186.126 4.93C186.341 4.93 186.505 4.99233 186.619 5.117C186.743 5.23033 186.806 5.389 186.806 5.593V10.047C187.078 9.54833 187.457 9.16867 187.945 8.908C188.432 8.64733 188.987 8.517 189.611 8.517ZM203.656 8.517C204.63 8.517 205.367 8.79467 205.866 9.35C206.364 9.894 206.614 10.71 206.614 11.798V16.405C206.614 16.6203 206.551 16.7903 206.427 16.915C206.302 17.0283 206.138 17.085 205.934 17.085C205.718 17.085 205.548 17.0283 205.424 16.915C205.299 16.7903 205.237 16.6203 205.237 16.405V11.832C205.237 11.0953 205.084 10.5513 204.778 10.2C204.483 9.84867 204.007 9.673 203.35 9.673C202.59 9.673 201.984 9.90533 201.531 10.37C201.077 10.8347 200.851 11.4637 200.851 12.257V16.405C200.851 16.6203 200.788 16.7903 200.664 16.915C200.55 17.0283 200.386 17.085 200.171 17.085C199.955 17.085 199.785 17.0283 199.661 16.915C199.536 16.7903 199.474 16.6203 199.474 16.405V5.593C199.474 5.40033 199.536 5.24167 199.661 5.117C199.797 4.99233 199.967 4.93 200.171 4.93C200.386 4.93 200.55 4.99233 200.664 5.117C200.788 5.23033 200.851 5.389 200.851 5.593V10.047C201.123 9.54833 201.502 9.16867 201.99 8.908C202.477 8.64733 203.032 8.517 203.656 8.517ZM215.545 15.079C215.67 15.079 215.777 15.13 215.868 15.232C215.959 15.334 216.004 15.4643 216.004 15.623C216.004 15.9063 215.806 16.167 215.409 16.405C215.001 16.643 214.57 16.8243 214.117 16.949C213.664 17.0623 213.222 17.119 212.791 17.119C211.51 17.119 210.496 16.7393 209.748 15.98C209.011 15.2207 208.643 14.1723 208.643 12.835C208.643 11.985 208.807 11.237 209.136 10.591C209.465 9.93367 209.924 9.42367 210.513 9.061C211.114 8.69833 211.794 8.517 212.553 8.517C213.63 8.517 214.485 8.86833 215.12 9.571C215.755 10.2737 216.072 11.2257 216.072 12.427C216.072 12.6537 216.027 12.818 215.936 12.92C215.845 13.022 215.698 13.073 215.494 13.073H210.02C210.122 15.0223 211.046 15.997 212.791 15.997C213.233 15.997 213.613 15.9403 213.93 15.827C214.247 15.7023 214.587 15.538 214.95 15.334C215.245 15.164 215.443 15.079 215.545 15.079ZM212.57 9.588C211.845 9.588 211.261 9.81467 210.819 10.268C210.388 10.7213 210.133 11.3617 210.054 12.189H214.865C214.842 11.3503 214.633 10.71 214.236 10.268C213.839 9.81467 213.284 9.588 212.57 9.588ZM221.484 8.517C223.558 8.517 224.595 9.605 224.595 11.781V16.405C224.595 16.609 224.532 16.7733 224.408 16.898C224.294 17.0227 224.136 17.085 223.932 17.085C223.728 17.085 223.563 17.0227 223.439 16.898C223.314 16.7733 223.252 16.609 223.252 16.405V15.589C223.036 16.0763 222.708 16.456 222.266 16.728C221.824 16.9887 221.314 17.119 220.736 17.119C220.203 17.119 219.71 17.0113 219.257 16.796C218.815 16.5807 218.463 16.2803 218.203 15.895C217.942 15.5097 217.812 15.0847 217.812 14.62C217.812 13.9967 217.97 13.515 218.288 13.175C218.605 12.8237 219.126 12.5743 219.852 12.427C220.577 12.2683 221.586 12.189 222.878 12.189H223.252V11.628C223.252 10.948 223.11 10.4493 222.827 10.132C222.555 9.81467 222.107 9.656 221.484 9.656C220.713 9.656 219.931 9.86567 219.138 10.285C218.832 10.4777 218.616 10.574 218.492 10.574C218.356 10.574 218.242 10.523 218.152 10.421C218.061 10.319 218.016 10.1887 218.016 10.03C218.016 9.87133 218.061 9.73533 218.152 9.622C218.254 9.49733 218.412 9.37267 218.628 9.248C219.024 9.02133 219.472 8.84567 219.971 8.721C220.481 8.585 220.985 8.517 221.484 8.517ZM220.923 16.031C221.603 16.031 222.158 15.8043 222.589 15.351C223.031 14.8863 223.252 14.2913 223.252 13.566V13.073H222.946C221.948 13.073 221.189 13.1183 220.668 13.209C220.146 13.2883 219.772 13.43 219.546 13.634C219.33 13.8267 219.223 14.1157 219.223 14.501C219.223 14.943 219.381 15.3113 219.699 15.606C220.027 15.8893 220.435 16.031 220.923 16.031ZM230.94 15.997C231.337 16.031 231.535 16.2123 231.535 16.541C231.535 16.7337 231.462 16.881 231.314 16.983C231.178 17.0737 230.969 17.1077 230.685 17.085L230.226 17.051C229.32 16.983 228.651 16.711 228.22 16.235C227.79 15.759 227.574 15.0393 227.574 14.076V9.809H226.435C226.243 9.809 226.09 9.76367 225.976 9.673C225.874 9.571 225.823 9.44067 225.823 9.282C225.823 9.112 225.874 8.976 225.976 8.874C226.09 8.772 226.243 8.721 226.435 8.721H227.574V6.8C227.574 6.58467 227.637 6.42033 227.761 6.307C227.886 6.18233 228.056 6.12 228.271 6.12C228.475 6.12 228.64 6.18233 228.764 6.307C228.889 6.42033 228.951 6.58467 228.951 6.8V8.721H230.838C231.02 8.721 231.161 8.772 231.263 8.874C231.377 8.976 231.433 9.112 231.433 9.282C231.433 9.44067 231.377 9.571 231.263 9.673C231.161 9.76367 231.02 9.809 230.838 9.809H228.951V14.144C228.951 14.7673 229.076 15.2207 229.325 15.504C229.586 15.776 229.971 15.929 230.481 15.963L230.94 15.997ZM242.107 8.517C243.943 8.517 244.861 9.61067 244.861 11.798V16.405C244.861 16.6203 244.798 16.7903 244.674 16.915C244.549 17.0283 244.385 17.085 244.181 17.085C243.977 17.085 243.807 17.0283 243.671 16.915C243.546 16.7903 243.484 16.6203 243.484 16.405V11.832C243.484 11.0727 243.348 10.523 243.076 10.183C242.804 9.843 242.379 9.673 241.801 9.673C241.109 9.673 240.565 9.90533 240.169 10.37C239.772 10.8347 239.574 11.4637 239.574 12.257V16.405C239.574 16.6203 239.506 16.7903 239.37 16.915C239.245 17.0283 239.081 17.085 238.877 17.085C238.673 17.085 238.508 17.0283 238.384 16.915C238.259 16.7903 238.197 16.6203 238.197 16.405V11.832C238.197 11.0727 238.061 10.523 237.789 10.183C237.517 9.843 237.086 9.673 236.497 9.673C235.817 9.673 235.273 9.90533 234.865 10.37C234.468 10.8347 234.27 11.4637 234.27 12.257V16.405C234.27 16.6203 234.207 16.7903 234.083 16.915C233.958 17.0283 233.794 17.085 233.59 17.085C233.386 17.085 233.216 17.0283 233.08 16.915C232.955 16.7903 232.893 16.6203 232.893 16.405V9.231C232.893 9.027 232.955 8.86267 233.08 8.738C233.216 8.61333 233.386 8.551 233.59 8.551C233.782 8.551 233.941 8.61333 234.066 8.738C234.19 8.85133 234.253 9.01 234.253 9.214V10.03C234.502 9.54267 234.848 9.16867 235.29 8.908C235.732 8.64733 236.242 8.517 236.82 8.517C238.112 8.517 238.956 9.061 239.353 10.149C239.591 9.65033 239.953 9.25367 240.441 8.959C240.928 8.66433 241.483 8.517 242.107 8.517ZM250.752 8.517C252.826 8.517 253.863 9.605 253.863 11.781V16.405C253.863 16.609 253.801 16.7733 253.676 16.898C253.563 17.0227 253.404 17.085 253.2 17.085C252.996 17.085 252.832 17.0227 252.707 16.898C252.583 16.7733 252.52 16.609 252.52 16.405V15.589C252.305 16.0763 251.976 16.456 251.534 16.728C251.092 16.9887 250.582 17.119 250.004 17.119C249.472 17.119 248.979 17.0113 248.525 16.796C248.083 16.5807 247.732 16.2803 247.471 15.895C247.211 15.5097 247.08 15.0847 247.08 14.62C247.08 13.9967 247.239 13.515 247.556 13.175C247.874 12.8237 248.395 12.5743 249.12 12.427C249.846 12.2683 250.854 12.189 252.146 12.189H252.52V11.628C252.52 10.948 252.379 10.4493 252.095 10.132C251.823 9.81467 251.376 9.656 250.752 9.656C249.982 9.656 249.2 9.86567 248.406 10.285C248.1 10.4777 247.885 10.574 247.76 10.574C247.624 10.574 247.511 10.523 247.42 10.421C247.33 10.319 247.284 10.1887 247.284 10.03C247.284 9.87133 247.33 9.73533 247.42 9.622C247.522 9.49733 247.681 9.37267 247.896 9.248C248.293 9.02133 248.741 8.84567 249.239 8.721C249.749 8.585 250.254 8.517 250.752 8.517ZM250.191 16.031C250.871 16.031 251.427 15.8043 251.857 15.351C252.299 14.8863 252.52 14.2913 252.52 13.566V13.073H252.214C251.217 13.073 250.458 13.1183 249.936 13.209C249.415 13.2883 249.041 13.43 248.814 13.634C248.599 13.8267 248.491 14.1157 248.491 14.501C248.491 14.943 248.65 15.3113 248.967 15.606C249.296 15.8893 249.704 16.031 250.191 16.031ZM260.549 8.517C261.274 8.517 261.915 8.69833 262.47 9.061C263.025 9.42367 263.456 9.93367 263.762 10.591C264.068 11.237 264.221 11.9907 264.221 12.852C264.221 13.7133 264.068 14.467 263.762 15.113C263.456 15.7477 263.025 16.2407 262.47 16.592C261.926 16.9433 261.286 17.119 260.549 17.119C259.903 17.119 259.336 16.9773 258.849 16.694C258.373 16.4107 258.01 16.0083 257.761 15.487V19.482C257.761 19.686 257.699 19.8447 257.574 19.958C257.461 20.0827 257.296 20.145 257.081 20.145C256.866 20.145 256.696 20.0827 256.571 19.958C256.446 19.8333 256.384 19.6747 256.384 19.482V9.231C256.384 9.027 256.446 8.86267 256.571 8.738C256.696 8.61333 256.866 8.551 257.081 8.551C257.296 8.551 257.461 8.61333 257.574 8.738C257.699 8.86267 257.761 9.027 257.761 9.231V10.149C258.01 9.62767 258.373 9.22533 258.849 8.942C259.336 8.65867 259.903 8.517 260.549 8.517ZM260.277 15.98C261.082 15.98 261.705 15.708 262.147 15.164C262.589 14.62 262.81 13.8493 262.81 12.852C262.81 11.8547 262.589 11.0783 262.147 10.523C261.705 9.95633 261.082 9.673 260.277 9.673C259.472 9.673 258.849 9.945 258.407 10.489C257.976 11.033 257.761 11.8093 257.761 12.818C257.761 13.8267 257.976 14.6087 258.407 15.164C258.849 15.708 259.472 15.98 260.277 15.98ZM22.4161 27.93C22.6315 27.93 22.8015 27.9923 22.9261 28.117C23.0508 28.2417 23.1131 28.4003 23.1131 28.593V39.405C23.1131 39.609 23.0508 39.7733 22.9261 39.898C22.8015 40.0227 22.6315 40.085 22.4161 40.085C22.2008 40.085 22.0308 40.0227 21.9061 39.898C21.7928 39.7733 21.7361 39.609 21.7361 39.405V38.487C21.4868 39.0083 21.1185 39.4107 20.6311 39.694C20.1551 39.9773 19.5941 40.119 18.9481 40.119C18.2228 40.119 17.5825 39.9377 17.0271 39.575C16.4718 39.2123 16.0411 38.708 15.7351 38.062C15.4291 37.4047 15.2761 36.6453 15.2761 35.784C15.2761 34.934 15.4291 34.186 15.7351 33.54C16.0411 32.894 16.4718 32.3953 17.0271 32.044C17.5825 31.6927 18.2228 31.517 18.9481 31.517C19.5941 31.517 20.1551 31.6587 20.6311 31.942C21.1185 32.2253 21.4868 32.6277 21.7361 33.149V28.593C21.7361 28.389 21.7928 28.2303 21.9061 28.117C22.0308 27.9923 22.2008 27.93 22.4161 27.93ZM19.2201 38.98C20.0248 38.98 20.6425 38.708 21.0731 38.164C21.5151 37.6087 21.7361 36.8267 21.7361 35.818C21.7361 34.8093 21.5151 34.033 21.0731 33.489C20.6425 32.945 20.0248 32.673 19.2201 32.673C18.4155 32.673 17.7865 32.945 17.3331 33.489C16.8911 34.033 16.6701 34.798 16.6701 35.784C16.6701 36.7927 16.8911 37.5803 17.3331 38.147C17.7865 38.7023 18.4155 38.98 19.2201 38.98ZM29.0467 31.517C31.1207 31.517 32.1577 32.605 32.1577 34.781V39.405C32.1577 39.609 32.0953 39.7733 31.9707 39.898C31.8573 40.0227 31.6987 40.085 31.4947 40.085C31.2907 40.085 31.1263 40.0227 31.0017 39.898C30.877 39.7733 30.8147 39.609 30.8147 39.405V38.589C30.5993 39.0763 30.2707 39.456 29.8287 39.728C29.3867 39.9887 28.8767 40.119 28.2987 40.119C27.766 40.119 27.273 40.0113 26.8197 39.796C26.3777 39.5807 26.0263 39.2803 25.7657 38.895C25.505 38.5097 25.3747 38.0847 25.3747 37.62C25.3747 36.9967 25.5333 36.515 25.8507 36.175C26.168 35.8237 26.6893 35.5743 27.4147 35.427C28.14 35.2683 29.1487 35.189 30.4407 35.189H30.8147V34.628C30.8147 33.948 30.673 33.4493 30.3897 33.132C30.1177 32.8147 29.67 32.656 29.0467 32.656C28.276 32.656 27.494 32.8657 26.7007 33.285C26.3947 33.4777 26.1793 33.574 26.0547 33.574C25.9187 33.574 25.8053 33.523 25.7147 33.421C25.624 33.319 25.5787 33.1887 25.5787 33.03C25.5787 32.8713 25.624 32.7353 25.7147 32.622C25.8167 32.4973 25.9753 32.3727 26.1907 32.248C26.5873 32.0213 27.035 31.8457 27.5337 31.721C28.0437 31.585 28.548 31.517 29.0467 31.517ZM28.4857 39.031C29.1657 39.031 29.721 38.8043 30.1517 38.351C30.5937 37.8863 30.8147 37.2913 30.8147 36.566V36.073H30.5087C29.5113 36.073 28.752 36.1183 28.2307 36.209C27.7093 36.2883 27.3353 36.43 27.1087 36.634C26.8933 36.8267 26.7857 37.1157 26.7857 37.501C26.7857 37.943 26.9443 38.3113 27.2617 38.606C27.5903 38.8893 27.9983 39.031 28.4857 39.031ZM38.5033 38.997C38.9 39.031 39.0983 39.2123 39.0983 39.541C39.0983 39.7337 39.0247 39.881 38.8773 39.983C38.7413 40.0737 38.5317 40.1077 38.2483 40.085L37.7893 40.051C36.8827 39.983 36.214 39.711 35.7833 39.235C35.3527 38.759 35.1373 38.0393 35.1373 37.076V32.809H33.9983C33.8057 32.809 33.6527 32.7637 33.5393 32.673C33.4373 32.571 33.3863 32.4407 33.3863 32.282C33.3863 32.112 33.4373 31.976 33.5393 31.874C33.6527 31.772 33.8057 31.721 33.9983 31.721H35.1373V29.8C35.1373 29.5847 35.1997 29.4203 35.3243 29.307C35.449 29.1823 35.619 29.12 35.8343 29.12C36.0383 29.12 36.2027 29.1823 36.3273 29.307C36.452 29.4203 36.5143 29.5847 36.5143 29.8V31.721H38.4013C38.5827 31.721 38.7243 31.772 38.8263 31.874C38.9397 31.976 38.9963 32.112 38.9963 32.282C38.9963 32.4407 38.9397 32.571 38.8263 32.673C38.7243 32.7637 38.5827 32.809 38.4013 32.809H36.5143V37.144C36.5143 37.7673 36.639 38.2207 36.8883 38.504C37.149 38.776 37.5343 38.929 38.0443 38.963L38.5033 38.997ZM43.8387 31.517C45.9127 31.517 46.9497 32.605 46.9497 34.781V39.405C46.9497 39.609 46.8873 39.7733 46.7627 39.898C46.6493 40.0227 46.4907 40.085 46.2867 40.085C46.0827 40.085 45.9183 40.0227 45.7937 39.898C45.669 39.7733 45.6067 39.609 45.6067 39.405V38.589C45.3913 39.0763 45.0627 39.456 44.6207 39.728C44.1787 39.9887 43.6687 40.119 43.0907 40.119C42.558 40.119 42.065 40.0113 41.6117 39.796C41.1697 39.5807 40.8183 39.2803 40.5577 38.895C40.297 38.5097 40.1667 38.0847 40.1667 37.62C40.1667 36.9967 40.3253 36.515 40.6427 36.175C40.96 35.8237 41.4813 35.5743 42.2067 35.427C42.932 35.2683 43.9407 35.189 45.2327 35.189H45.6067V34.628C45.6067 33.948 45.465 33.4493 45.1817 33.132C44.9097 32.8147 44.462 32.656 43.8387 32.656C43.068 32.656 42.286 32.8657 41.4927 33.285C41.1867 33.4777 40.9713 33.574 40.8467 33.574C40.7107 33.574 40.5973 33.523 40.5067 33.421C40.416 33.319 40.3707 33.1887 40.3707 33.03C40.3707 32.8713 40.416 32.7353 40.5067 32.622C40.6087 32.4973 40.7673 32.3727 40.9827 32.248C41.3793 32.0213 41.827 31.8457 42.3257 31.721C42.8357 31.585 43.34 31.517 43.8387 31.517ZM43.2777 39.031C43.9577 39.031 44.513 38.8043 44.9437 38.351C45.3857 37.8863 45.6067 37.2913 45.6067 36.566V36.073H45.3007C44.3033 36.073 43.544 36.1183 43.0227 36.209C42.5013 36.2883 42.1273 36.43 41.9007 36.634C41.6853 36.8267 41.5777 37.1157 41.5777 37.501C41.5777 37.943 41.7363 38.3113 42.0537 38.606C42.3823 38.8893 42.7903 39.031 43.2777 39.031ZM57.6781 38.997C58.0748 39.031 58.2731 39.2123 58.2731 39.541C58.2731 39.7337 58.1995 39.881 58.0521 39.983C57.9161 40.0737 57.7065 40.1077 57.4231 40.085L56.9641 40.051C56.0575 39.983 55.3888 39.711 54.9581 39.235C54.5275 38.759 54.3121 38.0393 54.3121 37.076V32.809H53.1731C52.9805 32.809 52.8275 32.7637 52.7141 32.673C52.6121 32.571 52.5611 32.4407 52.5611 32.282C52.5611 32.112 52.6121 31.976 52.7141 31.874C52.8275 31.772 52.9805 31.721 53.1731 31.721H54.3121V29.8C54.3121 29.5847 54.3745 29.4203 54.4991 29.307C54.6238 29.1823 54.7938 29.12 55.0091 29.12C55.2131 29.12 55.3775 29.1823 55.5021 29.307C55.6268 29.4203 55.6891 29.5847 55.6891 29.8V31.721H57.5761C57.7575 31.721 57.8991 31.772 58.0011 31.874C58.1145 31.976 58.1711 32.112 58.1711 32.282C58.1711 32.4407 58.1145 32.571 58.0011 32.673C57.8991 32.7637 57.7575 32.809 57.5761 32.809H55.6891V37.144C55.6891 37.7673 55.8138 38.2207 56.0631 38.504C56.3238 38.776 56.7091 38.929 57.2191 38.963L57.6781 38.997ZM63.0645 40.119C62.2825 40.119 61.5911 39.9433 60.9905 39.592C60.4011 39.2407 59.9421 38.742 59.6135 38.096C59.2961 37.4387 59.1375 36.6793 59.1375 35.818C59.1375 34.9567 59.2961 34.203 59.6135 33.557C59.9421 32.8997 60.4011 32.3953 60.9905 32.044C61.5911 31.6927 62.2825 31.517 63.0645 31.517C63.8465 31.517 64.5378 31.6927 65.1385 32.044C65.7391 32.3953 66.1981 32.8997 66.5155 33.557C66.8441 34.203 67.0085 34.9567 67.0085 35.818C67.0085 36.6793 66.8441 37.4387 66.5155 38.096C66.1981 38.742 65.7391 39.2407 65.1385 39.592C64.5378 39.9433 63.8465 40.119 63.0645 40.119ZM63.0645 38.98C63.8805 38.98 64.5038 38.7137 64.9345 38.181C65.3765 37.637 65.5975 36.8493 65.5975 35.818C65.5975 34.8093 65.3765 34.033 64.9345 33.489C64.4925 32.9337 63.8691 32.656 63.0645 32.656C62.2598 32.656 61.6365 32.9337 61.1945 33.489C60.7525 34.033 60.5315 34.8093 60.5315 35.818C60.5315 36.838 60.7468 37.62 61.1775 38.164C61.6195 38.708 62.2485 38.98 63.0645 38.98ZM80.09 27.93C80.3053 27.93 80.4753 27.9923 80.6 28.117C80.7246 28.2417 80.787 28.4003 80.787 28.593V39.405C80.787 39.609 80.7246 39.7733 80.6 39.898C80.4753 40.0227 80.3053 40.085 80.09 40.085C79.8746 40.085 79.7046 40.0227 79.58 39.898C79.4666 39.7733 79.41 39.609 79.41 39.405V38.487C79.1606 39.0083 78.7923 39.4107 78.305 39.694C77.829 39.9773 77.268 40.119 76.622 40.119C75.8966 40.119 75.2563 39.9377 74.701 39.575C74.1456 39.2123 73.715 38.708 73.409 38.062C73.103 37.4047 72.95 36.6453 72.95 35.784C72.95 34.934 73.103 34.186 73.409 33.54C73.715 32.894 74.1456 32.3953 74.701 32.044C75.2563 31.6927 75.8966 31.517 76.622 31.517C77.268 31.517 77.829 31.6587 78.305 31.942C78.7923 32.2253 79.1606 32.6277 79.41 33.149V28.593C79.41 28.389 79.4666 28.2303 79.58 28.117C79.7046 27.9923 79.8746 27.93 80.09 27.93ZM76.894 38.98C77.6986 38.98 78.3163 38.708 78.747 38.164C79.189 37.6087 79.41 36.8267 79.41 35.818C79.41 34.8093 79.189 34.033 78.747 33.489C78.3163 32.945 77.6986 32.673 76.894 32.673C76.0893 32.673 75.4603 32.945 75.007 33.489C74.565 34.033 74.344 34.798 74.344 35.784C74.344 36.7927 74.565 37.5803 75.007 38.147C75.4603 38.7023 76.0893 38.98 76.894 38.98ZM84.0345 40.085C83.8305 40.085 83.6605 40.0283 83.5245 39.915C83.3998 39.7903 83.3375 39.6203 83.3375 39.405V32.231C83.3375 32.0157 83.3998 31.8513 83.5245 31.738C83.6605 31.6133 83.8305 31.551 84.0345 31.551C84.2385 31.551 84.4028 31.6133 84.5275 31.738C84.6522 31.8513 84.7145 32.0157 84.7145 32.231V39.405C84.7145 39.6317 84.6522 39.8017 84.5275 39.915C84.4028 40.0283 84.2385 40.085 84.0345 40.085ZM84.0345 29.766C83.7625 29.766 83.5415 29.6867 83.3715 29.528C83.2015 29.3693 83.1165 29.1597 83.1165 28.899C83.1165 28.6497 83.2015 28.4457 83.3715 28.287C83.5415 28.1283 83.7625 28.049 84.0345 28.049C84.3065 28.049 84.5275 28.1283 84.6975 28.287C84.8675 28.4457 84.9525 28.6497 84.9525 28.899C84.9525 29.1597 84.8675 29.3693 84.6975 29.528C84.5275 29.6867 84.3065 29.766 84.0345 29.766ZM90.0767 40.119C89.5553 40.119 89.0567 40.0567 88.5807 39.932C88.116 39.8073 87.7023 39.6317 87.3397 39.405C87.1357 39.269 86.9883 39.1443 86.8977 39.031C86.8183 38.9063 86.7787 38.759 86.7787 38.589C86.7787 38.4417 86.8183 38.3227 86.8977 38.232C86.9883 38.13 87.1017 38.079 87.2377 38.079C87.3737 38.079 87.572 38.164 87.8327 38.334C88.1727 38.538 88.507 38.7023 88.8357 38.827C89.1757 38.9403 89.595 38.997 90.0937 38.997C90.7057 38.997 91.1817 38.8893 91.5217 38.674C91.8617 38.4587 92.0317 38.147 92.0317 37.739C92.0317 37.4897 91.9693 37.2913 91.8447 37.144C91.72 36.9853 91.5047 36.8493 91.1987 36.736C90.8927 36.6113 90.445 36.4867 89.8557 36.362C88.8583 36.1467 88.1443 35.8577 87.7137 35.495C87.283 35.1323 87.0677 34.6393 87.0677 34.016C87.0677 33.5287 87.2037 33.098 87.4757 32.724C87.7477 32.35 88.1217 32.0553 88.5977 31.84C89.085 31.6247 89.6347 31.517 90.2467 31.517C90.6887 31.517 91.1137 31.5793 91.5217 31.704C91.941 31.8173 92.3093 31.9817 92.6267 32.197C93.012 32.469 93.2047 32.7523 93.2047 33.047C93.2047 33.1943 93.1593 33.319 93.0687 33.421C92.978 33.523 92.8703 33.574 92.7457 33.574C92.6097 33.574 92.4057 33.4777 92.1337 33.285C91.8163 33.081 91.516 32.9223 91.2327 32.809C90.9493 32.6957 90.598 32.639 90.1787 32.639C89.646 32.639 89.2153 32.758 88.8867 32.996C88.5693 33.234 88.4107 33.5513 88.4107 33.948C88.4107 34.1973 88.4673 34.4013 88.5807 34.56C88.7053 34.7073 88.9037 34.8433 89.1757 34.968C89.459 35.0813 89.8613 35.1947 90.3827 35.308C91.1533 35.478 91.7483 35.665 92.1677 35.869C92.5983 36.073 92.9043 36.3223 93.0857 36.617C93.267 36.9117 93.3577 37.2857 93.3577 37.739C93.3577 38.453 93.0573 39.031 92.4567 39.473C91.856 39.9037 91.0627 40.119 90.0767 40.119ZM99.6216 31.517C100.347 31.517 100.987 31.6983 101.543 32.061C102.098 32.4237 102.529 32.9337 102.835 33.591C103.141 34.237 103.294 34.9907 103.294 35.852C103.294 36.7133 103.141 37.467 102.835 38.113C102.529 38.7477 102.098 39.2407 101.543 39.592C100.999 39.9433 100.358 40.119 99.6216 40.119C98.9756 40.119 98.409 39.9773 97.9216 39.694C97.4456 39.4107 97.083 39.0083 96.8336 38.487V42.482C96.8336 42.686 96.7713 42.8447 96.6466 42.958C96.5333 43.0827 96.369 43.145 96.1536 43.145C95.9383 43.145 95.7683 43.0827 95.6436 42.958C95.519 42.8333 95.4566 42.6747 95.4566 42.482V32.231C95.4566 32.027 95.519 31.8627 95.6436 31.738C95.7683 31.6133 95.9383 31.551 96.1536 31.551C96.369 31.551 96.5333 31.6133 96.6466 31.738C96.7713 31.8627 96.8336 32.027 96.8336 32.231V33.149C97.083 32.6277 97.4456 32.2253 97.9216 31.942C98.409 31.6587 98.9756 31.517 99.6216 31.517ZM99.3496 38.98C100.154 38.98 100.778 38.708 101.22 38.164C101.662 37.62 101.883 36.8493 101.883 35.852C101.883 34.8547 101.662 34.0783 101.22 33.523C100.778 32.9563 100.154 32.673 99.3496 32.673C98.545 32.673 97.9216 32.945 97.4796 33.489C97.049 34.033 96.8336 34.8093 96.8336 35.818C96.8336 36.8267 97.049 37.6087 97.4796 38.164C97.9216 38.708 98.545 38.98 99.3496 38.98ZM106.048 40.085C105.844 40.085 105.674 40.0283 105.538 39.915C105.414 39.7903 105.351 39.6203 105.351 39.405V28.61C105.351 28.3947 105.414 28.2303 105.538 28.117C105.674 27.9923 105.844 27.93 106.048 27.93C106.241 27.93 106.4 27.9923 106.524 28.117C106.66 28.2303 106.728 28.3947 106.728 28.61V39.405C106.728 39.6203 106.66 39.7903 106.524 39.915C106.4 40.0283 106.241 40.085 106.048 40.085ZM112.685 31.517C114.759 31.517 115.796 32.605 115.796 34.781V39.405C115.796 39.609 115.734 39.7733 115.609 39.898C115.496 40.0227 115.337 40.085 115.133 40.085C114.929 40.085 114.765 40.0227 114.64 39.898C114.516 39.7733 114.453 39.609 114.453 39.405V38.589C114.238 39.0763 113.909 39.456 113.467 39.728C113.025 39.9887 112.515 40.119 111.937 40.119C111.405 40.119 110.912 40.0113 110.458 39.796C110.016 39.5807 109.665 39.2803 109.404 38.895C109.144 38.5097 109.013 38.0847 109.013 37.62C109.013 36.9967 109.172 36.515 109.489 36.175C109.807 35.8237 110.328 35.5743 111.053 35.427C111.779 35.2683 112.787 35.189 114.079 35.189H114.453V34.628C114.453 33.948 114.312 33.4493 114.028 33.132C113.756 32.8147 113.309 32.656 112.685 32.656C111.915 32.656 111.133 32.8657 110.339 33.285C110.033 33.4777 109.818 33.574 109.693 33.574C109.557 33.574 109.444 33.523 109.353 33.421C109.263 33.319 109.217 33.1887 109.217 33.03C109.217 32.8713 109.263 32.7353 109.353 32.622C109.455 32.4973 109.614 32.3727 109.829 32.248C110.226 32.0213 110.674 31.8457 111.172 31.721C111.682 31.585 112.187 31.517 112.685 31.517ZM112.124 39.031C112.804 39.031 113.36 38.8043 113.79 38.351C114.232 37.8863 114.453 37.2913 114.453 36.566V36.073H114.147C113.15 36.073 112.391 36.1183 111.869 36.209C111.348 36.2883 110.974 36.43 110.747 36.634C110.532 36.8267 110.424 37.1157 110.424 37.501C110.424 37.943 110.583 38.3113 110.9 38.606C111.229 38.8893 111.637 39.031 112.124 39.031ZM124.284 31.976C124.409 31.704 124.607 31.568 124.879 31.568C125.049 31.568 125.202 31.6247 125.338 31.738C125.474 31.8513 125.542 31.993 125.542 32.163C125.542 32.265 125.519 32.3557 125.474 32.435L120.697 42.737C120.64 42.8617 120.555 42.958 120.442 43.026C120.34 43.094 120.232 43.128 120.119 43.128C119.949 43.128 119.796 43.0713 119.66 42.958C119.535 42.856 119.473 42.72 119.473 42.55C119.473 42.4593 119.496 42.3687 119.541 42.278L120.731 39.711L117.365 32.435C117.32 32.3557 117.297 32.2707 117.297 32.18C117.297 32.01 117.371 31.8627 117.518 31.738C117.677 31.6133 117.847 31.551 118.028 31.551C118.141 31.551 118.249 31.585 118.351 31.653C118.464 31.721 118.549 31.8173 118.606 31.942L121.445 38.317L124.284 31.976ZM134.815 31.517C136.889 31.517 137.926 32.605 137.926 34.781V39.405C137.926 39.609 137.864 39.7733 137.739 39.898C137.626 40.0227 137.467 40.085 137.263 40.085C137.059 40.085 136.895 40.0227 136.77 39.898C136.646 39.7733 136.583 39.609 136.583 39.405V38.589C136.368 39.0763 136.039 39.456 135.597 39.728C135.155 39.9887 134.645 40.119 134.067 40.119C133.535 40.119 133.042 40.0113 132.588 39.796C132.146 39.5807 131.795 39.2803 131.534 38.895C131.274 38.5097 131.143 38.0847 131.143 37.62C131.143 36.9967 131.302 36.515 131.619 36.175C131.937 35.8237 132.458 35.5743 133.183 35.427C133.909 35.2683 134.917 35.189 136.209 35.189H136.583V34.628C136.583 33.948 136.442 33.4493 136.158 33.132C135.886 32.8147 135.439 32.656 134.815 32.656C134.045 32.656 133.263 32.8657 132.469 33.285C132.163 33.4777 131.948 33.574 131.823 33.574C131.687 33.574 131.574 33.523 131.483 33.421C131.393 33.319 131.347 33.1887 131.347 33.03C131.347 32.8713 131.393 32.7353 131.483 32.622C131.585 32.4973 131.744 32.3727 131.959 32.248C132.356 32.0213 132.804 31.8457 133.302 31.721C133.812 31.585 134.317 31.517 134.815 31.517ZM134.254 39.031C134.934 39.031 135.49 38.8043 135.92 38.351C136.362 37.8863 136.583 37.2913 136.583 36.566V36.073H136.277C135.28 36.073 134.521 36.1183 133.999 36.209C133.478 36.2883 133.104 36.43 132.877 36.634C132.662 36.8267 132.554 37.1157 132.554 37.501C132.554 37.943 132.713 38.3113 133.03 38.606C133.359 38.8893 133.767 39.031 134.254 39.031ZM141.144 40.085C140.94 40.085 140.77 40.0283 140.634 39.915C140.509 39.7903 140.447 39.6203 140.447 39.405V32.231C140.447 32.0157 140.509 31.8513 140.634 31.738C140.77 31.6133 140.94 31.551 141.144 31.551C141.348 31.551 141.512 31.6133 141.637 31.738C141.762 31.8513 141.824 32.0157 141.824 32.231V39.405C141.824 39.6317 141.762 39.8017 141.637 39.915C141.512 40.0283 141.348 40.085 141.144 40.085ZM141.144 29.766C140.872 29.766 140.651 29.6867 140.481 29.528C140.311 29.3693 140.226 29.1597 140.226 28.899C140.226 28.6497 140.311 28.4457 140.481 28.287C140.651 28.1283 140.872 28.049 141.144 28.049C141.416 28.049 141.637 28.1283 141.807 28.287C141.977 28.4457 142.062 28.6497 142.062 28.899C142.062 29.1597 141.977 29.3693 141.807 29.528C141.637 29.6867 141.416 29.766 141.144 29.766ZM148.495 31.551C148.971 31.517 149.209 31.7097 149.209 32.129C149.209 32.3103 149.158 32.4577 149.056 32.571C148.954 32.673 148.778 32.7353 148.529 32.758L148.019 32.809C147.26 32.877 146.693 33.149 146.319 33.625C145.956 34.0897 145.775 34.6393 145.775 35.274V39.405C145.775 39.6317 145.713 39.8017 145.588 39.915C145.463 40.0283 145.299 40.085 145.095 40.085C144.891 40.085 144.721 40.0283 144.585 39.915C144.46 39.7903 144.398 39.6203 144.398 39.405V32.231C144.398 32.0157 144.466 31.8513 144.602 31.738C144.738 31.6133 144.902 31.551 145.095 31.551C145.276 31.551 145.429 31.6133 145.554 31.738C145.679 31.8513 145.741 32.01 145.741 32.214V33.166C145.979 32.6673 146.313 32.2877 146.744 32.027C147.186 31.7663 147.69 31.6133 148.257 31.568L148.495 31.551ZM154.71 29.103C154.11 29.1483 153.656 29.341 153.35 29.681C153.044 30.0097 152.891 30.5083 152.891 31.177V31.721H154.778C154.971 31.721 155.118 31.772 155.22 31.874C155.322 31.976 155.373 32.112 155.373 32.282C155.373 32.452 155.322 32.5823 155.22 32.673C155.118 32.7637 154.971 32.809 154.778 32.809H152.891V39.405C152.891 39.6203 152.823 39.7903 152.687 39.915C152.563 40.0283 152.404 40.085 152.211 40.085C152.007 40.085 151.837 40.0283 151.701 39.915C151.577 39.7903 151.514 39.6203 151.514 39.405V32.809H150.375C150.183 32.809 150.03 32.7637 149.916 32.673C149.814 32.571 149.763 32.4407 149.763 32.282C149.763 32.112 149.814 31.976 149.916 31.874C150.03 31.772 150.183 31.721 150.375 31.721H151.514V31.415C151.514 30.395 151.769 29.596 152.279 29.018C152.789 28.4287 153.52 28.1 154.472 28.032L154.914 27.998C155.209 27.9753 155.419 28.0037 155.543 28.083C155.679 28.1623 155.747 28.304 155.747 28.508C155.747 28.8367 155.549 29.0237 155.152 29.069L154.71 29.103ZM157.328 40.085C157.124 40.085 156.954 40.0283 156.818 39.915C156.694 39.7903 156.631 39.6203 156.631 39.405V28.61C156.631 28.3947 156.694 28.2303 156.818 28.117C156.954 27.9923 157.124 27.93 157.328 27.93C157.521 27.93 157.68 27.9923 157.804 28.117C157.94 28.2303 158.008 28.3947 158.008 28.61V39.405C158.008 39.6203 157.94 39.7903 157.804 39.915C157.68 40.0283 157.521 40.085 157.328 40.085ZM164.002 40.119C163.22 40.119 162.529 39.9433 161.928 39.592C161.339 39.2407 160.88 38.742 160.551 38.096C160.234 37.4387 160.075 36.6793 160.075 35.818C160.075 34.9567 160.234 34.203 160.551 33.557C160.88 32.8997 161.339 32.3953 161.928 32.044C162.529 31.6927 163.22 31.517 164.002 31.517C164.784 31.517 165.475 31.6927 166.076 32.044C166.677 32.3953 167.136 32.8997 167.453 33.557C167.782 34.203 167.946 34.9567 167.946 35.818C167.946 36.6793 167.782 37.4387 167.453 38.096C167.136 38.742 166.677 39.2407 166.076 39.592C165.475 39.9433 164.784 40.119 164.002 40.119ZM164.002 38.98C164.818 38.98 165.441 38.7137 165.872 38.181C166.314 37.637 166.535 36.8493 166.535 35.818C166.535 34.8093 166.314 34.033 165.872 33.489C165.43 32.9337 164.807 32.656 164.002 32.656C163.197 32.656 162.574 32.9337 162.132 33.489C161.69 34.033 161.469 34.8093 161.469 35.818C161.469 36.838 161.684 37.62 162.115 38.164C162.557 38.708 163.186 38.98 164.002 38.98ZM181.22 31.993C181.333 31.721 181.52 31.585 181.781 31.585C181.951 31.585 182.104 31.6417 182.24 31.755C182.376 31.8683 182.444 32.01 182.444 32.18C182.444 32.2593 182.427 32.3443 182.393 32.435L179.571 39.575C179.503 39.7223 179.401 39.8413 179.265 39.932C179.14 40.0113 178.999 40.051 178.84 40.051C178.693 40.051 178.551 40.0113 178.415 39.932C178.29 39.8413 178.194 39.7223 178.126 39.575L175.78 33.608L173.451 39.575C173.394 39.7223 173.298 39.8413 173.162 39.932C173.026 40.0113 172.879 40.051 172.72 40.051C172.573 40.051 172.431 40.0113 172.295 39.932C172.159 39.8413 172.057 39.7223 171.989 39.575L169.167 32.452C169.133 32.3613 169.116 32.282 169.116 32.214C169.116 32.0327 169.19 31.8797 169.337 31.755C169.496 31.6303 169.666 31.568 169.847 31.568C170.119 31.568 170.312 31.704 170.425 31.976L172.754 38.249L175.151 32.027C175.219 31.8797 175.31 31.7663 175.423 31.687C175.548 31.6077 175.678 31.568 175.814 31.568C175.961 31.568 176.092 31.6077 176.205 31.687C176.33 31.7663 176.42 31.8797 176.477 32.027L178.874 38.232L181.22 31.993ZM189.288 40.085C189.084 40.085 188.914 40.0283 188.778 39.915C188.654 39.7903 188.591 39.6203 188.591 39.405V32.231C188.591 32.0157 188.654 31.8513 188.778 31.738C188.914 31.6133 189.084 31.551 189.288 31.551C189.492 31.551 189.657 31.6133 189.781 31.738C189.906 31.8513 189.968 32.0157 189.968 32.231V39.405C189.968 39.6317 189.906 39.8017 189.781 39.915C189.657 40.0283 189.492 40.085 189.288 40.085ZM189.288 29.766C189.016 29.766 188.795 29.6867 188.625 29.528C188.455 29.3693 188.37 29.1597 188.37 28.899C188.37 28.6497 188.455 28.4457 188.625 28.287C188.795 28.1283 189.016 28.049 189.288 28.049C189.56 28.049 189.781 28.1283 189.951 28.287C190.121 28.4457 190.206 28.6497 190.206 28.899C190.206 29.1597 190.121 29.3693 189.951 29.528C189.781 29.6867 189.56 29.766 189.288 29.766ZM196.708 31.517C198.691 31.517 199.683 32.6107 199.683 34.798V39.405C199.683 39.6203 199.62 39.7903 199.496 39.915C199.382 40.0283 199.218 40.085 199.003 40.085C198.787 40.085 198.617 40.0283 198.493 39.915C198.368 39.7903 198.306 39.6203 198.306 39.405V34.883C198.306 34.1123 198.153 33.5513 197.847 33.2C197.552 32.8487 197.076 32.673 196.419 32.673C195.659 32.673 195.053 32.9053 194.6 33.37C194.146 33.8347 193.92 34.4637 193.92 35.257V39.405C193.92 39.6203 193.857 39.7903 193.733 39.915C193.619 40.0283 193.455 40.085 193.24 40.085C193.024 40.085 192.854 40.0283 192.73 39.915C192.605 39.7903 192.543 39.6203 192.543 39.405V32.231C192.543 32.027 192.605 31.8627 192.73 31.738C192.854 31.6133 193.024 31.551 193.24 31.551C193.444 31.551 193.602 31.6133 193.716 31.738C193.84 31.8627 193.903 32.0213 193.903 32.214V33.081C194.175 32.571 194.554 32.1857 195.042 31.925C195.529 31.653 196.084 31.517 196.708 31.517ZM209.971 31.517C212.045 31.517 213.082 32.605 213.082 34.781V39.405C213.082 39.609 213.019 39.7733 212.895 39.898C212.781 40.0227 212.623 40.085 212.419 40.085C212.215 40.085 212.05 40.0227 211.926 39.898C211.801 39.7733 211.739 39.609 211.739 39.405V38.589C211.523 39.0763 211.195 39.456 210.753 39.728C210.311 39.9887 209.801 40.119 209.223 40.119C208.69 40.119 208.197 40.0113 207.744 39.796C207.302 39.5807 206.95 39.2803 206.69 38.895C206.429 38.5097 206.299 38.0847 206.299 37.62C206.299 36.9967 206.457 36.515 206.775 36.175C207.092 35.8237 207.613 35.5743 208.339 35.427C209.064 35.2683 210.073 35.189 211.365 35.189H211.739V34.628C211.739 33.948 211.597 33.4493 211.314 33.132C211.042 32.8147 210.594 32.656 209.971 32.656C209.2 32.656 208.418 32.8657 207.625 33.285C207.319 33.4777 207.103 33.574 206.979 33.574C206.843 33.574 206.729 33.523 206.639 33.421C206.548 33.319 206.503 33.1887 206.503 33.03C206.503 32.8713 206.548 32.7353 206.639 32.622C206.741 32.4973 206.899 32.3727 207.115 32.248C207.511 32.0213 207.959 31.8457 208.458 31.721C208.968 31.585 209.472 31.517 209.971 31.517ZM209.41 39.031C210.09 39.031 210.645 38.8043 211.076 38.351C211.518 37.8863 211.739 37.2913 211.739 36.566V36.073H211.433C210.435 36.073 209.676 36.1183 209.155 36.209C208.633 36.2883 208.259 36.43 208.033 36.634C207.817 36.8267 207.71 37.1157 207.71 37.501C207.71 37.943 207.868 38.3113 208.186 38.606C208.514 38.8893 208.922 39.031 209.41 39.031ZM224.082 31.551C224.558 31.517 224.796 31.7097 224.796 32.129C224.796 32.3103 224.745 32.4577 224.643 32.571C224.541 32.673 224.365 32.7353 224.116 32.758L223.606 32.809C222.847 32.877 222.28 33.149 221.906 33.625C221.543 34.0897 221.362 34.6393 221.362 35.274V39.405C221.362 39.6317 221.3 39.8017 221.175 39.915C221.05 40.0283 220.886 40.085 220.682 40.085C220.478 40.085 220.308 40.0283 220.172 39.915C220.047 39.7903 219.985 39.6203 219.985 39.405V32.231C219.985 32.0157 220.053 31.8513 220.189 31.738C220.325 31.6133 220.489 31.551 220.682 31.551C220.863 31.551 221.016 31.6133 221.141 31.738C221.266 31.8513 221.328 32.01 221.328 32.214V33.166C221.566 32.6673 221.9 32.2877 222.331 32.027C222.773 31.7663 223.277 31.6133 223.844 31.568L224.082 31.551ZM232.221 38.079C232.346 38.079 232.453 38.13 232.544 38.232C232.635 38.334 232.68 38.4643 232.68 38.623C232.68 38.9063 232.482 39.167 232.085 39.405C231.677 39.643 231.246 39.8243 230.793 39.949C230.34 40.0623 229.898 40.119 229.467 40.119C228.186 40.119 227.172 39.7393 226.424 38.98C225.687 38.2207 225.319 37.1723 225.319 35.835C225.319 34.985 225.483 34.237 225.812 33.591C226.141 32.9337 226.6 32.4237 227.189 32.061C227.79 31.6983 228.47 31.517 229.229 31.517C230.306 31.517 231.161 31.8683 231.796 32.571C232.431 33.2737 232.748 34.2257 232.748 35.427C232.748 35.6537 232.703 35.818 232.612 35.92C232.521 36.022 232.374 36.073 232.17 36.073H226.696C226.798 38.0223 227.722 38.997 229.467 38.997C229.909 38.997 230.289 38.9403 230.606 38.827C230.923 38.7023 231.263 38.538 231.626 38.334C231.921 38.164 232.119 38.079 232.221 38.079ZM229.246 32.588C228.521 32.588 227.937 32.8147 227.495 33.268C227.064 33.7213 226.809 34.3617 226.73 35.189H231.541C231.518 34.3503 231.309 33.71 230.912 33.268C230.515 32.8147 229.96 32.588 229.246 32.588ZM241.492 31.551C241.707 31.551 241.877 31.6133 242.002 31.738C242.127 31.8627 242.189 32.027 242.189 32.231V39.439C242.189 40.6743 241.872 41.6037 241.237 42.227C240.602 42.8617 239.662 43.179 238.415 43.179C237.202 43.179 236.194 42.941 235.389 42.465C234.981 42.2383 234.777 41.9777 234.777 41.683C234.777 41.5243 234.817 41.394 234.896 41.292C234.987 41.19 235.1 41.139 235.236 41.139C235.349 41.139 235.553 41.2183 235.848 41.377C236.245 41.581 236.636 41.7453 237.021 41.87C237.406 41.9947 237.865 42.057 238.398 42.057C239.203 42.057 239.809 41.8417 240.217 41.411C240.625 40.9917 240.829 40.374 240.829 39.558V38.096C240.591 38.6287 240.223 39.0367 239.724 39.32C239.237 39.6033 238.659 39.745 237.99 39.745C237.265 39.745 236.619 39.575 236.052 39.235C235.497 38.895 235.06 38.4133 234.743 37.79C234.437 37.1667 234.284 36.447 234.284 35.631C234.284 34.815 234.437 34.0953 234.743 33.472C235.06 32.8487 235.497 32.367 236.052 32.027C236.619 31.687 237.265 31.517 237.99 31.517C238.647 31.517 239.22 31.6587 239.707 31.942C240.194 32.2253 240.563 32.6277 240.812 33.149V32.231C240.812 32.027 240.869 31.8627 240.982 31.738C241.107 31.6133 241.277 31.551 241.492 31.551ZM238.262 38.606C239.055 38.606 239.679 38.3453 240.132 37.824C240.585 37.2913 240.812 36.5603 240.812 35.631C240.812 34.713 240.585 33.9933 240.132 33.472C239.69 32.9393 239.067 32.673 238.262 32.673C237.457 32.673 236.823 32.9393 236.358 33.472C235.905 33.9933 235.678 34.713 235.678 35.631C235.678 36.5603 235.905 37.2913 236.358 37.824C236.823 38.3453 237.457 38.606 238.262 38.606ZM245.435 40.085C245.231 40.085 245.061 40.0283 244.925 39.915C244.8 39.7903 244.738 39.6203 244.738 39.405V32.231C244.738 32.0157 244.8 31.8513 244.925 31.738C245.061 31.6133 245.231 31.551 245.435 31.551C245.639 31.551 245.803 31.6133 245.928 31.738C246.053 31.8513 246.115 32.0157 246.115 32.231V39.405C246.115 39.6317 246.053 39.8017 245.928 39.915C245.803 40.0283 245.639 40.085 245.435 40.085ZM245.435 29.766C245.163 29.766 244.942 29.6867 244.772 29.528C244.602 29.3693 244.517 29.1597 244.517 28.899C244.517 28.6497 244.602 28.4457 244.772 28.287C244.942 28.1283 245.163 28.049 245.435 28.049C245.707 28.049 245.928 28.1283 246.098 28.287C246.268 28.4457 246.353 28.6497 246.353 28.899C246.353 29.1597 246.268 29.3693 246.098 29.528C245.928 29.6867 245.707 29.766 245.435 29.766ZM252.123 40.119C251.341 40.119 250.65 39.9433 250.049 39.592C249.46 39.2407 249.001 38.742 248.672 38.096C248.355 37.4387 248.196 36.6793 248.196 35.818C248.196 34.9567 248.355 34.203 248.672 33.557C249.001 32.8997 249.46 32.3953 250.049 32.044C250.65 31.6927 251.341 31.517 252.123 31.517C252.905 31.517 253.596 31.6927 254.197 32.044C254.798 32.3953 255.257 32.8997 255.574 33.557C255.903 34.203 256.067 34.9567 256.067 35.818C256.067 36.6793 255.903 37.4387 255.574 38.096C255.257 38.742 254.798 39.2407 254.197 39.592C253.596 39.9433 252.905 40.119 252.123 40.119ZM252.123 38.98C252.939 38.98 253.562 38.7137 253.993 38.181C254.435 37.637 254.656 36.8493 254.656 35.818C254.656 34.8093 254.435 34.033 253.993 33.489C253.551 32.9337 252.928 32.656 252.123 32.656C251.318 32.656 250.695 32.9337 250.253 33.489C249.811 34.033 249.59 34.8093 249.59 35.818C249.59 36.838 249.805 37.62 250.236 38.164C250.678 38.708 251.307 38.98 252.123 38.98ZM262.284 31.517C264.267 31.517 265.259 32.6107 265.259 34.798V39.405C265.259 39.6203 265.196 39.7903 265.072 39.915C264.958 40.0283 264.794 40.085 264.579 40.085C264.363 40.085 264.193 40.0283 264.069 39.915C263.944 39.7903 263.882 39.6203 263.882 39.405V34.883C263.882 34.1123 263.729 33.5513 263.423 33.2C263.128 32.8487 262.652 32.673 261.995 32.673C261.235 32.673 260.629 32.9053 260.176 33.37C259.722 33.8347 259.496 34.4637 259.496 35.257V39.405C259.496 39.6203 259.433 39.7903 259.309 39.915C259.195 40.0283 259.031 40.085 258.816 40.085C258.6 40.085 258.43 40.0283 258.306 39.915C258.181 39.7903 258.119 39.6203 258.119 39.405V32.231C258.119 32.027 258.181 31.8627 258.306 31.738C258.43 31.6133 258.6 31.551 258.816 31.551C259.02 31.551 259.178 31.6133 259.292 31.738C259.416 31.8627 259.479 32.0213 259.479 32.214V33.081C259.751 32.571 260.13 32.1857 260.618 31.925C261.105 31.653 261.66 31.517 262.284 31.517ZM21.2439 54.517C23.3179 54.517 24.3549 55.605 24.3549 57.781V62.405C24.3549 62.609 24.2926 62.7733 24.1679 62.898C24.0546 63.0227 23.8959 63.085 23.6919 63.085C23.4879 63.085 23.3236 63.0227 23.1989 62.898C23.0743 62.7733 23.0119 62.609 23.0119 62.405V61.589C22.7966 62.0763 22.4679 62.456 22.0259 62.728C21.5839 62.9887 21.0739 63.119 20.4959 63.119C19.9633 63.119 19.4703 63.0113 19.0169 62.796C18.5749 62.5807 18.2236 62.2803 17.9629 61.895C17.7023 61.5097 17.5719 61.0847 17.5719 60.62C17.5719 59.9967 17.7306 59.515 18.0479 59.175C18.3653 58.8237 18.8866 58.5743 19.6119 58.427C20.3373 58.2683 21.3459 58.189 22.6379 58.189H23.0119V57.628C23.0119 56.948 22.8703 56.4493 22.5869 56.132C22.3149 55.8147 21.8673 55.656 21.2439 55.656C20.4733 55.656 19.6913 55.8657 18.8979 56.285C18.5919 56.4777 18.3766 56.574 18.2519 56.574C18.1159 56.574 18.0026 56.523 17.9119 56.421C17.8213 56.319 17.7759 56.1887 17.7759 56.03C17.7759 55.8713 17.8213 55.7353 17.9119 55.622C18.0139 55.4973 18.1726 55.3727 18.3879 55.248C18.7846 55.0213 19.2323 54.8457 19.7309 54.721C20.2409 54.585 20.7453 54.517 21.2439 54.517ZM20.6829 62.031C21.3629 62.031 21.9183 61.8043 22.3489 61.351C22.7909 60.8863 23.0119 60.2913 23.0119 59.566V59.073H22.7059C21.7086 59.073 20.9493 59.1183 20.4279 59.209C19.9066 59.2883 19.5326 59.43 19.3059 59.634C19.0906 59.8267 18.9829 60.1157 18.9829 60.501C18.9829 60.943 19.1416 61.3113 19.4589 61.606C19.7876 61.8893 20.1956 62.031 20.6829 62.031ZM31.0406 54.517C33.0239 54.517 34.0156 55.6107 34.0156 57.798V62.405C34.0156 62.6203 33.9533 62.7903 33.8286 62.915C33.7153 63.0283 33.5509 63.085 33.3356 63.085C33.1203 63.085 32.9503 63.0283 32.8256 62.915C32.7009 62.7903 32.6386 62.6203 32.6386 62.405V57.883C32.6386 57.1123 32.4856 56.5513 32.1796 56.2C31.8849 55.8487 31.4089 55.673 30.7516 55.673C29.9923 55.673 29.3859 55.9053 28.9326 56.37C28.4793 56.8347 28.2526 57.4637 28.2526 58.257V62.405C28.2526 62.6203 28.1903 62.7903 28.0656 62.915C27.9523 63.0283 27.7879 63.085 27.5726 63.085C27.3573 63.085 27.1873 63.0283 27.0626 62.915C26.9379 62.7903 26.8756 62.6203 26.8756 62.405V55.231C26.8756 55.027 26.9379 54.8627 27.0626 54.738C27.1873 54.6133 27.3573 54.551 27.5726 54.551C27.7766 54.551 27.9353 54.6133 28.0486 54.738C28.1733 54.8627 28.2356 55.0213 28.2356 55.214V56.081C28.5076 55.571 28.8873 55.1857 29.3746 54.925C29.8619 54.653 30.4173 54.517 31.0406 54.517ZM43.1847 50.93C43.4 50.93 43.57 50.9923 43.6947 51.117C43.8194 51.2417 43.8817 51.4003 43.8817 51.593V62.405C43.8817 62.609 43.8194 62.7733 43.6947 62.898C43.57 63.0227 43.4 63.085 43.1847 63.085C42.9694 63.085 42.7994 63.0227 42.6747 62.898C42.5614 62.7733 42.5047 62.609 42.5047 62.405V61.487C42.2554 62.0083 41.887 62.4107 41.3997 62.694C40.9237 62.9773 40.3627 63.119 39.7167 63.119C38.9914 63.119 38.351 62.9377 37.7957 62.575C37.2404 62.2123 36.8097 61.708 36.5037 61.062C36.1977 60.4047 36.0447 59.6453 36.0447 58.784C36.0447 57.934 36.1977 57.186 36.5037 56.54C36.8097 55.894 37.2404 55.3953 37.7957 55.044C38.351 54.6927 38.9914 54.517 39.7167 54.517C40.3627 54.517 40.9237 54.6587 41.3997 54.942C41.887 55.2253 42.2554 55.6277 42.5047 56.149V51.593C42.5047 51.389 42.5614 51.2303 42.6747 51.117C42.7994 50.9923 42.9694 50.93 43.1847 50.93ZM39.9887 61.98C40.7934 61.98 41.411 61.708 41.8417 61.164C42.2837 60.6087 42.5047 59.8267 42.5047 58.818C42.5047 57.8093 42.2837 57.033 41.8417 56.489C41.411 55.945 40.7934 55.673 39.9887 55.673C39.184 55.673 38.555 55.945 38.1017 56.489C37.6597 57.033 37.4387 57.798 37.4387 58.784C37.4387 59.7927 37.6597 60.5803 38.1017 61.147C38.555 61.7023 39.184 61.98 39.9887 61.98ZM51.512 63.085C51.308 63.085 51.138 63.0283 51.002 62.915C50.8774 62.7903 50.815 62.6203 50.815 62.405V55.231C50.815 55.0157 50.8774 54.8513 51.002 54.738C51.138 54.6133 51.308 54.551 51.512 54.551C51.716 54.551 51.8804 54.6133 52.005 54.738C52.1297 54.8513 52.192 55.0157 52.192 55.231V62.405C52.192 62.6317 52.1297 62.8017 52.005 62.915C51.8804 63.0283 51.716 63.085 51.512 63.085ZM51.512 52.766C51.24 52.766 51.019 52.6867 50.849 52.528C50.679 52.3693 50.594 52.1597 50.594 51.899C50.594 51.6497 50.679 51.4457 50.849 51.287C51.019 51.1283 51.24 51.049 51.512 51.049C51.784 51.049 52.005 51.1283 52.175 51.287C52.345 51.4457 52.43 51.6497 52.43 51.899C52.43 52.1597 52.345 52.3693 52.175 52.528C52.005 52.6867 51.784 52.766 51.512 52.766ZM58.4212 52.103C57.8205 52.1483 57.3672 52.341 57.0612 52.681C56.7552 53.0097 56.6022 53.5083 56.6022 54.177V54.721H58.4892C58.6819 54.721 58.8292 54.772 58.9312 54.874C59.0332 54.976 59.0842 55.112 59.0842 55.282C59.0842 55.452 59.0332 55.5823 58.9312 55.673C58.8292 55.7637 58.6819 55.809 58.4892 55.809H56.6022V62.405C56.6022 62.6203 56.5342 62.7903 56.3982 62.915C56.2735 63.0283 56.1149 63.085 55.9222 63.085C55.7182 63.085 55.5482 63.0283 55.4122 62.915C55.2875 62.7903 55.2252 62.6203 55.2252 62.405V55.809H54.0862C53.8935 55.809 53.7405 55.7637 53.6272 55.673C53.5252 55.571 53.4742 55.4407 53.4742 55.282C53.4742 55.112 53.5252 54.976 53.6272 54.874C53.7405 54.772 53.8935 54.721 54.0862 54.721H55.2252V54.415C55.2252 53.395 55.4802 52.596 55.9902 52.018C56.5002 51.4287 57.2312 51.1 58.1832 51.032L58.6252 50.998C58.9199 50.9753 59.1295 51.0037 59.2542 51.083C59.3902 51.1623 59.4582 51.304 59.4582 51.508C59.4582 51.8367 59.2599 52.0237 58.8632 52.069L58.4212 52.103ZM68.1101 54.517C70.1841 54.517 71.2211 55.605 71.2211 57.781V62.405C71.2211 62.609 71.1588 62.7733 71.0341 62.898C70.9208 63.0227 70.7621 63.085 70.5581 63.085C70.3541 63.085 70.1898 63.0227 70.0651 62.898C69.9405 62.7733 69.8781 62.609 69.8781 62.405V61.589C69.6628 62.0763 69.3341 62.456 68.8921 62.728C68.4501 62.9887 67.9401 63.119 67.3621 63.119C66.8295 63.119 66.3365 63.0113 65.8831 62.796C65.4411 62.5807 65.0898 62.2803 64.8291 61.895C64.5685 61.5097 64.4381 61.0847 64.4381 60.62C64.4381 59.9967 64.5968 59.515 64.9141 59.175C65.2315 58.8237 65.7528 58.5743 66.4781 58.427C67.2035 58.2683 68.2121 58.189 69.5041 58.189H69.8781V57.628C69.8781 56.948 69.7365 56.4493 69.4531 56.132C69.1811 55.8147 68.7335 55.656 68.1101 55.656C67.3395 55.656 66.5575 55.8657 65.7641 56.285C65.4581 56.4777 65.2428 56.574 65.1181 56.574C64.9821 56.574 64.8688 56.523 64.7781 56.421C64.6875 56.319 64.6421 56.1887 64.6421 56.03C64.6421 55.8713 64.6875 55.7353 64.7781 55.622C64.8801 55.4973 65.0388 55.3727 65.2541 55.248C65.6508 55.0213 66.0985 54.8457 66.5971 54.721C67.1071 54.585 67.6115 54.517 68.1101 54.517ZM67.5491 62.031C68.2291 62.031 68.7845 61.8043 69.2151 61.351C69.6571 60.8863 69.8781 60.2913 69.8781 59.566V59.073H69.5721C68.5748 59.073 67.8155 59.1183 67.2941 59.209C66.7728 59.2883 66.3988 59.43 66.1721 59.634C65.9568 59.8267 65.8491 60.1157 65.8491 60.501C65.8491 60.943 66.0078 61.3113 66.3251 61.606C66.6538 61.8893 67.0618 62.031 67.5491 62.031ZM77.9068 54.517C79.8901 54.517 80.8818 55.6107 80.8818 57.798V62.405C80.8818 62.6203 80.8195 62.7903 80.6948 62.915C80.5815 63.0283 80.4171 63.085 80.2018 63.085C79.9865 63.085 79.8165 63.0283 79.6918 62.915C79.5671 62.7903 79.5048 62.6203 79.5048 62.405V57.883C79.5048 57.1123 79.3518 56.5513 79.0458 56.2C78.7511 55.8487 78.2751 55.673 77.6178 55.673C76.8585 55.673 76.2521 55.9053 75.7988 56.37C75.3455 56.8347 75.1188 57.4637 75.1188 58.257V62.405C75.1188 62.6203 75.0565 62.7903 74.9318 62.915C74.8185 63.0283 74.6541 63.085 74.4388 63.085C74.2235 63.085 74.0535 63.0283 73.9288 62.915C73.8041 62.7903 73.7418 62.6203 73.7418 62.405V55.231C73.7418 55.027 73.8041 54.8627 73.9288 54.738C74.0535 54.6133 74.2235 54.551 74.4388 54.551C74.6428 54.551 74.8015 54.6133 74.9148 54.738C75.0395 54.8627 75.1018 55.0213 75.1018 55.214V56.081C75.3738 55.571 75.7535 55.1857 76.2408 54.925C76.7281 54.653 77.2835 54.517 77.9068 54.517ZM89.3709 54.976C89.4956 54.704 89.6939 54.568 89.9659 54.568C90.1359 54.568 90.2889 54.6247 90.4249 54.738C90.5609 54.8513 90.6289 54.993 90.6289 55.163C90.6289 55.265 90.6062 55.3557 90.5609 55.435L85.7839 65.737C85.7272 65.8617 85.6422 65.958 85.5289 66.026C85.4269 66.094 85.3192 66.128 85.2059 66.128C85.0359 66.128 84.8829 66.0713 84.7469 65.958C84.6222 65.856 84.5599 65.72 84.5599 65.55C84.5599 65.4593 84.5826 65.3687 84.6279 65.278L85.8179 62.711L82.4519 55.435C82.4066 55.3557 82.3839 55.2707 82.3839 55.18C82.3839 55.01 82.4576 54.8627 82.6049 54.738C82.7636 54.6133 82.9336 54.551 83.1149 54.551C83.2282 54.551 83.3359 54.585 83.4379 54.653C83.5512 54.721 83.6362 54.8173 83.6929 54.942L86.5319 61.317L89.3709 54.976ZM100.701 54.517C101.676 54.517 102.412 54.7947 102.911 55.35C103.41 55.894 103.659 56.71 103.659 57.798V62.405C103.659 62.6203 103.597 62.7903 103.472 62.915C103.347 63.0283 103.183 63.085 102.979 63.085C102.764 63.085 102.594 63.0283 102.469 62.915C102.344 62.7903 102.282 62.6203 102.282 62.405V57.832C102.282 57.0953 102.129 56.5513 101.823 56.2C101.528 55.8487 101.052 55.673 100.395 55.673C99.6358 55.673 99.0295 55.9053 98.5761 56.37C98.1228 56.8347 97.8961 57.4637 97.8961 58.257V62.405C97.8961 62.6203 97.8338 62.7903 97.7091 62.915C97.5958 63.0283 97.4315 63.085 97.2161 63.085C97.0008 63.085 96.8308 63.0283 96.7061 62.915C96.5815 62.7903 96.5191 62.6203 96.5191 62.405V51.593C96.5191 51.4003 96.5815 51.2417 96.7061 51.117C96.8421 50.9923 97.0121 50.93 97.2161 50.93C97.4315 50.93 97.5958 50.9923 97.7091 51.117C97.8338 51.2303 97.8961 51.389 97.8961 51.593V56.047C98.1681 55.5483 98.5478 55.1687 99.0351 54.908C99.5225 54.6473 100.078 54.517 100.701 54.517ZM109.564 54.517C111.638 54.517 112.675 55.605 112.675 57.781V62.405C112.675 62.609 112.613 62.7733 112.488 62.898C112.375 63.0227 112.216 63.085 112.012 63.085C111.808 63.085 111.644 63.0227 111.519 62.898C111.395 62.7733 111.332 62.609 111.332 62.405V61.589C111.117 62.0763 110.788 62.456 110.346 62.728C109.904 62.9887 109.394 63.119 108.816 63.119C108.284 63.119 107.791 63.0113 107.337 62.796C106.895 62.5807 106.544 62.2803 106.283 61.895C106.023 61.5097 105.892 61.0847 105.892 60.62C105.892 59.9967 106.051 59.515 106.368 59.175C106.686 58.8237 107.207 58.5743 107.932 58.427C108.658 58.2683 109.666 58.189 110.958 58.189H111.332V57.628C111.332 56.948 111.191 56.4493 110.907 56.132C110.635 55.8147 110.188 55.656 109.564 55.656C108.794 55.656 108.012 55.8657 107.218 56.285C106.912 56.4777 106.697 56.574 106.572 56.574C106.436 56.574 106.323 56.523 106.232 56.421C106.142 56.319 106.096 56.1887 106.096 56.03C106.096 55.8713 106.142 55.7353 106.232 55.622C106.334 55.4973 106.493 55.3727 106.708 55.248C107.105 55.0213 107.553 54.8457 108.051 54.721C108.561 54.585 109.066 54.517 109.564 54.517ZM109.003 62.031C109.683 62.031 110.239 61.8043 110.669 61.351C111.111 60.8863 111.332 60.2913 111.332 59.566V59.073H111.026C110.029 59.073 109.27 59.1183 108.748 59.209C108.227 59.2883 107.853 59.43 107.626 59.634C107.411 59.8267 107.303 60.1157 107.303 60.501C107.303 60.943 107.462 61.3113 107.779 61.606C108.108 61.8893 108.516 62.031 109.003 62.031ZM121.282 61.912C121.475 61.912 121.622 61.963 121.724 62.065C121.826 62.1557 121.877 62.286 121.877 62.456C121.877 62.626 121.826 62.762 121.724 62.864C121.622 62.9547 121.475 63 121.282 63H115.332C115.139 63 114.981 62.9433 114.856 62.83C114.731 62.7053 114.669 62.558 114.669 62.388C114.669 62.2067 114.737 62.031 114.873 61.861L119.905 55.809H115.247C115.054 55.809 114.901 55.7637 114.788 55.673C114.686 55.571 114.635 55.4407 114.635 55.282C114.635 55.112 114.686 54.976 114.788 54.874C114.901 54.772 115.054 54.721 115.247 54.721H121.01C121.214 54.721 121.378 54.7833 121.503 54.908C121.628 55.0213 121.69 55.163 121.69 55.333C121.69 55.5143 121.622 55.69 121.486 55.86L116.437 61.912H121.282ZM127.046 54.517C129.12 54.517 130.157 55.605 130.157 57.781V62.405C130.157 62.609 130.094 62.7733 129.97 62.898C129.856 63.0227 129.698 63.085 129.494 63.085C129.29 63.085 129.125 63.0227 129.001 62.898C128.876 62.7733 128.814 62.609 128.814 62.405V61.589C128.598 62.0763 128.27 62.456 127.828 62.728C127.386 62.9887 126.876 63.119 126.298 63.119C125.765 63.119 125.272 63.0113 124.819 62.796C124.377 62.5807 124.025 62.2803 123.765 61.895C123.504 61.5097 123.374 61.0847 123.374 60.62C123.374 59.9967 123.532 59.515 123.85 59.175C124.167 58.8237 124.688 58.5743 125.414 58.427C126.139 58.2683 127.148 58.189 128.44 58.189H128.814V57.628C128.814 56.948 128.672 56.4493 128.389 56.132C128.117 55.8147 127.669 55.656 127.046 55.656C126.275 55.656 125.493 55.8657 124.7 56.285C124.394 56.4777 124.178 56.574 124.054 56.574C123.918 56.574 123.804 56.523 123.714 56.421C123.623 56.319 123.578 56.1887 123.578 56.03C123.578 55.8713 123.623 55.7353 123.714 55.622C123.816 55.4973 123.974 55.3727 124.19 55.248C124.586 55.0213 125.034 54.8457 125.533 54.721C126.043 54.585 126.547 54.517 127.046 54.517ZM126.485 62.031C127.165 62.031 127.72 61.8043 128.151 61.351C128.593 60.8863 128.814 60.2913 128.814 59.566V59.073H128.508C127.51 59.073 126.751 59.1183 126.23 59.209C125.708 59.2883 125.334 59.43 125.108 59.634C124.892 59.8267 124.785 60.1157 124.785 60.501C124.785 60.943 124.943 61.3113 125.261 61.606C125.589 61.8893 125.997 62.031 126.485 62.031ZM136.774 54.551C137.25 54.517 137.488 54.7097 137.488 55.129C137.488 55.3103 137.437 55.4577 137.335 55.571C137.233 55.673 137.058 55.7353 136.808 55.758L136.298 55.809C135.539 55.877 134.972 56.149 134.598 56.625C134.236 57.0897 134.054 57.6393 134.054 58.274V62.405C134.054 62.6317 133.992 62.8017 133.867 62.915C133.743 63.0283 133.578 63.085 133.374 63.085C133.17 63.085 133 63.0283 132.864 62.915C132.74 62.7903 132.677 62.6203 132.677 62.405V55.231C132.677 55.0157 132.745 54.8513 132.881 54.738C133.017 54.6133 133.182 54.551 133.374 54.551C133.556 54.551 133.709 54.6133 133.833 54.738C133.958 54.8513 134.02 55.01 134.02 55.214V56.166C134.258 55.6673 134.593 55.2877 135.023 55.027C135.465 54.7663 135.97 54.6133 136.536 54.568L136.774 54.551ZM145.151 50.93C145.367 50.93 145.537 50.9923 145.661 51.117C145.786 51.2417 145.848 51.4003 145.848 51.593V62.405C145.848 62.609 145.786 62.7733 145.661 62.898C145.537 63.0227 145.367 63.085 145.151 63.085C144.936 63.085 144.766 63.0227 144.641 62.898C144.528 62.7733 144.471 62.609 144.471 62.405V61.487C144.222 62.0083 143.854 62.4107 143.366 62.694C142.89 62.9773 142.329 63.119 141.683 63.119C140.958 63.119 140.318 62.9377 139.762 62.575C139.207 62.2123 138.776 61.708 138.47 61.062C138.164 60.4047 138.011 59.6453 138.011 58.784C138.011 57.934 138.164 57.186 138.47 56.54C138.776 55.894 139.207 55.3953 139.762 55.044C140.318 54.6927 140.958 54.517 141.683 54.517C142.329 54.517 142.89 54.6587 143.366 54.942C143.854 55.2253 144.222 55.6277 144.471 56.149V51.593C144.471 51.389 144.528 51.2303 144.641 51.117C144.766 50.9923 144.936 50.93 145.151 50.93ZM141.955 61.98C142.76 61.98 143.378 61.708 143.808 61.164C144.25 60.6087 144.471 59.8267 144.471 58.818C144.471 57.8093 144.25 57.033 143.808 56.489C143.378 55.945 142.76 55.673 141.955 55.673C141.151 55.673 140.522 55.945 140.068 56.489C139.626 57.033 139.405 57.798 139.405 58.784C139.405 59.7927 139.626 60.5803 140.068 61.147C140.522 61.7023 141.151 61.98 141.955 61.98ZM151.833 63.119C151.051 63.119 150.36 62.9433 149.759 62.592C149.17 62.2407 148.711 61.742 148.382 61.096C148.065 60.4387 147.906 59.6793 147.906 58.818C147.906 57.9567 148.065 57.203 148.382 56.557C148.711 55.8997 149.17 55.3953 149.759 55.044C150.36 54.6927 151.051 54.517 151.833 54.517C152.615 54.517 153.306 54.6927 153.907 55.044C154.508 55.3953 154.967 55.8997 155.284 56.557C155.613 57.203 155.777 57.9567 155.777 58.818C155.777 59.6793 155.613 60.4387 155.284 61.096C154.967 61.742 154.508 62.2407 153.907 62.592C153.306 62.9433 152.615 63.119 151.833 63.119ZM151.833 61.98C152.649 61.98 153.272 61.7137 153.703 61.181C154.145 60.637 154.366 59.8493 154.366 58.818C154.366 57.8093 154.145 57.033 153.703 56.489C153.261 55.9337 152.638 55.656 151.833 55.656C151.028 55.656 150.405 55.9337 149.963 56.489C149.521 57.033 149.3 57.8093 149.3 58.818C149.3 59.838 149.515 60.62 149.946 61.164C150.388 61.708 151.017 61.98 151.833 61.98ZM164.119 54.551C164.334 54.551 164.498 54.6133 164.612 54.738C164.736 54.8627 164.799 55.027 164.799 55.231V62.422C164.799 62.6147 164.736 62.7733 164.612 62.898C164.498 63.0227 164.334 63.085 164.119 63.085C163.915 63.085 163.75 63.0283 163.626 62.915C163.512 62.7903 163.456 62.6317 163.456 62.439V61.589C163.195 62.0877 162.827 62.4673 162.351 62.728C161.886 62.9887 161.359 63.119 160.77 63.119C159.784 63.119 159.041 62.847 158.543 62.303C158.044 61.7477 157.795 60.9317 157.795 59.855V55.231C157.795 55.027 157.857 54.8627 157.982 54.738C158.106 54.6133 158.276 54.551 158.492 54.551C158.707 54.551 158.871 54.6133 158.985 54.738C159.109 54.8627 159.172 55.027 159.172 55.231V59.821C159.172 60.5577 159.319 61.1017 159.614 61.453C159.908 61.793 160.373 61.963 161.008 61.963C161.733 61.963 162.317 61.7307 162.759 61.266C163.201 60.79 163.422 60.1667 163.422 59.396V55.231C163.422 55.027 163.484 54.8627 163.609 54.738C163.733 54.6133 163.903 54.551 164.119 54.551ZM170.146 63.119C169.625 63.119 169.126 63.0567 168.65 62.932C168.185 62.8073 167.772 62.6317 167.409 62.405C167.205 62.269 167.058 62.1443 166.967 62.031C166.888 61.9063 166.848 61.759 166.848 61.589C166.848 61.4417 166.888 61.3227 166.967 61.232C167.058 61.13 167.171 61.079 167.307 61.079C167.443 61.079 167.641 61.164 167.902 61.334C168.242 61.538 168.576 61.7023 168.905 61.827C169.245 61.9403 169.664 61.997 170.163 61.997C170.775 61.997 171.251 61.8893 171.591 61.674C171.931 61.4587 172.101 61.147 172.101 60.739C172.101 60.4897 172.039 60.2913 171.914 60.144C171.789 59.9853 171.574 59.8493 171.268 59.736C170.962 59.6113 170.514 59.4867 169.925 59.362C168.928 59.1467 168.214 58.8577 167.783 58.495C167.352 58.1323 167.137 57.6393 167.137 57.016C167.137 56.5287 167.273 56.098 167.545 55.724C167.817 55.35 168.191 55.0553 168.667 54.84C169.154 54.6247 169.704 54.517 170.316 54.517C170.758 54.517 171.183 54.5793 171.591 54.704C172.01 54.8173 172.379 54.9817 172.696 55.197C173.081 55.469 173.274 55.7523 173.274 56.047C173.274 56.1943 173.229 56.319 173.138 56.421C173.047 56.523 172.94 56.574 172.815 56.574C172.679 56.574 172.475 56.4777 172.203 56.285C171.886 56.081 171.585 55.9223 171.302 55.809C171.019 55.6957 170.667 55.639 170.248 55.639C169.715 55.639 169.285 55.758 168.956 55.996C168.639 56.234 168.48 56.5513 168.48 56.948C168.48 57.1973 168.537 57.4013 168.65 57.56C168.775 57.7073 168.973 57.8433 169.245 57.968C169.528 58.0813 169.931 58.1947 170.452 58.308C171.223 58.478 171.818 58.665 172.237 58.869C172.668 59.073 172.974 59.3223 173.155 59.617C173.336 59.9117 173.427 60.2857 173.427 60.739C173.427 61.453 173.127 62.031 172.526 62.473C171.925 62.9037 171.132 63.119 170.146 63.119ZM183.292 54.517C185.366 54.517 186.403 55.605 186.403 57.781V62.405C186.403 62.609 186.34 62.7733 186.216 62.898C186.102 63.0227 185.944 63.085 185.74 63.085C185.536 63.085 185.371 63.0227 185.247 62.898C185.122 62.7733 185.06 62.609 185.06 62.405V61.589C184.844 62.0763 184.516 62.456 184.074 62.728C183.632 62.9887 183.122 63.119 182.544 63.119C182.011 63.119 181.518 63.0113 181.065 62.796C180.623 62.5807 180.271 62.2803 180.011 61.895C179.75 61.5097 179.62 61.0847 179.62 60.62C179.62 59.9967 179.778 59.515 180.096 59.175C180.413 58.8237 180.934 58.5743 181.66 58.427C182.385 58.2683 183.394 58.189 184.686 58.189H185.06V57.628C185.06 56.948 184.918 56.4493 184.635 56.132C184.363 55.8147 183.915 55.656 183.292 55.656C182.521 55.656 181.739 55.8657 180.946 56.285C180.64 56.4777 180.424 56.574 180.3 56.574C180.164 56.574 180.05 56.523 179.96 56.421C179.869 56.319 179.824 56.1887 179.824 56.03C179.824 55.8713 179.869 55.7353 179.96 55.622C180.062 55.4973 180.22 55.3727 180.436 55.248C180.832 55.0213 181.28 54.8457 181.779 54.721C182.289 54.585 182.793 54.517 183.292 54.517ZM182.731 62.031C183.411 62.031 183.966 61.8043 184.397 61.351C184.839 60.8863 185.06 60.2913 185.06 59.566V59.073H184.754C183.756 59.073 182.997 59.1183 182.476 59.209C181.954 59.2883 181.58 59.43 181.354 59.634C181.138 59.8267 181.031 60.1157 181.031 60.501C181.031 60.943 181.189 61.3113 181.507 61.606C181.835 61.8893 182.243 62.031 182.731 62.031ZM193.02 54.551C193.496 54.517 193.734 54.7097 193.734 55.129C193.734 55.3103 193.683 55.4577 193.581 55.571C193.479 55.673 193.304 55.7353 193.054 55.758L192.544 55.809C191.785 55.877 191.218 56.149 190.844 56.625C190.482 57.0897 190.3 57.6393 190.3 58.274V62.405C190.3 62.6317 190.238 62.8017 190.113 62.915C189.989 63.0283 189.824 63.085 189.62 63.085C189.416 63.085 189.246 63.0283 189.11 62.915C188.986 62.7903 188.923 62.6203 188.923 62.405V55.231C188.923 55.0157 188.991 54.8513 189.127 54.738C189.263 54.6133 189.428 54.551 189.62 54.551C189.802 54.551 189.955 54.6133 190.079 54.738C190.204 54.8513 190.266 55.01 190.266 55.214V56.166C190.504 55.6673 190.839 55.2877 191.269 55.027C191.711 54.7663 192.216 54.6133 192.782 54.568L193.02 54.551ZM201.16 61.079C201.284 61.079 201.392 61.13 201.483 61.232C201.573 61.334 201.619 61.4643 201.619 61.623C201.619 61.9063 201.42 62.167 201.024 62.405C200.616 62.643 200.185 62.8243 199.732 62.949C199.278 63.0623 198.836 63.119 198.406 63.119C197.125 63.119 196.111 62.7393 195.363 61.98C194.626 61.2207 194.258 60.1723 194.258 58.835C194.258 57.985 194.422 57.237 194.751 56.591C195.079 55.9337 195.538 55.4237 196.128 55.061C196.728 54.6983 197.408 54.517 198.168 54.517C199.244 54.517 200.1 54.8683 200.735 55.571C201.369 56.2737 201.687 57.2257 201.687 58.427C201.687 58.6537 201.641 58.818 201.551 58.92C201.46 59.022 201.313 59.073 201.109 59.073H195.635C195.737 61.0223 196.66 61.997 198.406 61.997C198.848 61.997 199.227 61.9403 199.545 61.827C199.862 61.7023 200.202 61.538 200.565 61.334C200.859 61.164 201.058 61.079 201.16 61.079ZM198.185 55.588C197.459 55.588 196.876 55.8147 196.434 56.268C196.003 56.7213 195.748 57.3617 195.669 58.189H200.48C200.457 57.3503 200.247 56.71 199.851 56.268C199.454 55.8147 198.899 55.588 198.185 55.588ZM207.098 54.517C209.172 54.517 210.209 55.605 210.209 57.781V62.405C210.209 62.609 210.147 62.7733 210.022 62.898C209.909 63.0227 209.75 63.085 209.546 63.085C209.342 63.085 209.178 63.0227 209.053 62.898C208.929 62.7733 208.866 62.609 208.866 62.405V61.589C208.651 62.0763 208.322 62.456 207.88 62.728C207.438 62.9887 206.928 63.119 206.35 63.119C205.818 63.119 205.325 63.0113 204.871 62.796C204.429 62.5807 204.078 62.2803 203.817 61.895C203.557 61.5097 203.426 61.0847 203.426 60.62C203.426 59.9967 203.585 59.515 203.902 59.175C204.22 58.8237 204.741 58.5743 205.466 58.427C206.192 58.2683 207.2 58.189 208.492 58.189H208.866V57.628C208.866 56.948 208.725 56.4493 208.441 56.132C208.169 55.8147 207.722 55.656 207.098 55.656C206.328 55.656 205.546 55.8657 204.752 56.285C204.446 56.4777 204.231 56.574 204.106 56.574C203.97 56.574 203.857 56.523 203.766 56.421C203.676 56.319 203.63 56.1887 203.63 56.03C203.63 55.8713 203.676 55.7353 203.766 55.622C203.868 55.4973 204.027 55.3727 204.242 55.248C204.639 55.0213 205.087 54.8457 205.585 54.721C206.095 54.585 206.6 54.517 207.098 54.517ZM206.537 62.031C207.217 62.031 207.773 61.8043 208.203 61.351C208.645 60.8863 208.866 60.2913 208.866 59.566V59.073H208.56C207.563 59.073 206.804 59.1183 206.282 59.209C205.761 59.2883 205.387 59.43 205.16 59.634C204.945 59.8267 204.837 60.1157 204.837 60.501C204.837 60.943 204.996 61.3113 205.313 61.606C205.642 61.8893 206.05 62.031 206.537 62.031ZM220.768 52.103C220.167 52.1483 219.714 52.341 219.408 52.681C219.102 53.0097 218.949 53.5083 218.949 54.177V54.721H220.836C221.029 54.721 221.176 54.772 221.278 54.874C221.38 54.976 221.431 55.112 221.431 55.282C221.431 55.452 221.38 55.5823 221.278 55.673C221.176 55.7637 221.029 55.809 220.836 55.809H218.949V62.405C218.949 62.6203 218.881 62.7903 218.745 62.915C218.62 63.0283 218.462 63.085 218.269 63.085C218.065 63.085 217.895 63.0283 217.759 62.915C217.634 62.7903 217.572 62.6203 217.572 62.405V55.809H216.433C216.24 55.809 216.087 55.7637 215.974 55.673C215.872 55.571 215.821 55.4407 215.821 55.282C215.821 55.112 215.872 54.976 215.974 54.874C216.087 54.772 216.24 54.721 216.433 54.721H217.572V54.415C217.572 53.395 217.827 52.596 218.337 52.018C218.847 51.4287 219.578 51.1 220.53 51.032L220.972 50.998C221.267 50.9753 221.476 51.0037 221.601 51.083C221.737 51.1623 221.805 51.304 221.805 51.508C221.805 51.8367 221.607 52.0237 221.21 52.069L220.768 52.103ZM225.991 54.517C228.065 54.517 229.102 55.605 229.102 57.781V62.405C229.102 62.609 229.04 62.7733 228.915 62.898C228.802 63.0227 228.643 63.085 228.439 63.085C228.235 63.085 228.071 63.0227 227.946 62.898C227.821 62.7733 227.759 62.609 227.759 62.405V61.589C227.544 62.0763 227.215 62.456 226.773 62.728C226.331 62.9887 225.821 63.119 225.243 63.119C224.71 63.119 224.217 63.0113 223.764 62.796C223.322 62.5807 222.971 62.2803 222.71 61.895C222.449 61.5097 222.319 61.0847 222.319 60.62C222.319 59.9967 222.478 59.515 222.795 59.175C223.112 58.8237 223.634 58.5743 224.359 58.427C225.084 58.2683 226.093 58.189 227.385 58.189H227.759V57.628C227.759 56.948 227.617 56.4493 227.334 56.132C227.062 55.8147 226.614 55.656 225.991 55.656C225.22 55.656 224.438 55.8657 223.645 56.285C223.339 56.4777 223.124 56.574 222.999 56.574C222.863 56.574 222.75 56.523 222.659 56.421C222.568 56.319 222.523 56.1887 222.523 56.03C222.523 55.8713 222.568 55.7353 222.659 55.622C222.761 55.4973 222.92 55.3727 223.135 55.248C223.532 55.0213 223.979 54.8457 224.478 54.721C224.988 54.585 225.492 54.517 225.991 54.517ZM225.43 62.031C226.11 62.031 226.665 61.8043 227.096 61.351C227.538 60.8863 227.759 60.2913 227.759 59.566V59.073H227.453C226.456 59.073 225.696 59.1183 225.175 59.209C224.654 59.2883 224.28 59.43 224.053 59.634C223.838 59.8267 223.73 60.1157 223.73 60.501C223.73 60.943 223.889 61.3113 224.206 61.606C224.535 61.8893 224.943 62.031 225.43 62.031ZM232.32 63.085C232.116 63.085 231.946 63.0283 231.81 62.915C231.685 62.7903 231.623 62.6203 231.623 62.405V51.61C231.623 51.3947 231.685 51.2303 231.81 51.117C231.946 50.9923 232.116 50.93 232.32 50.93C232.512 50.93 232.671 50.9923 232.796 51.117C232.932 51.2303 233 51.3947 233 51.61V62.405C233 62.6203 232.932 62.7903 232.796 62.915C232.671 63.0283 232.512 63.085 232.32 63.085ZM236.271 63.085C236.067 63.085 235.897 63.0283 235.761 62.915C235.636 62.7903 235.574 62.6203 235.574 62.405V51.61C235.574 51.3947 235.636 51.2303 235.761 51.117C235.897 50.9923 236.067 50.93 236.271 50.93C236.463 50.93 236.622 50.9923 236.747 51.117C236.883 51.2303 236.951 51.3947 236.951 51.61V62.405C236.951 62.6203 236.883 62.7903 236.747 62.915C236.622 63.0283 236.463 63.085 236.271 63.085ZM242.313 63.119C241.792 63.119 241.293 63.0567 240.817 62.932C240.352 62.8073 239.939 62.6317 239.576 62.405C239.372 62.269 239.225 62.1443 239.134 62.031C239.055 61.9063 239.015 61.759 239.015 61.589C239.015 61.4417 239.055 61.3227 239.134 61.232C239.225 61.13 239.338 61.079 239.474 61.079C239.61 61.079 239.808 61.164 240.069 61.334C240.409 61.538 240.743 61.7023 241.072 61.827C241.412 61.9403 241.831 61.997 242.33 61.997C242.942 61.997 243.418 61.8893 243.758 61.674C244.098 61.4587 244.268 61.147 244.268 60.739C244.268 60.4897 244.206 60.2913 244.081 60.144C243.956 59.9853 243.741 59.8493 243.435 59.736C243.129 59.6113 242.681 59.4867 242.092 59.362C241.095 59.1467 240.381 58.8577 239.95 58.495C239.519 58.1323 239.304 57.6393 239.304 57.016C239.304 56.5287 239.44 56.098 239.712 55.724C239.984 55.35 240.358 55.0553 240.834 54.84C241.321 54.6247 241.871 54.517 242.483 54.517C242.925 54.517 243.35 54.5793 243.758 54.704C244.177 54.8173 244.546 54.9817 244.863 55.197C245.248 55.469 245.441 55.7523 245.441 56.047C245.441 56.1943 245.396 56.319 245.305 56.421C245.214 56.523 245.107 56.574 244.982 56.574C244.846 56.574 244.642 56.4777 244.37 56.285C244.053 56.081 243.752 55.9223 243.469 55.809C243.186 55.6957 242.834 55.639 242.415 55.639C241.882 55.639 241.452 55.758 241.123 55.996C240.806 56.234 240.647 56.5513 240.647 56.948C240.647 57.1973 240.704 57.4013 240.817 57.56C240.942 57.7073 241.14 57.8433 241.412 57.968C241.695 58.0813 242.098 58.1947 242.619 58.308C243.39 58.478 243.985 58.665 244.404 58.869C244.835 59.073 245.141 59.3223 245.322 59.617C245.503 59.9117 245.594 60.2857 245.594 60.739C245.594 61.453 245.294 62.031 244.693 62.473C244.092 62.9037 243.299 63.119 242.313 63.119ZM252.773 63.085C252.569 63.085 252.399 63.0283 252.263 62.915C252.138 62.7903 252.076 62.6203 252.076 62.405V55.231C252.076 55.0157 252.138 54.8513 252.263 54.738C252.399 54.6133 252.569 54.551 252.773 54.551C252.977 54.551 253.141 54.6133 253.266 54.738C253.39 54.8513 253.453 55.0157 253.453 55.231V62.405C253.453 62.6317 253.39 62.8017 253.266 62.915C253.141 63.0283 252.977 63.085 252.773 63.085ZM252.773 52.766C252.501 52.766 252.28 52.6867 252.11 52.528C251.94 52.3693 251.855 52.1597 251.855 51.899C251.855 51.6497 251.94 51.4457 252.11 51.287C252.28 51.1283 252.501 51.049 252.773 51.049C253.045 51.049 253.266 51.1283 253.436 51.287C253.606 51.4457 253.691 51.6497 253.691 51.899C253.691 52.1597 253.606 52.3693 253.436 52.528C253.266 52.6867 253.045 52.766 252.773 52.766ZM260.192 54.517C262.175 54.517 263.167 55.6107 263.167 57.798V62.405C263.167 62.6203 263.105 62.7903 262.98 62.915C262.867 63.0283 262.702 63.085 262.487 63.085C262.272 63.085 262.102 63.0283 261.977 62.915C261.852 62.7903 261.79 62.6203 261.79 62.405V57.883C261.79 57.1123 261.637 56.5513 261.331 56.2C261.036 55.8487 260.56 55.673 259.903 55.673C259.144 55.673 258.537 55.9053 258.084 56.37C257.631 56.8347 257.404 57.4637 257.404 58.257V62.405C257.404 62.6203 257.342 62.7903 257.217 62.915C257.104 63.0283 256.939 63.085 256.724 63.085C256.509 63.085 256.339 63.0283 256.214 62.915C256.089 62.7903 256.027 62.6203 256.027 62.405V55.231C256.027 55.027 256.089 54.8627 256.214 54.738C256.339 54.6133 256.509 54.551 256.724 54.551C256.928 54.551 257.087 54.6133 257.2 54.738C257.325 54.8627 257.387 55.0213 257.387 55.214V56.081C257.659 55.571 258.039 55.1857 258.526 54.925C259.013 54.653 259.569 54.517 260.192 54.517ZM90.4991 77.517C91.2244 77.517 91.8647 77.6983 92.4201 78.061C92.9754 78.4237 93.4061 78.9337 93.7121 79.591C94.0181 80.237 94.1711 80.9907 94.1711 81.852C94.1711 82.7133 94.0181 83.467 93.7121 84.113C93.4061 84.7477 92.9754 85.2407 92.4201 85.592C91.8761 85.9433 91.2357 86.119 90.4991 86.119C89.8531 86.119 89.2864 85.9773 88.7991 85.694C88.3231 85.4107 87.9604 85.0083 87.7111 84.487V88.482C87.7111 88.686 87.6487 88.8447 87.5241 88.958C87.4107 89.0827 87.2464 89.145 87.0311 89.145C86.8157 89.145 86.6457 89.0827 86.5211 88.958C86.3964 88.8333 86.3341 88.6747 86.3341 88.482V78.231C86.3341 78.027 86.3964 77.8627 86.5211 77.738C86.6457 77.6133 86.8157 77.551 87.0311 77.551C87.2464 77.551 87.4107 77.6133 87.5241 77.738C87.6487 77.8627 87.7111 78.027 87.7111 78.231V79.149C87.9604 78.6277 88.3231 78.2253 88.7991 77.942C89.2864 77.6587 89.8531 77.517 90.4991 77.517ZM90.2271 84.98C91.0317 84.98 91.6551 84.708 92.0971 84.164C92.5391 83.62 92.7601 82.8493 92.7601 81.852C92.7601 80.8547 92.5391 80.0783 92.0971 79.523C91.6551 78.9563 91.0317 78.673 90.2271 78.673C89.4224 78.673 88.7991 78.945 88.3571 79.489C87.9264 80.033 87.7111 80.8093 87.7111 81.818C87.7111 82.8267 87.9264 83.6087 88.3571 84.164C88.7991 84.708 89.4224 84.98 90.2271 84.98ZM99.6116 77.517C101.686 77.517 102.723 78.605 102.723 80.781V85.405C102.723 85.609 102.66 85.7733 102.536 85.898C102.422 86.0227 102.264 86.085 102.06 86.085C101.856 86.085 101.691 86.0227 101.567 85.898C101.442 85.7733 101.38 85.609 101.38 85.405V84.589C101.164 85.0763 100.836 85.456 100.394 85.728C99.9516 85.9887 99.4416 86.119 98.8636 86.119C98.3309 86.119 97.8379 86.0113 97.3846 85.796C96.9426 85.5807 96.5913 85.2803 96.3306 84.895C96.0699 84.5097 95.9396 84.0847 95.9396 83.62C95.9396 82.9967 96.0983 82.515 96.4156 82.175C96.7329 81.8237 97.2543 81.5743 97.9796 81.427C98.7049 81.2683 99.7136 81.189 101.006 81.189H101.38V80.628C101.38 79.948 101.238 79.4493 100.955 79.132C100.683 78.8147 100.235 78.656 99.6116 78.656C98.8409 78.656 98.0589 78.8657 97.2656 79.285C96.9596 79.4777 96.7443 79.574 96.6196 79.574C96.4836 79.574 96.3703 79.523 96.2796 79.421C96.1889 79.319 96.1436 79.1887 96.1436 79.03C96.1436 78.8713 96.1889 78.7353 96.2796 78.622C96.3816 78.4973 96.5403 78.3727 96.7556 78.248C97.1523 78.0213 97.5999 77.8457 98.0986 77.721C98.6086 77.585 99.1129 77.517 99.6116 77.517ZM99.0506 85.031C99.7306 85.031 100.286 84.8043 100.717 84.351C101.159 83.8863 101.38 83.2913 101.38 82.566V82.073H101.074C100.076 82.073 99.3169 82.1183 98.7956 82.209C98.2743 82.2883 97.9003 82.43 97.6736 82.634C97.4583 82.8267 97.3506 83.1157 97.3506 83.501C97.3506 83.943 97.5093 84.3113 97.8266 84.606C98.1553 84.8893 98.5633 85.031 99.0506 85.031ZM109.068 84.997C109.465 85.031 109.663 85.2123 109.663 85.541C109.663 85.7337 109.59 85.881 109.442 85.983C109.306 86.0737 109.097 86.1077 108.813 86.085L108.354 86.051C107.448 85.983 106.779 85.711 106.348 85.235C105.918 84.759 105.702 84.0393 105.702 83.076V78.809H104.563C104.371 78.809 104.218 78.7637 104.104 78.673C104.002 78.571 103.951 78.4407 103.951 78.282C103.951 78.112 104.002 77.976 104.104 77.874C104.218 77.772 104.371 77.721 104.563 77.721H105.702V75.8C105.702 75.5847 105.765 75.4203 105.889 75.307C106.014 75.1823 106.184 75.12 106.399 75.12C106.603 75.12 106.768 75.1823 106.892 75.307C107.017 75.4203 107.079 75.5847 107.079 75.8V77.721H108.966C109.148 77.721 109.289 77.772 109.391 77.874C109.505 77.976 109.561 78.112 109.561 78.282C109.561 78.4407 109.505 78.571 109.391 78.673C109.289 78.7637 109.148 78.809 108.966 78.809H107.079V83.144C107.079 83.7673 107.204 84.2207 107.453 84.504C107.714 84.776 108.099 84.929 108.609 84.963L109.068 84.997ZM115.203 77.517C116.177 77.517 116.914 77.7947 117.413 78.35C117.911 78.894 118.161 79.71 118.161 80.798V85.405C118.161 85.6203 118.098 85.7903 117.974 85.915C117.849 86.0283 117.685 86.085 117.481 86.085C117.265 86.085 117.095 86.0283 116.971 85.915C116.846 85.7903 116.784 85.6203 116.784 85.405V80.832C116.784 80.0953 116.631 79.5513 116.325 79.2C116.03 78.8487 115.554 78.673 114.897 78.673C114.137 78.673 113.531 78.9053 113.078 79.37C112.624 79.8347 112.398 80.4637 112.398 81.257V85.405C112.398 85.6203 112.335 85.7903 112.211 85.915C112.097 86.0283 111.933 86.085 111.718 86.085C111.502 86.085 111.332 86.0283 111.208 85.915C111.083 85.7903 111.021 85.6203 111.021 85.405V74.593C111.021 74.4003 111.083 74.2417 111.208 74.117C111.344 73.9923 111.514 73.93 111.718 73.93C111.933 73.93 112.097 73.9923 112.211 74.117C112.335 74.2303 112.398 74.389 112.398 74.593V79.047C112.67 78.5483 113.049 78.1687 113.537 77.908C114.024 77.6473 114.579 77.517 115.203 77.517ZM128.5 86.119C127.718 86.119 127.026 85.9433 126.426 85.592C125.836 85.2407 125.377 84.742 125.049 84.096C124.731 83.4387 124.573 82.6793 124.573 81.818C124.573 80.9567 124.731 80.203 125.049 79.557C125.377 78.8997 125.836 78.3953 126.426 78.044C127.026 77.6927 127.718 77.517 128.5 77.517C129.282 77.517 129.973 77.6927 130.574 78.044C131.174 78.3953 131.633 78.8997 131.951 79.557C132.279 80.203 132.444 80.9567 132.444 81.818C132.444 82.6793 132.279 83.4387 131.951 84.096C131.633 84.742 131.174 85.2407 130.574 85.592C129.973 85.9433 129.282 86.119 128.5 86.119ZM128.5 84.98C129.316 84.98 129.939 84.7137 130.37 84.181C130.812 83.637 131.033 82.8493 131.033 81.818C131.033 80.8093 130.812 80.033 130.37 79.489C129.928 78.9337 129.304 78.656 128.5 78.656C127.695 78.656 127.072 78.9337 126.63 79.489C126.188 80.033 125.967 80.8093 125.967 81.818C125.967 82.838 126.182 83.62 126.613 84.164C127.055 84.708 127.684 84.98 128.5 84.98ZM138.134 75.103C137.533 75.1483 137.08 75.341 136.774 75.681C136.468 76.0097 136.315 76.5083 136.315 77.177V77.721H138.202C138.394 77.721 138.542 77.772 138.644 77.874C138.746 77.976 138.797 78.112 138.797 78.282C138.797 78.452 138.746 78.5823 138.644 78.673C138.542 78.7637 138.394 78.809 138.202 78.809H136.315V85.405C136.315 85.6203 136.247 85.7903 136.111 85.915C135.986 86.0283 135.827 86.085 135.635 86.085C135.431 86.085 135.261 86.0283 135.125 85.915C135 85.7903 134.938 85.6203 134.938 85.405V78.809H133.799C133.606 78.809 133.453 78.7637 133.34 78.673C133.238 78.571 133.187 78.4407 133.187 78.282C133.187 78.112 133.238 77.976 133.34 77.874C133.453 77.772 133.606 77.721 133.799 77.721H134.938V77.415C134.938 76.395 135.193 75.596 135.703 75.018C136.213 74.4287 136.944 74.1 137.896 74.032L138.338 73.998C138.632 73.9753 138.842 74.0037 138.967 74.083C139.103 74.1623 139.171 74.304 139.171 74.508C139.171 74.8367 138.972 75.0237 138.576 75.069L138.134 75.103ZM147.823 77.517C149.897 77.517 150.934 78.605 150.934 80.781V85.405C150.934 85.609 150.871 85.7733 150.747 85.898C150.633 86.0227 150.475 86.085 150.271 86.085C150.067 86.085 149.902 86.0227 149.778 85.898C149.653 85.7733 149.591 85.609 149.591 85.405V84.589C149.375 85.0763 149.047 85.456 148.605 85.728C148.163 85.9887 147.653 86.119 147.075 86.119C146.542 86.119 146.049 86.0113 145.596 85.796C145.154 85.5807 144.802 85.2803 144.542 84.895C144.281 84.5097 144.151 84.0847 144.151 83.62C144.151 82.9967 144.309 82.515 144.627 82.175C144.944 81.8237 145.465 81.5743 146.191 81.427C146.916 81.2683 147.925 81.189 149.217 81.189H149.591V80.628C149.591 79.948 149.449 79.4493 149.166 79.132C148.894 78.8147 148.446 78.656 147.823 78.656C147.052 78.656 146.27 78.8657 145.477 79.285C145.171 79.4777 144.955 79.574 144.831 79.574C144.695 79.574 144.581 79.523 144.491 79.421C144.4 79.319 144.355 79.1887 144.355 79.03C144.355 78.8713 144.4 78.7353 144.491 78.622C144.593 78.4973 144.751 78.3727 144.967 78.248C145.363 78.0213 145.811 77.8457 146.31 77.721C146.82 77.585 147.324 77.517 147.823 77.517ZM147.262 85.031C147.942 85.031 148.497 84.8043 148.928 84.351C149.37 83.8863 149.591 83.2913 149.591 82.566V82.073H149.285C148.287 82.073 147.528 82.1183 147.007 82.209C146.485 82.2883 146.111 82.43 145.885 82.634C145.669 82.8267 145.562 83.1157 145.562 83.501C145.562 83.943 145.72 84.3113 146.038 84.606C146.366 84.8893 146.774 85.031 147.262 85.031ZM154.151 86.085C153.947 86.085 153.777 86.0283 153.641 85.915C153.517 85.7903 153.454 85.6203 153.454 85.405V78.231C153.454 78.0157 153.517 77.8513 153.641 77.738C153.777 77.6133 153.947 77.551 154.151 77.551C154.355 77.551 154.52 77.6133 154.644 77.738C154.769 77.8513 154.831 78.0157 154.831 78.231V85.405C154.831 85.6317 154.769 85.8017 154.644 85.915C154.52 86.0283 154.355 86.085 154.151 86.085ZM154.151 75.766C153.879 75.766 153.658 75.6867 153.488 75.528C153.318 75.3693 153.233 75.1597 153.233 74.899C153.233 74.6497 153.318 74.4457 153.488 74.287C153.658 74.1283 153.879 74.049 154.151 74.049C154.423 74.049 154.644 74.1283 154.814 74.287C154.984 74.4457 155.069 74.6497 155.069 74.899C155.069 75.1597 154.984 75.3693 154.814 75.528C154.644 75.6867 154.423 75.766 154.151 75.766ZM161.502 77.551C161.978 77.517 162.216 77.7097 162.216 78.129C162.216 78.3103 162.165 78.4577 162.063 78.571C161.961 78.673 161.786 78.7353 161.536 78.758L161.026 78.809C160.267 78.877 159.7 79.149 159.326 79.625C158.964 80.0897 158.782 80.6393 158.782 81.274V85.405C158.782 85.6317 158.72 85.8017 158.595 85.915C158.471 86.0283 158.306 86.085 158.102 86.085C157.898 86.085 157.728 86.0283 157.592 85.915C157.468 85.7903 157.405 85.6203 157.405 85.405V78.231C157.405 78.0157 157.473 77.8513 157.609 77.738C157.745 77.6133 157.91 77.551 158.102 77.551C158.284 77.551 158.437 77.6133 158.561 77.738C158.686 77.8513 158.748 78.01 158.748 78.214V79.166C158.986 78.6673 159.321 78.2877 159.751 78.027C160.193 77.7663 160.698 77.6133 161.264 77.568L161.502 77.551ZM167.718 75.103C167.117 75.1483 166.664 75.341 166.358 75.681C166.052 76.0097 165.899 76.5083 165.899 77.177V77.721H167.786C167.978 77.721 168.126 77.772 168.228 77.874C168.33 77.976 168.381 78.112 168.381 78.282C168.381 78.452 168.33 78.5823 168.228 78.673C168.126 78.7637 167.978 78.809 167.786 78.809H165.899V85.405C165.899 85.6203 165.831 85.7903 165.695 85.915C165.57 86.0283 165.411 86.085 165.219 86.085C165.015 86.085 164.845 86.0283 164.709 85.915C164.584 85.7903 164.522 85.6203 164.522 85.405V78.809H163.383C163.19 78.809 163.037 78.7637 162.924 78.673C162.822 78.571 162.771 78.4407 162.771 78.282C162.771 78.112 162.822 77.976 162.924 77.874C163.037 77.772 163.19 77.721 163.383 77.721H164.522V77.415C164.522 76.395 164.777 75.596 165.287 75.018C165.797 74.4287 166.528 74.1 167.48 74.032L167.922 73.998C168.216 73.9753 168.426 74.0037 168.551 74.083C168.687 74.1623 168.755 74.304 168.755 74.508C168.755 74.8367 168.556 75.0237 168.16 75.069L167.718 75.103ZM170.336 86.085C170.132 86.085 169.962 86.0283 169.826 85.915C169.701 85.7903 169.639 85.6203 169.639 85.405V74.61C169.639 74.3947 169.701 74.2303 169.826 74.117C169.962 73.9923 170.132 73.93 170.336 73.93C170.528 73.93 170.687 73.9923 170.812 74.117C170.948 74.2303 171.016 74.3947 171.016 74.61V85.405C171.016 85.6203 170.948 85.7903 170.812 85.915C170.687 86.0283 170.528 86.085 170.336 86.085ZM177.009 86.119C176.227 86.119 175.536 85.9433 174.935 85.592C174.346 85.2407 173.887 84.742 173.558 84.096C173.241 83.4387 173.082 82.6793 173.082 81.818C173.082 80.9567 173.241 80.203 173.558 79.557C173.887 78.8997 174.346 78.3953 174.935 78.044C175.536 77.6927 176.227 77.517 177.009 77.517C177.791 77.517 178.483 77.6927 179.083 78.044C179.684 78.3953 180.143 78.8997 180.46 79.557C180.789 80.203 180.953 80.9567 180.953 81.818C180.953 82.6793 180.789 83.4387 180.46 84.096C180.143 84.742 179.684 85.2407 179.083 85.592C178.483 85.9433 177.791 86.119 177.009 86.119ZM177.009 84.98C177.825 84.98 178.449 84.7137 178.879 84.181C179.321 83.637 179.542 82.8493 179.542 81.818C179.542 80.8093 179.321 80.033 178.879 79.489C178.437 78.9337 177.814 78.656 177.009 78.656C176.205 78.656 175.581 78.9337 175.139 79.489C174.697 80.033 174.476 80.8093 174.476 81.818C174.476 82.838 174.692 83.62 175.122 84.164C175.564 84.708 176.193 84.98 177.009 84.98ZM194.227 77.993C194.341 77.721 194.528 77.585 194.788 77.585C194.958 77.585 195.111 77.6417 195.247 77.755C195.383 77.8683 195.451 78.01 195.451 78.18C195.451 78.2593 195.434 78.3443 195.4 78.435L192.578 85.575C192.51 85.7223 192.408 85.8413 192.272 85.932C192.148 86.0113 192.006 86.051 191.847 86.051C191.7 86.051 191.558 86.0113 191.422 85.932C191.298 85.8413 191.201 85.7223 191.133 85.575L188.787 79.608L186.458 85.575C186.402 85.7223 186.305 85.8413 186.169 85.932C186.033 86.0113 185.886 86.051 185.727 86.051C185.58 86.051 185.438 86.0113 185.302 85.932C185.166 85.8413 185.064 85.7223 184.996 85.575L182.174 78.452C182.14 78.3613 182.123 78.282 182.123 78.214C182.123 78.0327 182.197 77.8797 182.344 77.755C182.503 77.6303 182.673 77.568 182.854 77.568C183.126 77.568 183.319 77.704 183.432 77.976L185.761 84.249L188.158 78.027C188.226 77.8797 188.317 77.7663 188.43 77.687C188.555 77.6077 188.685 77.568 188.821 77.568C188.969 77.568 189.099 77.6077 189.212 77.687C189.337 77.7663 189.428 77.8797 189.484 78.027L191.881 84.232L194.227 77.993Z" fill="black"/>
</svg>
