<svg width="174" height="46" viewBox="0 0 174 46" fill="none" xmlns="http://www.w3.org/2000/svg">
<path d="M20.9328 21.046C21.4542 21.046 21.8735 21.2047 22.1908 21.522C22.5082 21.8167 22.6668 22.2133 22.6668 22.712V30.022C22.6668 31.0647 22.5308 31.8013 22.2588 32.232C21.9868 32.6627 21.4315 33.014 20.5928 33.286C19.6862 33.6033 18.6322 33.8527 17.4308 34.034C16.2295 34.2153 15.0735 34.306 13.9628 34.306C11.4922 34.306 9.35015 33.8187 7.53682 32.844C5.72349 31.8693 4.32949 30.464 3.35482 28.628C2.40282 26.7693 1.92682 24.5593 1.92682 21.998C1.92682 19.482 2.40282 17.306 3.35482 15.47C4.32949 13.6113 5.70082 12.1947 7.46882 11.22C9.23682 10.2227 11.3222 9.724 13.7248 9.724C16.9208 9.724 19.5388 10.5853 21.5788 12.308C21.8508 12.5573 22.0435 12.8067 22.1568 13.056C22.2928 13.3053 22.3608 13.6 22.3608 13.94C22.3608 14.4387 22.2248 14.858 21.9528 15.198C21.6808 15.538 21.3522 15.708 20.9668 15.708C20.7175 15.708 20.4908 15.674 20.2868 15.606C20.0828 15.5153 19.8448 15.3793 19.5728 15.198C18.5755 14.4953 17.6462 14.008 16.7848 13.736C15.9235 13.4413 14.9488 13.294 13.8608 13.294C11.3902 13.294 9.52015 14.0307 8.25082 15.504C7.00415 16.9547 6.38082 19.1193 6.38082 21.998C6.38082 27.8913 8.96482 30.838 14.1328 30.838C15.6742 30.838 17.2155 30.6227 18.7568 30.192V24.174H14.9148C14.3708 24.174 13.9402 24.038 13.6228 23.766C13.3282 23.494 13.1808 23.1087 13.1808 22.61C13.1808 22.1113 13.3282 21.726 13.6228 21.454C13.9402 21.182 14.3708 21.046 14.9148 21.046H20.9328ZM29.7184 34C29.061 34 28.5397 33.8187 28.1544 33.456C27.7917 33.0933 27.6104 32.5833 27.6104 31.926V12.104C27.6104 11.4467 27.7917 10.9367 28.1544 10.574C28.5397 10.2113 29.061 10.03 29.7184 10.03H41.9924C42.6497 10.03 43.1597 10.1773 43.5224 10.472C43.885 10.7667 44.0664 11.186 44.0664 11.73C44.0664 12.2967 43.885 12.7387 43.5224 13.056C43.1597 13.3507 42.6497 13.498 41.9924 13.498H31.8944V20.094H41.3124C41.9697 20.094 42.4797 20.2413 42.8424 20.536C43.205 20.8307 43.3864 21.2613 43.3864 21.828C43.3864 22.372 43.205 22.7913 42.8424 23.086C42.4797 23.3807 41.9697 23.528 41.3124 23.528H31.8944V30.532H41.9924C42.6497 30.532 43.1597 30.6907 43.5224 31.008C43.885 31.3027 44.0664 31.7333 44.0664 32.3C44.0664 32.844 43.885 33.2633 43.5224 33.558C43.1597 33.8527 42.6497 34 41.9924 34H29.7184ZM55.5191 34.17C54.8391 34.17 54.2951 33.9773 53.8871 33.592C53.5017 33.184 53.3091 32.6513 53.3091 31.994V13.634H47.1211C45.7611 13.634 45.0811 13.0333 45.0811 11.832C45.0811 10.6307 45.7611 10.03 47.1211 10.03H63.8831C65.2431 10.03 65.9231 10.6307 65.9231 11.832C65.9231 13.0333 65.2431 13.634 63.8831 13.634H57.6951V31.994C57.6951 32.6513 57.4911 33.184 57.0831 33.592C56.6977 33.9773 56.1764 34.17 55.5191 34.17ZM99.0311 9.86C99.6658 9.86 100.176 10.064 100.561 10.472C100.946 10.8573 101.139 11.3787 101.139 12.036V32.164C101.139 32.7987 100.958 33.2973 100.595 33.66C100.232 34.0227 99.7564 34.204 99.1671 34.204C98.5778 34.204 98.1131 34.0227 97.7731 33.66C97.4331 33.2973 97.2631 32.7987 97.2631 32.164V18.156L91.4831 29.104C91.2111 29.6027 90.9164 29.9767 90.5991 30.226C90.2818 30.4527 89.9078 30.566 89.4771 30.566C89.0464 30.566 88.6724 30.4527 88.3551 30.226C88.0378 29.9993 87.7431 29.6253 87.4711 29.104L81.6571 18.326V32.164C81.6571 32.776 81.4758 33.2747 81.1131 33.66C80.7731 34.0227 80.3084 34.204 79.7191 34.204C79.1298 34.204 78.6651 34.0227 78.3251 33.66C77.9851 33.2973 77.8151 32.7987 77.8151 32.164V12.036C77.8151 11.3787 77.9964 10.8573 78.3591 10.472C78.7444 10.064 79.2544 9.86 79.8891 9.86C80.7731 9.86 81.4644 10.3473 81.9631 11.322L89.5111 25.704L97.0251 11.322C97.5238 10.3473 98.1924 9.86 99.0311 9.86ZM117.011 34.306C114.676 34.306 112.648 33.8073 110.925 32.81C109.225 31.8127 107.91 30.3847 106.981 28.526C106.052 26.6673 105.587 24.4913 105.587 21.998C105.587 19.5047 106.04 17.34 106.947 15.504C107.876 13.6453 109.202 12.2173 110.925 11.22C112.648 10.2227 114.676 9.724 117.011 9.724C119.346 9.724 121.363 10.2227 123.063 11.22C124.786 12.2173 126.1 13.6453 127.007 15.504C127.936 17.34 128.401 19.5047 128.401 21.998C128.401 24.4913 127.936 26.6673 127.007 28.526C126.078 30.3847 124.752 31.8127 123.029 32.81C121.329 33.8073 119.323 34.306 117.011 34.306ZM117.011 30.804C119.21 30.804 120.921 30.0447 122.145 28.526C123.392 27.0073 124.015 24.8313 124.015 21.998C124.015 19.1647 123.392 17 122.145 15.504C120.921 13.9853 119.21 13.226 117.011 13.226C114.79 13.226 113.056 13.9853 111.809 15.504C110.585 17 109.973 19.1647 109.973 21.998C109.973 24.8313 110.585 27.0073 111.809 28.526C113.056 30.0447 114.79 30.804 117.011 30.804ZM152.007 31.246C152.279 31.654 152.415 32.0507 152.415 32.436C152.415 32.9573 152.2 33.388 151.769 33.728C151.361 34.068 150.874 34.238 150.307 34.238C149.944 34.238 149.593 34.1587 149.253 34C148.936 33.8187 148.664 33.558 148.437 33.218L143.915 26.35C143.462 25.6247 142.974 25.1147 142.453 24.82C141.954 24.5253 141.297 24.378 140.481 24.378H137.149V31.994C137.149 32.674 136.956 33.218 136.571 33.626C136.186 34.0113 135.664 34.204 135.007 34.204C134.35 34.204 133.817 34.0113 133.409 33.626C133.024 33.218 132.831 32.674 132.831 31.994V12.104C132.831 11.4467 133.012 10.9367 133.375 10.574C133.76 10.2113 134.282 10.03 134.939 10.03H143.439C146.159 10.03 148.222 10.642 149.627 11.866C151.055 13.0673 151.769 14.8127 151.769 17.102C151.769 18.9607 151.236 20.4907 150.171 21.692C149.128 22.8707 147.644 23.63 145.717 23.97C146.374 24.1287 146.952 24.412 147.451 24.82C147.95 25.228 148.437 25.7947 148.913 26.52L152.007 31.246ZM142.827 21.012C144.482 21.012 145.694 20.706 146.465 20.094C147.236 19.4593 147.621 18.496 147.621 17.204C147.621 15.8893 147.236 14.9373 146.465 14.348C145.694 13.736 144.482 13.43 142.827 13.43H137.115V21.012H142.827ZM158.58 34C157.922 34 157.401 33.8187 157.016 33.456C156.653 33.0933 156.472 32.5833 156.472 31.926V12.104C156.472 11.4467 156.653 10.9367 157.016 10.574C157.401 10.2113 157.922 10.03 158.58 10.03H170.854C171.511 10.03 172.021 10.1773 172.384 10.472C172.746 10.7667 172.928 11.186 172.928 11.73C172.928 12.2967 172.746 12.7387 172.384 13.056C172.021 13.3507 171.511 13.498 170.854 13.498H160.756V20.094H170.174C170.831 20.094 171.341 20.2413 171.704 20.536C172.066 20.8307 172.248 21.2613 172.248 21.828C172.248 22.372 172.066 22.7913 171.704 23.086C171.341 23.3807 170.831 23.528 170.174 23.528H160.756V30.532H170.854C171.511 30.532 172.021 30.6907 172.384 31.008C172.746 31.3027 172.928 31.7333 172.928 32.3C172.928 32.844 172.746 33.2633 172.384 33.558C172.021 33.8527 171.511 34 170.854 34H158.58Z" fill="black"/>
</svg>
