<svg width="224" height="44" viewBox="0 0 224 44" fill="none" xmlns="http://www.w3.org/2000/svg">
<path d="M13.146 16.133C13.2253 16.2577 13.265 16.388 13.265 16.524C13.265 16.694 13.197 16.8357 13.061 16.949C12.9363 17.051 12.789 17.102 12.619 17.102C12.3583 17.102 12.1543 16.9887 12.007 16.762L9.729 13.158C9.43433 12.6933 9.12833 12.376 8.811 12.206C8.49366 12.0247 8.063 11.934 7.519 11.934H5.377V16.371C5.377 16.5863 5.31466 16.762 5.19 16.898C5.06533 17.0227 4.901 17.085 4.697 17.085C4.48166 17.085 4.31166 17.0227 4.187 16.898C4.06233 16.762 4 16.5863 4 16.371V5.695C4 5.491 4.06233 5.32667 4.187 5.202C4.323 5.07733 4.49866 5.015 4.714 5.015H8.93C10.2333 5.015 11.225 5.304 11.905 5.882C12.5963 6.46 12.942 7.31 12.942 8.432C12.942 9.384 12.6643 10.149 12.109 10.727C11.565 11.305 10.783 11.6563 9.763 11.781C10.0463 11.8717 10.3013 12.019 10.528 12.223C10.7547 12.427 10.9813 12.7103 11.208 13.073L13.146 16.133ZM8.811 10.778C9.74033 10.778 10.4317 10.5853 10.885 10.2C11.3497 9.81467 11.582 9.231 11.582 8.449C11.582 7.67833 11.3553 7.106 10.902 6.732C10.4487 6.358 9.75166 6.171 8.811 6.171H5.377V10.778H8.811ZM21.8593 15.079C21.984 15.079 22.0916 15.13 22.1823 15.232C22.273 15.334 22.3183 15.4643 22.3183 15.623C22.3183 15.9063 22.12 16.167 21.7233 16.405C21.3153 16.643 20.8846 16.8243 20.4313 16.949C19.978 17.0623 19.536 17.119 19.1053 17.119C17.8246 17.119 16.8103 16.7393 16.0623 15.98C15.3256 15.2207 14.9573 14.1723 14.9573 12.835C14.9573 11.985 15.1216 11.237 15.4503 10.591C15.779 9.93367 16.238 9.42367 16.8273 9.061C17.428 8.69833 18.108 8.517 18.8673 8.517C19.944 8.517 20.7996 8.86833 21.4343 9.571C22.069 10.2737 22.3863 11.2257 22.3863 12.427C22.3863 12.6537 22.341 12.818 22.2503 12.92C22.1596 13.022 22.0123 13.073 21.8083 13.073H16.3343C16.4363 15.0223 17.36 15.997 19.1053 15.997C19.5473 15.997 19.927 15.9403 20.2443 15.827C20.5616 15.7023 20.9016 15.538 21.2643 15.334C21.559 15.164 21.7573 15.079 21.8593 15.079ZM18.8843 9.588C18.159 9.588 17.5753 9.81467 17.1333 10.268C16.7026 10.7213 16.4476 11.3617 16.3683 12.189H21.1793C21.1566 11.3503 20.947 10.71 20.5503 10.268C20.1536 9.81467 19.5983 9.588 18.8843 9.588ZM31.1301 8.551C31.3455 8.551 31.5155 8.61333 31.6401 8.738C31.7648 8.86267 31.8271 9.027 31.8271 9.231V16.439C31.8271 17.6743 31.5098 18.6037 30.8751 19.227C30.2405 19.8617 29.2998 20.179 28.0531 20.179C26.8405 20.179 25.8318 19.941 25.0271 19.465C24.6191 19.2383 24.4151 18.9777 24.4151 18.683C24.4151 18.5243 24.4548 18.394 24.5341 18.292C24.6248 18.19 24.7381 18.139 24.8741 18.139C24.9875 18.139 25.1915 18.2183 25.4861 18.377C25.8828 18.581 26.2738 18.7453 26.6591 18.87C27.0445 18.9947 27.5035 19.057 28.0361 19.057C28.8408 19.057 29.4471 18.8417 29.8551 18.411C30.2631 17.9917 30.4671 17.374 30.4671 16.558V15.096C30.2291 15.6287 29.8608 16.0367 29.3621 16.32C28.8748 16.6033 28.2968 16.745 27.6281 16.745C26.9028 16.745 26.2568 16.575 25.6901 16.235C25.1348 15.895 24.6985 15.4133 24.3811 14.79C24.0751 14.1667 23.9221 13.447 23.9221 12.631C23.9221 11.815 24.0751 11.0953 24.3811 10.472C24.6985 9.84867 25.1348 9.367 25.6901 9.027C26.2568 8.687 26.9028 8.517 27.6281 8.517C28.2855 8.517 28.8578 8.65867 29.3451 8.942C29.8325 9.22533 30.2008 9.62767 30.4501 10.149V9.231C30.4501 9.027 30.5068 8.86267 30.6201 8.738C30.7448 8.61333 30.9148 8.551 31.1301 8.551ZM27.9001 15.606C28.6935 15.606 29.3168 15.3453 29.7701 14.824C30.2235 14.2913 30.4501 13.5603 30.4501 12.631C30.4501 11.713 30.2235 10.9933 29.7701 10.472C29.3281 9.93933 28.7048 9.673 27.9001 9.673C27.0955 9.673 26.4608 9.93933 25.9961 10.472C25.5428 10.9933 25.3161 11.713 25.3161 12.631C25.3161 13.5603 25.5428 14.2913 25.9961 14.824C26.4608 15.3453 27.0955 15.606 27.9001 15.606ZM35.0731 17.085C34.8691 17.085 34.6991 17.0283 34.5631 16.915C34.4384 16.7903 34.3761 16.6203 34.3761 16.405V9.231C34.3761 9.01567 34.4384 8.85133 34.5631 8.738C34.6991 8.61333 34.8691 8.551 35.0731 8.551C35.2771 8.551 35.4414 8.61333 35.5661 8.738C35.6907 8.85133 35.7531 9.01567 35.7531 9.231V16.405C35.7531 16.6317 35.6907 16.8017 35.5661 16.915C35.4414 17.0283 35.2771 17.085 35.0731 17.085ZM35.0731 6.766C34.8011 6.766 34.5801 6.68667 34.4101 6.528C34.2401 6.36933 34.1551 6.15967 34.1551 5.899C34.1551 5.64967 34.2401 5.44567 34.4101 5.287C34.5801 5.12833 34.8011 5.049 35.0731 5.049C35.3451 5.049 35.5661 5.12833 35.7361 5.287C35.9061 5.44567 35.9911 5.64967 35.9911 5.899C35.9911 6.15967 35.9061 6.36933 35.7361 6.528C35.5661 6.68667 35.3451 6.766 35.0731 6.766ZM41.1152 17.119C40.5939 17.119 40.0952 17.0567 39.6192 16.932C39.1546 16.8073 38.7409 16.6317 38.3782 16.405C38.1742 16.269 38.0269 16.1443 37.9362 16.031C37.8569 15.9063 37.8172 15.759 37.8172 15.589C37.8172 15.4417 37.8569 15.3227 37.9362 15.232C38.0269 15.13 38.1402 15.079 38.2762 15.079C38.4122 15.079 38.6106 15.164 38.8712 15.334C39.2112 15.538 39.5456 15.7023 39.8742 15.827C40.2142 15.9403 40.6336 15.997 41.1322 15.997C41.7442 15.997 42.2202 15.8893 42.5602 15.674C42.9002 15.4587 43.0702 15.147 43.0702 14.739C43.0702 14.4897 43.0079 14.2913 42.8832 14.144C42.7586 13.9853 42.5432 13.8493 42.2372 13.736C41.9312 13.6113 41.4836 13.4867 40.8942 13.362C39.8969 13.1467 39.1829 12.8577 38.7522 12.495C38.3216 12.1323 38.1062 11.6393 38.1062 11.016C38.1062 10.5287 38.2422 10.098 38.5142 9.724C38.7862 9.35 39.1602 9.05533 39.6362 8.84C40.1236 8.62467 40.6732 8.517 41.2852 8.517C41.7272 8.517 42.1522 8.57933 42.5602 8.704C42.9796 8.81733 43.3479 8.98167 43.6652 9.197C44.0506 9.469 44.2432 9.75233 44.2432 10.047C44.2432 10.1943 44.1979 10.319 44.1072 10.421C44.0166 10.523 43.9089 10.574 43.7842 10.574C43.6482 10.574 43.4442 10.4777 43.1722 10.285C42.8549 10.081 42.5546 9.92233 42.2712 9.809C41.9879 9.69567 41.6366 9.639 41.2172 9.639C40.6846 9.639 40.2539 9.758 39.9252 9.996C39.6079 10.234 39.4492 10.5513 39.4492 10.948C39.4492 11.1973 39.5059 11.4013 39.6192 11.56C39.7439 11.7073 39.9422 11.8433 40.2142 11.968C40.4976 12.0813 40.8999 12.1947 41.4212 12.308C42.1919 12.478 42.7869 12.665 43.2062 12.869C43.6369 13.073 43.9429 13.3223 44.1242 13.617C44.3056 13.9117 44.3962 14.2857 44.3962 14.739C44.3962 15.453 44.0959 16.031 43.4952 16.473C42.8946 16.9037 42.1012 17.119 41.1152 17.119ZM50.2372 15.997C50.6339 16.031 50.8322 16.2123 50.8322 16.541C50.8322 16.7337 50.7585 16.881 50.6112 16.983C50.4752 17.0737 50.2655 17.1077 49.9822 17.085L49.5232 17.051C48.6165 16.983 47.9479 16.711 47.5172 16.235C47.0865 15.759 46.8712 15.0393 46.8712 14.076V9.809H45.7322C45.5395 9.809 45.3865 9.76367 45.2732 9.673C45.1712 9.571 45.1202 9.44067 45.1202 9.282C45.1202 9.112 45.1712 8.976 45.2732 8.874C45.3865 8.772 45.5395 8.721 45.7322 8.721H46.8712V6.8C46.8712 6.58467 46.9335 6.42033 47.0582 6.307C47.1829 6.18233 47.3529 6.12 47.5682 6.12C47.7722 6.12 47.9365 6.18233 48.0612 6.307C48.1859 6.42033 48.2482 6.58467 48.2482 6.8V8.721H50.1352C50.3165 8.721 50.4582 8.772 50.5602 8.874C50.6735 8.976 50.7302 9.112 50.7302 9.282C50.7302 9.44067 50.6735 9.571 50.5602 9.673C50.4582 9.76367 50.3165 9.809 50.1352 9.809H48.2482V14.144C48.2482 14.7673 48.3729 15.2207 48.6222 15.504C48.8829 15.776 49.2682 15.929 49.7782 15.963L50.2372 15.997ZM58.5986 15.079C58.7232 15.079 58.8309 15.13 58.9216 15.232C59.0122 15.334 59.0576 15.4643 59.0576 15.623C59.0576 15.9063 58.8592 16.167 58.4626 16.405C58.0546 16.643 57.6239 16.8243 57.1706 16.949C56.7172 17.0623 56.2752 17.119 55.8446 17.119C54.5639 17.119 53.5496 16.7393 52.8016 15.98C52.0649 15.2207 51.6966 14.1723 51.6966 12.835C51.6966 11.985 51.8609 11.237 52.1896 10.591C52.5182 9.93367 52.9772 9.42367 53.5666 9.061C54.1672 8.69833 54.8472 8.517 55.6066 8.517C56.6832 8.517 57.5389 8.86833 58.1736 9.571C58.8082 10.2737 59.1256 11.2257 59.1256 12.427C59.1256 12.6537 59.0802 12.818 58.9896 12.92C58.8989 13.022 58.7516 13.073 58.5476 13.073H53.0736C53.1756 15.0223 54.0992 15.997 55.8446 15.997C56.2866 15.997 56.6662 15.9403 56.9836 15.827C57.3009 15.7023 57.6409 15.538 58.0036 15.334C58.2982 15.164 58.4966 15.079 58.5986 15.079ZM55.6236 9.588C54.8982 9.588 54.3146 9.81467 53.8726 10.268C53.4419 10.7213 53.1869 11.3617 53.1076 12.189H57.9186C57.8959 11.3503 57.6862 10.71 57.2896 10.268C56.8929 9.81467 56.3376 9.588 55.6236 9.588ZM65.2514 8.551C65.7274 8.517 65.9654 8.70967 65.9654 9.129C65.9654 9.31033 65.9144 9.45767 65.8124 9.571C65.7104 9.673 65.5347 9.73533 65.2854 9.758L64.7754 9.809C64.0161 9.877 63.4494 10.149 63.0754 10.625C62.7127 11.0897 62.5314 11.6393 62.5314 12.274V16.405C62.5314 16.6317 62.4691 16.8017 62.3444 16.915C62.2197 17.0283 62.0554 17.085 61.8514 17.085C61.6474 17.085 61.4774 17.0283 61.3414 16.915C61.2167 16.7903 61.1544 16.6203 61.1544 16.405V9.231C61.1544 9.01567 61.2224 8.85133 61.3584 8.738C61.4944 8.61333 61.6587 8.551 61.8514 8.551C62.0327 8.551 62.1857 8.61333 62.3104 8.738C62.4351 8.85133 62.4974 9.01 62.4974 9.214V10.166C62.7354 9.66733 63.0697 9.28767 63.5004 9.027C63.9424 8.76633 64.4467 8.61333 65.0134 8.568L65.2514 8.551ZM75.3554 15.997C75.752 16.031 75.9504 16.2123 75.9504 16.541C75.9504 16.7337 75.8767 16.881 75.7294 16.983C75.5934 17.0737 75.3837 17.1077 75.1004 17.085L74.6414 17.051C73.7347 16.983 73.066 16.711 72.6354 16.235C72.2047 15.759 71.9894 15.0393 71.9894 14.076V9.809H70.8504C70.6577 9.809 70.5047 9.76367 70.3914 9.673C70.2894 9.571 70.2384 9.44067 70.2384 9.282C70.2384 9.112 70.2894 8.976 70.3914 8.874C70.5047 8.772 70.6577 8.721 70.8504 8.721H71.9894V6.8C71.9894 6.58467 72.0517 6.42033 72.1764 6.307C72.301 6.18233 72.471 6.12 72.6864 6.12C72.8904 6.12 73.0547 6.18233 73.1794 6.307C73.304 6.42033 73.3664 6.58467 73.3664 6.8V8.721H75.2534C75.4347 8.721 75.5764 8.772 75.6784 8.874C75.7917 8.976 75.8484 9.112 75.8484 9.282C75.8484 9.44067 75.7917 9.571 75.6784 9.673C75.5764 9.76367 75.4347 9.809 75.2534 9.809H73.3664V14.144C73.3664 14.7673 73.491 15.2207 73.7404 15.504C74.001 15.776 74.3864 15.929 74.8964 15.963L75.3554 15.997ZM80.7417 17.119C79.9597 17.119 79.2684 16.9433 78.6677 16.592C78.0784 16.2407 77.6194 15.742 77.2907 15.096C76.9734 14.4387 76.8147 13.6793 76.8147 12.818C76.8147 11.9567 76.9734 11.203 77.2907 10.557C77.6194 9.89967 78.0784 9.39533 78.6677 9.044C79.2684 8.69267 79.9597 8.517 80.7417 8.517C81.5237 8.517 82.215 8.69267 82.8157 9.044C83.4164 9.39533 83.8754 9.89967 84.1927 10.557C84.5214 11.203 84.6857 11.9567 84.6857 12.818C84.6857 13.6793 84.5214 14.4387 84.1927 15.096C83.8754 15.742 83.4164 16.2407 82.8157 16.592C82.215 16.9433 81.5237 17.119 80.7417 17.119ZM80.7417 15.98C81.5577 15.98 82.181 15.7137 82.6117 15.181C83.0537 14.637 83.2747 13.8493 83.2747 12.818C83.2747 11.8093 83.0537 11.033 82.6117 10.489C82.1697 9.93367 81.5464 9.656 80.7417 9.656C79.937 9.656 79.3137 9.93367 78.8717 10.489C78.4297 11.033 78.2087 11.8093 78.2087 12.818C78.2087 13.838 78.424 14.62 78.8547 15.164C79.2967 15.708 79.9257 15.98 80.7417 15.98ZM94.5372 17.119C93.7665 17.119 93.0809 16.9433 92.4802 16.592C91.8909 16.2407 91.4319 15.742 91.1032 15.096C90.7859 14.45 90.6272 13.702 90.6272 12.852C90.6272 12.002 90.7915 11.2483 91.1202 10.591C91.4602 9.93367 91.9305 9.42367 92.5312 9.061C93.1319 8.69833 93.8232 8.517 94.6052 8.517C95.0359 8.517 95.4609 8.57933 95.8802 8.704C96.3109 8.81733 96.6849 8.98733 97.0022 9.214C97.2062 9.35 97.3479 9.486 97.4272 9.622C97.5179 9.74667 97.5632 9.88833 97.5632 10.047C97.5632 10.2057 97.5179 10.336 97.4272 10.438C97.3479 10.54 97.2402 10.591 97.1042 10.591C97.0249 10.591 96.9399 10.5683 96.8492 10.523C96.7585 10.4777 96.6792 10.4323 96.6112 10.387C96.5545 10.3417 96.5149 10.3133 96.4922 10.302C96.1975 10.1093 95.9142 9.95633 95.6422 9.843C95.3815 9.72967 95.0585 9.673 94.6732 9.673C93.8459 9.673 93.1999 9.95633 92.7352 10.523C92.2819 11.0783 92.0552 11.8547 92.0552 12.852C92.0552 13.8493 92.2819 14.62 92.7352 15.164C93.1999 15.708 93.8459 15.98 94.6732 15.98C95.0585 15.98 95.3872 15.9233 95.6592 15.81C95.9425 15.6967 96.2259 15.5437 96.5092 15.351C96.6339 15.2717 96.7529 15.2037 96.8662 15.147C96.9795 15.0903 97.0759 15.062 97.1552 15.062C97.2799 15.062 97.3819 15.113 97.4612 15.215C97.5519 15.317 97.5972 15.4473 97.5972 15.606C97.5972 15.7533 97.5575 15.8893 97.4782 16.014C97.3989 16.1273 97.2515 16.2577 97.0362 16.405C96.7189 16.6203 96.3335 16.796 95.8802 16.932C95.4382 17.0567 94.9905 17.119 94.5372 17.119ZM102.689 17.119C101.907 17.119 101.216 16.9433 100.615 16.592C100.026 16.2407 99.5666 15.742 99.238 15.096C98.9206 14.4387 98.762 13.6793 98.762 12.818C98.762 11.9567 98.9206 11.203 99.238 10.557C99.5666 9.89967 100.026 9.39533 100.615 9.044C101.216 8.69267 101.907 8.517 102.689 8.517C103.471 8.517 104.162 8.69267 104.763 9.044C105.364 9.39533 105.823 9.89967 106.14 10.557C106.469 11.203 106.633 11.9567 106.633 12.818C106.633 13.6793 106.469 14.4387 106.14 15.096C105.823 15.742 105.364 16.2407 104.763 16.592C104.162 16.9433 103.471 17.119 102.689 17.119ZM102.689 15.98C103.505 15.98 104.128 15.7137 104.559 15.181C105.001 14.637 105.222 13.8493 105.222 12.818C105.222 11.8093 105.001 11.033 104.559 10.489C104.117 9.93367 103.494 9.656 102.689 9.656C101.884 9.656 101.261 9.93367 100.819 10.489C100.377 11.033 100.156 11.8093 100.156 12.818C100.156 13.838 100.371 14.62 100.802 15.164C101.244 15.708 101.873 15.98 102.689 15.98ZM109.382 17.085C109.178 17.085 109.008 17.0283 108.872 16.915C108.747 16.7903 108.685 16.6203 108.685 16.405V5.61C108.685 5.39467 108.747 5.23033 108.872 5.117C109.008 4.99233 109.178 4.93 109.382 4.93C109.574 4.93 109.733 4.99233 109.858 5.117C109.994 5.23033 110.062 5.39467 110.062 5.61V16.405C110.062 16.6203 109.994 16.7903 109.858 16.915C109.733 17.0283 109.574 17.085 109.382 17.085ZM113.333 17.085C113.129 17.085 112.959 17.0283 112.823 16.915C112.698 16.7903 112.636 16.6203 112.636 16.405V5.61C112.636 5.39467 112.698 5.23033 112.823 5.117C112.959 4.99233 113.129 4.93 113.333 4.93C113.526 4.93 113.684 4.99233 113.809 5.117C113.945 5.23033 114.013 5.39467 114.013 5.61V16.405C114.013 16.6203 113.945 16.7903 113.809 16.915C113.684 17.0283 113.526 17.085 113.333 17.085ZM122.996 15.079C123.121 15.079 123.228 15.13 123.319 15.232C123.41 15.334 123.455 15.4643 123.455 15.623C123.455 15.9063 123.257 16.167 122.86 16.405C122.452 16.643 122.021 16.8243 121.568 16.949C121.115 17.0623 120.673 17.119 120.242 17.119C118.961 17.119 117.947 16.7393 117.199 15.98C116.462 15.2207 116.094 14.1723 116.094 12.835C116.094 11.985 116.258 11.237 116.587 10.591C116.916 9.93367 117.375 9.42367 117.964 9.061C118.565 8.69833 119.245 8.517 120.004 8.517C121.081 8.517 121.936 8.86833 122.571 9.571C123.206 10.2737 123.523 11.2257 123.523 12.427C123.523 12.6537 123.478 12.818 123.387 12.92C123.296 13.022 123.149 13.073 122.945 13.073H117.471C117.573 15.0223 118.497 15.997 120.242 15.997C120.684 15.997 121.064 15.9403 121.381 15.827C121.698 15.7023 122.038 15.538 122.401 15.334C122.696 15.164 122.894 15.079 122.996 15.079ZM120.021 9.588C119.296 9.588 118.712 9.81467 118.27 10.268C117.839 10.7213 117.584 11.3617 117.505 12.189H122.316C122.293 11.3503 122.084 10.71 121.687 10.268C121.29 9.81467 120.735 9.588 120.021 9.588ZM128.969 17.119C128.198 17.119 127.513 16.9433 126.912 16.592C126.323 16.2407 125.864 15.742 125.535 15.096C125.218 14.45 125.059 13.702 125.059 12.852C125.059 12.002 125.223 11.2483 125.552 10.591C125.892 9.93367 126.362 9.42367 126.963 9.061C127.564 8.69833 128.255 8.517 129.037 8.517C129.468 8.517 129.893 8.57933 130.312 8.704C130.743 8.81733 131.117 8.98733 131.434 9.214C131.638 9.35 131.78 9.486 131.859 9.622C131.95 9.74667 131.995 9.88833 131.995 10.047C131.995 10.2057 131.95 10.336 131.859 10.438C131.78 10.54 131.672 10.591 131.536 10.591C131.457 10.591 131.372 10.5683 131.281 10.523C131.19 10.4777 131.111 10.4323 131.043 10.387C130.986 10.3417 130.947 10.3133 130.924 10.302C130.629 10.1093 130.346 9.95633 130.074 9.843C129.813 9.72967 129.49 9.673 129.105 9.673C128.278 9.673 127.632 9.95633 127.167 10.523C126.714 11.0783 126.487 11.8547 126.487 12.852C126.487 13.8493 126.714 14.62 127.167 15.164C127.632 15.708 128.278 15.98 129.105 15.98C129.49 15.98 129.819 15.9233 130.091 15.81C130.374 15.6967 130.658 15.5437 130.941 15.351C131.066 15.2717 131.185 15.2037 131.298 15.147C131.411 15.0903 131.508 15.062 131.587 15.062C131.712 15.062 131.814 15.113 131.893 15.215C131.984 15.317 132.029 15.4473 132.029 15.606C132.029 15.7533 131.989 15.8893 131.91 16.014C131.831 16.1273 131.683 16.2577 131.468 16.405C131.151 16.6203 130.765 16.796 130.312 16.932C129.87 17.0567 129.422 17.119 128.969 17.119ZM137.528 15.997C137.925 16.031 138.123 16.2123 138.123 16.541C138.123 16.7337 138.05 16.881 137.902 16.983C137.766 17.0737 137.557 17.1077 137.273 17.085L136.814 17.051C135.908 16.983 135.239 16.711 134.808 16.235C134.378 15.759 134.162 15.0393 134.162 14.076V9.809H133.023C132.831 9.809 132.678 9.76367 132.564 9.673C132.462 9.571 132.411 9.44067 132.411 9.282C132.411 9.112 132.462 8.976 132.564 8.874C132.678 8.772 132.831 8.721 133.023 8.721H134.162V6.8C134.162 6.58467 134.225 6.42033 134.349 6.307C134.474 6.18233 134.644 6.12 134.859 6.12C135.063 6.12 135.228 6.18233 135.352 6.307C135.477 6.42033 135.539 6.58467 135.539 6.8V8.721H137.426C137.608 8.721 137.749 8.772 137.851 8.874C137.965 8.976 138.021 9.112 138.021 9.282C138.021 9.44067 137.965 9.571 137.851 9.673C137.749 9.76367 137.608 9.809 137.426 9.809H135.539V14.144C135.539 14.7673 135.664 15.2207 135.913 15.504C136.174 15.776 136.559 15.929 137.069 15.963L137.528 15.997ZM147.96 8.551C148.436 8.517 148.674 8.70967 148.674 9.129C148.674 9.31033 148.623 9.45767 148.521 9.571C148.419 9.673 148.244 9.73533 147.994 9.758L147.484 9.809C146.725 9.877 146.158 10.149 145.784 10.625C145.422 11.0897 145.24 11.6393 145.24 12.274V16.405C145.24 16.6317 145.178 16.8017 145.053 16.915C144.929 17.0283 144.764 17.085 144.56 17.085C144.356 17.085 144.186 17.0283 144.05 16.915C143.926 16.7903 143.863 16.6203 143.863 16.405V9.231C143.863 9.01567 143.931 8.85133 144.067 8.738C144.203 8.61333 144.368 8.551 144.56 8.551C144.742 8.551 144.895 8.61333 145.019 8.738C145.144 8.85133 145.206 9.01 145.206 9.214V10.166C145.444 9.66733 145.779 9.28767 146.209 9.027C146.651 8.76633 147.156 8.61333 147.722 8.568L147.96 8.551ZM156.1 15.079C156.224 15.079 156.332 15.13 156.423 15.232C156.513 15.334 156.559 15.4643 156.559 15.623C156.559 15.9063 156.36 16.167 155.964 16.405C155.556 16.643 155.125 16.8243 154.672 16.949C154.218 17.0623 153.776 17.119 153.346 17.119C152.065 17.119 151.051 16.7393 150.303 15.98C149.566 15.2207 149.198 14.1723 149.198 12.835C149.198 11.985 149.362 11.237 149.691 10.591C150.019 9.93367 150.478 9.42367 151.068 9.061C151.668 8.69833 152.348 8.517 153.108 8.517C154.184 8.517 155.04 8.86833 155.675 9.571C156.309 10.2737 156.627 11.2257 156.627 12.427C156.627 12.6537 156.581 12.818 156.491 12.92C156.4 13.022 156.253 13.073 156.049 13.073H150.575C150.677 15.0223 151.6 15.997 153.346 15.997C153.788 15.997 154.167 15.9403 154.485 15.827C154.802 15.7023 155.142 15.538 155.505 15.334C155.799 15.164 155.998 15.079 156.1 15.079ZM153.125 9.588C152.399 9.588 151.816 9.81467 151.374 10.268C150.943 10.7213 150.688 11.3617 150.609 12.189H155.42C155.397 11.3503 155.187 10.71 154.791 10.268C154.394 9.81467 153.839 9.588 153.125 9.588ZM169.878 8.993C169.991 8.721 170.178 8.585 170.439 8.585C170.609 8.585 170.762 8.64167 170.898 8.755C171.034 8.86833 171.102 9.01 171.102 9.18C171.102 9.25933 171.085 9.34433 171.051 9.435L168.229 16.575C168.161 16.7223 168.059 16.8413 167.923 16.932C167.798 17.0113 167.656 17.051 167.498 17.051C167.35 17.051 167.209 17.0113 167.073 16.932C166.948 16.8413 166.852 16.7223 166.784 16.575L164.438 10.608L162.109 16.575C162.052 16.7223 161.956 16.8413 161.82 16.932C161.684 17.0113 161.536 17.051 161.378 17.051C161.23 17.051 161.089 17.0113 160.953 16.932C160.817 16.8413 160.715 16.7223 160.647 16.575L157.825 9.452C157.791 9.36133 157.774 9.282 157.774 9.214C157.774 9.03267 157.847 8.87967 157.995 8.755C158.153 8.63033 158.323 8.568 158.505 8.568C158.777 8.568 158.969 8.704 159.083 8.976L161.412 15.249L163.809 9.027C163.877 8.87967 163.967 8.76633 164.081 8.687C164.205 8.60767 164.336 8.568 164.472 8.568C164.619 8.568 164.749 8.60767 164.863 8.687C164.987 8.76633 165.078 8.87967 165.135 9.027L167.532 15.232L169.878 8.993ZM176.1 8.517C178.174 8.517 179.211 9.605 179.211 11.781V16.405C179.211 16.609 179.149 16.7733 179.024 16.898C178.911 17.0227 178.752 17.085 178.548 17.085C178.344 17.085 178.18 17.0227 178.055 16.898C177.93 16.7733 177.868 16.609 177.868 16.405V15.589C177.653 16.0763 177.324 16.456 176.882 16.728C176.44 16.9887 175.93 17.119 175.352 17.119C174.819 17.119 174.326 17.0113 173.873 16.796C173.431 16.5807 173.08 16.2803 172.819 15.895C172.558 15.5097 172.428 15.0847 172.428 14.62C172.428 13.9967 172.587 13.515 172.904 13.175C173.221 12.8237 173.743 12.5743 174.468 12.427C175.193 12.2683 176.202 12.189 177.494 12.189H177.868V11.628C177.868 10.948 177.726 10.4493 177.443 10.132C177.171 9.81467 176.723 9.656 176.1 9.656C175.329 9.656 174.547 9.86567 173.754 10.285C173.448 10.4777 173.233 10.574 173.108 10.574C172.972 10.574 172.859 10.523 172.768 10.421C172.677 10.319 172.632 10.1887 172.632 10.03C172.632 9.87133 172.677 9.73533 172.768 9.622C172.87 9.49733 173.029 9.37267 173.244 9.248C173.641 9.02133 174.088 8.84567 174.587 8.721C175.097 8.585 175.601 8.517 176.1 8.517ZM175.539 16.031C176.219 16.031 176.774 15.8043 177.205 15.351C177.647 14.8863 177.868 14.2913 177.868 13.566V13.073H177.562C176.565 13.073 175.805 13.1183 175.284 13.209C174.763 13.2883 174.389 13.43 174.162 13.634C173.947 13.8267 173.839 14.1157 173.839 14.501C173.839 14.943 173.998 15.3113 174.315 15.606C174.644 15.8893 175.052 16.031 175.539 16.031ZM185.829 8.551C186.305 8.517 186.543 8.70967 186.543 9.129C186.543 9.31033 186.492 9.45767 186.39 9.571C186.288 9.673 186.112 9.73533 185.863 9.758L185.353 9.809C184.593 9.877 184.027 10.149 183.653 10.625C183.29 11.0897 183.109 11.6393 183.109 12.274V16.405C183.109 16.6317 183.046 16.8017 182.922 16.915C182.797 17.0283 182.633 17.085 182.429 17.085C182.225 17.085 182.055 17.0283 181.919 16.915C181.794 16.7903 181.732 16.6203 181.732 16.405V9.231C181.732 9.01567 181.8 8.85133 181.936 8.738C182.072 8.61333 182.236 8.551 182.429 8.551C182.61 8.551 182.763 8.61333 182.888 8.738C183.012 8.85133 183.075 9.01 183.075 9.214V10.166C183.313 9.66733 183.647 9.28767 184.078 9.027C184.52 8.76633 185.024 8.61333 185.591 8.568L185.829 8.551ZM194.206 4.93C194.421 4.93 194.591 4.99233 194.716 5.117C194.84 5.24167 194.903 5.40033 194.903 5.593V16.405C194.903 16.609 194.84 16.7733 194.716 16.898C194.591 17.0227 194.421 17.085 194.206 17.085C193.99 17.085 193.82 17.0227 193.696 16.898C193.582 16.7733 193.526 16.609 193.526 16.405V15.487C193.276 16.0083 192.908 16.4107 192.421 16.694C191.945 16.9773 191.384 17.119 190.738 17.119C190.012 17.119 189.372 16.9377 188.817 16.575C188.261 16.2123 187.831 15.708 187.525 15.062C187.219 14.4047 187.066 13.6453 187.066 12.784C187.066 11.934 187.219 11.186 187.525 10.54C187.831 9.894 188.261 9.39533 188.817 9.044C189.372 8.69267 190.012 8.517 190.738 8.517C191.384 8.517 191.945 8.65867 192.421 8.942C192.908 9.22533 193.276 9.62767 193.526 10.149V5.593C193.526 5.389 193.582 5.23033 193.696 5.117C193.82 4.99233 193.99 4.93 194.206 4.93ZM191.01 15.98C191.814 15.98 192.432 15.708 192.863 15.164C193.305 14.6087 193.526 13.8267 193.526 12.818C193.526 11.8093 193.305 11.033 192.863 10.489C192.432 9.945 191.814 9.673 191.01 9.673C190.205 9.673 189.576 9.945 189.123 10.489C188.681 11.033 188.46 11.798 188.46 12.784C188.46 13.7927 188.681 14.5803 189.123 15.147C189.576 15.7023 190.205 15.98 191.01 15.98ZM205.491 6.103C204.89 6.14833 204.437 6.341 204.131 6.681C203.825 7.00967 203.672 7.50833 203.672 8.177V8.721H205.559C205.752 8.721 205.899 8.772 206.001 8.874C206.103 8.976 206.154 9.112 206.154 9.282C206.154 9.452 206.103 9.58233 206.001 9.673C205.899 9.76367 205.752 9.809 205.559 9.809H203.672V16.405C203.672 16.6203 203.604 16.7903 203.468 16.915C203.343 17.0283 203.185 17.085 202.992 17.085C202.788 17.085 202.618 17.0283 202.482 16.915C202.357 16.7903 202.295 16.6203 202.295 16.405V9.809H201.156C200.963 9.809 200.81 9.76367 200.697 9.673C200.595 9.571 200.544 9.44067 200.544 9.282C200.544 9.112 200.595 8.976 200.697 8.874C200.81 8.772 200.963 8.721 201.156 8.721H202.295V8.415C202.295 7.395 202.55 6.596 203.06 6.018C203.57 5.42867 204.301 5.1 205.253 5.032L205.695 4.998C205.99 4.97533 206.199 5.00367 206.324 5.083C206.46 5.16233 206.528 5.304 206.528 5.508C206.528 5.83667 206.33 6.02367 205.933 6.069L205.491 6.103ZM210.765 17.119C209.983 17.119 209.292 16.9433 208.691 16.592C208.102 16.2407 207.643 15.742 207.314 15.096C206.997 14.4387 206.838 13.6793 206.838 12.818C206.838 11.9567 206.997 11.203 207.314 10.557C207.643 9.89967 208.102 9.39533 208.691 9.044C209.292 8.69267 209.983 8.517 210.765 8.517C211.547 8.517 212.238 8.69267 212.839 9.044C213.44 9.39533 213.899 9.89967 214.216 10.557C214.545 11.203 214.709 11.9567 214.709 12.818C214.709 13.6793 214.545 14.4387 214.216 15.096C213.899 15.742 213.44 16.2407 212.839 16.592C212.238 16.9433 211.547 17.119 210.765 17.119ZM210.765 15.98C211.581 15.98 212.204 15.7137 212.635 15.181C213.077 14.637 213.298 13.8493 213.298 12.818C213.298 11.8093 213.077 11.033 212.635 10.489C212.193 9.93367 211.57 9.656 210.765 9.656C209.96 9.656 209.337 9.93367 208.895 10.489C208.453 11.033 208.232 11.8093 208.232 12.818C208.232 13.838 208.447 14.62 208.878 15.164C209.32 15.708 209.949 15.98 210.765 15.98ZM220.858 8.551C221.334 8.517 221.572 8.70967 221.572 9.129C221.572 9.31033 221.521 9.45767 221.419 9.571C221.317 9.673 221.141 9.73533 220.892 9.758L220.382 9.809C219.623 9.877 219.056 10.149 218.682 10.625C218.319 11.0897 218.138 11.6393 218.138 12.274V16.405C218.138 16.6317 218.076 16.8017 217.951 16.915C217.826 17.0283 217.662 17.085 217.458 17.085C217.254 17.085 217.084 17.0283 216.948 16.915C216.823 16.7903 216.761 16.6203 216.761 16.405V9.231C216.761 9.01567 216.829 8.85133 216.965 8.738C217.101 8.61333 217.265 8.551 217.458 8.551C217.639 8.551 217.792 8.61333 217.917 8.738C218.042 8.85133 218.104 9.01 218.104 9.214V10.166C218.342 9.66733 218.676 9.28767 219.107 9.027C219.549 8.76633 220.053 8.61333 220.62 8.568L220.858 8.551ZM10.7694 38.079C10.8941 38.079 11.0018 38.13 11.0924 38.232C11.1831 38.334 11.2284 38.4643 11.2284 38.623C11.2284 38.9063 11.0301 39.167 10.6334 39.405C10.2254 39.643 9.79478 39.8243 9.34145 39.949C8.88812 40.0623 8.44612 40.119 8.01545 40.119C6.73478 40.119 5.72045 39.7393 4.97245 38.98C4.23578 38.2207 3.86745 37.1723 3.86745 35.835C3.86745 34.985 4.03178 34.237 4.36045 33.591C4.68912 32.9337 5.14812 32.4237 5.73745 32.061C6.33812 31.6983 7.01812 31.517 7.77745 31.517C8.85412 31.517 9.70978 31.8683 10.3444 32.571C10.9791 33.2737 11.2964 34.2257 11.2964 35.427C11.2964 35.6537 11.2511 35.818 11.1604 35.92C11.0698 36.022 10.9224 36.073 10.7184 36.073H5.24445C5.34645 38.0223 6.27012 38.997 8.01545 38.997C8.45745 38.997 8.83712 38.9403 9.15445 38.827C9.47178 38.7023 9.81178 38.538 10.1744 38.334C10.4691 38.164 10.6674 38.079 10.7694 38.079ZM7.79445 32.588C7.06912 32.588 6.48545 32.8147 6.04345 33.268C5.61278 33.7213 5.35778 34.3617 5.27845 35.189H10.0894C10.0668 34.3503 9.85712 33.71 9.46045 33.268C9.06378 32.8147 8.50845 32.588 7.79445 32.588ZM19.1927 31.976C19.3174 31.704 19.5157 31.568 19.7877 31.568C19.9577 31.568 20.1107 31.6247 20.2467 31.738C20.3827 31.8513 20.4507 31.993 20.4507 32.163C20.4507 32.265 20.428 32.3557 20.3827 32.435L17.0677 39.575C16.9997 39.7223 16.8977 39.8413 16.7617 39.932C16.6257 40.0113 16.4784 40.051 16.3197 40.051C16.1724 40.051 16.0307 40.0113 15.8947 39.932C15.7587 39.8413 15.651 39.7223 15.5717 39.575L12.2737 32.435C12.2284 32.3557 12.2057 32.2707 12.2057 32.18C12.2057 32.01 12.2794 31.8627 12.4267 31.738C12.5854 31.6133 12.7554 31.551 12.9367 31.551C13.05 31.551 13.1577 31.585 13.2597 31.653C13.373 31.721 13.458 31.8173 13.5147 31.942L16.3537 38.317L19.1927 31.976ZM28.2675 38.079C28.3922 38.079 28.4998 38.13 28.5905 38.232C28.6812 38.334 28.7265 38.4643 28.7265 38.623C28.7265 38.9063 28.5282 39.167 28.1315 39.405C27.7235 39.643 27.2928 39.8243 26.8395 39.949C26.3862 40.0623 25.9442 40.119 25.5135 40.119C24.2328 40.119 23.2185 39.7393 22.4705 38.98C21.7338 38.2207 21.3655 37.1723 21.3655 35.835C21.3655 34.985 21.5298 34.237 21.8585 33.591C22.1872 32.9337 22.6462 32.4237 23.2355 32.061C23.8362 31.6983 24.5162 31.517 25.2755 31.517C26.3522 31.517 27.2078 31.8683 27.8425 32.571C28.4772 33.2737 28.7945 34.2257 28.7945 35.427C28.7945 35.6537 28.7492 35.818 28.6585 35.92C28.5678 36.022 28.4205 36.073 28.2165 36.073H22.7425C22.8445 38.0223 23.7682 38.997 25.5135 38.997C25.9555 38.997 26.3352 38.9403 26.6525 38.827C26.9698 38.7023 27.3098 38.538 27.6725 38.334C27.9672 38.164 28.1655 38.079 28.2675 38.079ZM25.2925 32.588C24.5672 32.588 23.9835 32.8147 23.5415 33.268C23.1108 33.7213 22.8558 34.3617 22.7765 35.189H27.5875C27.5648 34.3503 27.3552 33.71 26.9585 33.268C26.5618 32.8147 26.0065 32.588 25.2925 32.588ZM34.9203 31.551C35.3963 31.517 35.6343 31.7097 35.6343 32.129C35.6343 32.3103 35.5833 32.4577 35.4813 32.571C35.3793 32.673 35.2037 32.7353 34.9543 32.758L34.4443 32.809C33.685 32.877 33.1183 33.149 32.7443 33.625C32.3817 34.0897 32.2003 34.6393 32.2003 35.274V39.405C32.2003 39.6317 32.138 39.8017 32.0133 39.915C31.8887 40.0283 31.7243 40.085 31.5203 40.085C31.3163 40.085 31.1463 40.0283 31.0103 39.915C30.8857 39.7903 30.8233 39.6203 30.8233 39.405V32.231C30.8233 32.0157 30.8913 31.8513 31.0273 31.738C31.1633 31.6133 31.3277 31.551 31.5203 31.551C31.7017 31.551 31.8547 31.6133 31.9793 31.738C32.104 31.8513 32.1663 32.01 32.1663 32.214V33.166C32.4043 32.6673 32.7387 32.2877 33.1693 32.027C33.6113 31.7663 34.1157 31.6133 34.6823 31.568L34.9203 31.551ZM43.2982 31.976C43.4228 31.704 43.6212 31.568 43.8932 31.568C44.0632 31.568 44.2162 31.6247 44.3522 31.738C44.4882 31.8513 44.5562 31.993 44.5562 32.163C44.5562 32.265 44.5335 32.3557 44.4882 32.435L39.7112 42.737C39.6545 42.8617 39.5695 42.958 39.4562 43.026C39.3542 43.094 39.2465 43.128 39.1332 43.128C38.9632 43.128 38.8102 43.0713 38.6742 42.958C38.5495 42.856 38.4872 42.72 38.4872 42.55C38.4872 42.4593 38.5098 42.3687 38.5552 42.278L39.7452 39.711L36.3792 32.435C36.3338 32.3557 36.3112 32.2707 36.3112 32.18C36.3112 32.01 36.3848 31.8627 36.5322 31.738C36.6908 31.6133 36.8608 31.551 37.0422 31.551C37.1555 31.551 37.2632 31.585 37.3652 31.653C37.4785 31.721 37.5635 31.8173 37.6202 31.942L40.4592 38.317L43.2982 31.976ZM56.8554 38.079C56.9801 38.079 57.0877 38.13 57.1784 38.232C57.2691 38.334 57.3144 38.4643 57.3144 38.623C57.3144 38.9063 57.1161 39.167 56.7194 39.405C56.3114 39.643 55.8807 39.8243 55.4274 39.949C54.9741 40.0623 54.5321 40.119 54.1014 40.119C52.8207 40.119 51.8064 39.7393 51.0584 38.98C50.3217 38.2207 49.9534 37.1723 49.9534 35.835C49.9534 34.985 50.1177 34.237 50.4464 33.591C50.7751 32.9337 51.2341 32.4237 51.8234 32.061C52.4241 31.6983 53.1041 31.517 53.8634 31.517C54.9401 31.517 55.7957 31.8683 56.4304 32.571C57.0651 33.2737 57.3824 34.2257 57.3824 35.427C57.3824 35.6537 57.3371 35.818 57.2464 35.92C57.1557 36.022 57.0084 36.073 56.8044 36.073H51.3304C51.4324 38.0223 52.3561 38.997 54.1014 38.997C54.5434 38.997 54.9231 38.9403 55.2404 38.827C55.5577 38.7023 55.8977 38.538 56.2604 38.334C56.5551 38.164 56.7534 38.079 56.8554 38.079ZM53.8804 32.588C53.1551 32.588 52.5714 32.8147 52.1294 33.268C51.6987 33.7213 51.4437 34.3617 51.3644 35.189H56.1754C56.1527 34.3503 55.9431 33.71 55.5464 33.268C55.1497 32.8147 54.5944 32.588 53.8804 32.588ZM66.0452 38.946C66.1812 39.082 66.2492 39.2463 66.2492 39.439C66.2492 39.609 66.1869 39.7563 66.0622 39.881C65.9375 40.0057 65.7902 40.068 65.6202 40.068C65.4389 40.068 65.2745 39.9887 65.1272 39.83L62.3732 36.685L59.6362 39.83C59.4889 39.9887 59.3245 40.068 59.1432 40.068C58.9732 40.068 58.8202 40.0057 58.6842 39.881C58.5595 39.7563 58.4972 39.6033 58.4972 39.422C58.4972 39.252 58.5652 39.0933 58.7012 38.946L61.5232 35.767L58.8202 32.69C58.6842 32.5313 58.6162 32.3727 58.6162 32.214C58.6162 32.0327 58.6785 31.8797 58.8032 31.755C58.9392 31.6303 59.0865 31.568 59.2452 31.568C59.4265 31.568 59.5909 31.6473 59.7382 31.806L62.3732 34.832L65.0082 31.806C65.1555 31.6473 65.3199 31.568 65.5012 31.568C65.6712 31.568 65.8185 31.6303 65.9432 31.755C66.0679 31.8797 66.1302 32.027 66.1302 32.197C66.1302 32.3897 66.0622 32.554 65.9262 32.69L63.2232 35.767L66.0452 38.946ZM72.209 31.517C72.9344 31.517 73.5747 31.6983 74.13 32.061C74.6854 32.4237 75.116 32.9337 75.422 33.591C75.728 34.237 75.881 34.9907 75.881 35.852C75.881 36.7133 75.728 37.467 75.422 38.113C75.116 38.7477 74.6854 39.2407 74.13 39.592C73.586 39.9433 72.9457 40.119 72.209 40.119C71.563 40.119 70.9964 39.9773 70.509 39.694C70.033 39.4107 69.6704 39.0083 69.421 38.487V42.482C69.421 42.686 69.3587 42.8447 69.234 42.958C69.1207 43.0827 68.9564 43.145 68.741 43.145C68.5257 43.145 68.3557 43.0827 68.231 42.958C68.1064 42.8333 68.044 42.6747 68.044 42.482V32.231C68.044 32.027 68.1064 31.8627 68.231 31.738C68.3557 31.6133 68.5257 31.551 68.741 31.551C68.9564 31.551 69.1207 31.6133 69.234 31.738C69.3587 31.8627 69.421 32.027 69.421 32.231V33.149C69.6704 32.6277 70.033 32.2253 70.509 31.942C70.9964 31.6587 71.563 31.517 72.209 31.517ZM71.937 38.98C72.7417 38.98 73.365 38.708 73.807 38.164C74.249 37.62 74.47 36.8493 74.47 35.852C74.47 34.8547 74.249 34.0783 73.807 33.523C73.365 32.9563 72.7417 32.673 71.937 32.673C71.1324 32.673 70.509 32.945 70.067 33.489C69.6364 34.033 69.421 34.8093 69.421 35.818C69.421 36.8267 69.6364 37.6087 70.067 38.164C70.509 38.708 71.1324 38.98 71.937 38.98ZM81.3726 40.119C80.5906 40.119 79.8992 39.9433 79.2986 39.592C78.7092 39.2407 78.2502 38.742 77.9216 38.096C77.6042 37.4387 77.4456 36.6793 77.4456 35.818C77.4456 34.9567 77.6042 34.203 77.9216 33.557C78.2502 32.8997 78.7092 32.3953 79.2986 32.044C79.8992 31.6927 80.5906 31.517 81.3726 31.517C82.1546 31.517 82.8459 31.6927 83.4466 32.044C84.0472 32.3953 84.5062 32.8997 84.8236 33.557C85.1522 34.203 85.3166 34.9567 85.3166 35.818C85.3166 36.6793 85.1522 37.4387 84.8236 38.096C84.5062 38.742 84.0472 39.2407 83.4466 39.592C82.8459 39.9433 82.1546 40.119 81.3726 40.119ZM81.3726 38.98C82.1886 38.98 82.8119 38.7137 83.2426 38.181C83.6846 37.637 83.9056 36.8493 83.9056 35.818C83.9056 34.8093 83.6846 34.033 83.2426 33.489C82.8006 32.9337 82.1772 32.656 81.3726 32.656C80.5679 32.656 79.9446 32.9337 79.5026 33.489C79.0606 34.033 78.8396 34.8093 78.8396 35.818C78.8396 36.838 79.0549 37.62 79.4856 38.164C79.9276 38.708 80.5566 38.98 81.3726 38.98ZM90.1563 40.119C89.6349 40.119 89.1363 40.0567 88.6603 39.932C88.1956 39.8073 87.7819 39.6317 87.4193 39.405C87.2153 39.269 87.0679 39.1443 86.9773 39.031C86.8979 38.9063 86.8583 38.759 86.8583 38.589C86.8583 38.4417 86.8979 38.3227 86.9773 38.232C87.0679 38.13 87.1813 38.079 87.3173 38.079C87.4533 38.079 87.6516 38.164 87.9123 38.334C88.2523 38.538 88.5866 38.7023 88.9153 38.827C89.2553 38.9403 89.6746 38.997 90.1733 38.997C90.7853 38.997 91.2613 38.8893 91.6013 38.674C91.9413 38.4587 92.1113 38.147 92.1113 37.739C92.1113 37.4897 92.0489 37.2913 91.9243 37.144C91.7996 36.9853 91.5843 36.8493 91.2783 36.736C90.9723 36.6113 90.5246 36.4867 89.9353 36.362C88.9379 36.1467 88.2239 35.8577 87.7933 35.495C87.3626 35.1323 87.1473 34.6393 87.1473 34.016C87.1473 33.5287 87.2833 33.098 87.5553 32.724C87.8273 32.35 88.2013 32.0553 88.6773 31.84C89.1646 31.6247 89.7143 31.517 90.3263 31.517C90.7683 31.517 91.1933 31.5793 91.6013 31.704C92.0206 31.8173 92.3889 31.9817 92.7063 32.197C93.0916 32.469 93.2843 32.7523 93.2843 33.047C93.2843 33.1943 93.2389 33.319 93.1483 33.421C93.0576 33.523 92.9499 33.574 92.8253 33.574C92.6893 33.574 92.4853 33.4777 92.2133 33.285C91.8959 33.081 91.5956 32.9223 91.3123 32.809C91.0289 32.6957 90.6776 32.639 90.2583 32.639C89.7256 32.639 89.2949 32.758 88.9663 32.996C88.6489 33.234 88.4903 33.5513 88.4903 33.948C88.4903 34.1973 88.5469 34.4013 88.6603 34.56C88.7849 34.7073 88.9833 34.8433 89.2553 34.968C89.5386 35.0813 89.9409 35.1947 90.4623 35.308C91.2329 35.478 91.8279 35.665 92.2473 35.869C92.6779 36.073 92.9839 36.3223 93.1653 36.617C93.3466 36.9117 93.4373 37.2857 93.4373 37.739C93.4373 38.453 93.1369 39.031 92.5363 39.473C91.9356 39.9037 91.1423 40.119 90.1563 40.119ZM101.826 31.551C102.042 31.551 102.206 31.6133 102.319 31.738C102.444 31.8627 102.506 32.027 102.506 32.231V39.422C102.506 39.6147 102.444 39.7733 102.319 39.898C102.206 40.0227 102.042 40.085 101.826 40.085C101.622 40.085 101.458 40.0283 101.333 39.915C101.22 39.7903 101.163 39.6317 101.163 39.439V38.589C100.903 39.0877 100.534 39.4673 100.058 39.728C99.5936 39.9887 99.0666 40.119 98.4772 40.119C97.4912 40.119 96.7489 39.847 96.2502 39.303C95.7516 38.7477 95.5022 37.9317 95.5022 36.855V32.231C95.5022 32.027 95.5646 31.8627 95.6892 31.738C95.8139 31.6133 95.9839 31.551 96.1992 31.551C96.4146 31.551 96.5789 31.6133 96.6922 31.738C96.8169 31.8627 96.8792 32.027 96.8792 32.231V36.821C96.8792 37.5577 97.0266 38.1017 97.3212 38.453C97.6159 38.793 98.0806 38.963 98.7152 38.963C99.4406 38.963 100.024 38.7307 100.466 38.266C100.908 37.79 101.129 37.1667 101.129 36.396V32.231C101.129 32.027 101.192 31.8627 101.316 31.738C101.441 31.6133 101.611 31.551 101.826 31.551ZM109.163 31.551C109.639 31.517 109.877 31.7097 109.877 32.129C109.877 32.3103 109.826 32.4577 109.724 32.571C109.622 32.673 109.446 32.7353 109.197 32.758L108.687 32.809C107.927 32.877 107.361 33.149 106.987 33.625C106.624 34.0897 106.443 34.6393 106.443 35.274V39.405C106.443 39.6317 106.38 39.8017 106.256 39.915C106.131 40.0283 105.967 40.085 105.763 40.085C105.559 40.085 105.389 40.0283 105.253 39.915C105.128 39.7903 105.066 39.6203 105.066 39.405V32.231C105.066 32.0157 105.134 31.8513 105.27 31.738C105.406 31.6133 105.57 31.551 105.763 31.551C105.944 31.551 106.097 31.6133 106.222 31.738C106.346 31.8513 106.409 32.01 106.409 32.214V33.166C106.647 32.6673 106.981 32.2877 107.412 32.027C107.854 31.7663 108.358 31.6133 108.925 31.568L109.163 31.551ZM117.302 38.079C117.426 38.079 117.534 38.13 117.625 38.232C117.715 38.334 117.761 38.4643 117.761 38.623C117.761 38.9063 117.562 39.167 117.166 39.405C116.758 39.643 116.327 39.8243 115.874 39.949C115.42 40.0623 114.978 40.119 114.548 40.119C113.267 40.119 112.253 39.7393 111.505 38.98C110.768 38.2207 110.4 37.1723 110.4 35.835C110.4 34.985 110.564 34.237 110.893 33.591C111.221 32.9337 111.68 32.4237 112.27 32.061C112.87 31.6983 113.55 31.517 114.31 31.517C115.386 31.517 116.242 31.8683 116.877 32.571C117.511 33.2737 117.829 34.2257 117.829 35.427C117.829 35.6537 117.783 35.818 117.693 35.92C117.602 36.022 117.455 36.073 117.251 36.073H111.777C111.879 38.0223 112.802 38.997 114.548 38.997C114.99 38.997 115.369 38.9403 115.687 38.827C116.004 38.7023 116.344 38.538 116.707 38.334C117.001 38.164 117.2 38.079 117.302 38.079ZM114.327 32.588C113.601 32.588 113.018 32.8147 112.576 33.268C112.145 33.7213 111.89 34.3617 111.811 35.189H116.622C116.599 34.3503 116.389 33.71 115.993 33.268C115.596 32.8147 115.041 32.588 114.327 32.588ZM130.207 31.976C130.332 31.704 130.53 31.568 130.802 31.568C130.972 31.568 131.125 31.6247 131.261 31.738C131.397 31.8513 131.465 31.993 131.465 32.163C131.465 32.265 131.443 32.3557 131.397 32.435L126.62 42.737C126.564 42.8617 126.479 42.958 126.365 43.026C126.263 43.094 126.156 43.128 126.042 43.128C125.872 43.128 125.719 43.0713 125.583 42.958C125.459 42.856 125.396 42.72 125.396 42.55C125.396 42.4593 125.419 42.3687 125.464 42.278L126.654 39.711L123.288 32.435C123.243 32.3557 123.22 32.2707 123.22 32.18C123.22 32.01 123.294 31.8627 123.441 31.738C123.6 31.6133 123.77 31.551 123.951 31.551C124.065 31.551 124.172 31.585 124.274 31.653C124.388 31.721 124.473 31.8173 124.529 31.942L127.368 38.317L130.207 31.976ZM136.307 40.119C135.525 40.119 134.834 39.9433 134.233 39.592C133.644 39.2407 133.185 38.742 132.856 38.096C132.539 37.4387 132.38 36.6793 132.38 35.818C132.38 34.9567 132.539 34.203 132.856 33.557C133.185 32.8997 133.644 32.3953 134.233 32.044C134.834 31.6927 135.525 31.517 136.307 31.517C137.089 31.517 137.78 31.6927 138.381 32.044C138.982 32.3953 139.441 32.8997 139.758 33.557C140.087 34.203 140.251 34.9567 140.251 35.818C140.251 36.6793 140.087 37.4387 139.758 38.096C139.441 38.742 138.982 39.2407 138.381 39.592C137.78 39.9433 137.089 40.119 136.307 40.119ZM136.307 38.98C137.123 38.98 137.746 38.7137 138.177 38.181C138.619 37.637 138.84 36.8493 138.84 35.818C138.84 34.8093 138.619 34.033 138.177 33.489C137.735 32.9337 137.112 32.656 136.307 32.656C135.502 32.656 134.879 32.9337 134.437 33.489C133.995 34.033 133.774 34.8093 133.774 35.818C133.774 36.838 133.989 37.62 134.42 38.164C134.862 38.708 135.491 38.98 136.307 38.98ZM148.593 31.551C148.808 31.551 148.972 31.6133 149.086 31.738C149.21 31.8627 149.273 32.027 149.273 32.231V39.422C149.273 39.6147 149.21 39.7733 149.086 39.898C148.972 40.0227 148.808 40.085 148.593 40.085C148.389 40.085 148.224 40.0283 148.1 39.915C147.986 39.7903 147.93 39.6317 147.93 39.439V38.589C147.669 39.0877 147.301 39.4673 146.825 39.728C146.36 39.9887 145.833 40.119 145.244 40.119C144.258 40.119 143.515 39.847 143.017 39.303C142.518 38.7477 142.269 37.9317 142.269 36.855V32.231C142.269 32.027 142.331 31.8627 142.456 31.738C142.58 31.6133 142.75 31.551 142.966 31.551C143.181 31.551 143.345 31.6133 143.459 31.738C143.583 31.8627 143.646 32.027 143.646 32.231V36.821C143.646 37.5577 143.793 38.1017 144.088 38.453C144.382 38.793 144.847 38.963 145.482 38.963C146.207 38.963 146.791 38.7307 147.233 38.266C147.675 37.79 147.896 37.1667 147.896 36.396V32.231C147.896 32.027 147.958 31.8627 148.083 31.738C148.207 31.6133 148.377 31.551 148.593 31.551ZM159.632 40.119C158.861 40.119 158.176 39.9433 157.575 39.592C156.986 39.2407 156.527 38.742 156.198 38.096C155.881 37.45 155.722 36.702 155.722 35.852C155.722 35.002 155.886 34.2483 156.215 33.591C156.555 32.9337 157.025 32.4237 157.626 32.061C158.227 31.6983 158.918 31.517 159.7 31.517C160.131 31.517 160.556 31.5793 160.975 31.704C161.406 31.8173 161.78 31.9873 162.097 32.214C162.301 32.35 162.443 32.486 162.522 32.622C162.613 32.7467 162.658 32.8883 162.658 33.047C162.658 33.2057 162.613 33.336 162.522 33.438C162.443 33.54 162.335 33.591 162.199 33.591C162.12 33.591 162.035 33.5683 161.944 33.523C161.853 33.4777 161.774 33.4323 161.706 33.387C161.649 33.3417 161.61 33.3133 161.587 33.302C161.292 33.1093 161.009 32.9563 160.737 32.843C160.476 32.7297 160.153 32.673 159.768 32.673C158.941 32.673 158.295 32.9563 157.83 33.523C157.377 34.0783 157.15 34.8547 157.15 35.852C157.15 36.8493 157.377 37.62 157.83 38.164C158.295 38.708 158.941 38.98 159.768 38.98C160.153 38.98 160.482 38.9233 160.754 38.81C161.037 38.6967 161.321 38.5437 161.604 38.351C161.729 38.2717 161.848 38.2037 161.961 38.147C162.074 38.0903 162.171 38.062 162.25 38.062C162.375 38.062 162.477 38.113 162.556 38.215C162.647 38.317 162.692 38.4473 162.692 38.606C162.692 38.7533 162.652 38.8893 162.573 39.014C162.494 39.1273 162.346 39.2577 162.131 39.405C161.814 39.6203 161.428 39.796 160.975 39.932C160.533 40.0567 160.085 40.119 159.632 40.119ZM167.733 31.517C169.807 31.517 170.844 32.605 170.844 34.781V39.405C170.844 39.609 170.781 39.7733 170.657 39.898C170.543 40.0227 170.385 40.085 170.181 40.085C169.977 40.085 169.812 40.0227 169.688 39.898C169.563 39.7733 169.501 39.609 169.501 39.405V38.589C169.285 39.0763 168.957 39.456 168.515 39.728C168.073 39.9887 167.563 40.119 166.985 40.119C166.452 40.119 165.959 40.0113 165.506 39.796C165.064 39.5807 164.712 39.2803 164.452 38.895C164.191 38.5097 164.061 38.0847 164.061 37.62C164.061 36.9967 164.219 36.515 164.537 36.175C164.854 35.8237 165.375 35.5743 166.101 35.427C166.826 35.2683 167.835 35.189 169.127 35.189H169.501V34.628C169.501 33.948 169.359 33.4493 169.076 33.132C168.804 32.8147 168.356 32.656 167.733 32.656C166.962 32.656 166.18 32.8657 165.387 33.285C165.081 33.4777 164.865 33.574 164.741 33.574C164.605 33.574 164.491 33.523 164.401 33.421C164.31 33.319 164.265 33.1887 164.265 33.03C164.265 32.8713 164.31 32.7353 164.401 32.622C164.503 32.4973 164.661 32.3727 164.877 32.248C165.273 32.0213 165.721 31.8457 166.22 31.721C166.73 31.585 167.234 31.517 167.733 31.517ZM167.172 39.031C167.852 39.031 168.407 38.8043 168.838 38.351C169.28 37.8863 169.501 37.2913 169.501 36.566V36.073H169.195C168.197 36.073 167.438 36.1183 166.917 36.209C166.395 36.2883 166.021 36.43 165.795 36.634C165.579 36.8267 165.472 37.1157 165.472 37.501C165.472 37.943 165.63 38.3113 165.948 38.606C166.276 38.8893 166.684 39.031 167.172 39.031ZM177.529 31.517C179.513 31.517 180.504 32.6107 180.504 34.798V39.405C180.504 39.6203 180.442 39.7903 180.317 39.915C180.204 40.0283 180.04 40.085 179.824 40.085C179.609 40.085 179.439 40.0283 179.314 39.915C179.19 39.7903 179.127 39.6203 179.127 39.405V34.883C179.127 34.1123 178.974 33.5513 178.668 33.2C178.374 32.8487 177.898 32.673 177.24 32.673C176.481 32.673 175.875 32.9053 175.421 33.37C174.968 33.8347 174.741 34.4637 174.741 35.257V39.405C174.741 39.6203 174.679 39.7903 174.554 39.915C174.441 40.0283 174.277 40.085 174.061 40.085C173.846 40.085 173.676 40.0283 173.551 39.915C173.427 39.7903 173.364 39.6203 173.364 39.405V32.231C173.364 32.027 173.427 31.8627 173.551 31.738C173.676 31.6133 173.846 31.551 174.061 31.551C174.265 31.551 174.424 31.6133 174.537 31.738C174.662 31.8627 174.724 32.0213 174.724 32.214V33.081C174.996 32.571 175.376 32.1857 175.863 31.925C176.351 31.653 176.906 31.517 177.529 31.517ZM190.197 40.119C189.676 40.119 189.177 40.0567 188.701 39.932C188.237 39.8073 187.823 39.6317 187.46 39.405C187.256 39.269 187.109 39.1443 187.018 39.031C186.939 38.9063 186.899 38.759 186.899 38.589C186.899 38.4417 186.939 38.3227 187.018 38.232C187.109 38.13 187.222 38.079 187.358 38.079C187.494 38.079 187.693 38.164 187.953 38.334C188.293 38.538 188.628 38.7023 188.956 38.827C189.296 38.9403 189.716 38.997 190.214 38.997C190.826 38.997 191.302 38.8893 191.642 38.674C191.982 38.4587 192.152 38.147 192.152 37.739C192.152 37.4897 192.09 37.2913 191.965 37.144C191.841 36.9853 191.625 36.8493 191.319 36.736C191.013 36.6113 190.566 36.4867 189.976 36.362C188.979 36.1467 188.265 35.8577 187.834 35.495C187.404 35.1323 187.188 34.6393 187.188 34.016C187.188 33.5287 187.324 33.098 187.596 32.724C187.868 32.35 188.242 32.0553 188.718 31.84C189.206 31.6247 189.755 31.517 190.367 31.517C190.809 31.517 191.234 31.5793 191.642 31.704C192.062 31.8173 192.43 31.9817 192.747 32.197C193.133 32.469 193.325 32.7523 193.325 33.047C193.325 33.1943 193.28 33.319 193.189 33.421C193.099 33.523 192.991 33.574 192.866 33.574C192.73 33.574 192.526 33.4777 192.254 33.285C191.937 33.081 191.637 32.9223 191.353 32.809C191.07 32.6957 190.719 32.639 190.299 32.639C189.767 32.639 189.336 32.758 189.007 32.996C188.69 33.234 188.531 33.5513 188.531 33.948C188.531 34.1973 188.588 34.4013 188.701 34.56C188.826 34.7073 189.024 34.8433 189.296 34.968C189.58 35.0813 189.982 35.1947 190.503 35.308C191.274 35.478 191.869 35.665 192.288 35.869C192.719 36.073 193.025 36.3223 193.206 36.617C193.388 36.9117 193.478 37.2857 193.478 37.739C193.478 38.453 193.178 39.031 192.577 39.473C191.977 39.9037 191.183 40.119 190.197 40.119ZM198.96 31.517C201.034 31.517 202.071 32.605 202.071 34.781V39.405C202.071 39.609 202.009 39.7733 201.884 39.898C201.771 40.0227 201.612 40.085 201.408 40.085C201.204 40.085 201.04 40.0227 200.915 39.898C200.791 39.7733 200.728 39.609 200.728 39.405V38.589C200.513 39.0763 200.184 39.456 199.742 39.728C199.3 39.9887 198.79 40.119 198.212 40.119C197.68 40.119 197.187 40.0113 196.733 39.796C196.291 39.5807 195.94 39.2803 195.679 38.895C195.419 38.5097 195.288 38.0847 195.288 37.62C195.288 36.9967 195.447 36.515 195.764 36.175C196.082 35.8237 196.603 35.5743 197.328 35.427C198.054 35.2683 199.062 35.189 200.354 35.189H200.728V34.628C200.728 33.948 200.587 33.4493 200.303 33.132C200.031 32.8147 199.584 32.656 198.96 32.656C198.19 32.656 197.408 32.8657 196.614 33.285C196.308 33.4777 196.093 33.574 195.968 33.574C195.832 33.574 195.719 33.523 195.628 33.421C195.538 33.319 195.492 33.1887 195.492 33.03C195.492 32.8713 195.538 32.7353 195.628 32.622C195.73 32.4973 195.889 32.3727 196.104 32.248C196.501 32.0213 196.949 31.8457 197.447 31.721C197.957 31.585 198.462 31.517 198.96 31.517ZM198.399 39.031C199.079 39.031 199.635 38.8043 200.065 38.351C200.507 37.8863 200.728 37.2913 200.728 36.566V36.073H200.422C199.425 36.073 198.666 36.1183 198.144 36.209C197.623 36.2883 197.249 36.43 197.022 36.634C196.807 36.8267 196.699 37.1157 196.699 37.501C196.699 37.943 196.858 38.3113 197.175 38.606C197.504 38.8893 197.912 39.031 198.399 39.031ZM210.559 31.976C210.684 31.704 210.882 31.568 211.154 31.568C211.324 31.568 211.477 31.6247 211.613 31.738C211.749 31.8513 211.817 31.993 211.817 32.163C211.817 32.265 211.794 32.3557 211.749 32.435L208.434 39.575C208.366 39.7223 208.264 39.8413 208.128 39.932C207.992 40.0113 207.845 40.051 207.686 40.051C207.539 40.051 207.397 40.0113 207.261 39.932C207.125 39.8413 207.017 39.7223 206.938 39.575L203.64 32.435C203.595 32.3557 203.572 32.2707 203.572 32.18C203.572 32.01 203.646 31.8627 203.793 31.738C203.952 31.6133 204.122 31.551 204.303 31.551C204.416 31.551 204.524 31.585 204.626 31.653C204.739 31.721 204.824 31.8173 204.881 31.942L207.72 38.317L210.559 31.976ZM219.634 38.079C219.758 38.079 219.866 38.13 219.957 38.232C220.047 38.334 220.093 38.4643 220.093 38.623C220.093 38.9063 219.894 39.167 219.498 39.405C219.09 39.643 218.659 39.8243 218.206 39.949C217.752 40.0623 217.31 40.119 216.88 40.119C215.599 40.119 214.585 39.7393 213.837 38.98C213.1 38.2207 212.732 37.1723 212.732 35.835C212.732 34.985 212.896 34.237 213.225 33.591C213.553 32.9337 214.012 32.4237 214.602 32.061C215.202 31.6983 215.882 31.517 216.642 31.517C217.718 31.517 218.574 31.8683 219.209 32.571C219.843 33.2737 220.161 34.2257 220.161 35.427C220.161 35.6537 220.115 35.818 220.025 35.92C219.934 36.022 219.787 36.073 219.583 36.073H214.109C214.211 38.0223 215.134 38.997 216.88 38.997C217.322 38.997 217.701 38.9403 218.019 38.827C218.336 38.7023 218.676 38.538 219.039 38.334C219.333 38.164 219.532 38.079 219.634 38.079ZM216.659 32.588C215.933 32.588 215.35 32.8147 214.908 33.268C214.477 33.7213 214.222 34.3617 214.143 35.189H218.954C218.931 34.3503 218.721 33.71 218.325 33.268C217.928 32.8147 217.373 32.588 216.659 32.588Z" fill="black"/>
</svg>
