<svg width="197" height="46" viewBox="0 0 197 46" fill="none" xmlns="http://www.w3.org/2000/svg">
<path d="M11.0489 34.306C9.30361 34.306 7.64895 34.0793 6.08495 33.626C4.54361 33.15 3.28561 32.5153 2.31095 31.722C1.78961 31.3367 1.52895 30.7927 1.52895 30.09C1.52895 29.614 1.66495 29.206 1.93695 28.866C2.23161 28.5033 2.57161 28.322 2.95695 28.322C3.36495 28.322 3.82961 28.4807 4.35095 28.798C5.32561 29.5007 6.34561 30.0107 7.41095 30.328C8.47628 30.6453 9.65495 30.804 10.9469 30.804C12.6016 30.804 13.8709 30.5207 14.7549 29.954C15.6389 29.3647 16.0809 28.5147 16.0809 27.404C16.0809 26.5427 15.6616 25.8853 14.8229 25.432C14.0069 24.956 12.6356 24.5027 10.7089 24.072C8.71428 23.6413 7.09361 23.1427 5.84695 22.576C4.60028 22.0093 3.65961 21.284 3.02495 20.4C2.39028 19.516 2.07295 18.394 2.07295 17.034C2.07295 15.6287 2.46961 14.3707 3.26295 13.26C4.05628 12.1493 5.15561 11.288 6.56095 10.676C7.98895 10.0413 9.58695 9.724 11.3549 9.724C14.5963 9.724 17.2369 10.5853 19.2769 12.308C19.5716 12.5573 19.7756 12.8067 19.8889 13.056C20.0249 13.2827 20.0929 13.5773 20.0929 13.94C20.0929 14.416 19.9456 14.8353 19.6509 15.198C19.3789 15.538 19.0503 15.708 18.6649 15.708C18.4383 15.708 18.2229 15.674 18.0189 15.606C17.8376 15.538 17.5883 15.4133 17.2709 15.232C16.3416 14.552 15.4349 14.0533 14.5509 13.736C13.6896 13.396 12.6243 13.226 11.3549 13.226C9.81361 13.226 8.58961 13.5433 7.68295 14.178C6.79895 14.79 6.35695 15.6513 6.35695 16.762C6.35695 17.6913 6.75361 18.4053 7.54695 18.904C8.34028 19.4027 9.68895 19.8673 11.5929 20.298C13.6103 20.7513 15.2423 21.2613 16.4889 21.828C17.7583 22.372 18.7216 23.0747 19.3789 23.936C20.0589 24.7973 20.3989 25.874 20.3989 27.166C20.3989 28.5713 20.0023 29.818 19.2089 30.906C18.4383 31.9713 17.3389 32.81 15.9109 33.422C14.5056 34.0113 12.8849 34.306 11.0489 34.306ZM45.9282 31.382C46.0642 31.6767 46.1322 31.9713 46.1322 32.266C46.1322 32.7873 45.9168 33.2293 45.4862 33.592C45.0782 33.9547 44.6022 34.136 44.0582 34.136C43.6955 34.136 43.3555 34.0453 43.0382 33.864C42.7208 33.66 42.4715 33.354 42.2902 32.946L40.2502 28.39H28.2822L26.2422 32.946C26.0608 33.354 25.8115 33.66 25.4942 33.864C25.1768 34.0453 24.8255 34.136 24.4402 34.136C23.9188 34.136 23.4428 33.9547 23.0122 33.592C22.5815 33.2293 22.3662 32.7873 22.3662 32.266C22.3662 31.9713 22.4342 31.6767 22.5702 31.382L31.9542 11.22C32.1582 10.7667 32.4642 10.4267 32.8722 10.2C33.3028 9.95067 33.7562 9.826 34.2322 9.826C34.7082 9.826 35.1502 9.95067 35.5582 10.2C35.9888 10.4267 36.3062 10.7667 36.5102 11.22L45.9282 31.382ZM29.7782 24.99H38.7542L34.2662 14.892L29.7782 24.99ZM64.5875 10.982C64.9502 10.2113 65.5509 9.826 66.3895 9.826C66.9562 9.826 67.4662 10.0073 67.9195 10.37C68.3729 10.7327 68.5995 11.186 68.5995 11.73C68.5995 11.9793 68.5315 12.2627 68.3955 12.58L58.9775 32.844C58.7735 33.2747 58.4562 33.6147 58.0255 33.864C57.6175 34.0907 57.1755 34.204 56.6995 34.204C56.2235 34.204 55.7702 34.0907 55.3395 33.864C54.9315 33.6147 54.6255 33.2747 54.4215 32.844L45.0375 12.58C44.9015 12.2627 44.8335 11.9907 44.8335 11.764C44.8335 11.1973 45.0602 10.7327 45.5135 10.37C45.9895 10.0073 46.5222 9.826 47.1115 9.826C47.4969 9.826 47.8482 9.928 48.1655 10.132C48.5055 10.3133 48.7662 10.5967 48.9475 10.982L56.7675 28.356L64.5875 10.982ZM73.525 34C72.8677 34 72.3463 33.8187 71.961 33.456C71.5983 33.0933 71.417 32.5833 71.417 31.926V12.104C71.417 11.4467 71.5983 10.9367 71.961 10.574C72.3463 10.2113 72.8677 10.03 73.525 10.03H85.799C86.4563 10.03 86.9663 10.1773 87.329 10.472C87.6917 10.7667 87.873 11.186 87.873 11.73C87.873 12.2967 87.6917 12.7387 87.329 13.056C86.9663 13.3507 86.4563 13.498 85.799 13.498H75.701V20.094H85.119C85.7763 20.094 86.2863 20.2413 86.649 20.536C87.0117 20.8307 87.193 21.2613 87.193 21.828C87.193 22.372 87.0117 22.7913 86.649 23.086C86.2863 23.3807 85.7763 23.528 85.119 23.528H75.701V30.532H85.799C86.4563 30.532 86.9663 30.6907 87.329 31.008C87.6917 31.3027 87.873 31.7333 87.873 32.3C87.873 32.844 87.6917 33.2633 87.329 33.558C86.9663 33.8527 86.4563 34 85.799 34H73.525ZM121.953 9.86C122.588 9.86 123.098 10.064 123.483 10.472C123.868 10.8573 124.061 11.3787 124.061 12.036V32.164C124.061 32.7987 123.88 33.2973 123.517 33.66C123.154 34.0227 122.678 34.204 122.089 34.204C121.5 34.204 121.035 34.0227 120.695 33.66C120.355 33.2973 120.185 32.7987 120.185 32.164V18.156L114.405 29.104C114.133 29.6027 113.838 29.9767 113.521 30.226C113.204 30.4527 112.83 30.566 112.399 30.566C111.968 30.566 111.594 30.4527 111.277 30.226C110.96 29.9993 110.665 29.6253 110.393 29.104L104.579 18.326V32.164C104.579 32.776 104.398 33.2747 104.035 33.66C103.695 34.0227 103.23 34.204 102.641 34.204C102.052 34.204 101.587 34.0227 101.247 33.66C100.907 33.2973 100.737 32.7987 100.737 32.164V12.036C100.737 11.3787 100.918 10.8573 101.281 10.472C101.666 10.064 102.176 9.86 102.811 9.86C103.695 9.86 104.386 10.3473 104.885 11.322L112.433 25.704L119.947 11.322C120.446 10.3473 121.114 9.86 121.953 9.86ZM139.933 34.306C137.598 34.306 135.57 33.8073 133.847 32.81C132.147 31.8127 130.832 30.3847 129.903 28.526C128.974 26.6673 128.509 24.4913 128.509 21.998C128.509 19.5047 128.962 17.34 129.869 15.504C130.798 13.6453 132.124 12.2173 133.847 11.22C135.57 10.2227 137.598 9.724 139.933 9.724C142.268 9.724 144.285 10.2227 145.985 11.22C147.708 12.2173 149.022 13.6453 149.929 15.504C150.858 17.34 151.323 19.5047 151.323 21.998C151.323 24.4913 150.858 26.6673 149.929 28.526C149 30.3847 147.674 31.8127 145.951 32.81C144.251 33.8073 142.245 34.306 139.933 34.306ZM139.933 30.804C142.132 30.804 143.843 30.0447 145.067 28.526C146.314 27.0073 146.937 24.8313 146.937 21.998C146.937 19.1647 146.314 17 145.067 15.504C143.843 13.9853 142.132 13.226 139.933 13.226C137.712 13.226 135.978 13.9853 134.731 15.504C133.507 17 132.895 19.1647 132.895 21.998C132.895 24.8313 133.507 27.0073 134.731 28.526C135.978 30.0447 137.712 30.804 139.933 30.804ZM174.929 31.246C175.201 31.654 175.337 32.0507 175.337 32.436C175.337 32.9573 175.122 33.388 174.691 33.728C174.283 34.068 173.796 34.238 173.229 34.238C172.866 34.238 172.515 34.1587 172.175 34C171.858 33.8187 171.586 33.558 171.359 33.218L166.837 26.35C166.384 25.6247 165.896 25.1147 165.375 24.82C164.876 24.5253 164.219 24.378 163.403 24.378H160.071V31.994C160.071 32.674 159.878 33.218 159.493 33.626C159.108 34.0113 158.586 34.204 157.929 34.204C157.272 34.204 156.739 34.0113 156.331 33.626C155.946 33.218 155.753 32.674 155.753 31.994V12.104C155.753 11.4467 155.934 10.9367 156.297 10.574C156.682 10.2113 157.204 10.03 157.861 10.03H166.361C169.081 10.03 171.144 10.642 172.549 11.866C173.977 13.0673 174.691 14.8127 174.691 17.102C174.691 18.9607 174.158 20.4907 173.093 21.692C172.05 22.8707 170.566 23.63 168.639 23.97C169.296 24.1287 169.874 24.412 170.373 24.82C170.872 25.228 171.359 25.7947 171.835 26.52L174.929 31.246ZM165.749 21.012C167.404 21.012 168.616 20.706 169.387 20.094C170.158 19.4593 170.543 18.496 170.543 17.204C170.543 15.8893 170.158 14.9373 169.387 14.348C168.616 13.736 167.404 13.43 165.749 13.43H160.037V21.012H165.749ZM181.502 34C180.844 34 180.323 33.8187 179.938 33.456C179.575 33.0933 179.394 32.5833 179.394 31.926V12.104C179.394 11.4467 179.575 10.9367 179.938 10.574C180.323 10.2113 180.844 10.03 181.502 10.03H193.776C194.433 10.03 194.943 10.1773 195.306 10.472C195.668 10.7667 195.85 11.186 195.85 11.73C195.85 12.2967 195.668 12.7387 195.306 13.056C194.943 13.3507 194.433 13.498 193.776 13.498H183.678V20.094H193.096C193.753 20.094 194.263 20.2413 194.626 20.536C194.988 20.8307 195.17 21.2613 195.17 21.828C195.17 22.372 194.988 22.7913 194.626 23.086C194.263 23.3807 193.753 23.528 193.096 23.528H183.678V30.532H193.776C194.433 30.532 194.943 30.6907 195.306 31.008C195.668 31.3027 195.85 31.7333 195.85 32.3C195.85 32.844 195.668 33.2633 195.306 33.558C194.943 33.8527 194.433 34 193.776 34H181.502Z" fill="black"/>
</svg>
