<svg width="32" height="65" viewBox="0 0 32 65" fill="none" xmlns="http://www.w3.org/2000/svg">
<path d="M29.7644 45.168C30.0844 45.52 30.2444 45.92 30.2444 46.368C30.2444 46.88 30.0524 47.312 29.6684 47.664C29.2844 48.016 28.8364 48.192 28.3244 48.192C27.8124 48.192 27.3484 47.968 26.9324 47.52L15.9884 33.552L4.99638 47.52C4.64438 47.968 4.18038 48.192 3.60438 48.192C3.12438 48.192 2.69238 48.016 2.30838 47.664C1.92438 47.28 1.73238 46.848 1.73238 46.368C1.73238 45.888 1.87638 45.488 2.16438 45.168L13.6844 30.72L2.78838 16.992C2.46838 16.64 2.30838 16.224 2.30838 15.744C2.30838 15.264 2.48438 14.848 2.83638 14.496C3.22038 14.144 3.65238 13.968 4.13238 13.968C4.67638 13.968 5.14038 14.208 5.52438 14.688L15.9884 27.936L26.4044 14.688C26.7884 14.208 27.2524 13.968 27.7964 13.968C28.2764 13.968 28.7084 14.16 29.0924 14.544C29.4764 14.896 29.6684 15.328 29.6684 15.84C29.6684 16.288 29.5244 16.672 29.2364 16.992L18.2924 30.72L29.7644 45.168Z" fill="black"/>
</svg>
